<svg id="Layer_1" enable-background="new 0 0 38 38" height="512" viewBox="0 0 38 38" width="512" xmlns="http://www.w3.org/2000/svg"><g id="_x38_"><g><g><path d="m26.2344608 13.4259596c-.1155643 1.5935612-.7090225 3.8608217-1.1817436 5.3691835-.0588455.1885262-.2582588.293066-.4476261.2335529-.6848335-.2171307-2.2248001-.7924862-2.9771442-1.7747307-.2177315-.2834225-.4865589-.5242672-.7949142-.7036839-.029192-.0170307-.0589924-.0340614-.0894032-.0498753-.3247833-.1721191-.7085609-.3284225-1.0017109-.3071365 0 0 .0316277-.0699444.07967-.1788158.0784607-.1757622.2000999-.4537144.3053188-.7036839.0571747-.1368446.109478-.2651739.1471863-.3643112.0085163-.0225029.0170307-.044404.0267639-.0662909.3205242-.7712011 1.0777302-1.3295317 1.4177113-1.7583084.3497143-.4409447.866684-2.2655449.2888947-3.9380951-.5212231-1.5101576-.4731731-4.4064126 1.5423946-5.8399367.1660366-.1179945.3454609-.2262559.5388718-.3229501.0837402-.0409622.1772442.0226042.1745453.1125081-.0243225.6331456-.0401363 2.6328998.6179333 3.9368844.7906664 1.566115 1.5205076 4.0445295 1.3532522 6.3556896z" fill="#4c5c75"/></g><g><path d="m26.2341919 13.425972c-.1356277 1.873868-.8983116 4.4587173-1.1817284 5.3691902-.0383244.1222496-.1356277.2086086-.2505856.2390194-.0024357.0006084-.0042534.0012169-.0066814.0018272-.604044-.880455-.8882675-2.3452797-.9795628-2.9100533-.0208702-.1291056-.1001606-.240551-.2142944-.3044052-.7930965-.443716-.2749348-2.1284342.0480022-2.8973427.3448448-.8210707.1216412-3.2739458-.010334-4.2269897-.1313801-.953052-.3953304-1.9359055-.0912304-3.4162621.2177258-1.0600958.4877702-1.8866298.6234055-2.2691898.0522976.0133786.0936584.0608199.0918388.12164-.0243378.6331308-.0401516 2.6329.6179256 3.936877.7906591 1.5661144 1.5205003 4.0445299 1.3532449 6.355689z" fill="#ffb961"/></g><g><path d="m26.2341919 13.425972c-.1356277 1.873868-.8983116 4.4587173-1.1817284 5.3691902-.0383244.1222496-.1356277.2086086-.2505856.2390194-.3272038-.9408836-.2481422-3.1510878-.5899506-3.6771746-.3953304-.6082001-.0152054-1.0643501.2584839-2.5848494.2736912-1.5205002-.0912285-4.2573996-.2992287-5.9451547-.2080154-1.6877551 0-3.815237 0-3.815237.0522976.0133786.0936584.0608199.0918388.12164-.0243378.6331308-.0401516 2.6329.6179256 3.936877.7906592 1.5661145 1.5205004 4.04453 1.353245 6.3556891z" fill="#ffd475"/></g><g><path d="m22.9997883 7.8153276c.4774284 3.4259882.1605587 8.4910784-3.1784534 8.1991472.1210308-.27248.3472805-.7888412.4524975-1.0680027.3041-.8058653 1.0947609-1.3836546 1.4444752-1.8246002.3497143-.4409447.866684-2.2655449.2888947-3.9380941-.5212307-1.5101652-.4731808-4.4064059 1.5423946-5.8399372-.3576223.6738901-.8770276 2.1189742-.5498086 4.471487z" fill="#31445b"/></g><g><path d="m18.2579098 16.1926613c-.2931499-.021286-.6769199.1350174-1.0017033.3071365-.3460636.1836758-.6459084.44277-.884325.7535667-.7523365.9822369-2.2923031 1.5575924-2.9771366 1.7747231-.1895618.0595665-.3888569-.0452843-.4476337-.2335529-.4753437-1.5237255-1.0655079-3.7669649-1.181736-5.3691845-.1672554-2.3111591.5625849-4.7895737 1.3532448-6.355689.6580763-1.3039846.6422625-3.3037386.6179333-3.9368844-.0026884-.0899036.0908117-.1534698.1745529-.1125081.1934032.0967019.3728266.2049558.5388718.3229504 2.0155678 1.4335239 2.0636177 4.3297796 1.542387 5.8399372-.5777903 1.6725502-.0608206 3.4971495.2888947 3.9380951.3622608.4571228 1.1447887 1.0204067 1.4444752 1.8245993.1364172.3619401.4512136 1.0633217.5321749 1.2468106z" fill="#4c5c75"/></g><g><path d="m11.7652626 13.4255247c.1356268 1.873867.8983116 4.4587164 1.1817274 5.3691912.0383244.1222477.1356277.2086086.2505856.2390175.0024357.0006084.0042543.0012169.0066824.0018272.6040449-.880455.8882675-2.3452797.9795628-2.9100533.0208702-.1291056.1001606-.240551.2142935-.3044052.7930975-.443716.2749348-2.1284332-.0480022-2.8973427-.3448448-.8210697-.1216402-3.2739449.010335-4.2269897.1313801-.953052.3953295-1.935905.0912294-3.4162617-.2177258-1.0600958-.4877701-1.8866301-.6234045-2.2691901-.0522976.0133786-.0936584.0608199-.0918388.12164.0243368.6331308.0401506 2.6328998-.6179256 3.9368768-.7906601 1.5661154-1.5205004 4.0445299-1.353245 6.35569z" fill="#ffb961"/></g><g><path d="m11.7652626 13.4255247c.1356268 1.873867.8983116 4.4587164 1.1817274 5.3691912.0383244.1222477.1356277.2086086.2505856.2390175.3272047-.9408836.2481432-3.1510868.5899515-3.6771746.3953295-.6082001.0152044-1.0643492-.2584848-2.5848494-.2736902-1.5205002.0912294-4.2573996.2992296-5.9451547.2080145-1.6877546 0-3.8152368 0-3.8152368-.0522976.0133786-.0936584.0608199-.0918388.12164.0243368.6331308.0401506 2.6328998-.6179256 3.9368768-.79066 1.5661154-1.5205003 4.0445299-1.3532449 6.35569z" fill="#ffd475"/></g><g><path d="m14.9996653 7.8148799c-.4774284 3.4259877-.1605577 8.4910774 3.1784544 8.1991463-.1210327-.27248-.3472805-.7888412-.4524975-1.0680027-.3041-.8058643-1.0947609-1.3836546-1.4444752-1.8245993-.3497152-.4409456-.8666849-2.2655449-.2888956-3.9380951.5212317-1.5101652.4731817-4.4064054-1.5423937-5.8399372.3576222.6738911.8770266 2.1189747.5498076 4.471488z" fill="#31445b"/></g><g opacity=".2"><path d="m25.2029476 18.3000755c-.0577831.1952286-.1088696.3630924-.1502304.4950676-.0588455.1885262-.2582588.293066-.4476261.2335529-.6848335-.2171307-2.2248001-.7924862-2.9771442-1.7747307-.2177315-.2834225-.4865589-.5242672-.7949142-.7036839-.2262478-.4366894-.5127144-.9208145-.7061253-1.2395115.0571747-.1368446.109478-.2651739.1471863-.3643112.0085163-.0225029.0170307-.044404.0267639-.0662909.825325.2323286 3.5263423 1.1440193 4.90209 3.4199077z" fill="#111d33"/></g><g opacity=".2"><path d="m18.2579098 16.1926613c-.2931499-.021286-.6769199.1350174-1.0017033.3071365-.3460636.1836758-.6459084.44277-.884325.7535667-.7523365.9822369-2.2923031 1.5575924-2.9771366 1.7747231-.1895618.0595665-.3888569-.0452843-.4476337-.2335529-.0413609-.1325836-.0924482-.3004475-.1508331-.4968948 1.4797478-2.4632101 4.2184734-3.3688211 4.8437061-3.5476351.0797786.1580505.0491771.1536569.6179256 1.4426565z" fill="#111d33"/></g><g><path d="m23.5127583 27.247303c-.5645828 1.2041912-1.793232-.0473137-2.1439037.9427109-.3497162.9883232.3497143 2.265543-.5321751 2.7064896-.8818913.4409447-1.0491467.0456142-1.8398056 0-.7851887.0468235-.9542694.4391174-1.833725-.0006104-.8818893-.4409447-.1824589-1.7181644-.5321751-2.7064896-.2305088-.6507778-.843565-.3320808-1.3958149-.3819504-.2858515-.0261555-.5558958-.1508331-.7480888-.5607586-1.1932955-2.5478458-1.6214781-5.2963142-1.4681883-8.1973209.0127544-.251646.0627069-.3891983.0881863-.4932499.0449972-.1482182.075038-.1997967.1204224-.3004475 0-.0006084.0006084-.0018253.0012169-.0024338v-.0006084c.0942745-.1891499.2189512-.3637028.3710012-.5151443 1.1282063-1.1251698 2.1718864-1.7972336 3.0349178-2.196825 1.4329243-.6641502 2.3683281-.5796089 2.3683281-.5796089.0717716-.0048628.7687721-.0407524 1.8422394.3624849.9475803.3551865 2.1895199 1.0521879 3.5549259 2.4145575.15205.1514416.2767334.3259869.3710079.5151443v.0006084c.0006084.0006084.0012169.0018253.0012169.0024357.1121445.2487049.1923084.4723701.2086086.7936954.1532402 2.9005757-.2747116 5.6490727-1.4681949 8.197321z" fill="#dba660"/></g><g><path d="m21.3604507 18.0367069c-.3918667.3377857-.6097813 1.1351738-.6895828 1.4857426-.0209579.092062-.1081448.1539459-.2018127.1420746-.8218536-.1041565-1.4284668.3509865-1.7002163.6095314-.080225.0763264-.2084465.0650272-.2749805-.0234871-.3579254-.476181-1.0360184-.6376095-1.3266373-.6864681-.0795898-.013382-.137886-.0784512-.1488209-.1584129-.0794849-.581316-.5649452-1.1466751-.8149071-1.4039421-.0735569-.0757065-.0679779-.1951447.0089378-.267437.5511608-.5180206.5139656-1.5439892.4221954-2.1936436 1.5950165-.7392788 2.8272247-.736763 4.2105675-.217124-.1681023.9255915.2456303 2.0843363.5397663 2.4661226.057993.0752754.0474664.1850033-.0245094.2470436z" fill="#ffde9b"/></g><g><path d="m21.0063686 17.9822903c-.3379517.2913132-.5258865.9789925-.5947094 1.2813301-.0180721.0793953-.0932636.1327648-.1740456.1225281-.7087803-.0898266-1.2319317.3026962-1.4662952.525671-.0691872.0658245-.1797676.0560799-.2371464-.0202579-.3086815-.4106655-.8934803-.5498848-1.1441154-.5920219-.0686398-.0115395-.1189156-.0676556-.1283455-.1366177-.0685482-.5013351-.4872169-.9889107-.7027893-1.210783-.0634365-.0652885-.0586262-.1682968.0077076-.2306404.4753304-.4467506.4432526-1.3315639.364109-1.8918362 1.3755684-.6375666 2.4382458-.635397 3.6312637-.187252-.1449738.7982464.2118359 1.7975674.4655037 2.1268272.0500146.0649165.0409356.1595477-.0211372.2130527z" fill="#31445b"/></g><g><path d="m16.1514034 16.1543427s-1.1333675.6062508-2.3353777 1.7130966c-.290225.2672482-.4358253.565176-.5019398.9541225-.1039419.6114807-.2189569 1.5552063-.1195536 2.3504314 0 0 .1017761-.6841927.4390717-1.2114754.0886087-.1385212.2845564-.1559238.3994932-.0383282.2309666.2363129.7375803.6161633 1.7375765.8395538 1.4857635.3319054 2.6187496 1.038866 2.9972897 1.296772.0808678.0550957.1877232.051033.2643566-.0098133.3407307-.2705307 1.3417244-.97995 2.7409878-1.2264252 1.1763229-.2072048 1.9512081-.6213627 2.3308792-.8688946.1386986-.0904274.3243809-.0421295.4009857.1046581.1950436.3737411.2280083.5182724.268589.7034168.15205-.6968956.2990303-2.2016754-.7044983-3.10182 0 0-1.3694019-1.3500614-2.5915833-1.7181644l.5427761 2.0024815c.0160942.0835361-.0076885.1694546-.0638924.2333183-.1901588.2160759-.5657578.8707905-.8906841 1.7341213-.0355186.0943699-.1202126.1610508-.2200775.1749878-.3246708.045311-1.3146935.1058331-1.9460945.7834549-.0965137.1035786-.2551441.1174011-.3674831.0312443-.3182354-.2440662-.9862919-.6889133-1.7868462-.8337612-.1180077-.0213509-.2110901-.1121998-.2292061-.2307491-.0479202-.313591-.2380657-.9547939-.9809752-1.6236992-.099308-.0894165-.1171961-.2390499-.0439291-.3508053.240904-.3674582.7057497-1.3047903.6601354-1.7077234z" fill="#aa6256"/></g><g><path d="m24.8051834 22.9321194c-.3296471 1.9705696-.7468643 3.1498699-1.2924252 4.3151836-.5531769 1.1810398-1.7957687-.0283451-2.1426868.9396667-.0006084.0012169-.0006084.0018253-.0012169.0030441-.3497162.9883232.3497143 2.265543-.5321751 2.7064896-.8818913.4409447-1.0491467.0456142-1.8398056 0-.7851887.0468235-.9542694.4391174-1.833725-.0006104-.8818893-.4409447-.1824589-1.7181644-.5321751-2.7064896-.1663284-.4658012-.5129356-.434864-.9712925-.3935108-.1404982.0133858-.2846336.0243378-.4245224.0115604-.0857515-.0079079-.1702995-.0249386-.2517958-.0553493l-.0018187-.0012169c-.1885481-.0711536-.3606663-.2183418-.4944744-.5041924-.5455542-1.1653137-.9627781-2.344614-1.2924252-4.3151836.0833302-.4458084.2049704-.9323673.3114052-1.3246613 0-.0012093 0-.0018177 0-.0018177.0711546-.2621307.1356277-.4823074.1763725-.6197605.0206842-.0693283.1064348-.0900116.1581373-.0401363.7255793.7061195 1.5995617.7109833 2.6815443.9998779 1.1105747.2968006 2.4182034 1.3191814 2.4784145 1.3666229.080286-.0632477 1.3751469-1.07164 2.4772053-1.3660145 1.0819817-.2888947 1.9559727-.2937584 2.681551-.9998779.0517025-.0498753.1374531-.029192.1581383.0401363.0407448.137455.105217.3576298.1763725.6197605v.0018177c.1064341.3922941.2280753.878855.3113978 1.3246615z" fill="#31445b"/></g><g opacity=".2"><path d="m22.9349689 27.7788696c-.5845451.1524754-1.3096447-.3041363-1.5648975.4081001l-.2049637.0170307-1.6895809-3.5610065z" fill="#111d33"/></g><g><path d="m21.3688545 28.1900139c-.3497162.9883232.3497143 2.265543-.5321751 2.7064896-.8853474.4417801-1.0454884.0455742-1.8398056 0-.7865658.0464325-.9504719.4401264-1.833725-.0006104-.8818893-.4409447-.1824589-1.7181644-.5321751-2.7064896-.0377007-.1064339-.0857506-.1867142-.1417065-.2469254.3862057-.5261021.7207146-1.421978 1.286953-2.3044777.7115898-1.1075287.8983803-1.0993671 1.2235069-1.1259766.3584995.0203648.5278511-.0278587 1.2238884 1.126585.5413952.8979568.9007473 1.7783775 1.2869453 2.304472-.0559481.0602189-.1039999.1404973-.1417063.2469331z" fill="#4c5c75"/></g><g opacity=".5"><path d="m20.4766216 29.2440205c-.210434.3284302-.3059196 1.156189-.3491058 1.859272-.3477707.0038471-.6280918-.1779785-1.1306419-.206789-.4583988.0273304-.7940197.2098351-1.1245613.2061806-.0431805-.703083-.1386642-1.5308418-.3491058-1.859272-.3953304-.6179256-.15205-.7602501.3241673-.993187.4762249-.2329388.5881329-1.5813198.6386108-2.4735527.0377159-.6617222.2260494-.7324734.5137424-.7324734.2495518 0 .4770164.0744038.5141163.7330818.050478.8922329.1623917 2.2406139.6386108 2.4735527.4762172.2329369.7194977.3752613.3241672.993187z" fill="#8b95af"/></g><g><path d="m20.1524544 28.2508335c-.4762192-.2329388-.5881329-1.5813198-.6386108-2.4735527-.0370998-.6586781-.2645645-.7330837-.5141106-.7330837-.0030155 0-.0059547.0000591-.0089397.0000744v5.8527584c.0021095-.0001335.0039654-.0004005.0060806-.0005264.4618721.0264778.7896156.2105598 1.1306419.206789.0431862-.703083.1386719-1.5308418.3491058-1.859272.3953305-.6179257.15205-.7602501-.3241672-.993187z" fill="#31445b"/></g><g><path d="m26.5063248 34.4903526c.0553226.1389885-.0417118.2905006-.1928101.2986298l-4.2507038.2031364c-.1200104.0055466-.2398796-.0624962-.2895031-.194622-.2317276-.65625-.782753-2.8700981.6884861-6.3216324.0924473-.2177334.1934032-.4403362.3028831-.6678028.3313675-.0314217.5744667-.190918.7480812-.5607586 1.0264912-2.1916981 1.5619774-4.7074661 1.4925251-7.5544567-.0133457-.5800056-.0210133-.8407497-.1112976-1.13307.1459618.3843803.3892422 1.0953693.5479889 1.9255562.0188503.0967102.0364819.1952305.0522957.2949829.2116528 1.3167477.6872692 2.724123 1.4231968 3.5792484.0577774.0675163.0881863.1526585.0869694.2390251-.0203667.8954068-2.0468464 5.9654694-.4981117 9.8917637z" fill="#ffd475"/></g><g><path d="m27.0044365 24.5985889-.5376549.1112976-1.0241985-1.7941895-.445816-1.8829842c.0194664-.4829082.0182495-.9408836.0085163-1.3398666-.0133457-.5800056-.0210133-.8407497-.1112976-1.13307.1629925.4293861.4470177 1.2656612.6002846 2.2205391.2116528 1.3167477.6872692 2.724123 1.4231968 3.5792484.0577773.0675165.0881862.1526586.0869693.2390252z" fill="#ffb961"/></g><g><path d="m26.4929447 34.6795044c-.0352802.0614281-.1003609.1052246-.17943.109478l-4.2507038.2031364c-.1185951.0054779-.2274647-.0608215-.2779503-.1666451l.9110813-1.0534058 2.79772.1113052z" fill="#ffb961"/></g><g><path d="m25.4986324 34.1120605-3.0400372.2009926c-.1737251.0114861-.3280907-.1110573-.3550034-.2830658-.1339645-.8562546-.3771305-3.4179516.868824-6.2626572.206789-.0644722.3953285-.2116528.540081-.5200138 1.1131744-2.3767757 1.5572968-4.9412556 1.4925251-7.5544491 0 0 .3320751.9858894.3320751 1.8525734 0 .7832699.6209469 2.3240929 1.1108532 2.8266869.0884132.090704.1229267.2202396.0893555.3423767-.3020725 1.0989532-1.57728 6.0722027-.7929363 9.0558968.0436402.1660042-.0744666.3303337-.245737.3416595z" fill="#aa6256"/></g><g><path d="m24.8918896 22.3476543c-.0201225.1639671-.0449162.3370171-.0869675.584486-.0833225-.445816-.2049637-.932375-.3113976-1.3246613 0-.0012169 0-.0018272 0-.0018272-.0711632-.2621365-.1356277-.4822979-.1763802-.619751-.0206757-.0693436-.1064358-.0900135-.1581306-.040144-.7255859.7061195-1.5995617.7109833-2.681551.9998779-1.137331.3041-2.4808502 1.3684502-2.4808502 1.3684502v-.6130638s1.1251698-.790659 2.3415699-1.0795555c1.1488914-.2730808 2.4334087-.681181 2.9181423-1.2766094.0389252-.0474415.1131306-.0413609.1398888.0139866.2730103.5917683.4236107 1.3187828.4932499 1.9693508.0012093.0060807.0018177.0127698.0024262.0194607z" fill="#ffd475"/></g><g opacity=".6"><path d="m19.8176823 24.1759071s-.0810928-.1317768.202734-.5879269 1.4394054-1.6624146 2.4023895-1.6624146c.9629822 0 1.4044247.4156017 1.8476563.1317768.1439648 0 .1439648.3851967 0 .3851967 0 0-.3068829.1153965-.7934437-.0690117-.4865589-.1844082-1.4292698-.214817-1.9563751.190649-.5271073.4054662-1.4394074 1.8550092-1.702961 1.6117307z" fill="#ffd475"/></g><g><path d="m20.091383 24.6563263c-.0758343-.0252724-.0916061-.1259995-.0257187-.1712608.1859074-.1277065.4717464-.3573475.6744556-.6740799.3243732-.5068321 1.2569466-1.2569466 2.1996555-1.1150322.9427109.1419125 1.0699139.3750534 1.3306866.1115055.1439648 0 .1439648.6487427 0 .6487427 0 0-.2562008-.0912285-.37784.2432804-.1216393.3345108-.5879269 1.3684502-1.145443 1.5711842s-1.601593.1925964-1.9867859-.202734c-.2254562-.2313863-.489109-.3516522-.6690101-.4116059z" fill="#ffd475"/></g><g><path d="m20.6677513 24.5888653c-.0459175-.0742722-.0432301-.1686726.0105057-.2374992.2242355-.2872143.9055538-1.0539055 1.866188-1.1688538 1.1859913-.1419125 1.0846233.1723232.9933929.3851948-.0912285.2128696-.3750553.9528465-.7602482 1.196125-.3677787.2322807-1.5862273.6720028-2.1098384-.1749668z" fill="#bf7d5a"/></g><g><path d="m23.5376968 23.5676937c-.0912304.2128696-.3746529.9530525-.7602501 1.196331-.0735893.0468254-.1818504.1015644-.3113976.1526604.3320751-.2955933.5735359-.9226513.6562424-1.1160545.0912304-.2128696.1928024-.5266953-.9931889-.3849869-.2353725.0285835-.4537144.0954838-.6525974.1854954.2949772-.2000999.6556416-.369173 1.067997-.4184341 1.1859894-.1423245 1.084425.1721191.9931946.3849887z" fill="#aa6256"/></g><g><path d="m24.8049221 22.9321404c-.3296394 1.970562-.7468719 3.1498623-1.2924252 4.315176-.2570152.5482025-.6335392.6005383-1.1726112.5492058-.1818504-.403244-.4379005-1.0789452-.3491058-1.5223255.083931-.4154053.4318275-.5777912.8478279-.6355667.4154053-.0571747 1.1653194-.5607662 1.5204983-1.598959.3472881-1.0169086.1435432-2.3750248.1344185-2.4321918.1064338.3922862.228075.8788451.3113975 1.3246612z" fill="#1d2943"/></g><g><path d="m16.2265282 34.7968903c-.0435371.123703-.1623383.200367-.2895041.1946182l-4.2507105-.2031364c-.1519947-.0080528-.2474365-.1607094-.1928024-.2986259 1.1551924-2.9286022.4018841-6.3054829-.4871683-9.812088-.0275412-.1089783-.0025768-.226347.076025-.3187027.7359276-.8551254 1.2115364-2.2625008 1.4231892-3.5792484.1212311-.7532768.3462362-1.5526371.6002932-2.2205391-.0988836.3201103-.0989323.5960464-.1113052 1.13307-.0699167 2.8929844.4828262 5.398613 1.4925251 7.5544567.1447592.3083534.333292.4555416.5400887.5200062.067502.0212936.137454.0340633.2080002.0407524.069335.1447525.1356268.287075.1976652.4275665 1.6020039 3.58959 1.030896 5.8904151.7937039 6.5618705z" fill="#ffde9b"/></g><g><path d="m13.0723963 22.0380688c-.0510864.3326836-.0845337.5528526-.0845337.5528526l-1.3410835 1.9213009h-.6422625c.0127773-.0559502.0395412-.1082535.0778513-.1532669.7359276-.8551254 1.2115364-2.2625008 1.4231892-3.5792484.1532679-.9548779.4372997-1.791153.6002932-2.2205391-.0988836.3201103-.0989323.5960464-.1113052 1.13307-.0164157.6696281-.0078994 1.507122.0778512 2.3458309z" fill="#ffd475"/></g><g><path d="m16.176651 34.885685c-.0577755.0693359-.1453533.1100883-.2396269.1058235l-4.2507105-.2031364c-.0802794-.0042534-.1459694-.0492592-.1806412-.1119041l.8928404-.7626877 3.2520514.1319771z" fill="#ffd475"/></g><g><path d="m15.8956633 34.029335c-.0267649.172123-.1812429.2949829-.354578.2834282l-3.040391-.2013168c-.170908-.0109444-.2895041-.1757698-.2457151-.341198.7845793-2.9838333-.4908218-7.9570789-.7930956-9.0560989-.0334539-.1222496.0012178-.2517967.0894041-.3424168.4902124-.5023746 1.1111822-2.0435505 1.1111822-2.8269138 0-.8561649.3124399-1.7867126.3326836-1.8896732-.0161772 1.0558128-.0010538 2.030304.1690817 3.0908699.3345098 2.0830841.7602501 3.2994843 1.322835 4.500679.1447592.3083534.333292.4555416.5400887.5200062.071764.1636105.1380558.3266106.2000933.4877777 1.0181263 2.6462783.7949131 4.967781.6684111 5.7748565z" fill="#aa6256"/></g><g><path d="m25.7955341 28.1358814c.1494961-.9239101.3298492-1.7633629.4818993-2.4023895h-2.1490574c-.185112.5440769-.3893909 1.0302353-.6158772 1.5138187-.1447525.3083611-.333292.4555416-.5400829.5200138-.0540924.1235104-.104393.2462349-.1530075.368557z" fill="#4c5c75"/></g><g><path d="m25.6011372 33.0623016c-.1461029-.9687691-.1300678-2.0743828-.0313759-3.1626396h-3.2937965c-.2815151 1.2614498-.310791 2.3696938-.2696228 3.1626396z" fill="#4c5c75"/></g><g><path d="m24.5950966 24.0305328h1.5930805c-.4248199-.6676693-.851078-1.8361301-.851078-2.485096 0-.8666859-.3320751-1.8525753-.3320751-1.8525753.0419445 1.6922627-.0911217 2.8730012-.4099274 4.3376713z" fill="#4c5c75"/></g><g><path d="m12.3982458 33.0623016h3.5948467c.0411901-.792881.0119677-1.901144-.2695026-3.1626396h-3.2938576c.0986691 1.0882702.1146765 2.1939011-.0314865 3.1626396z" fill="#4c5c75"/></g><g><path d="m15.1802187 28.1358814c-.0486593-.1224709-.0990181-.2453423-.1531782-.3690033-.20679-.0644722-.3953304-.2116508-.540082-.5200138-.2264271-.483448-.4306479-.9694805-.6157207-1.5133724h-2.1491022c.15205.6390705.332387 1.4785233.4818678 2.4023895z" fill="#4c5c75"/></g><g><path d="m13.4044561 24.0305328c-.4057636-1.8639717-.4103584-2.7161198-.4091396-4.3752613 0 0-.3329582 1.023035-.3329582 1.889719 0 .6491089-.426445 1.817955-.8513613 2.4855423z" fill="#4c5c75"/></g><g><path d="m13.107564 22.3472061c.0201235.163969.0449171.3370171.0869684.584486.0833225-.445816.2049627-.932375.3113976-1.3246613 0-.0012169 0-.0018253 0-.0018253.0711622-.2621384.1356277-.4822998.1763792-.6197529.0206776-.0693436.1064358-.0900116.1581306-.040144.7255859.7061195 1.5995617.7109833 2.6815519.9998779 1.137331.3041 2.4808502 1.3684502 2.4808502 1.3684502v-.6130637s-1.1251698-.790659-2.3415699-1.0795536c-1.1488905-.2730827-2.4334087-.681181-2.9181423-1.2766113-.0389261-.0474415-.1131315-.0413609-.1398888.0139866-.275053.5961952-.4239397 1.3218498-.4932499 1.9693527-.0012101.0060806-.0018186.0127696-.002427.0194587z" fill="#ffde9b"/></g><g opacity=".6"><path d="m18.1817722 24.1754589s.0810928-.1317768-.202734-.5879269-1.4394073-1.6624126-2.4023895-1.6624126-1.4044218.4156017-1.8476534.1317768c-.2171392 0-.2171392.3851891 0 .3851891 0 0 .30688.1154022.7934399-.069006s1.4292698-.214817 1.9563761.190649c.5271072.4054661 1.4394073 1.8550091 1.7029609 1.6117306z" fill="#ffde9b"/></g><g><path d="m17.9080696 24.65588c.0758362-.0252743.0916061-.1260014.0257187-.1712608-.1859055-.1277084-.4717445-.3573494-.6744537-.6740818-.3243732-.5068321-1.2569466-1.2569447-2.1996565-1.1150322s-1.069911.3750553-1.3306828.1114998c-.2171392 0-.2171392.6487522 0 .6487522 0 0 .256197-.0912323.3778362.2432785.1216402.3345089.5879269 1.3684483 1.1454439 1.5711823.5575161.202734 1.601593.1925964 1.9867859-.202734.2254544-.2313863.4891091-.3516503.6690083-.411604z" fill="#ffde9b"/></g><g><path d="m17.3317032 24.588419c.0459175-.0742741.0432281-.1686745-.0105076-.2375011-.2242336-.2872143-.9055519-1.0539055-1.8661871-1.1688538-1.1859903-.1419125-1.0846233.1723251-.9933929.3851948.0912294.2128696.3750563.9528465.7602491 1.1961269.3677788.2322807 1.5862274.6720009 2.1098385-.1749668z" fill="#dba660"/></g><g><path d="m14.8465176 23.815836c.0784607.1830692.2992373.7541695.6039467 1.0661774-.0930567-.0407524-.170908-.0821133-.2286844-.118597-.3849955-.2432804-.6690197-.9834614-.7602501-1.196331-.0912294-.2128716-.1928015-.5267048.9931879-.3849888.4774361.0571671.8855362.2749081 1.203022.5151443-.2414608-.1301556-.5157604-.2305107-.8174248-.2670021-1.1859904-.1417065-1.0850268.1727275-.9937973.3855972z" fill="#bf7d5a"/></g><g><path d="m19.8167343 31.0649681c-.6609612-.1586246-.7273808-.2531013-1.4444752-.0510788-.0650826.01824-.1271191.0358734-.1891575.0504704-.033453-.1453533-.1143341-.6653671-.1331921-.9086475-.0219021-.2846336.9433193-.2840252.9433193-.2840252.3016644-.0097332.9408836.0693283.9566975.2846336.0170308.2432804-.0997466.7632942-.133192.9086475z" fill="#1d2943"/></g><g><path d="m13.1945324 22.9316921c.3296394 1.970562.746871 3.1498623 1.2924242 4.315176.1921864.4099255.4622307.5346107.7480888.5607586.1398821.0127697.2840252.0018253.4245224-.0115528.1818514-.403244.4379015-1.0789452.3491068-1.5223255-.0839319-.4154053-.4318285-.5777912-.8478279-.6355667-.4154053-.0571747-1.1653204-.5607662-1.5204992-1.598959-.3472872-1.0169086-.1435423-2.3750248-.1344175-2.4321918-.1064349.3922863-.2280751.8788452-.3113976 1.3246612z" fill="#1d2943"/></g><g opacity=".2"><path d="m18.484766 24.7098866-1.9261627 3.3250332c-.1917477-.3176384-.5359154-.2717781-.898922-.239027-.1404982.0133858-.2846336.0243378-.4245224.0115604-.0857515-.0079079-.1702995-.0249386-.2517958-.0553493l-.0018187-.0012169z" fill="#111d33"/></g><g opacity=".2"><path d="m15.4328241 28.2350197c-.0596027.0085144-.1259022.0212841-.2055721.0194588-.1812429-.0042534-.4293852-.0833225-.8162069-.4470253-1.0169086-.9554806-1.2741766-3.5233059-1.561245-5.018259-.1767101-.9168682-.160306-2.1686859-.1082611-3.0987759.1289377-.4798698.2676096-.8770256.3643112-1.1312504-.0988836.3201103-.0989323.5960464-.1113052 1.13307-.0699167 2.8929844.4828262 5.398613 1.4925251 7.5544567.1447592.3083534.333292.4555416.5400887.5200062.067502.0212936.137454.0340633.2080002.0407524.0693349.1447525.1356267.287075.1976651.4275665z" fill="#111d33"/></g><g opacity=".2"><path d="m25.4419746 20.4853325c-.0590019.945755-.2019272 2.3385258-.5479889 3.7173176-.609417 2.4279366-1.2960777 3.9642506-1.8130474 4.0013504-.2116528.0152054-.4324303.1350193-.6191444.2718639.0924473-.2177334.1934032-.4403362.3028831-.6678028.3313675-.0314217.5744667-.190918.7480812-.5607586 1.0264912-2.1916981 1.5619774-4.7074661 1.4925251-7.5544567-.0133457-.5800056-.0210133-.8407497-.1112976-1.13307.1459618.3843803.3892422 1.0953693.5479889 1.9255562z" fill="#111d33"/></g></g><g><g><path d="m24.8456402 10.4989138c-.1302528-.4007921-.2375221-.8589401-.1584778-1.1215343.0763474-.2630281.400877-.1066751.6038551.4987526.2023582.6056232.1491795 1.2170153.0031776 1.2744017-.1485481.0633849-.3127631-.2565824-.4485549-.65162z" fill="#fff"/></g><g><path d="m25.6039486 13.5006113c-.181572 1.0568848-.6717968 1.392622-.7789764 1.0479393-.1130848-.3365402.0271797-.974534.1243134-1.6014633.1138096-.6193686.2096672-1.2300901.3992805-1.2999821.1826419-.0857744.4349365.7900505.2553825 1.8535061z" fill="#fff"/></g></g></g></svg>