<?xml version="1.0" encoding="UTF-8"?>
<!-- Generator: Adobe Illustrator 26.0.3, SVG Export Plug-In . SVG Version: 6.00 Build 0)  -->
<svg xmlns="http://www.w3.org/2000/svg" xmlns:xlink="http://www.w3.org/1999/xlink" version="1.1" id="Capa_1" x="0px" y="0px" viewBox="0 0 512 512" style="enable-background:new 0 0 512 512;" xml:space="preserve" width="512" height="512">
<g>
	<g>
		<g>
			<path style="fill:#002547;" d="M434.168,103.488c-14.821-13.077-41.42-11.334-58.423-4.357c-0.47,0.227-2.826,1.708-5.856,3.804     c2.042-4.863,3.487-9.345,4.115-11.214c4.355-12.207,4.355-25.287-7.852-33.136c-9.552-5.907-29.82-4.917-42.882,2.499     c-0.847-8.406-3.41-16.671-7.252-23.857C302.501,12.37,272.42-3.324,244.519,0.599c-32.263,4.796-61.476,27.903-62.786,62.346     c-0.028,0.526-0.028,1.343-0.01,2.369c-16.605-13.06-42.188-19.176-61.456-8.475c-21.264,11.058-24.276,38.298-13.101,58.232     c-15.329,4.133-27.38,16.899-19.16,34.63c0.171,0.372,0.362,0.738,0.569,1.1c-3.081,0.643-5.856,1.743-7.985,3.265     c-12.644,9.593-3.926,27.903,6.103,35.311c11.017,8.125,27.273,9.103,41.282,4.848c-6.055,11.25-11.53,22.831-15.998,34.829     c-2.476,7.724-6.03,17.425-7.74,26.596l11.814,17.437l52.026,25.284l208.977-12.786l6.64-20.069     c1.531-19.005-0.761-39.398-4.202-58.316c13.922,4.044,28.825,2.231,40.723-7.359c14.821-12.207,15.691-31.39,3.484-45.775     c-0.802-0.98-1.657-1.988-2.578-2.999c5.269-1.746,10.075-4.5,13.915-8.337C445.941,131.827,445.501,113.522,434.168,103.488z"/>
			<path style="fill:#477CFF;" d="M93.219,175.231c14.303,13.733,31.385-3.104,35.98-17.494c2.805-8.789,4.605-33.404-10.165-34.063     c-11.416-0.508-19.273,16.993-10.964,25.417c18.405,18.66,40.473-3.53,50.234-19.515c0.286-0.467-0.122-2.07-0.735-1.366     c-6.969,8.028-12.784,16.424-22.219,21.8c-5.736,3.265-12.595,2.834-18.721,1.289c-13.718-3.456-10.711-29.302,4.888-24.077     c21.848,7.319-1.162,68.478-27.926,46.962C93.069,173.765,92.885,174.909,93.219,175.231L93.219,175.231z"/>
			<path style="fill:#477CFF;" d="M213.152,77.532c-19.347,3.775-26.514,28.159-19.446,44.46c9.307,21.46,38.471,9.611,50.27-2.303     c5.085-5.138,9.473-27.4-2.387-17.404c-10.538,8.883-17.892,24.215-13.57,37.925c10.019,31.786,59.421,32.307,79.758,11.38     c5.468-5.626,16.552-29.777,6.326-35.824c-5.447-3.221-7.727,1.218-7.229,6.155c0.929,9.208,9.001,16.955,15.977,22.053     c23.76,17.371,63.799,5.667,64.192-26.77c0.018-1.432-1.504-1.861-1.82-0.329c-5.003,24.37-26.219,35.293-49.244,28.827     c-8.365-2.348-15.579-7.599-21.169-14.116c-0.633-0.881-1.266-1.761-1.897-2.642c-3.247-2.951-2.8-5.123,1.34-6.517     c1.077,3.699-0.281,9.894-1.251,13.573c-6.081,23.081-35.817,28.238-55.728,23.954c-9.544-2.052-18.578-7.063-24.207-15.15     c-8.774-12.605-1.909-26.624,6.606-36.899c1.575-1.899,3.367-3.617,5.424-4.988c0.664,2.543,1.325,5.085,1.986,7.627     c-1.376,3.431-3.456,6.366-6.241,8.809c-6.075,6.16-15.25,9.756-23.579,11.441c-32.419,6.558-32.332-47.83-4.087-52.292     C213.616,78.433,213.553,77.453,213.152,77.532L213.152,77.532z"/>
			<path style="fill:#477CFF;" d="M151.77,113.19c-6.645-0.038-13.276-0.409-18.688-4.677c-6.101-4.809-5.682-15.104,1.384-18.313     c4.291-1.948,8.924,0.273,12.199,2.93c0.526,1.613,1.054,3.226,1.58,4.842c-1.588-0.523-3.056-1.294-4.406-2.308     c-5.445-3.581-7.232-9.935-6.657-16.184c0.932-10.083,10.693-12.983,18.992-13.644c1.087-0.087,1.19-2.42,0.171-2.663     c-15.99-3.793-24.641,12.161-20.61,25.92c1.669,5.7,6.609,9.82,12.069,11.714c2.042,0.704,4.85-0.135,4.281-2.795     c-2.114-9.853-19.168-17.356-24.181-5.557c-2.481,5.843-0.909,11.497,2.619,16.59c4.534,6.548,14.54,5.243,21.274,5.19     C152.26,114.232,152.237,113.193,151.77,113.19L151.77,113.19z"/>
			<path style="fill:#477CFF;" d="M218.934,71.957c-15.178-6.839-21.874-29.823-5.062-38.517c3.285-1.697,7.005-2.384,10.65-2.672     c6.3-0.503,17.58,4.533,8.87,14.629c-7.002,3.454-9.733,0.105-8.194-10.042c0.794-2.152,1.859-4.151,3.188-6.004     c2.514-3.898,6.175-6.997,9.769-9.841c9.248-7.316,21.322-9.646,29.685,0.087c0.437,0.508,0.792-0.337,0.587-0.725     c-10.691-20.644-34.584-3.832-43.286,9.973c-3.5,5.552-4.822,12.986-1.016,18.594c3.852,5.677,10.586,1.368,12.761-3.033     c8.602-17.427-16.153-18.012-25.639-12.955c-17.961,9.58-7.507,35.094,7.569,41.246     C219.161,72.838,219.222,72.087,218.934,71.957L218.934,71.957z"/>
			<path style="fill:#477CFF;" d="M287.144,39.91c-21.976,9.08-24.113,46.847-9.373,62.834c19.089,20.705,51.947-4.557,49.92-27.834     c-0.051-0.564-0.373-1.983-1.256-1.813c-4.133,0.809-5.6,4.306-4.886,8.46c1.573,9.1,8.83,13.545,17.397,15.561     c15.895,3.747,29.762-17.999,20.335-30.918c-0.904-1.238-1.501,0.796-1.253,1.547c4.051,12.217-2.624,25.297-15.76,25.787     c-3.109-0.161-6.075-0.863-8.896-2.103c-7.852-2.872-6.683-20.807-8.238-8.807c-1.746,13.496-16.261,21.772-28.498,23.035     c-33.052,3.413-34.305-54.055-9.236-64.524C287.894,40.929,287.718,39.673,287.144,39.91L287.144,39.91z"/>
			<path style="fill:#477CFF;" d="M369.47,169.661c-11.347,4.904,2.017,29.399,13.19,19.661c4.393-3.832,6.344-9.897,6.037-15.625     c-0.166-3.102-3.421-7.765-6.356-3.487c-3.939,5.743,1.072,13.179,5.042,17.506c6.731,7.331,20.924,5.129,26.722-2.085     c7.811-9.721,5.894-39.288-11.844-35.447c-0.735,0.161-0.934,1.774-0.125,1.96c23.138,5.297,15.686,42.816-9.121,35.084     c-2.645-0.824-4.628-2.545-6.353-4.633c-0.355-0.495-0.707-0.991-1.062-1.486c-2.588-2.614-2.254-5.243,0.998-7.883     c0.814,3.17-0.638,7.102-2.07,9.863c-7.469,14.415-24.449-6.139-14.775-12.056C370.231,170.74,370.134,169.375,369.47,169.661     L369.47,169.661z"/>
			<path style="fill:#477CFF;" d="M113.069,237.291c-1.348,7.007,6.165,18.841,13.034,10.767c5.049-5.935,0.799-19.464-5.478-22.859     c-0.597-0.324-1.034,0.567-1.1,1.001c-1.46,9.812,11.74,16.756,17.955,7.793c5.042-7.267,7.428-23.821-1.708-29.062     c-0.597-0.342-0.62,0.95-0.434,1.228c5.167,7.671,6.992,23.171-2.974,28.123c-2.892,1.437-6.499,0.191-8.952-1.43     c-0.176-0.886-0.355-1.774-0.534-2.662c1.187,1.751,2.034,3.653,2.545,5.71c0.993,3.308,1.266,7.985-1.131,10.831     c-5.876,6.979-10.938-6.101-10.474-9.144C113.914,236.967,113.217,236.525,113.069,237.291L113.069,237.291z"/>
			<path style="fill:#477CFF;" d="M374.415,202.483c-12.016,3.5-24.003,20.577-17.685,32.812     c6.622,12.827,21.141-4.243,21.322-12.692c0.013-0.681-0.418-1.498-1.187-1.307c-15.778,3.898-20.064,43.84,0.306,40.894     c1.113-0.161,1.013-2.29-0.061-2.451c-15.258-2.29-12.978-20.692-6.66-30.793c2.341-3.745,10.877-7.505,1.749,3.15     c-5.386,6.29-17.009,6.251-15.495-6.66c1.057-9.024,9.248-19.316,17.935-21.876C375.086,203.427,374.948,202.327,374.415,202.483     L374.415,202.483z"/>
			<path style="fill:#477CFF;" d="M141.817,158.37c-7.622,4.613-5.149,13.733-1.971,20.541c5.151,11.038,15.316,14.017,26.05,8.409     c9.565-4.998,11.423-17.422,11.908-27.002c0.168-3.28-2.103-15.461-8.266-10.989c-10.943,7.939-1.366,30.094,12.572,25.695     c24.348-7.681,13.953-37.695-5.189-45.382c-0.822-0.329-1.006,1.407-0.441,1.762c9.302,5.84,17.532,15.058,18.338,26.469     c1.113,15.771-25.798,20.976-27.643,3.196c-0.669-6.44,7.28-16.664,8.727-3.061c0.549,5.149-0.75,10.9-2.129,15.862     c-2.78,10.011-14.492,15.827-24.133,12.83c-8.115-2.522-17.2-21.221-7.61-27.298C142.407,159.161,142.249,158.112,141.817,158.37     L141.817,158.37z"/>
		</g>
		<g>
			<path style="fill:#CF3B0A;" d="M421.524,283.982c-13.95,29.213-61.037,13.519-61.037,13.519l8.72,51.442l-129.048,51.881     l-131.228-54.497l15.395-55.745c-14.734,2.992-46.157,7.112-53.757-10.083c-7.068-15.977,11.625-26.752,33.67-24.848     c9.225,0.784,19.046,3.798,27.799,9.588l29.488-73.451c0.332,0.225,0.679,0.434,1.024,0.643     c15.265,8.283,32.269-0.439,43.163-11.773c1.779-2.001,3.893-4.429,6.017-7.112c0.368,2.946,1.256,5.596,2.706,7.551     c8.319,11.63,27.727,0.676,35.191-8.301c2.461,8.615,9.432,16.965,17.126,19.196c16.57,4.796,33.131-6.54,39.235-21.797     c0.488-0.955,0.909-5.44,0.789-10.443c2.754,3.469,5.266,6.31,5.756,6.956c9.363,8.822,21.009,17.162,32.051,17.057l15.03,91.503     c5.583-4.153,14.583-7.658,24.082-9.751C406.088,260.597,431.324,263.476,421.524,283.982z"/>
			<g>
				<g>
					<path style="fill:#002547;" d="M225.637,315.158c0,0,4.36,15.477,17.654,15.257c13.297-0.217,23.763-15.257,23.763-15.257       s-5.013,77.599-28.991,78.689C214.084,394.937,225.637,315.158,225.637,315.158z"/>
					<path style="fill:#F2E8CB;" d="M226.944,323.873c0,0,3.487,10.241,16.347,10.241c12.866,0,20.932-12.416,20.932-12.416       s-3.398,20.728-22.236,20.702C223.138,342.382,226.944,323.873,226.944,323.873z"/>
				</g>
				<path style="fill:#002547;" d="M234.594,312.697c-1.019-0.73-5.333-3.724-2.517-4.038c1.968-0.222,4.255,2.854,5.269,4.209      c1.077,1.442,1.437-2.014,1.407-2.461c-0.306-4.687,1.391-12.059,7.803-13.325c9.958-1.981,10.489,8.296,7.816,14.864      c-0.194,0.483-0.166,4.669,0.929,3.645c1.928-1.792,4.743-4.143,7.543-3.232c-0.6-0.194-5.731,2.958-6.923,3.313      c-1.455,0.431-1.047,4.669,0,4.355c4.296-1.276,9.225-3.017,9.404-8.095c0.243-6.969-7.87-3.02-10.527-0.544      c0.306,1.218,0.615,2.43,0.927,3.645c2.593-6.382,4.988-20.421-4.837-22.073c-11.308-1.904-14.578,9.448-13.986,18.604      c0.47-0.822,0.942-1.641,1.409-2.463c-1.942-2.604-7.127-7.658-9.366-2.573c-1.84,4.192,2.073,8.184,5.141,10.372      C235.141,317.655,235.715,313.499,234.594,312.697L234.594,312.697z"/>
				<g>
					<path style="fill:#F2E8CB;" d="M211.991,292.776c-4.934-2.221-10.246-3.856-15.862-4.868       c-11.528-2.06-21.856,0.227-32.23,3.525c-0.125-6.055,0.087-12.434,1.274-17.915c5.021-23.316,17.228-53.621,40.541-63.878       c24.644-10.67,35.75,14.617,37.267,34.877c0.468,6.222,0.516,12.604,0.154,19.031L211.991,292.776z"/>
					<path style="fill:#002547;" d="M243.123,263.548c-0.855,15.413-4.094,31.112-9.573,45.481       c-5.848-6.994-13.154-12.47-21.557-16.258c0.544-9.866,2.984-19.788,8.319-27.533       C226.834,256.138,236.777,252.63,243.123,263.548z"/>
				</g>
				<path style="fill:#002547;" d="M191.625,214.182c3.27-2.522,5.685-5.343,9.389-7.472c4.008-2.295,8.327-3.936,12.85-4.812      c8.166-1.585,16.896,1.246,22.895,6.88c0.304,0.288,0.357-2.489,0.197-2.897c-4.115-10.275-12.123-15.668-23.324-13.601      c-9.958,1.828-19.908,9.802-22.338,19.725C191.235,212.249,191.275,214.45,191.625,214.182L191.625,214.182z"/>
				<g>
					<path style="fill:#F2E8CB;" d="M282.427,293.305c5.258-1.55,10.82-2.451,16.605-2.674c11.702-0.429,21.608,3.27,31.423,7.982       c0.965-5.973,1.652-12.329,1.236-17.917c-1.723-23.788-9.588-55.5-31.25-68.902c-22.913-14.002-37.435,9.486-41.762,29.338       c-1.329,6.096-2.265,12.408-2.801,18.823L282.427,293.305z"/>
					<path style="fill:#002547;" d="M255.886,259.956c-1.302,15.39-0.278,31.38,3.147,46.374       c6.759-6.116,14.754-10.517,23.607-13.09c0.837-9.851-0.197-20.018-4.401-28.427       C273.05,254.889,263.697,250.032,255.886,259.956z"/>
				</g>
				<path style="fill:#002547;" d="M316.341,218.212c-2.895-2.961-4.904-6.101-8.286-8.735c-3.661-2.841-7.722-5.077-12.095-6.583      c-7.895-2.714-16.97-1.123-23.717,3.64c-0.342,0.242-0.005-2.525,0.212-2.91c5.524-9.634,14.239-13.871,25.088-10.257      c9.634,3.214,18.407,12.529,19.434,22.734C317.005,216.352,316.653,218.529,316.341,218.212L316.341,218.212z"/>
				<path style="fill:#002547;" d="M70.386,274.009c0,0,8.812-11.084,23.469-8.26c14.645,2.81,22.277,11.403,17.202,18.229      c-5.092,6.818-32.031,4.615-19.502-6.277l-7.941-1.353l11.505,0.424c0,0-10.639,6.417-0.049,9.45      c10.583,3.015,19.104-4.255,14.816-10.239C105.608,269.986,89.789,260.697,70.386,274.009z"/>
				<path style="fill:#002547;" d="M421.295,282.137c0,0-8.807-11.079-23.464-8.258c-14.645,2.813-22.282,11.405-17.208,18.229      c5.09,6.816,32.034,4.613,19.502-6.275l7.947-1.356l-11.51,0.421c0,0,10.64,6.422,0.056,9.45      c-10.591,3.017-19.107-4.255-14.823-10.239C386.078,278.119,401.894,268.834,421.295,282.137z"/>
			</g>
		</g>
	</g>
	<g>
		<g>
			<g>
				<path style="fill:#F2E8CB;" d="M377.056,368.126l7.13-25.726c-93.673-44.246-147.519,37.713-147.519,37.713      s-29.859-54.058-81.088-62.903c-51.225-8.842-72.152,19.308-72.152,19.308l4.794,15.038l128.831,64.524l60.603-4.135      L377.056,368.126z"/>
				<path style="fill:#F5B12A;" d="M232.698,388.43c-46.768-75.444-129.758-57.246-130.592-57.052l-0.587-2.548      c0.85-0.194,85.658-18.793,133.4,58.221L232.698,388.43z"/>
				<path style="fill:#F5B12A;" d="M214.862,382.184c-34.377-51.518-92.001-39.709-92.575-39.589l-0.557-2.553      c0.592-0.128,59.919-12.342,95.307,40.692L214.862,382.184z"/>
				<path style="fill:#F5B12A;" d="M218.959,401.444c-30.673-56.95-113.267-52.953-114.089-52.915l-0.148-2.609      c0.84-0.061,85.068-4.143,116.54,54.283L218.959,401.444z"/>
				<path style="fill:#F5B12A;" d="M262.128,398.329l-1.971-1.716c0.454-0.521,46.129-51.919,116.91-49.389l-0.097,2.614      C307.491,347.24,262.572,397.819,262.128,398.329z"/>
				<path style="fill:#F5B12A;" d="M244.465,388.458l-2.185-1.435c0.342-0.523,34.645-51.585,101.321-51.585      c0.835,0,1.67,0.008,2.512,0.023l-0.051,2.614c-0.824-0.015-1.644-0.023-2.458-0.023      C278.373,338.053,244.8,387.948,244.465,388.458z"/>
				<path style="fill:#F5B12A;" d="M265.372,384.019l-2.297-1.246c0.245-0.457,25.69-45.522,110.288-39.901l-0.174,2.609      C290.189,339.899,265.609,383.575,265.372,384.019z"/>
				<path style="fill:#CF3B0A;" d="M218.727,407.851c2.683-10.721,15.262-15.112,25.139-15.283      c11.686-0.194,14.898,10.19,19.73,18.509c0.725,1.248,1.728-0.306,1.693-1.126c-0.556-13.141-10.785-25.098-23.957-26.471      c-11.923-1.235-28.855,11.49-25.062,24.432C216.789,409.676,218.293,409.61,218.727,407.851L218.727,407.851z"/>
			</g>
			<g>
				<polygon style="fill:#78A0FF;" points="81.898,341.318 221.849,406.927 258.253,406.927 387.081,347.633 360.27,508.947       119.609,512     "/>
				<polygon style="fill:#477CFF;" points="269.127,500.227 269.127,413.176 373.276,370.681 353.947,502.41     "/>
				<path style="fill:#78A0FF;" d="M272.999,457.005l1.401-41.522l91.998-34.025l-8.636,53.828L272.999,457.005z M276.251,416.691      l1.404,36.478l78.574-19.293l7.809-47.176L276.251,416.691z"/>
				
					<rect x="222.96" y="406.848" transform="matrix(0.9985 -0.0549 0.0549 0.9985 -24.8623 13.0361)" style="fill:#477CFF;" width="3.484" height="103.861"/>
				
					<rect x="205.1" y="456.86" transform="matrix(0.0278 -0.9996 0.9996 0.0278 -208.7731 702.5392)" style="fill:#477CFF;" width="103.391" height="3.484"/>
				<path style="fill:#477CFF;" d="M223.153,428.198c4.73,12.401,26.852,11.431,33.573,1.294c0.574-0.855,0.952-4.355-0.641-4.493      c-5.08-0.431-11.01,3.158-16.1,3.947c-6.165,0.952-10.913-0.299-16.258-3.265C222.742,425.132,223.023,427.854,223.153,428.198      L223.153,428.198z"/>
				<path style="fill:#477CFF;" d="M226.482,491.911c4.605,15.477,23.719,8.768,29.539-2.106c0.238-0.439,0.687-3.936-0.503-3.546      c-4.279,1.396-8.105,3.584-12.266,5.302c-6.022,2.484-10.759,1.034-16.023-2.07      C226.278,488.931,226.382,491.561,226.482,491.911L226.482,491.911z"/>
				<path style="fill:#477CFF;" d="M123.17,505.634L93.656,364.404l123.435,45.141l3.632,96.06L123.17,505.634z M96.014,367.171      l30.229,135.238l92.078-0.827l-4.005-89.249L96.014,367.171z"/>
				<path style="fill:#477CFF;" d="M213.576,453.169l-99.126-15.839l-12.638-61.948l109.839,36.94L213.576,453.169z M115.91,435.762      l95.182,12.457l-1.144-34.635l-105.821-35.589L115.91,435.762z"/>
				<polygon style="fill:#477CFF;" points="200.046,464.022 132.048,457.467 132.048,450.115 201.369,457.467     "/>
				<polygon style="fill:#477CFF;" points="181.192,472.852 146.517,469.746 145.508,464.022 182.744,466.353     "/>
			</g>
			<polygon style="fill:#477CFF;" points="258.824,409.546 221.264,409.546 80.788,343.682 83.009,338.946 222.428,404.31      257.678,404.31 385.991,345.262 388.176,350.012    "/>
		</g>
		<g>
			<path style="fill:#CF3B0A;" d="M86.2,405.14l47.301,10.683l-6.977,45.56C126.524,461.383,73.99,482.527,86.2,405.14z"/>
			<path style="fill:#002547;" d="M86.748,412.527c5.128,14.627,24.457,23.868,39.071,17.795c0.607-0.253,0.564-1.815-0.202-1.771     c-14.264,0.824-32.097-1.435-38.392-16.462C87.004,411.56,86.623,412.173,86.748,412.527L86.748,412.527z"/>
			<path style="fill:#002547;" d="M87.644,432.995c5.601,9.613,23.237,16.807,33.854,12.605c0.776-0.306,0.641-2.04-0.243-2.106     c-11.344-0.873-26.073-0.357-33.187-11.188C87.747,431.815,87.458,432.668,87.644,432.995L87.644,432.995z"/>
			<path style="fill:#002547;" d="M90.685,452.918c9.968,5.156,23.523,6.096,34.004,1.96c0.735-0.289,0.651-2.073-0.237-2.068     c-11.753,0.107-21.887,2.042-33.611-0.911C90.317,451.772,90.312,452.735,90.685,452.918L90.685,452.918z"/>
		</g>
		<g>
			<path style="fill:#CF3B0A;" d="M385.24,402.733l-47.301,10.683l6.971,45.565C344.911,458.981,397.453,480.125,385.24,402.733z"/>
			<path style="fill:#002547;" d="M342.21,429.173c13.767,2.006,28.983-3.916,37.698-14.813c0.574-0.725,0.189-3.53-1.159-2.816     c-5.662,2.992-10.53,7.14-16.396,9.835c-6.392,2.926-13.378,3.65-20.214,4.866C340.832,426.48,340.908,428.984,342.21,429.173     L342.21,429.173z"/>
			<path style="fill:#002547;" d="M344.316,440.814c8.227,2.08,13.626,3.25,21.529-0.656c5.703-2.828,10.711-7.484,13.44-13.238     c0.309-0.659-0.388-2.808-1.253-1.817c-3.842,4.457-7.855,8.296-12.957,11.331c-6.793,4.044-13.202,3.066-20.603,1.966     C343.491,438.256,343.425,440.586,344.316,440.814L344.316,440.814z"/>
			<path style="fill:#002547;" d="M344.584,453.761c13.889,8.095,32.266,0.327,36.766-15.191c0.171-0.59-0.337-3.007-1.304-1.876     c-4.174,4.909-7.398,9.841-13.121,13.19c-6.731,3.942-14.742,3.183-21.922,1.185     C343.594,450.669,343.655,453.227,344.584,453.761L344.584,453.761z"/>
		</g>
	</g>
</g>















</svg>
