<?xml version="1.0" encoding="UTF-8"?>
<!-- Generator: Adobe Illustrator 25.2.3, SVG Export Plug-In . SVG Version: 6.00 Build 0)  -->
<svg xmlns="http://www.w3.org/2000/svg" xmlns:xlink="http://www.w3.org/1999/xlink" version="1.1" id="Capa_1" x="0px" y="0px" viewBox="0 0 512 512" style="enable-background:new 0 0 512 512;" xml:space="preserve" width="512" height="512">
<g>
	<g>
		<g>
			<polygon style="fill:#FF6700;" points="118.344,230.405 73.088,243.162 98.684,243.162 56.026,268.24 94.974,251.918      82.362,263.789 99.425,256.457 75.314,285.673 113.892,256.457 109.069,269.722 133.181,243.162    "/>
			<polygon style="fill:#FFE300;" points="119.627,232.63 101.451,239.267 108.409,240.894 97.864,253.806 113.067,245.708      102.886,260.751 119.045,249.775 117.491,258.031 130.518,240.849    "/>
		</g>
		<g>
			<g>
				<path style="fill:#00073E;" d="M110.647,229.292l16.414,25.593c0,0,79.21,12.545,137.031-33.249l20.646-51.69l-31.506-25.339      C208.391,142.091,147.478,154.824,110.647,229.292z"/>
				<path style="fill:#00C49D;" d="M88.668,222.614l16.692-9.736c0,0,25.039,10.85,37.836,48.963l-18.083,10.294l32.828-1.946      c0,0-10.85-66.214-52.581-73.724L88.668,222.614z"/>
				<path style="fill:#00C49D;" d="M310.119,156.401c-10.816,29.469-27.308,50.413-46.027,65.233l-10.861-77.027      C285.95,146.43,310.119,156.401,310.119,156.401z"/>
				
					<rect x="117.926" y="226.332" transform="matrix(0.8483 -0.5295 0.5295 0.8483 -110.1769 99.7658)" style="fill:#00C49D;" width="2.227" height="31.7"/>
				
					<rect x="109.972" y="225.435" transform="matrix(0.5873 -0.8093 0.8093 0.5873 -134.8813 188.5629)" style="fill:#00C49D;" width="14.991" height="2.227"/>
				
					<rect x="114.536" y="231.529" transform="matrix(0.7815 -0.6239 0.6239 0.7815 -118.2698 127.5978)" style="fill:#00C49D;" width="16.977" height="2.225"/>
				
					<rect x="118.553" y="238.132" transform="matrix(0.8539 -0.5205 0.5205 0.8539 -106.0984 100.593)" style="fill:#00C49D;" width="15.082" height="2.225"/>
				
					<rect x="121.589" y="243.007" transform="matrix(0.9152 -0.403 0.403 0.9152 -87.3798 72.9305)" style="fill:#00C49D;" width="16.075" height="2.227"/>
				
					<rect x="125.246" y="249.599" transform="matrix(0.9935 -0.1136 0.1136 0.9935 -27.6264 16.785)" style="fill:#00C49D;" width="16.334" height="2.225"/>
			</g>
			<g>
				<path style="fill:#FFD7AF;" d="M227.737,177.557c1.747,2.053,3.202,4.384,4.315,6.937c7.074,16.219-2.431,36.015-21.22,44.203      c-15.379,6.714-32.248,3.544-41.72-6.748l-4.361-6.287l-3.067-12.375l12.288-16.092l8.884-11.135l12.31-2.246l25.261-1.712      L227.737,177.557z"/>
				<path style="fill:#A63B18;" d="M215.748,175.449c0,0,2.141,3.578-0.702,4.436c-2.861,0.858-4.863-3.582-4.863-3.582      c-5.138,15.281-21.837,1.287-21.837,1.287s-0.137,6.577-1.987,8.565c-1.867,2.003-5.001-3.994-5.001-3.994l-2.003,27.266      c-7.203-11.955-16.396-11.761-14.802-2.861c0.989,5.526,9.098,7.143,9.098,7.143l-4.538,8.239      c-2.09-2.278-3.802-4.884-5.087-7.81c-7.074-16.219,2.415-36.018,21.202-44.203c15.825-6.903,33.192-3.376,42.509,7.621      C224.244,180.468,215.748,175.449,215.748,175.449z"/>
				<path style="fill:#00C49D;" d="M194.165,233.94c-14.424,0-26.577-7.325-31.714-19.114c-3.622-8.31-3.29-17.735,0.935-26.539      c4.185-8.72,11.7-15.796,21.163-19.919c5.601-2.441,11.441-3.679,17.356-3.679c14.425,0,26.58,7.325,31.72,19.119      c3.622,8.308,3.29,17.733-0.936,26.537c-4.186,8.718-11.703,15.792-21.166,19.915      C205.923,232.703,200.082,233.94,194.165,233.94z M201.904,168.113c-5.442,0-10.82,1.143-15.988,3.396      c-8.709,3.795-15.615,10.281-19.444,18.257c-3.788,7.894-4.101,16.309-0.881,23.694c4.585,10.519,15.533,17.057,28.574,17.057      c5.443,0,10.823-1.143,15.992-3.396c8.709-3.797,15.615-10.281,19.443-18.259c3.789-7.892,4.102-16.307,0.884-23.688      C225.898,174.653,214.946,168.113,201.904,168.113z"/>
				
					<rect x="195.669" y="185" transform="matrix(0.9617 -0.274 0.274 0.9617 -43.4293 62.5363)" style="fill:#A63B18;" width="12.899" height="3.424"/>
				
					<rect x="215.095" y="180.981" transform="matrix(0.2368 -0.9716 0.9716 0.2368 -15.4206 352.7245)" style="fill:#A63B18;" width="3.425" height="10.394"/>
				<g>
					<path style="fill:#FFFFFF;" d="M191.314,212.548l16.145,4.258c0,0,3.506-26.789-3.629-27.039       C196.695,189.516,191.314,212.548,191.314,212.548z"/>
					<path style="fill:#00073E;" d="M207.476,204.16c0,1.804-0.791,3.267-1.766,3.267s-1.766-1.463-1.766-3.267       c0-1.802,0.791-3.265,1.766-3.265S207.476,202.358,207.476,204.16z"/>
				</g>
				<g>
					<path style="fill:#FFFFFF;" d="M221.856,202.721c0,7.154-2.521,12.958-5.633,12.958c-3.111,0-5.632-5.804-5.632-12.958       c0-7.152,2.521-12.954,5.632-12.954C219.335,189.767,221.856,195.569,221.856,202.721z"/>
					<path style="fill:#00073E;" d="M215.397,204.16c0,1.804-0.791,3.267-1.766,3.267c-0.976,0-1.767-1.463-1.767-3.267       c0-1.802,0.791-3.265,1.767-3.265C214.606,200.894,215.397,202.358,215.397,204.16z"/>
				</g>
				<path style="fill:#00073E;" d="M165.176,205.02c0,0,3.185-2.383,6.502,0.026c3.319,2.409,1.918,6.736-1.476,5.674      c-3.396-1.07-0.993-3.177-0.993-3.177l-2.034-0.371l2.712,0.232c0,0-2.887,1.699,0.371,2.999      c3.256,1.298,4.265-3.188,1.112-5.15C168.215,203.291,165.176,205.02,165.176,205.02z"/>
				<g>
					<path style="fill:#FFFFFF;" d="M177.94,223.666l8.862-6.196c-0.079-0.086-0.192-0.236-0.215-0.378       c-0.289-1.465,2.685-4.491,2.852-4.672c-0.141,0.021-4.45,0.65-9.221,5.599C177.139,221.211,176.598,223.009,177.94,223.666z"/>
					<path style="fill:#00073E;" d="M180.225,218.161c4.796-4.651,8.838-5.549,8.838-5.549s-3.37,3.559-2.613,4.824       c1.07,1.783,4.213-0.378,4.213-0.378s-3.556,1.547-3.844,0.028c-0.289-1.516,2.884-4.824,2.884-4.824s-4.712,0.652-9.56,5.68       c-4.847,5.03-3.322,7.01,1.752,5.639c0,0-3.84,0.74-4.462-0.577C176.808,221.686,180.225,218.161,180.225,218.161z"/>
					<path style="fill:#00073E;" d="M189.717,212.728c0,0,0.082-0.682-1.5-0.995c0,0,1.473-0.345,1.871,0.806L189.717,212.728z"/>
					<polygon style="fill:#00073E;" points="177.624,223.29 186.639,217.112 186.564,216.988 177.516,223.186      "/>
					<polygon style="fill:#00073E;" points="178.133,220.718 187.057,215.722 186.995,215.593 178.066,220.587      "/>
					<polygon style="fill:#00073E;" points="182.046,216.488 187.883,214.379 187.842,214.238 182.003,216.344      "/>
					<path style="fill:#00073E;" d="M184.469,219.219c-1.824-2.789,1.859-5.802,1.897-5.832l0.139,0.172       c-0.035,0.028-3.564,2.917-1.85,5.539L184.469,219.219z"/>
				</g>
				<path style="fill:#00073E;" d="M210.171,209.006c0,0,2.052,3.529,0.277,8.162c0,0,3.361-1.143,4.379-0.022      c1.016,1.12-7.708,3.981-10.384,1.025c0,0,1.499-1.542,2.676,0c0,0-1.391-0.843-1.765,0c0,0,1.23,1.433,5.726,0.755      c4.496-0.678,4.246-2.891-1.105-1.461C209.975,217.464,211.651,212.932,210.171,209.006z"/>
			</g>
		</g>
	</g>
	<g>
		<g>
			<g>
				<polygon style="fill:#ACB6C1;" points="379.485,373.586 394.323,334.666 323.754,334.666 327.554,363.362     "/>
				
					<rect x="354.076" y="323.605" transform="matrix(0.0849 -0.9964 0.9964 0.0849 -23.5667 674.0415)" style="fill:#00073E;" width="2.226" height="52.492"/>
				
					<rect x="353.149" y="335.713" transform="matrix(0.1933 -0.9811 0.9811 0.1933 -68.8152 639.1501)" style="fill:#00073E;" width="2.226" height="51.418"/>
				
					<rect x="354.45" y="334.72" transform="matrix(0.1686 -0.9857 0.9857 0.1686 -54.8978 646.1171)" style="fill:#00073E;" width="2.227" height="41.764"/>
			</g>
			<g>
				<path style="fill:#FFE300;" d="M348.161,177.74c60.973-14.76,119.183,9.558,130.018,54.309      c10.839,44.755-29.808,93.005-90.776,107.764c-60.967,14.764-119.178-9.558-130.011-54.317      C246.556,240.746,287.195,192.504,348.161,177.74z"/>
				<path style="opacity:0.5;fill:#FFFFFF;" d="M284.529,222.571c16.587-17.577,37.341-24.945,46.323-16.461      c8.985,8.473,2.815,29.615-13.771,47.191c-16.6,17.579-37.344,24.954-46.337,16.463      C261.76,261.283,267.929,240.144,284.529,222.571z"/>
				<path style="opacity:0.5;fill:#FFFFFF;" d="M374.636,329.28c0,0,175.754-53.011,62.015-133.929      C436.651,195.351,501.633,268.119,374.636,329.28z"/>
			</g>
		</g>
		<g>
			<polygon style="fill:#FFE300;" points="484.743,181.648 468.511,202.723 478.985,178.269    "/>
			<polygon style="fill:#FFE300;" points="512,177.802 472.222,202.166 508.115,172.373    "/>
			<polygon style="fill:#FFE300;" points="503.272,199.628 475.188,205.554 501.144,193.3    "/>
			<polygon style="fill:#FFE300;" points="223.819,314.717 255.642,299.399 227.272,320.435    "/>
			<polygon style="fill:#FFE300;" points="205.091,300.757 255.642,294.62 206.329,307.318    "/>
		</g>
	</g>
	<polygon style="fill:#FFE300;" points="353.241,156.124 361.588,139.987 346.843,144.324 361.588,153.342 352.963,133.311  "/>
	<polygon style="fill:#FFE300;" points="413.344,342.356 421.689,352.927 406.944,350.086 421.689,344.177 413.066,357.301  "/>
	<polygon style="fill:#FFE300;" points="318.839,364.6 321.601,377.781 309.666,368.665 325.499,369.948 311.931,377.854  "/>
	<polygon style="fill:#FFE300;" points="286.63,372.768 307.327,376.629 289.652,357.301 296.887,383.539 304.189,360.557  "/>
	<polygon style="fill:#FFE300;" points="368.149,146.514 387.817,137.372 367.786,131.874 380.314,151.43 381.677,128.461  "/>
	<g>
		<path style="fill:#00073E;" d="M103.691,276.029c0,0-123.057,141.329,255.347,32.828    C359.038,308.858,30.523,402.613,103.691,276.029z"/>
		<path style="fill:#00073E;" d="M100.563,228.884c0,0-59.273,16.504-91.544,56.938s13.354,143.517,280.431,64.155    c0,0-233.405,58.519-275.897-12.871C-25.117,272.135,100.563,228.884,100.563,228.884z"/>
		<path style="fill:#00073E;" d="M71.419,304.037c0,0-60.238,88.286,150.437,45.997C221.856,350.035,35.253,389.356,71.419,304.037z    "/>
		<path style="fill:#00073E;" d="M56.026,256.457c0,0-101.638,60.712,0,104.964C56.026,361.421-31.238,324.715,56.026,256.457z"/>
	</g>
</g>















</svg>
