<?xml version="1.0" encoding="UTF-8"?>
<!-- Generator: Adobe Illustrator 25.2.3, SVG Export Plug-In . SVG Version: 6.00 Build 0)  -->
<svg xmlns="http://www.w3.org/2000/svg" xmlns:xlink="http://www.w3.org/1999/xlink" version="1.1" id="Capa_1" x="0px" y="0px" viewBox="0 0 512 512" style="enable-background:new 0 0 512 512;" xml:space="preserve" width="512" height="512">
<g>
	<g>
		<g>
			<path style="fill:#00073E;" d="M364.829,501.981L166.861,512c0,0-4.279-110.377,212.157-77.349L364.829,501.981z"/>
			<g>
				<path style="fill:#00073E;" d="M286.518,442.227c0,0-4.736-74.508,52.09-111.446l91.557,52.406c0,0-55.566,18.945-60.931,56.198      L286.518,442.227z"/>
				<path style="fill:#FFFFFF;" d="M290.612,439.045c0,0-4.461-70.253,49.121-105.082l86.328,49.414c0,0-52.392,17.864-57.453,52.99      L290.612,439.045z"/>
			</g>
		</g>
		<g>
			<g>
				<path style="fill:#A63B18;" d="M303.158,141.723c14.4-6.934,23.15-12.353,23.15-12.353      c-64.746-80.846-207.421-85.241-257.621-23.677c-39.288,48.19-20.758,119.981-10.873,148.889l15.6,20.052      c0,0,60.619,14.791,63.142,14.157c2.522-0.632,101.234-19.574,101.234-19.574l40.822-83.172L303.158,141.723z"/>
				<g style="opacity:0.1;">
					<path style="fill:#FFFFFF;" d="M87.461,122.095c0,0,97.817,63.951,219.471,5.795       C306.932,127.89,186.435,175.606,87.461,122.095z"/>
					<path style="fill:#FFFFFF;" d="M101.894,91.222c0,0,76.018,74.976,189.283,31.814       C291.176,123.036,180.334,155.993,101.894,91.222z"/>
					<path style="fill:#FFFFFF;" d="M124.775,92.866c0,0,68.202,61.691,148.406,0.807       C273.181,93.673,193.415,144.099,124.775,92.866z"/>
					<path style="fill:#FFFFFF;" d="M110.691,155.644c0.078-0.039,4.226,10.88,4.513,11.763c5.493,16.946,6.575,35.216,2.086,52.541       c-1.84,7.102-4.666,13.971-8.628,20.158c-3.114,4.862-6.089,9.903-10.776,13.529c5.583-5.782,9.742-14.013,12.729-21.388       c6.887-17.005,7.162-36.291,1.409-53.496c-2.264-6.771-8-19.492-8-19.492C106.242,158.057,108.461,156.853,110.691,155.644z"/>
					<path style="fill:#FFFFFF;" d="M87.143,169.784c0,0,2.575,2.674,2.835,2.993c7.733,9.487,10.57,21.87,10.808,33.869       c0.162,8.179-1.055,15.988-2.371,24.016c-0.34,1.733-0.535,2.723-0.535,2.723s0.078-1.008,0.214-2.77       c1.031-13.348,0.531-27.317-4.842-39.773c-2.429-5.63-5.705-11.371-10.775-15.094       C84.092,173.818,85.583,171.763,87.143,169.784z"/>
				</g>
			</g>
			<g>
				<path style="fill:#FFD7AF;" d="M243.579,431.356c0,0-17.996-36.936,0-44.83c17.996-7.893,32.824,41.227,32.824,41.227      L243.579,431.356z"/>
				<polygon style="fill:#00073E;" points="248.198,431.356 239.675,399.003 243.339,398.037 251.95,430.724     "/>
				<polygon style="fill:#00073E;" points="256.288,430.14 248.987,394.8 252.695,394.035 260.082,429.788     "/>
				<polygon style="fill:#00073E;" points="265.741,429.362 258.463,403.788 262.107,402.75 269.54,428.869     "/>
			</g>
			<path style="fill:#A63B18;" d="M66.149,288.792c0,0-33.777,38.832-29.673,46.726c4.101,7.893,42.621-2.841,42.621-2.841     s-31.605,31.569-21.487,50.829c10.121,19.258,127.882-4.736,127.882-4.736l-32.519-85.556L66.149,288.792z"/>
			<g>
				<path style="fill:#FF6E6E;" d="M154.234,337.726l11.68,40.097c0,0-50.194,47.989-47.039,82.4      c3.158,34.411,106.08-11.682,106.08-11.682l-9.473-28.728c0,0,11.684-3.475,15.156-11.998      c3.469-8.525-20.524-34.098-20.524-34.098l16.734-35.991H154.234z"/>
				<path style="fill:#00073E;" d="M181.381,437.946c0,0-29.627,13.853-28.788-5.399c0.84-19.249,15.47-38.129,15.47-38.129      s-18.547,20.085-20.492,43.984C145.627,462.296,181.381,437.946,181.381,437.946z"/>
			</g>
			<g>
				<path style="fill:#FFD7AF;" d="M190.014,452.079c0,0-21.471-45.778,0-52.092c21.468-6.314,28.415,41.359,28.415,41.359      L190.014,452.079z"/>
				
					<rect x="189.011" y="413.296" transform="matrix(0.9542 -0.2992 0.2992 0.9542 -120.5448 76.9166)" style="fill:#00073E;" width="3.792" height="37.629"/>
				<polygon style="fill:#00073E;" points="203.822,447.202 195.707,412.757 199.396,411.888 207.427,445.975     "/>
				
					<rect x="206.988" y="407.773" transform="matrix(0.9472 -0.3206 0.3206 0.9472 -125.4968 89.4343)" style="fill:#00073E;" width="3.786" height="36.205"/>
			</g>
			<g>
				<path style="fill:#FFD7AF;" d="M327.56,326.034c0,0-182.154,81.453-228.905-28.718c0,0-59.67,10.419-66.299-20.194      c-3.521-16.214,9.168-22.806,25.459-22.541c14.511,0.151,31.9,5.683,43.379,14.624c0,0,49.63-49.327,36.108-110.207      c58.72,26.215,129.943-0.115,165.857-17.276C312.181,175.248,331.992,258.067,327.56,326.034z"/>
				<g>
					<path style="fill:#FF6700;" d="M209.527,322.486c-1.75,0-3.508-0.156-5.226-0.462c-23.99-4.273-38.17-37.727-31.611-74.577       c6.049-33.941,27.627-59.535,50.194-59.535c1.75,0,3.508,0.156,5.226,0.462c23.99,4.271,38.17,37.726,31.615,74.576       C253.675,296.889,232.097,322.486,209.527,322.486z M222.884,195.489c-18.638,0-37.408,23.406-42.731,53.287       c-5.829,32.735,5.599,62.248,25.478,65.788c1.28,0.229,2.594,0.344,3.897,0.344c18.641,0,37.411-23.406,42.734-53.288       c5.829-32.735-5.605-62.247-25.481-65.787C225.5,195.604,224.19,195.489,222.884,195.489z"/>
					<path style="fill:#FF6700;" d="M300.254,322.486c-1.75,0-3.508-0.156-5.226-0.462c-23.99-4.273-38.167-37.729-31.608-74.577       c6.046-33.941,27.621-59.535,50.19-59.535c1.751,0,3.508,0.156,5.226,0.462c23.993,4.273,38.173,37.727,31.615,74.576       C344.401,296.889,322.823,322.486,300.254,322.486z M313.61,195.489c-18.641,0-37.408,23.406-42.727,53.287       c-5.829,32.735,5.599,62.248,25.474,65.788c1.28,0.229,2.593,0.344,3.897,0.344c18.641,0,37.411-23.406,42.734-53.288       c5.829-32.735-5.602-62.247-25.481-65.787C316.226,195.604,314.917,195.489,313.61,195.489z"/>
					
						<rect x="133.841" y="233.627" transform="matrix(0.1318 -0.9913 0.9913 0.1318 -148.6443 371.2698)" style="fill:#FF6700;" width="7.577" height="73.733"/>
					
						<rect x="257.804" y="258.544" transform="matrix(0.0755 -0.9971 0.9971 0.0755 -20.0034 503.604)" style="fill:#FF6700;" width="7.578" height="8.092"/>
				</g>
				<path style="fill:#00073E;" d="M41.07,279.965c0,0,5.479-8.947,21.607-10.48c16.138-1.533,27.874,3.55,29.378,14.627      c1.511,11.072-28.661,10.67-21.244,0.421l-12.546,0.657l17.088-3.655c0,0-5.599,11.859,7.848,8.544      c13.457-3.308-1.851-22.31-20.294-19.265C44.471,273.859,41.07,279.965,41.07,279.965z"/>
				<path style="fill:#FF6E6E;" d="M92.11,307.533c0,6.166-3.265,11.163-7.297,11.163c-4.03,0-7.298-4.997-7.298-11.163      c0-6.166,3.268-11.163,7.298-11.163C88.845,296.369,92.11,301.366,92.11,307.533z"/>
				<path style="fill:#00073E;" d="M239.504,280.77c0,6.539-2.337,11.839-5.223,11.839c-2.882,0-5.223-5.301-5.223-11.839      c0-6.541,2.341-11.839,5.223-11.839C237.167,268.93,239.504,274.229,239.504,280.77z"/>
				<path style="fill:#00073E;" d="M284.968,279.439c0,6.539-2.341,11.839-5.226,11.839c-2.882,0-5.22-5.301-5.22-11.839      s2.337-11.839,5.22-11.839C282.628,267.599,284.968,272.9,284.968,279.439z"/>
				
					<rect x="215.828" y="252.96" transform="matrix(0.9685 -0.2491 0.2491 0.9685 -56.7731 64.8519)" style="fill:#A63B18;" width="24.056" height="7.575"/>
				
					<rect x="279.259" y="244.344" transform="matrix(0.0715 -0.9974 0.9974 0.0715 8.9807 518.5936)" style="fill:#A63B18;" width="7.577" height="20.258"/>
				<path style="fill:#00073E;" d="M260.616,285.319l-0.178,30.003c0,0,15.626,2.999,14.293,6.774      c-1.332,3.781-28.947,2.506-37.622-4.77c0,0,6.448-7.764,8.922-1.439c0,0-4.146-2.412-5.78,1.065c0,0,11.833,5.958,23.225,6.034      c11.392,0.075,9.068-2.365-7.482-4.29L260.616,285.319z"/>
				<g>
					<path style="fill:#FF6E6E;" d="M185.278,327.758c0,6.701-4.772,12.133-10.662,12.133c-5.89,0-10.662-5.432-10.662-12.133       c0-6.699,4.772-12.131,10.662-12.131C180.506,315.627,185.278,321.059,185.278,327.758z"/>
					<path style="fill:#00052D;" d="M190.124,325.348c0,0-20.56,21.101-25.805-19.01c0,0-2.792,13.838,7.018,24.995       C181.135,342.491,190.124,325.348,190.124,325.348z"/>
				</g>
			</g>
			<polygon style="fill:#00073E;" points="183.802,478.851 178.854,463.42 192.227,456.246 197.174,471.677    "/>
			
				<rect x="203.442" y="447.402" transform="matrix(0.8811 -0.4729 0.4729 0.8811 -189.1883 153.6771)" style="fill:#00073E;" width="15.176" height="11.365"/>
			
				<rect x="225.578" y="430.879" transform="matrix(0.8811 -0.4729 0.4729 0.8811 -178.7356 162.1715)" style="fill:#00073E;" width="15.173" height="11.365"/>
			<g>
				<polygon style="fill:#00C49D;" points="391.357,415.611 254.534,424.732 256.184,462.48 389.772,440.819     "/>
				<path style="fill:#00073E;" d="M260.259,457.988l-2.49-30.841C257.77,427.147,293.845,437.005,260.259,457.988z"/>
			</g>
		</g>
	</g>
	<g>
		<path style="fill:#00073E;" d="M436.953,147.906c0,0,37.648-3.553,40.014,5.565c2.37,9.116-35.518,13.851-35.518,13.851    s18.472,6.156,18.232,9.235c-0.237,3.078-17.992-7.576-17.992-7.576s16.099,12.786,13.969,13.969    c-2.133,1.185-16.102-13.259-16.102-13.259s12.076,15.627,10.183,16.337c-1.893,0.712-14.683-20.563-14.683-20.563    s39.071-6.194,38.361-11.993C472.708,147.67,436.953,147.906,436.953,147.906z"/>
		<g>
			<g>
				<polygon style="fill:#ACB6C1;" points="383.203,137.487 390.306,171.11 433.874,166.612 432.454,135.83     "/>
			</g>
			
				<rect x="394.477" y="162.25" transform="matrix(0.997 -0.077 0.077 0.997 -11.4195 32.1982)" style="fill:#00073E;" width="34.475" height="3.788"/>
			
				<rect x="391.315" y="154.772" transform="matrix(0.9992 -0.0393 0.0393 0.9992 -5.8435 16.3075)" style="fill:#00073E;" width="40.444" height="3.79"/>
			<g>
				<path style="fill:#FFE300;" d="M477.691,89.577c-9.748,40.705-44.692,67.218-78.051,59.229      c-33.356-7.991-52.492-47.458-42.741-88.159c9.751-40.698,44.696-67.217,78.045-59.226      C468.306,9.409,487.442,48.882,477.691,89.577z"/>
				<path style="fill:#00073E;" d="M380.86,75.114c0,0-3.077,35.288,12.312,33.631c15.393-1.658,12.789-33.631,12.789-33.631      s-3.871,31.499-12.592,31.973c-8.72,0.473-9.904-31.973-9.904-31.973H380.86z"/>
				<path style="fill:#00073E;" d="M410.458,76.772c0,0-3.077,35.288,12.313,33.63c15.392-1.657,12.786-33.63,12.786-33.63      s-3.867,31.498-12.588,31.973c-8.72,0.473-9.904-31.973-9.904-31.973H410.458z"/>
				<path style="fill:#00073E;" d="M440.996,58.154l-2.302-3.009c3.657-2.797,5.589-6.681,5.44-10.933      c-0.139-3.976-2.263-6.745-5.826-7.596c-0.703-0.169-1.42-0.303-2.143-0.404c-0.444,1.29-1.105,2.569-1.971,3.791      c-1.303,1.836-6.471,7.075-10.789,6.839c-1.696-0.099-3.109-1.026-3.975-2.61c-0.807-1.48-0.895-3.123-0.253-4.754      c1.29-3.27,5.155-5.612,7.288-6.32c1.913-0.637,4.166-0.96,6.516-0.96c0.026,0,0.049,0.002,0.071,0.002      c-0.013-0.488-0.081-0.958-0.204-1.409c-0.457-1.681-1.669-2.974-3.602-3.842c-5.563-2.493-13.765-1.859-19.594,1.409      c1.647,1.984,2.619,4.598,2.843,7.763c0.204,2.958-0.781,5.811-2.71,7.832c-2.133,2.235-4.963,3.036-7.362,2.072      c-2.38-0.95-3.803-3.336-3.806-6.382c-0.01-4.255,1.624-8.118,4.665-11.191c-0.658-0.23-1.378-0.405-2.159-0.525      c-2.642-0.408-4.905,0.225-6.756,1.874c-2.613,2.324-4.198,6.646-4.039,11.009c0.081,2.266,0.24,4.662,0.84,6.826l-3.65,1.012      c-0.703-2.542-0.885-5.203-0.976-7.701c-0.201-5.529,1.831-10.885,5.307-13.976c2.694-2.4,6.088-3.371,9.852-2.788      c1.841,0.283,3.469,0.828,4.866,1.614c0.003,0,0.003,0,0.003-0.002c6.957-4.508,17.146-5.479,24.226-2.302      c2.976,1.334,4.947,3.513,5.709,6.3c0.233,0.862,0.344,1.764,0.334,2.686c0.788,0.115,1.575,0.264,2.35,0.449      c5.268,1.258,8.53,5.427,8.73,11.149C448.109,49.513,445.586,54.641,440.996,58.154z M432.165,36.007      c-1.644,0.062-3.197,0.311-4.503,0.747c-1.569,0.52-4.237,2.286-4.957,4.114c-0.23,0.583-0.214,1.062,0.052,1.55      c0.308,0.564,0.6,0.627,0.869,0.643c1.929,0.084,6.153-3.378,7.476-5.249C431.523,37.219,431.88,36.613,432.165,36.007z       M406.561,30.558c-2.195,1.979-4.162,4.915-4.156,9.08c0.003,1.443,0.535,2.516,1.423,2.869c0.94,0.376,2.169-0.071,3.216-1.167      c1.196-1.253,1.806-3.057,1.673-4.953C408.542,33.898,407.829,31.961,406.561,30.558z"/>
				<path style="fill:#00073E;" d="M404.22,116.4c0,0-8.996,17.205-21.309,16.417c-12.313-0.789-17.522-11.998-14.05-19.89      c3.475-7.892,15.023-5.999,18.404,4.261c0,0-13.509-7.258-16.034,0.634c-2.529,7.891,14.365,14.204,33.78-3.948      c0,0,18.78,19.576,31.887,14.05c13.104-5.526-3.472-20.678-16.258-11.523c0,0,9.787-13.1,22.1-4.735      c12.313,8.364,6.001,24.624-8.841,24.466C419.062,135.975,404.22,116.4,404.22,116.4z"/>
				<path style="opacity:0.4;fill:#FFFFFF;" d="M404.528,41.961c-11.567,10.351-25.416,13.737-30.94,7.567      c-5.524-6.173-0.629-19.568,10.935-29.918c11.567-10.351,25.423-13.737,30.94-7.568      C420.987,18.214,416.092,31.61,404.528,41.961z"/>
				<path style="opacity:0.4;fill:#FFFFFF;" d="M433.874,9.635c0,0,57.825,41.055,25.248,85.95      C459.121,95.584,511.847,45.463,433.874,9.635z"/>
			</g>
		</g>
		<path style="fill:#00073E;" d="M362.128,170.283c-16.336,1.422-5.171-32.201-5.171-32.201s11.09-2.368,9.434-7.104    c-0.499-1.425-3.391-2.345-7.161-2.783c-1.802-7.189-5.881-22.579-7.518-21.489c-1.588,1.058,2.078,14.458,4.052,21.229    c-8.477-0.311-18.877,1.405-18.735,5.174c0.237,6.156,16.339,5.326,16.339,5.326s-11.839,37.294,6.75,37.768    c18.585,0.473,23.085-27.703,23.085-27.703S378.467,168.864,362.128,170.283z"/>
	</g>
</g>















</svg>
