<?xml version="1.0" encoding="UTF-8"?>
<!-- Generator: Adobe Illustrator 25.2.3, SVG Export Plug-In . SVG Version: 6.00 Build 0)  -->
<svg xmlns="http://www.w3.org/2000/svg" xmlns:xlink="http://www.w3.org/1999/xlink" version="1.1" id="Capa_1" x="0px" y="0px" viewBox="0 0 512 512" style="enable-background:new 0 0 512 512;" xml:space="preserve" width="512" height="512">
<g>
	<path style="fill:#061535;" d="M179.781,262.049c0,0-34.46,39.416-56.644,33.578c-22.199-5.841-11.101-30.076-11.101-30.076   s-16.055,18.985-23.068,13.579c-7.005-5.405,2.043-14.165,2.043-14.165s-41.46,21.317-53.144,4.965   c-11.679-16.353,27.744-48.473,27.744-48.473s-17.815,1.751-18.986-5.546c-1.166-7.3,14.892-10.221,14.892-10.221   s-31.536-0.877-31.536-18.396c0-17.52,44.674-21.607,44.674-21.607s-18.1-59.567,26.868-26.572   c44.968,32.994,58.692,30.366,58.692,30.366l32.124,25.114L179.781,262.049z"/>
	<g>
		<path style="fill:#061535;" d="M87.225,144.293C67.16,98.11,85.471,38.962,85.471,38.962S194.376-16.228,284.026,4.763    c34.247,8.026,48.476,42.1,52.961,81.153l-100.783,89.217l-113.185-1.666L87.225,144.293z"/>
		<g style="opacity:0.2;">
			<path style="fill:#FFFFFF;" d="M280.34,27.348c-10.801,53.836-50.999,100.393-104.092,117.126     c51.75-17.907,90.339-64.517,99.564-117.809L280.34,27.348z"/>
			<path style="fill:#FFFFFF;" d="M262.963,12.128c-11.022,54.486-46.626,117.307-111.029,112.706     c63.607,2.902,97.029-59.425,106.512-113.457L262.963,12.128z"/>
			<path style="fill:#FFFFFF;" d="M232.631,17.36c0.182,38.815-20.361,76.787-54.895,95.078     c33.019-19.208,51.966-56.867,50.324-94.856L232.631,17.36z"/>
		</g>
	</g>
	<g>
		<path style="fill:#FF889C;" d="M180.947,330.377c0,0,53.438-77.966,5.842-88.186c-75.362-16.186-59.86,83.804-59.86,83.804    L180.947,330.377z"/>
		<polygon style="fill:#FFFFFF;" points="190.237,252.306 174.824,306.146 162.261,311.103 172.263,248.748 182.3,248.519   "/>
	</g>
	<polygon style="fill:#FFD3A4;" points="42.54,347.02 342.715,227.3 471.78,296.216 190.585,512  "/>
	<g>
		<g>
			<path style="fill:#7F4218;" d="M242.272,264.674c0,0,8.762,23.949,1.454,26.858c-7.304,2.926-11.088-11.09-11.088-11.09     s-0.809,2.225-2.293,5.31l-2.723-11.476c2.285-3.033,3.842-5.8,3.842-5.8s-4.957-13.122,0-15.468     c4.957-2.35,7.01,8.164,7.01,8.164s30.359-6.711,33.867-2.628C275.842,262.626,242.272,264.674,242.272,264.674z"/>
			<path style="fill:#061535;" d="M239.512,276.626c-3.046,0-5.61-8.204-6.592-11.832l1.689-0.459     c1.67,6.158,4.064,10.707,4.895,10.538c0.812-0.663,0-6.66-1.765-12.821l1.684-0.483c0.548,1.907,3.192,11.549,1.595,14.171     c-0.356,0.583-0.831,0.785-1.169,0.853C239.736,276.614,239.622,276.626,239.512,276.626z"/>
			
				<rect x="236.689" y="271.475" transform="matrix(0.9903 -0.1386 0.1386 0.9903 -36.696 35.6414)" style="fill:#061535;" width="1.755" height="19.662"/>
			
				<rect x="237.66" y="283.198" transform="matrix(0.8667 -0.4989 0.4989 0.8667 -109.4032 158.795)" style="fill:#061535;" width="9.44" height="1.753"/>
			
				<rect x="236.484" y="276.665" transform="matrix(0.8021 -0.5972 0.5972 0.8021 -117.991 199.0728)" style="fill:#061535;" width="9.695" height="1.753"/>
		</g>
		<path style="fill:#FF889C;" d="M230.346,285.752c-5.521,11.527-20.483,35.127-38.004-0.351l5.834-25.107    c0,0,14.315,23.075,20.445,21.603c3.192-0.753,6.514-4.347,9.002-7.621L230.346,285.752z"/>
		
			<rect x="227.232" y="273.063" transform="matrix(0.9795 -0.2016 0.2016 0.9795 -51.7122 51.912)" style="fill:#F23838;" width="3.504" height="13.505"/>
	</g>
	<g>
		<path style="fill:#7F4218;" d="M326.072,225.255c-67.451,46.13-131.105,10.511-131.105,10.511l-4.73,16.539    c-7.812,2.066-14.172-0.913-17.974-3.558l7.518-46.85c0,0-61.9,13.423-86.727-24.246c-6.849-10.39-8.411-22.651-5.828-33.358    c6.692-28.102,41.73-45.606,83.794,8.776c0,0,100.443-28.557,118.841-112.654c0,0,25.051,41.469,47.127,45.499    C344.256,149.075,326.072,225.255,326.072,225.255z"/>
		<path style="fill:#061535;" d="M242.647,124.448c4.424-13.598,21.938-22.926,35.702-19.156l0.416,0.772    c-8.719,5.266-26.494,14.804-35.702,19.156L242.647,124.448z"/>
		<path style="fill:#061535;" d="M299.043,97.387c11.48-6.075,28.318,0.523,32.736,12.703l-0.318,0.818    c-8.402-2.708-24.71-9.031-32.736-12.703L299.043,97.387z"/>
		<path style="fill:#061535;" d="M104.378,155.719c0,0,7.256-11.402,29.83-0.892c22.536,10.503,27.707,26.832,16.001,33.206    c-11.689,6.361-33.066-8.945-18.403-14.018l-12.758-4.073l18.694,2.701c0,0-10.451,5.87-1.136,12.475    c9.336,6.587,27.062-5.639,8.451-21.575C126.41,147.599,104.378,155.719,104.378,155.719z"/>
		<path style="fill:#061535;" d="M285.699,171.924l-5.526,28.581c0,0,19.401-1.991,10.003,9.525l-26.765-7.811    c0,0,6.63-7.145,7.35-0.942c0,0-1.325-2.6-4.652,0.582l23.886,6.326c0,0,6.05-7.406-11.624-6.852    C278.371,201.334,277.445,176.966,285.699,171.924z"/>
		<g>
			<path style="fill:#061535;" d="M223.912,193.351c0,0-6.775-1.68-15.872,1.827c0,0,7.585-6.066,17.952-4.638L223.912,193.351z"/>
			<polygon style="fill:#061535;" points="218.537,193.521 221.125,200.102 225.694,203.266 229.622,204.782 210.259,230.112      206.179,229.424 202.566,225.524 201.967,219.521 203.092,213.401 203.915,209.092 206.972,204.266 211.546,198.722    "/>
			<path style="fill:#061535;" d="M219.741,190.979c0,0,0.151,15.662,19.188,14.025c0,0-17.758,3.496-21.428-9.67     c0,0-12.385,6.809-13.783,19.607c-1.398,12.805,4.023,16.73,16.061,12.708c0,0-16.506,8.501-18.754-3.399     C197.291,204.534,219.741,190.979,219.741,190.979z"/>
			<path style="fill:#FFFFFF;" d="M218.257,194.279c0,0,1.263,8.856,9.199,10.381l-3.616,4.659l-13.708-7.92     C210.132,201.399,213.311,196.722,218.257,194.279z"/>
			<path style="fill:#FF889C;" d="M201.967,217.13c0,0-1.676,10.927,6.074,11.266C208.041,228.396,211.255,215.325,201.967,217.13z"/>
		</g>
		<g>
			
				<rect x="234.498" y="159.632" transform="matrix(0.2641 -0.9645 0.9645 0.2641 11.0959 352.045)" style="fill:#061535;" width="3.503" height="18.238"/>
			
				<rect x="234.97" y="148.662" transform="matrix(0.4617 -0.887 0.887 0.4617 -15.1704 296.5175)" style="fill:#061535;" width="3.505" height="24.193"/>
			<path style="fill:#FFFFFF;" d="M276.449,167.749c-4.463,20.238-16.719,34.74-27.372,32.387     c-10.648-2.349-15.667-20.657-11.203-40.893c4.466-20.238,16.722-34.74,27.367-32.388     C275.896,129.203,280.912,147.512,276.449,167.749z"/>
			<path style="fill:#061535;" d="M269.08,175.131c0,6.429-2.668,11.638-5.958,11.638c-3.292,0-5.961-5.209-5.961-11.638     c0-6.426,2.669-11.637,5.961-11.637C266.412,163.495,269.08,168.705,269.08,175.131z"/>
		</g>
		<g>
			
				<rect x="317.97" y="167.44" transform="matrix(0.9758 -0.2187 0.2187 0.9758 -29.0859 75.6002)" style="fill:#061535;" width="18.002" height="3.504"/>
			
				<rect x="316.107" y="160.078" transform="matrix(0.9345 -0.3559 0.3559 0.9345 -36.1339 127.2682)" style="fill:#061535;" width="23.363" height="3.503"/>
			<path style="fill:#FFFFFF;" d="M326.663,163.667c-1.549,20.663-11.106,36.796-21.346,36.03     c-10.243-0.765-17.291-18.141-15.745-38.805c1.546-20.668,11.104-36.8,21.347-36.031     C321.161,125.627,328.209,143.002,326.663,163.667z"/>
			<path style="fill:#061535;" d="M304.841,173.465c0,6.428-2.669,11.638-5.958,11.638c-3.292,0-5.958-5.21-5.958-11.638     c0-6.425,2.666-11.635,5.958-11.635C302.173,161.83,304.841,167.04,304.841,173.465z"/>
		</g>
	</g>
	<g>
		<path style="fill:#7F4218;" d="M209.565,321.614l-16.522,7.657l-2.51-12.825c0,0-5.443,8.655-11.786,0.196    c0,0-0.755,0.399-2.088,0.978l0.634-9.599c0.737,0.034,1.489,0.034,2.275,0.016c0,0,1.033-12.615,11.565-13.157    C201.646,294.335,210.823,301.958,209.565,321.614z"/>
		<path style="fill:#FF889C;" d="M177.293,308.02l-0.634,9.599c-6.233,2.628-25.019,8.901-37.28-5.676    c-14.876-17.678,15.44-56.907,15.44-56.907l6.776,6.135C161.594,261.171,135.366,307.108,177.293,308.02z"/>
		<path style="fill:#F23838;" d="M156.208,256.102c0,0-2.434,2.969-5.715,7.777c-3.26,4.807-7.38,11.43-10.453,18.551    c-1.535,3.554-2.812,7.225-3.589,10.768c-0.367,1.774-0.634,3.508-0.739,5.165c-0.094,1.655-0.083,3.234,0.111,4.671    c0.154,1.442,0.48,2.743,0.853,3.861c0.364,1.129,0.818,2.057,1.233,2.803c0.364,0.776,0.834,1.272,1.069,1.666    c0.262,0.378,0.402,0.579,0.402,0.579s-0.151-0.193-0.432-0.555c-0.256-0.379-0.758-0.855-1.168-1.614    c-0.461-0.728-0.971-1.642-1.406-2.768c-0.443-1.116-0.85-2.427-1.093-3.892c-0.278-1.461-0.383-3.077-0.38-4.781    c0.011-1.707,0.186-3.498,0.464-5.339c0.591-3.673,1.686-7.5,3.049-11.214c2.73-7.445,6.543-14.412,9.592-19.496    c3.063-5.079,5.424-8.314,5.424-8.314L156.208,256.102z"/>
		<path style="fill:#F23838;" d="M161.594,261.171c0,0-25.783,45.15,16.141,46.062l-0.442,11.514l-3.575,0.752l0.37-10.294    C174.088,309.204,134.085,310.51,161.594,261.171z"/>
		<path style="fill:#061535;" d="M197.901,327.488l-1.748-0.127c0.011-0.151,1.02-15.243-5.419-17.477l0.572-1.654    C199.009,310.902,197.949,326.812,197.901,327.488z"/>
		<path style="fill:#061535;" d="M201.694,324.892c-0.008-0.166-0.818-16.616-9.549-18.632l0.394-1.708    c10.027,2.317,10.874,19.533,10.904,20.265L201.694,324.892z"/>
		<path style="fill:#061535;" d="M205.655,323.101c-0.019-0.213-2.04-21.21-11.611-21.345l0.027-1.751    c11.136,0.156,13.244,22.008,13.327,22.937L205.655,323.101z"/>
	</g>
	<g>
		<g>
			<path style="fill:#F23838;" d="M107.918,367.718l190.917-25.344l30.837,47.725c0,0-211.612,29.66-210.35,29.194     C120.593,418.825,107.918,367.718,107.918,367.718z"/>
			<path style="fill:#FFFFFF;" d="M323.333,385.878c0,0-46.039-104.62-116.153-39.005c0,0-66.317-30.687-94.194,21.266     l11.821,47.727L323.333,385.878z"/>
		</g>
		<path style="fill:#061535;" d="M210.917,403.48l-1.706-0.986c0.203-0.353,5.073-8.654,12.124-9.181    c3.732-0.295,7.356,1.689,10.683,5.862l-1.544,1.23c-2.892-3.632-5.977-5.356-8.985-5.127    C215.48,395.724,210.963,403.402,210.917,403.48z"/>
		<polygon style="fill:#061535;" points="218.767,394.95 207.291,348.781 222.55,393.841   "/>
		<path style="fill:#061535;" d="M126.421,411.98l-1.263-1.514c0.462-0.386,46.676-38.296,90.257-19.54l-0.777,1.81    C172.174,374.473,126.877,411.605,126.421,411.98z"/>
		<path style="fill:#061535;" d="M223.753,392.538l-1.376-1.411c44.412-43.426,96.013-11.45,96.528-11.124l-1.058,1.665    C317.346,381.346,267.035,350.221,223.753,392.538z"/>
		<path style="fill:#061535;" d="M131.912,412.051l-1.074-1.654c2.037-1.321,50.235-32.137,82.027-16.89l-0.853,1.778    C181.214,380.503,132.398,411.733,131.912,412.051z"/>
		<path style="fill:#061535;" d="M140.304,412.133l-0.761-1.819c1.908-0.799,47.003-19.488,68.212-8.198l-0.928,1.741    C186.457,393.011,140.766,411.941,140.304,412.133z"/>
		<path style="fill:#061535;" d="M151.138,403.902l-0.734-1.829c1.571-0.63,38.737-15.354,60.114-4.319l-0.907,1.751    C189.047,388.883,151.513,403.749,151.138,403.902z"/>
		<path style="fill:#061535;" d="M231.757,397.937l-1.02-1.689c30.464-18.364,87.178-12.36,87.748-12.296l-0.216,1.959    C317.71,385.851,261.643,379.915,231.757,397.937z"/>
		<path style="fill:#061535;" d="M228.089,394.911l-1.506-1.272c0.308-0.368,31.655-36.514,85.595-14.018l-0.761,1.819    C258.848,359.514,228.389,394.552,228.089,394.911z"/>
		<path style="fill:#061535;" d="M236.112,391.315l-1.115-1.627c0.31-0.212,31.371-21.081,67.232-10.101l-0.577,1.886    C266.708,370.76,236.414,391.109,236.112,391.315z"/>
		<path style="fill:#23AFCF;" d="M287.823,354.932c0,4.339-5.467,7.856-12.207,7.856c-6.738,0-12.205-3.517-12.205-7.856    c0-4.336,5.467-7.855,12.205-7.855C282.356,347.077,287.823,350.596,287.823,354.932z"/>
		<path style="fill:#F23838;" d="M157.587,379.862c0,5.877-6.338,10.64-14.161,10.64c-7.82,0-14.164-4.763-14.164-10.64    c0-5.877,6.344-10.641,14.164-10.641C151.249,369.221,157.587,373.985,157.587,379.862z"/>
		<path style="fill:#061535;" d="M192.339,354.932c0,4.339-5.232,7.856-11.681,7.856c-6.454,0-11.684-3.517-11.684-7.856    c0-4.336,5.229-7.855,11.684-7.855C187.107,347.077,192.339,350.596,192.339,354.932z"/>
		<path style="fill:#061535;" d="M179.781,359.576c-2.361,0-23.071-0.127-23.071-4.526c0-4.398,20.71-4.525,23.071-4.525    c2.361,0,23.063,0.127,23.063,4.525C202.844,359.449,182.142,359.576,179.781,359.576z M179.781,352.275    c-13.81,0-20.812,1.897-21.336,2.863c0.523,0.789,7.523,2.686,21.336,2.686c13.81,0,20.804-1.897,21.328-2.864    C200.585,354.171,193.586,352.275,179.781,352.275z"/>
		
			<rect x="228.056" y="367.106" transform="matrix(0.9385 -0.3453 0.3453 0.9385 -112.1183 106.5728)" style="fill:#061535;" width="30.03" height="1.751"/>
		
			<rect x="222.116" y="359.94" transform="matrix(0.9473 -0.3204 0.3204 0.9473 -102.934 95.9358)" style="fill:#061535;" width="35.992" height="1.752"/>
		<polygon style="fill:#061535;" points="230.626,358.069 230.065,356.409 247.245,350.57 247.806,352.23   "/>
		<polygon style="fill:#061535;" points="223.224,351.093 222.906,349.369 265.764,341.512 266.082,343.236   "/>
		
			<rect x="235.059" y="338.271" transform="matrix(0.9534 -0.3018 0.3018 0.9534 -90.901 89.9976)" style="fill:#061535;" width="21.432" height="1.752"/>
		<polygon style="fill:#061535;" points="162.361,382.639 162.161,380.898 200.191,376.478 200.391,378.219   "/>
		
			<rect x="165.925" y="371.928" transform="matrix(0.9916 -0.1293 0.1293 0.9916 -46.6671 26.8368)" style="fill:#061535;" width="34.825" height="1.752"/>
		<polygon style="fill:#061535;" points="166.144,370.094 165.998,368.348 180.585,367.109 180.731,368.855   "/>
		
			<rect x="125.109" y="365.343" transform="matrix(0.9581 -0.2866 0.2866 0.9581 -99.1974 54.6402)" style="fill:#061535;" width="23.93" height="1.752"/>
		
			<rect x="121.512" y="361.035" transform="matrix(0.9504 -0.311 0.311 0.9504 -105.7764 60.3966)" style="fill:#061535;" width="30.006" height="1.752"/>
		
			<rect x="125.211" y="356.693" transform="matrix(0.9385 -0.3453 0.3453 0.9385 -115.1769 68.4629)" style="fill:#061535;" width="18.794" height="1.751"/>
		
			<rect x="128.773" y="348.998" transform="matrix(0.9634 -0.2682 0.2682 0.9634 -88.6213 50.9052)" style="fill:#061535;" width="26.535" height="1.75"/>
	</g>
	<g>
		<path style="fill:#061535;" d="M399.947,332.418l-68.328,3.502C331.62,335.921,361.99,281.024,399.947,332.418z"/>
		<polygon style="fill:#061535;" points="361.407,323.298 363.738,243.067 370.166,323.074   "/>
		<path style="fill:#061535;" d="M460.884,237.956c0,10.883-8.824,19.71-19.712,19.71c-10.877,0-19.703-8.828-19.703-19.71    c0-10.885,8.826-19.709,19.703-19.709C452.061,218.247,460.884,227.071,460.884,237.956z"/>
		<path style="fill:#061535;" d="M442.829,252.252c-14.552,0-39.18-2.751-39.18-13.06c0-10.31,24.628-13.061,39.18-13.061    c14.555,0,39.188,2.751,39.188,13.061C482.018,249.501,457.384,252.252,442.829,252.252z M410.808,239.192    c1.784,1.998,12.345,6.052,32.021,6.052c19.682,0,30.246-4.054,32.029-6.052c-1.784-1.999-12.347-6.054-32.029-6.054    C423.153,233.138,412.592,237.192,410.808,239.192z"/>
		<path style="fill:#061535;" d="M340.721,299.096c-9.97,0-18.427-7.068-18.848-7.426l2.267-2.673    c0.108,0.09,11.044,9.196,21.514,5.839c7.701-2.47,13.443-10.997,17.075-25.344l3.395,0.861    c-3.948,15.608-10.48,24.971-19.417,27.827C344.685,298.826,342.675,299.096,340.721,299.096z"/>
		<path style="fill:#061535;" d="M381.706,300.904c-1.778,0-3.618-0.294-5.445-1.033c-6.786-2.744-11.236-10.74-13.227-23.763    l3.465-0.529c1.789,11.715,5.515,18.795,11.077,21.043c7.062,2.86,15.027-3.105,15.108-3.164l2.121,2.787    C394.497,296.482,388.587,300.904,381.706,300.904z"/>
		<path style="fill:#061535;" d="M325.829,283.152c-1.881,0-3.751-0.119-5.607-0.355c-18.227-2.321-28.268-15.196-28.689-15.744    l2.782-2.132c0.095,0.123,9.641,12.296,26.403,14.407c13.419,1.685,27.704-3.342,42.521-14.941l0.682-0.536l0.842,0.22    c0.521,0.135,52.796,13.534,70.637-9.239l2.758,2.161c-18.168,23.196-66.204,12.46-73.441,10.68    C351.366,277.963,338.317,283.152,325.829,283.152z"/>
		<path style="fill:#061535;" d="M346.639,264.177c-18.381,0-33.629-11.025-34.35-11.554l2.072-2.825    c0.189,0.138,19.077,13.751,39.086,10.302c10.853-1.874,20.151-8.417,27.645-19.448l2.898,1.97    c-8.052,11.855-18.136,18.899-29.971,20.935C351.523,263.987,349.051,264.177,346.639,264.177z"/>
		<path style="fill:#061535;" d="M368.995,243.212l-0.089-3.503c0.189-0.014,19.455-2.024,29.971-16.159    c6.401-8.604,8.101-19.914,5.057-33.615l3.422-0.761c3.397,15.298,1.222,27.916-6.468,37.503    C389.24,241.198,369.181,243.212,368.995,243.212z"/>
		<path style="fill:#061535;" d="M384.489,253.401c-8.735,0-15.084-0.911-15.753-1.012l0.518-3.465    c0.418,0.059,42.224,6.036,61.042-13.558c8.338-8.682,11.009-21.259,7.933-37.379l3.443-0.656    c3.3,17.303,0.321,30.919-8.853,40.467C420.263,250.865,399.057,253.401,384.489,253.401z"/>
		<path style="fill:#FFB30B;" d="M404.888,221.02c0,23.307-18.894,42.195-42.2,42.195c-23.303,0-42.194-18.888-42.194-42.195    c0-23.301,18.891-42.193,42.194-42.193C385.994,178.827,404.888,197.719,404.888,221.02z"/>
		<path style="fill:#23AFCF;" d="M413.966,185.103c0,4.595-3.727,8.323-8.322,8.323c-4.595,0-8.324-3.728-8.324-8.323    c0-4.595,3.729-8.322,8.324-8.322C410.239,176.781,413.966,180.508,413.966,185.103z"/>
		<path style="fill:#F23838;" d="M452.069,196.127c0,6.087-4.933,11.023-11.023,11.023c-6.087,0-11.023-4.935-11.023-11.023    c0-6.088,4.935-11.024,11.023-11.024C447.136,185.103,452.069,190.04,452.069,196.127z"/>
		<path style="fill:#23AFCF;" d="M409.875,286.136c0,7.661-6.206,13.871-13.864,13.871c-7.666,0-13.878-6.21-13.878-13.871    c0-7.662,6.212-13.872,13.878-13.872C403.669,272.264,409.875,278.474,409.875,286.136z"/>
		<path style="fill:#FF889C;" d="M300.16,261.461c0,5.967-4.83,10.803-10.802,10.803c-5.966,0-10.802-4.835-10.802-10.803    c0-5.968,4.835-10.804,10.802-10.804C295.33,250.657,300.16,255.494,300.16,261.461z"/>
		<path style="fill:#061535;" d="M319.995,242.89c3.109,4.671,1.84,10.984-2.833,14.091c-4.673,3.107-10.982,1.84-14.091-2.832    c-3.106-4.672-1.835-10.981,2.836-14.088C310.575,236.951,316.887,238.218,319.995,242.89z"/>
		<path style="fill:#F23838;" d="M339.62,292.151c0,10.564-8.562,19.126-19.126,19.126c-10.561,0-19.123-8.562-19.123-19.126    c0-10.563,8.562-19.126,19.123-19.126C331.059,273.025,339.62,281.588,339.62,292.151z"/>
		
			<rect x="335.23" y="328.024" transform="matrix(0.9988 -0.0493 0.0493 0.9988 -15.7809 18.4391)" style="fill:#FFB30B;" width="60.817" height="1.753"/>
	</g>
</g>















</svg>
