<?xml version="1.0" encoding="UTF-8"?>
<!-- Generator: Adobe Illustrator 25.2.3, SVG Export Plug-In . SVG Version: 6.00 Build 0)  -->
<svg xmlns="http://www.w3.org/2000/svg" xmlns:xlink="http://www.w3.org/1999/xlink" version="1.1" id="Capa_1" x="0px" y="0px" viewBox="0 0 512 512" style="enable-background:new 0 0 512 512;" xml:space="preserve" width="512" height="512">
<g>
	<g>
		<g>
			<path style="fill:#061535;" d="M347.468,247.555l20.071-45.302c0,0-44.44-2.008-44.729-46.164     c-0.287-44.156,88.887-97.487,162.003-65.661c73.119,31.828-15.198,191.538-100.355,122.72L347.468,247.555z"/>
			<path style="fill:#FFFFFF;" d="M352.935,238.833l17.023-38.429c0,0-42.286-1.909-42.559-43.924     c-0.273-42.014,84.576-92.759,154.142-62.476c69.574,30.284-14.46,182.242-95.487,116.769L352.935,238.833z"/>
		</g>
		<g>
			<path style="fill:#061535;" d="M369.806,153.308c-1.286-11.59-2.484-23.166-2.581-34.838c-0.025-2.922-5.959-7.644-6.925-3.147     c-1.929,8.966-6.174,21.259-16.586,22.797c-4.015,0.593,0.263,8.008,3.923,7.468c6.147-0.908,10.514-4.981,13.62-10.138     c0.45,5.204,1.003,10.401,1.58,15.6C363.24,154.679,370.382,158.499,369.806,153.308z"/>
			<path style="fill:#061535;" d="M394.094,127.188c1.763-0.519,1.164-3.538-0.308-5.647c2.789-2.772,5.656-6.162,4.321-10.355     c-1.002-3.148-3.402-5.97-6.889-6.26c-7.502-0.621-17.281,5.628-14.734,14.106c0.824,2.744,2.368,5,4.259,7.021     c-3.716,4.216-6.271,9.67-5.974,14.438c0.566,9.096,10.127,14.312,17.378,8.401c7.022-5.726,4.221-14.667-0.865-20.5     C392.187,127.886,393.126,127.473,394.094,127.188z M384.91,115.528c1.623-1.293,3.652-2.083,5.686-2.497     c-0.592,0.624-1.225,1.21-1.792,1.772c-1.051,1.042-0.546,3.285,0.553,5.022c-1.609,0.583-3.211,1.478-4.736,2.621     c-0.007-0.006-0.014-0.011-0.02-0.017C381.535,119.816,381.522,118.226,384.91,115.528z M388.629,140.73     c-1.543,2.015-4.096,2.983-6.539,3.015c-3.504,0.046-0.158-5.156,0.631-6.509c1.131-1.936,2.618-3.915,4.356-5.629     C389.864,134.042,391.719,136.696,388.629,140.73z"/>
			<path style="fill:#061535;" d="M399.176,172.983c-1.864,0.062-4.152,0.5-5.657,1.685c-3.312,2.609-6.531,5.383-9.806,8.08     c-1.888-2.605-3.739-5.24-5.509-7.941c-1.084-1.654-8.883-3.623-7.42-1.39c2.821,4.305,5.798,8.48,8.92,12.545     c-3.468,2.688-7.063,5.19-10.959,7.232c-1.422,0.745-1.158,1.68,0.386,1.814c1.987,0.171,4.191-0.346,5.949-1.267     c2.528-1.325,4.935-2.83,7.266-4.446c2.11,2.634,4.261,5.237,6.502,7.777c1.258,1.426,3.511,2.216,5.322,2.554     c0.717,0.134,3.366,0.272,2.098-1.164c-3.46-3.921-6.754-7.958-9.901-12.108c5.005-3.835,9.751-8.044,14.693-11.937     C402.569,173.227,399.858,172.96,399.176,172.983z"/>
			<path style="fill:#061535;" d="M404.966,163.684c-1.341-1.628,2.048-2.84,3.205-3.013c0.829-0.124,1.25-0.045,1.439,0.798     c0.404,1.8-1.319,3.699-2.448,4.814c-2.096,2.068-7.945,6.307-4.68,9.746c2.57,2.708,7.412,1.231,10.52,0.51     c0.778-0.18,1.305-1.056,0.802-1.755c-0.575-0.799-1.664-0.858-2.533-0.657c-1.553,0.359-3.956,1.247-5.518,0.649     c-2.074-0.795,2.331-4.876,2.897-5.399c2.314-2.13,6.635-6.27,3.978-9.74c-3.166-4.136-14.91,0.398-10.997,5.147     C402.673,166.047,406.288,165.288,404.966,163.684L404.966,163.684z"/>
			<path style="fill:#061535;" d="M487.665,113.057c-0.824-0.995,1.254-1.737,1.961-1.843c0.507-0.075,0.764-0.026,0.881,0.489     c0.247,1.102-0.808,2.264-1.499,2.947c-1.283,1.266-4.863,3.863-2.865,5.967c1.574,1.658,4.541,0.755,6.442,0.31     c0.475-0.112,0.798-0.647,0.491-1.075c-0.353-0.488-1.022-0.526-1.553-0.402c-0.948,0.223-2.42,0.766-3.378,0.4     c-1.271-0.487,1.426-2.986,1.774-3.306c1.416-1.305,4.064-3.839,2.436-5.963c-1.939-2.532-9.129,0.245-6.733,3.149     C486.261,114.504,488.473,114.039,487.665,113.057L487.665,113.057z"/>
			<path style="fill:#061535;" d="M436.891,201.251c-5.717-0.927-7.37-6.899-9.192-11.611c-0.18-0.464-2.187-2.662-2.174-2.307     c0.001,0.029,0,0.061,0.001,0.09c-0.32-0.443-0.667-0.78-0.964-0.794c-7.394-0.348-10.228,5.604-11.402,12.008     c-0.744,4.058,0.776,7.909,4.253,10.157c5.925,3.832,9.405-9.556,10.23-16.01c2.281,5.234,5.539,10.621,11.19,11.538     C439.057,204.359,437.849,201.407,436.891,201.251z M419.982,204.862c-0.84,0.96-1.959,1.499-3.236,1.364     c-2.571-0.271-1.189-5.398-0.85-6.838c1.25-5.311,4.011-9.486,9.587-9.69C425.146,194.949,423.182,201.199,419.982,204.862z"/>
			<path style="fill:#061535;" d="M451.598,188.978c-2.889,0.726-6.036,1.451-8.973,2.574c-0.565-0.986-1.214-1.911-1.968-2.732     c-1.747-1.898-1.473,0.424-0.434,1.557c0.446,0.485,0.808,1.07,1.124,1.697c-2.159,0.942-4.161,2.143-5.799,3.785     c-1.083,1.085,1.77,3.525,2.903,2.39c1.15-1.152,2.52-2.068,4.009-2.825c0.321,1.569,0.456,3.174,0.483,4.528     c0.016,0.921,2.475,3.491,2.452,2.232c-0.046-2.445-0.485-5.054-1.345-7.489c3.025-1.264,6.37-2.015,9.321-2.757     C455.295,191.454,452.99,188.628,451.598,188.978z"/>
			<path style="fill:#061535;" d="M467.997,175.186c-5.769-1.084-8.093,1.711-8.737,5.774c-2.576-6.505-4.298-13.366-6.907-19.876     c-0.295-0.735-3.643-0.059-3.751-0.321c3.743,9.341,5.658,19.405,10.896,28.1c0.309,0.514,3.747,0.319,3.747,0.321     c-0.438-2.848-0.618-5.666-0.293-8.535c0.452-4.01,4.069-6.947,7.034-2.457c3.513,5.325-7.854,13.012-11.565,14.066     c0.574-0.162,2.566,0.705,3.608,0.41C469.208,190.627,480.904,177.61,467.997,175.186z"/>
			<path style="fill:#061535;" d="M437.826,133.892c0.012,1.26,0.063,2.431,0.297,3.674c0.356,1.884,1.689,3.735,2.99,5.087     c0.511,0.535,2.4,2.171,2.22,0.342c-0.449-4.6-3.626-11.691-0.449-15.805c0.459-0.595,1.353-1.029,2.091-1.045     c0.998,0.236,0.685-0.273-0.945-1.527c0.273,0.556,0.434,1.182,0.616,1.771c0.572,1.821,0.887,3.822,0.931,5.73     c1.739,1.81,3.473,3.62,5.212,5.43c-0.111-3.584,1.465-8.396,4.396-10.586c0.681-0.511,1.424-0.552,2.23-0.408     c1.248,0.761,1.006,0.372-0.721-1.166c0.216,0.997,0.178,2.038,0.141,3.049c-0.093,2.516-0.703,5.013-1.234,7.463     c-0.333,1.54,1.454,3.76,2.317,4.829c0.208,0.255,2.618,3.019,2.915,1.639c1.675-7.713,2.248-17.718-5.972-22.275     c-6.61-3.664-9.422,7.398-9.284,12.027c0.055,1.757,1.852,3.902,2.99,5.087c0.602,0.627,2.262,2.115,2.222,0.343     c-0.141-5.897-3.058-15.869-9.087-18.314c-3.388-1.374-5.024,2.625-5.25,5.28c-0.372,4.406,1.248,8.712,1.672,13.05     c1.737,1.81,3.473,3.62,5.21,5.43c-0.214-0.865-0.307-1.743-0.275-2.636c-0.018-1.768-1.25-3.508-2.317-4.829     C440.645,135.415,437.81,132.504,437.826,133.892L437.826,133.892z"/>
			<path style="fill:#061535;" d="M484.544,126.849c2.055-6.573-4.778-6.355-9.097-4.759c-5.43,2.007-8.511,6.137-10.511,11.37     c-0.966,2.533-1.497,5.347-0.657,7.972c0.871,2.716,4.586,3.193,6.937,3.097c6.073-0.247,11.939-4.575,16.664-8.014     c4.606-3.349-0.563-6.64-4.27-3.943c-2.402,1.746-4.836,3.464-7.505,4.784c-2.614,1.293-4.669,1.644-3.951-2.013     c0.406-2.059,1.915-5.903,2.937-6.72c0.808-0.645,1.677-1.078,2.622-1.476c0.162-0.068,0.762-0.11,0.404-0.08     c-1.64,0.14-0.978-1.385-1.493,0.261C475.252,131.714,483.514,130.144,484.544,126.849L484.544,126.849z"/>
			<path style="fill:#061535;" d="M405.102,124.321c5.015,9.38,9.987,19.802,20.341,24.166c7.135,3.008,8.188-5.342,7.757-10.096     c-0.915-10.078-6.903-23.045-2.729-32.744c2.982-6.933,19.282-2.641,24.973-2.143c8.686,0.762,17.397,1.245,26.09,1.892     c5.61,0.417,3.751-6.742-0.76-7.077c-13.822-1.029-27.605-2.212-41.407-3.453c-6.755-0.607-15.543,1.372-17.375,9.016     c-2.131,8.893,0.873,17.605,2.092,26.405c0.509,3.675,1.503,7.409,1.165,11.145c0.094-1.041-6.237-6.904-7.254-8.409     c-2.007-2.971-3.612-6.321-5.295-9.468C410.771,119.946,402.599,119.64,405.102,124.321L405.102,124.321z"/>
		</g>
	</g>
	<g>
		<g>
			<path style="fill:#061535;" d="M291.219,327.901c0,0,43.583,57.342,31.54-26.67l4.586,3.16c0,0,9.178,63.653-6.306,58.491     C305.556,357.722,291.219,327.901,291.219,327.901z"/>
			<path style="fill:#061535;" d="M362.3,309.467c-3.97,8.719-20.1,9.909-36.026,2.659c-15.923-7.254-25.614-20.199-21.645-28.92     c3.971-8.715,20.101-9.905,36.027-2.656C356.579,287.801,366.27,300.75,362.3,309.467z"/>
			<path style="fill:#061535;" d="M324.689,284.435c0,0,1.759-54.097,10.543-55.035c8.784-0.939-5.903,58.21-5.903,58.21     L324.689,284.435z"/>
			<path style="fill:#FFFFFF;" d="M353.405,316.834c-21.57,0.002-33.42-26.062-33.939-27.227l-2.443-5.491l4.978,3.367     c5.928,4.009,11.025,5.316,15.144,3.886c5.555-1.927,7.626-8.243,7.646-8.307l3.279,1.046c-0.105,0.326-2.632,8.027-9.797,10.512     c-3.815,1.321-8.118,0.901-12.849-1.245c4.802,7.859,15.57,21.734,30.911,19.836l0.42,3.416     C355.615,316.766,354.496,316.834,353.405,316.834z"/>
			
				<rect x="328.881" y="294.561" transform="matrix(0.6503 -0.7597 0.7597 0.6503 -105.4849 363.4069)" style="fill:#FFFFFF;" width="26.221" height="3.441"/>
			
				<rect x="338.843" y="302.755" transform="matrix(0.743 -0.6693 0.6693 0.743 -113.5524 313.2529)" style="fill:#FFFFFF;" width="24.496" height="3.441"/>
		</g>
		<g>
			<g>
				<path style="fill:#F23838;" d="M272.295,427.174c0,0-111.251,11.979-196.122-5.228L26.283,174.79      c0,0,150.245-64.801,287.301-41.291L272.295,427.174z"/>
				
					<rect x="97.65" y="160.597" transform="matrix(0.9979 -0.0654 0.0654 0.9979 -18.9994 7.179)" style="fill:#FFB30B;" width="5.162" height="266.796"/>
				
					<rect x="37.857" y="199.161" transform="matrix(0.9691 -0.2467 0.2467 0.9691 -47.8461 21.5972)" style="fill:#FFB30B;" width="48.819" height="5.162"/>
				
					<rect x="40.2" y="219.28" transform="matrix(0.9758 -0.2187 0.2187 0.9758 -46.997 19.2287)" style="fill:#FFB30B;" width="46.283" height="5.161"/>
				
					<rect x="83.987" y="393.573" transform="matrix(0.1183 -0.993 0.993 0.1183 -323.7307 441.1671)" style="fill:#FFB30B;" width="5.161" height="18.625"/>
				
					<rect x="85.706" y="374.785" transform="matrix(0.1549 -0.9879 0.9879 0.1549 -310.0584 416.2658)" style="fill:#FFB30B;" width="5.162" height="29.168"/>
				<polygon style="fill:#FFB30B;" points="95.814,371.839 72.158,371.196 51.514,238.727 81.19,233.998     "/>
			</g>
			<path style="fill:#061535;" d="M163.338,231.275l8.602-2.58c0,0,13.189,77.121,26.093,72.537     c12.902-4.584,6.88-81.424,6.88-81.424s14.624,84.585-6.88,86.593C176.528,308.402,163.338,231.275,163.338,231.275z"/>
			<path style="fill:#061535;" d="M213.517,224.35l8.601-2.582c0,0,13.19,77.125,26.092,72.541     c12.903-4.584,6.882-81.43,6.882-81.43s14.622,84.587-6.882,86.593C226.705,301.479,213.517,224.35,213.517,224.35z"/>
			<g>
				<path style="fill:#061535;" d="M176.978,349.567c-5.878,17.702-16.751,30.017-24.285,27.516      c-7.533-2.503-8.875-18.88-2.996-36.577c5.88-17.698,16.752-30.013,24.287-27.51      C181.516,315.497,182.859,331.874,176.978,349.567z"/>
				<path style="fill:#FFFFFF;" d="M176.815,328.187l-22.079,6.881C154.736,335.068,175.954,298.37,176.815,328.187z"/>
				<path style="fill:#FF889C;" d="M158.885,363.18c0,5.915-2.406,10.709-5.372,10.709c-2.967,0-5.371-4.794-5.371-10.709      c0-5.913,2.405-10.709,5.371-10.709C156.479,352.47,158.885,357.267,158.885,363.18z"/>
			</g>
		</g>
		<g>
			<path style="fill:#061535;" d="M61.166,347.686c0,0-63.94,3.44-61.072,19.785c2.866,16.343,59.066,15.195,59.066,15.195     s-11.755,18.351-30.107,15.485l7.168,24.373c0,0,52.048,2.717,33.766-44.952c0,0-56.992-1.788-59.572-9.527     C7.835,360.304,61.166,347.686,61.166,347.686z"/>
			
				<rect x="34.137" y="412.027" transform="matrix(0.9681 -0.2504 0.2504 0.9681 -102.1248 24.7017)" style="fill:#FFFFFF;" width="23.778" height="3.44"/>
			
				<rect x="31.793" y="404.08" transform="matrix(0.9687 -0.2481 0.2481 0.9687 -99.3167 23.4941)" style="fill:#FFFFFF;" width="23.53" height="3.44"/>
			<path style="fill:#FFFFFF;" d="M62.927,412.489c-0.151-0.005-3.73-0.159-6.282-3.614c-3.009-4.074-3.268-10.789-0.768-19.957     l3.319,0.905c-2.751,10.091-1.4,14.819,0.217,17.008c1.548,2.095,3.605,2.219,3.626,2.219L62.927,412.489z"/>
		</g>
	</g>
</g>















</svg>
