<svg id="Layer_1" enable-background="new 0 0 70 70" height="512" viewBox="0 0 70 70" width="512" xmlns="http://www.w3.org/2000/svg"><g id="_x38_6"><g><g><g><g><g><g><path d="m64.0527039 51.7433815c.1991882.0293617.2214584.2234764.0329895.2782745-3.8951416 1.1324844-10.1030045 3.0223007-13.1048927 3.8134193-1.8975945.5000916-.0373344.5044327-14.1134682-1.7299652-2.7607002-.438221-5.5204353-.8797684-8.2730503-1.3435783-.3602161-.0606956-.3350239-.445652.0236988-.5107384 5.226326-.9482765 9.2381859-1.8746376 14.6339417-2.9429512 1.9803771-.3920974 14.0767669 1.4444085 20.8007812 2.4355393z" fill="#5762ef"/></g><g><g><path d="m55.759407 53.2984734c0 .9241867-3.795517 1.7905426-8.6228638 1.7905426-4.8273239 0-8.9264069-1.0360336-8.9264069-1.9602203s3.9133301-1.6733894 8.7406502-1.6733894c4.8273469-.0000001 8.8086205.9188804 8.8086205 1.8430671z" fill="#2946d3"/></g><g><ellipse cx="46.668" cy="52.846" rx="8.741" ry="1.673"/></g><g><path d="m46.3726997 53.0474777c-1.9891624 0-2.0110245-.7518845 0-.7518845 1.9891625.0000001 2.0110245.7518845 0 .7518845z" fill="#fffff0"/></g></g><g><path d="m59.1683044 52.2753525c.2475662-.0787849.5186539-.209671.5875206-.4601746.0563812-.2050819-.0512543-.4280205-.214695-.5641174-.3818207-.3179359-2.1474152-.7129745-3.9415359-.2323799-.8689537.232769-1.0169525.8575363.999939 1.3404503.8429031.2018203 1.7416878.1794204 2.5687713-.0837784z" fill="#2946d3"/></g><g><path d="m58.473423 49.5472565c.0229988 1.6477814-.0205917 1.7178574-.0791702 1.8545685-.2558823.6397057-1.3131104.6908722-2.0016556.6220322-.6671753-.0678482-1.255249-.2714653-1.2892075-.9273186-.1926498-4.6344643-.3954353-9.2689285-.5987663-13.9129295-.0208817-.4769211-.3255882-.9015427-.7739563-1.0654297-.7272568-.2658234-1.4577103-.512722-2.2007866-.7407265-1.6963043-.5541153-3.4265633-1.0064888-5.1680756-1.3796272-.4749451.0225716-1.0969086-.1696548-1.5719223-.1470184.5721512-2.2584591.88451-3.4303741 2.4879227-9.7255001.780304 1.9111691 2.3409042 3.2569046 3.9353981 4.5799999 3.2977676 2.7090855 4.9477158 4.051712 6.1941452 5.4175835.1650047.1808167.2636261.4135399.2853622.6573601.3708229 4.1594391.6885262 8.3993721.7693901 12.5731201.0113221.7350196.0225716 1.4701117.0113221 2.1938857z" fill="#e153fd"/></g><g><path d="m51.5298805 35.3774529c-1.6963043-.5541153-3.4265633-1.0064888-5.1680756-1.3796272-.4749451.0225716-1.0969086-.1696548-1.5719223-.1470184.5721512-2.2584591.88451-3.4303741 2.4879227-9.7255001.780304 1.9111691 2.3409042 3.2569046 3.9353981 4.5799999.8564339 2.2202586.9258461 4.5218963.3166771 6.6721458z" fill="#9528a7"/></g><g><path d="m49.9467316 22.3579559c-.2329292.3727131-.4704781.981554-.5314751 1.6736622-.1190147 1.1389866.3138351 4.478056-1.5040741 7.927393-.7005997 1.3428497-2.2106934 2.0410385-3.3812828 3.2116241-.3053551.3166771-.5767517.667244-.7689819 1.0630188-.2375069.4862633-.3279953 1.017807-.4862633 1.5379639-.3958473 1.2778854-1.1874657 2.4200706-2.2391663 3.2569046-.7124519.5880699-1.5492821 1.017807-2.4426422 1.2553139-1.2740211.3247566-1.5895042.1896973-2.8384895.8141899-1.6836433 1.0058365-2.1452484 3.2628021-6.2536602 2.4200745-1.1775608-.2242851-2.7779217-.7680626-3.9580364-.8707886-.7916203-.0791702-1.6397705-.0338936-2.3409042-.4297371-1.1987171-.6784935-1.4135838-2.273056-2.0129776-3.5169792-.9730263-2.0281944-3.1864586-3.3640442-3.3812809-5.6995506-.1583385-1.4249039.294035-2.9063377.4523735-4.3538799.1469498-1.3230953.05653-2.6688309.1243782-4.0032463.0113201-.3845253.0452099-.7576618.11306-1.130867.2462177-2.54175 2.2019291-4.3298855 3.1438446-6.5929775.3052883-.7237701.520155-1.481432.7350216-2.2390938.1244488-.4070969.248827-.8142614.3845253-1.2213573.0678501-.1695881.1357002-.3505659.2035484-.5202236 1.1421871-2.6914015 3.9467163-2.9515476 5.6316986-5.0889034.7350903-.9272509 1.0630188-2.1599269 1.9224892-2.9967575.2035465-.203548.4410534-.3732057.6898117-.5089045.3732052-.2148676.7916203-.3732057 1.2100372-.4862647.7916222-.2148676 1.6397705-.305356 2.4200706-.4975843 1.6736641-.4184155 2.7141113-2.0016575 4.4216614-2.5331321 1.4618835-.4616222 3.1626434-.1931596 4.1390152 1.108228.4165955.4891222.5146332.6188529.9725304.8481505.3958435.1470184.8255119.0791693 1.2439957.0791693 1.8545685-.0113196 3.5961494 1.5266433 3.8335876 3.3699632.0904884.7011318-.0113182 1.436223.0339584 2.1373558.0117531.3287573.1285667.9551086.2600784 1.1195478.2940369.6898813.8594704 1.2213564 1.2778854 1.8546391 1.712925 2.6020123.5390321 6.3998687-1.0743369 9.0130488z" fill="#e153fd"/></g></g></g><g><g><path d="m41.2502861 55.1054192c3.0729294.5674782 5.1263275 1.3320808 8.1951332 1.2919655v-.8355179c-.0638466.0180817-.1244469.0341644-.1885719.0524559-5.5186386-1.1421852-13.1406746-1.7754707-20.185955-3.1098862.0338898 0 .05653.2487602.0678482.6332855h.0113201c3.8335895 1.232605 8.0856609 1.232605 12.1002254 1.9676972z" fill="#5762ef"/></g><g><path d="m50.5318375 58.7948875c-.7692604.107193-.8919144.152401-1.0864182.140049v8.4200745c1.8261337-.2700195 8.4171753-2.9256668 12.5110512-4.9102745.4636917-.2148666.9159966-.4749451.9159966-.9838486 0-3.0646744.1470184-5.5412788.2714691-8.7076912-2.5670929 1.2892036-5.1228638 2.5897293-7.7012062 3.8788643-1.4362221.723774-3.3049431 1.9366379-4.9108925 2.1628265z" fill="#3f54e8"/></g><g><path d="m48.4822083 58.7948875c-6.0727539-.8933601-14.0284462-2.5133896-19.3321476-5.5893173.05653 1.3570557.0338898 4.2294312.0112514 4.579998-.0338898.8933601.0678482 1.9338074 0 2.8271713-.0338898.4410515-.0678501.8933601-.0225716 1.3457336.0904198.7689819.6219635.7124519 1.2778873.8707886 8.0487347 1.8907776 11.8210011 3.0082245 16.7481441 4.1841583.5993233.1470184 1.289135.2375031 1.8998489.3618851.0817223.0155945.2194214.0035858.3807983-.0202942v-8.4200745c-.1543348-.0098036-.352844-.054943-.9632108-.1400489z" fill="#5762ef"/></g><g><path d="m49.4454193 55.5618668v.8355179c4.7641525-.0627403 9.1821556-2.3331718 13.7097664-4.0512848.0113182-.1357002.0226402-.2713966.0226402-.4070969-4.8551254 1.383976-8.8985405 2.2523498-13.7324066 3.6228638z" fill="#5762ef"/></g><g><path d="m49.4454193 58.9349365v-2.5375519c-3.0681534.0401077-5.125248-.7250519-8.1951332-1.2919655-4.0145645-.7350922-8.2666359-.7350922-12.1002254-1.9676971v.0678482c5.3037014 3.0759277 13.2593937 4.6959572 19.3321476 5.5893173.6103668.0851059.808876.1302453.963211.140049z" fill="#3f54e8"/></g><g><path d="m49.4454193 58.9349365c.1945038.012352.3171577-.032856 1.0864182-.140049 1.6059494-.2261887 3.4746704-1.4390526 4.9108925-2.1628265 2.5783424-1.289135 5.1341133-2.5896606 7.7012062-3.8788643.0112495-.1357002.0112495-.2714005.0112495-.4070969-4.5276108 1.7181129-8.9456139 3.9885445-13.7097664 4.0512848z" fill="#2946d3"/></g></g><g><g><path d="m38.0274124 19.7343349c0 .9836636.0678482 1.4629898.0678482 1.5944939.0285721.7421894-1.0481758.7965965-1.130867.0791683-.4850616-6.7849751 2.0638313-13.044652 6.434639-17.4719162.2600784.3053563.4975853.6107128.8368301.7803013-3.9128265 3.9241465-6.2424087 9.4540356-6.2084503 15.0179527z" fill="#9528a7"/></g></g><g><g><path d="m31.4909649 30.4436169c-3.562191 3.5283031-8.447546 5.5412807-13.4120712 5.6882992-.0977955-.195713-.2300396-.6350784-.2713966-1.1308708 4.7722263-.0791664 9.4653549-1.9903374 12.8919163-5.3603687.2148666-.214798.576685-.214798.7915516.0113201.2261866.2148666.2261866.5767535-.0000001.7916202z" fill="#9528a7"/></g></g><g><g><path d="m32.8253784 31.6196957c-2.6461887 4.0711651-4.4895096 8.6285229-5.4394684 13.3781796-.3618164-.0904884-.7237015-.1695862-1.0855885-.2374382.9612103-4.8853531 2.8497391-9.5671616 5.5751686-13.7513847.1696568-.2600784.5202236-.3392467.780302-.16959.2713968.1695899.339245.5201548.1695863.7802333z" fill="#9528a7"/></g></g><g><g><path d="m36.8400154 42.656971c-.739933.2081642-.8806534.3385544-1.085659.4410553-.5089035-4.7383347-1.5040703-9.3975029-2.9968262-13.9548645-.0904198-.305357.0678482-.6220322.3618851-.7124519.3053589-.1018085.6220322.05653.7124519.3618164 1.4814339 4.5234718 2.4766045 9.1600685 3.0081482 13.8644447z" fill="#9528a7"/></g></g><g><g><path d="m45.38937 34.4129753c-.2940369.2375069-.5880737.4862633-.8594704.7576599-2.9063377-2.8271675-6.3667908-5.0662632-10.1099586-6.5363789-.2940369-.1131268-.4410553-.4410534-.3279266-.7237701.11306-.2940369.4409866-.4410553.7350235-.3279266 3.9128264 1.5379619 7.5316161 3.8901863 10.5623321 6.8304157z" fill="#9528a7"/></g></g><g><g><path d="m49.6753349 22.9233894c-.1470184.3618183-.2261887.7237034-.2600784 1.1082287-4.3538818-.6219635-8.8773499-.2035484-13.0276146 1.2778854-.2940369.1017399-.6106453-.0565281-.723774-.350565-.101738-.2940369.0565987-.610714.3505669-.723772 4.3425598-1.5379638 9.0808983-1.9790191 13.6609001-1.3117771z" fill="#9528a7"/></g></g><g><g><path d="m49.7431831 11.4902678c-1.2213554.610713-2.2956238 1.2892056-3.2003746 1.9224882-4.2893944 3.0287838-8.1357994 7.658102-9.0581894 8.5833149-.5140152.5651321-1.3270531-.2130642-.8369026-.7577305 2.667717-2.9993992 5.9717178-6.4324913 9.2505569-8.7529039.9951019-.7124519 2.2051392-1.4587936 3.5848312-2.1147165.0117532.3287572.1285668.9551086.2600785 1.1195478z" fill="#9528a7"/></g></g><g><g><path d="m35.3585815 22.7876225c-.1809769 0-.3732071-.0904198-.4750137-.2600765-3.0080776-4.7835484-4.2859631-10.5735836-3.6753197-16.1827126.3732052-.2148676.7916203-.3732057 1.2100372-.4862647-.7576618 5.5299582.4410553 11.319994 3.4265594 16.0696507.2043916.3357214.0123178.8594031-.4862632.8594031z" fill="#9528a7"/></g></g><g><g><path d="m32.9158707 23.4888248c-2.4087543-1.029129-7.2036228-3.3587132-10.5396957-6.8078442.1244488-.4070969.248827-.8142614.3845253-1.2213573 3.1777363 3.5396214 8.1648312 5.9483738 10.5962219 6.9887524.6384429.2700634.3290443 1.2966251-.4410515 1.0404491z" fill="#9528a7"/></g></g><g><g><path d="m31.8302803 25.9541073c-2.6349411.7915516-5.3942604 1.1760769-8.1648998 1.1760769-1.7641487 0-3.5396194-.1583385-5.2811317-.4862652.0113201-.3845253.0452099-.7576618.11306-1.130867 4.3086014.8141918 8.8320713.6106434 13.0049763-.6446018.2940369-.0904903.610714.0791683.7011337.3845253.0904884.2939663-.0791703.6106434-.3731385.7011318z" fill="#9528a7"/></g></g><g><path d="m37.6428871 27.2093525c-1.3796272 3.0080776-3.3586426 5.2472439-5.0323067 5.8918438-.6107121.2374382-1.1761456.2600784-1.6624088.0452118-1.8093605-.8368301-1.7641506-4.840147.1130581-8.9452019 1.8772774-4.1049843 4.8740349-6.7625637 6.6947861-5.9257336.4975853.2261868.8594704.7011318 1.074337 1.3570538.5654335 1.6963024.16959 4.6026401-1.1874657 7.5768261z" fill="#9528a7"/></g><g><path d="m37.6428871 27.2093525c-1.3796272 3.0080776-3.3586426 5.2472439-5.0323067 5.8918438-1.3081303-3.8473721 2.4868202-12.0310001 6.2197723-13.4686699.5654336 1.6963024.1695901 4.6026401-1.1874656 7.5768261z" fill="#79168e"/></g></g><g><ellipse cx="50.14" cy="48.837" fill="#ffd55f" rx="1.86" ry="1.733"/></g><g><path d="m49.9316406 52.2625389v-2.2001953c0-.3307838.5-.3307724.5 0v2.2001953c0 .3307839-.5.3307724-.5 0z" fill="#ffd55f"/></g><g><circle cx="50.161" cy="48.858" fill="#fca929" r=".697"/></g><g><path d="m55.949707 52.6443748v-3.4306641h-4.3730469c-.3308258 0-.3306389-.5 0-.5h4.6230469c.1381836 0 .25.1123047.25.25v3.6806641c0 .3307839-.5.3307724-.5 0z" fill="#ffd55f"/></g></g><g><path d="m56.8173828 48.2000389c-.1333008 0-.2436523-.1044922-.249527-.2392578l-.5146332-11.6660156c-.0151405-.3284531.4837341-.355526.4990234-.0214844l.5146484 11.6660156c.0063477.1376953-.1005859.2548828-.2382813.2607422-.0039061 0-.0078123 0-.0112303 0z" fill="#c234e0"/></g><g><path d="m55.5478516 43.3797264c-.0024414 0-.0048828 0-.0078125 0-.1376953-.0039063-.2460938-.1201172-.2421875-.2578125l.1313477-4.3115234c.0117531-.3314323.5093689-.3145638.5.015625l-.1313477 4.3115234c-.0043946.1347656-.1152344.2421875-.25.2421875z" fill="#c234e0"/></g><g><path d="m57.2163086 43.1902733c-.0039063 0-.0078125 0-.012207 0-.1376953-.0068359-.2441406-.1240234-.2373047-.2617188l.1137695-2.3466797c.0153809-.309845.5160065-.3186264.4990234.0234375l-.1137695 2.3466797c-.0063476.1337891-.1166992.2382813-.2495117.2382813z" fill="#c234e0"/></g><g><path d="m54.6816406 34.4139061c-.5009766-.6015625-1.1479492-1.0820313-1.8710938-1.3876953-.3057289-.1293488-.1070557-.5911903.1953125-.4609375.7958984.3378906 1.5083008.8662109 2.0595703 1.5283203.2125283.2559738-.1739158.573822-.383789.3203125z" fill="#c234e0"/></g><g><path d="m55.440918 33.6834373c-.1598473 0-.1039085-.0385132-1.5541992-1.1962891-.2571602-.2090149.0622559-.5965672.3164063-.3867188l1.3959961 1.1396484c.1803054.1465494.0777739.4433595-.1582032.4433595z" fill="#c234e0"/></g><g><path d="m48.1000977 9.0135155c-.1225586 0-.2299805-.0908203-.2470703-.2158203-.175293-1.2734375-1.2172852-2.3808594-2.4770508-2.6337891-.3230171-.0653028-.2276382-.552381.0986328-.4902344 1.4614258.2939453 2.6699219 1.5791016 2.8735352 3.0556641.019043.1367188-.0766602.2626953-.2133789.2822266-.0117188.0009765-.0229493.0019531-.034668.0019531z" fill="#c234e0"/></g><g><path d="m46.2509766 9.3318748c-.0976563 0-.190918-.0576172-.230957-.1542969-.6146545-1.4780145-1.5445633-1.4937892-1.2353516-1.8964844.0834961-.1103516.2416992-.1298828.3505859-.0458984.59375.4550781 1.059082 1.0605469 1.3466797 1.7509766.0527344.1269531-.0073242.2734375-.1347656.3261719-.0317383.0136719-.0639649.0195312-.0961914.0195312z" fill="#c234e0"/></g><g><path d="m38.1933594 3.967617c.9819336-.7636719 2.2905273-1.0410156 3.4975586-.7480469.3227806.0798147.2008133.5654907-.1181641.4863281-1.0478516-.2578124-2.2231445-.0029296-3.0727539.6562501-.2616806.2025919-.5672417-.1911917-.3066406-.3945313z" fill="#c234e0"/></g><g><path d="m40.605957 5.177578c-.3500977-.2050781-.7978516-.2324219-1.1699219-.0644531-.3072205.1323409-.5036964-.3227687-.2050781-.4570313.5180664-.2304688 1.1430664-.1972656 1.6298828.0917969.1186523.0703125.1582031.2236328.0878906.3417969-.0733489.1237788-.2304992.1563506-.3427734.0878906z" fill="#c234e0"/></g><g><path d="m49.612793 14.6336327c-.1539307-.2915354.2869339-.5268307.4423828-.2324219.0527305.1001587 3.1542702 7.0691814-.4423828.2324219z" fill="#c234e0"/></g><g><path d="m49.1674805 19.0965233c-.0024414 0-.0048828 0-.0073242 0-.1381836-.0039063-.246582-.1191406-.2426758-.2568359.0527-1.8016205-.6906853-2.2635403-.2202148-2.4453125.1289063-.0507813.2734375.0146484.3232422.1435547.2822266.7314453.4194336 1.5322266.3969727 2.3154297-.0039064.1357421-.1152345.243164-.2500001.243164z" fill="#c234e0"/></g><g><path d="m45.6850586 32.483242c1.4404297-1.4414063 2.1982422-3.5966797 1.9775391-5.6220703-.0348969-.3174515.4590034-.3985138.4970703-.0546875.2402344 2.2060547-.5527344 4.4599609-2.1210938 6.0302734-.2339439.233944-.5873871-.1196441-.3535156-.3535156z" fill="#c234e0"/></g><g><path d="m37.8544922 41.0389061c1.1152344-.1591797 2.1679688-.7470703 2.8886719-1.6123047.7207031-.8642578 1.1083984-2.0058594 1.0639648-3.1308594-.0053711-.1376953.1020508-.2539063.2402344-.2597656h.0097656c.1337891 0 .2446289.1054688.25.2402344.0488281 1.2470703-.3808594 2.5117188-1.1801758 3.4707031-.7983398.9589844-1.9658203 1.6103516-3.2021484 1.7861328-.3227043.0537834-.4013176-.4468536-.0703125-.4941406z" fill="#c234e0"/></g><g><path d="m31.2094727 44.646328c-.8125-.0615234-1.5444336-.515625-2.1328125-.8798828-.2819176-.1761971-.0156364-.5985718.2636719-.4257813.5698242.3544922 1.2163086.7548828 1.9072266.8076172.597168.0410156 1.3237305-.2763672 1.453125-.8779297.0705109-.3243561.557827-.2176247.4892578.1054688-.1825639.8516273-1.1226464 1.3364944-1.9804688 1.2705078z" fill="#c234e0"/></g><g><path d="m31.3500977 42.4295311c-.1254883 0-.2333984-.0947266-.2480469-.2216797-.015625-.1376953.0834961-.2617188.2207031-.2763672l1.0854492-.1210938c.3572845-.0471153.4091721.4584351.1113281.4902344-.1000785.0111237-1.2695102.1400414-1.1694335.1289063z" fill="#c234e0"/></g><g><path d="m24.7324219 43.4266014c-.9677734-.3310547-2.034668-.765625-2.4414063-1.7441406-.4927464-1.1880455.3415756-1.8688812-2.4560547-3.9619141-.2635918-.1982765.0333118-.5978813.2998047-.4003906 2.9707928 2.2229691 2.1752758 3.1018562 2.6181641 4.1708984.3266602.7851563 1.2768555 1.1669922 2.1416016 1.4628906.3128471.1077958.1486988.5856782-.1621094.4726563z" fill="#c234e0"/></g><g><path d="m24.6479492 41.9734764c-.4384766-.0830078-.8295898-.3466797-1.0737305-.7226563-.1805706-.2785301.2418556-.5489922.4199219-.2714844.1674805.2578125.4467773.4462891.7475586.5039063.1352539.0253906.2246094.15625.1987305.2919922-.0276508.1447258-.1726761.2272873-.2924805.1982422z" fill="#c234e0"/></g><g><path d="m18.3232422 33.130703c1.3580627-1.4055119-.2298412-3.8709755.3369141-5.7802734.0390625-.1318359.1767578-.2119141.3110352-.1679688.1323242.0390625.2075195.1777344.168457.3105469-.2693825.9065857.0029354 1.9331608.1586914 2.8955078.2241211 1.3955078.0170898 2.4355469-.6157227 3.0898438-.22822.2373466-.5901718-.1086579-.359375-.3476563z" fill="#c234e0"/></g><g><path d="m20.074707 24.943203c-.1157227-.0751953-.1484375-.2304688-.0732422-.3466797.9824219-1.5107422 1.6479492-3.2519531 1.9243164-5.0341797.0214844-.1367188.1533203-.2285156.2851563-.2089844.1367188.0214844.2299805.1494141.2089844.2851563-.2871094 1.8525391-.9785156 3.6611328-1.9995117 5.2314453-.0767518.1174774-.2331047.1465626-.3457032.0732422z" fill="#c234e0"/></g><g><path d="m22.0249023 24.4490623c-.1147461-.0771484-.1455078-.2324219-.0683594-.3476563.2407227-.3583984.3754883-.7753906.390625-1.2060547.0048828-.1376953.125-.2373047.2587891-.2412109.1376953.0048828.2460938.1210938.2412109.2587891-.0185547.5234375-.1826172 1.03125-.4755859 1.4677734-.0778122.1147538-.2328224.1442643-.3466797.0683594z" fill="#c234e0"/></g><g><path d="m28.9472656 22.1922264c-.0405273 0-.081543-.0097656-.1191406-.0302734l-2.9165039-1.5849609c-.121582-.0664063-.1665039-.2177734-.1005859-.3388672.065918-.1220703.2192383-.1650391.3388672-.1005859l2.9165039 1.5849609c.121582.0664063.1665039.2177734.1005859.3388672-.0454102.0839843-.1313477.1308593-.2197266.1308593z" fill="#c234e0"/></g><g><path d="m28.6894531 23.4666405c-.0273438 0-.0551758-.0048828-.0825195-.0136719l-2.3461914-.8242188c-.1303711-.0458984-.1992188-.1884766-.1533203-.3193359.0458984-.1298828.1875-.1953125.3183594-.1533203l2.3461914.8242188c.1303711.0458984.1992188.1884766.1533203.3193359-.0361328.102539-.1328125.1669922-.2358399.1669922z" fill="#c234e0"/></g><g><path d="m24.5874023 31.4939842c-.0444336-.1308594.0253906-.2734375.1557617-.3173828l3.3012695-1.1289063c.3058815-.1122704.4792442.365757.1621094.4726563l-3.3012695 1.1289063c-.1214008.0441455-.2709446-.0189934-.3178711-.1552735z" fill="#c234e0"/></g><g><path d="m26.7695313 31.7342186.9521484-.3173828c.3058262-.1084824.4765625.3677692.1572266.4746094l-.9501953.3173828c-.3149949.1049995-.4714566-.3697396-.1591797-.4746094z" fill="#c234e0"/></g><g><path d="m40.0351563 25.4197655c-.3146286 0-.3382416-.4677029-.0239258-.4990234l5.0102539-.4931641c.3362083-.0241871.3722725.4658184.0488281.4980469-1.1602859.1140556-5.2937508.5196037-5.0351562.4941406z" fill="#c234e0"/></g><g><path d="m43.2075195 26.0076561h-1.1416015c-.3308258 0-.3306389-.5 0-.5h1.1416016c.3308257 0 .3306388.5-.0000001.5z" fill="#c234e0"/></g><g><path d="m31.2402344 17.920742c-.0839844 0-.1665039-.0429688-.2138672-.1201172-1.0405273-1.7138672-1.5229492-3.7587891-1.3579102-5.7568359.0117188-.1386719.1425781-.2402344.2695313-.2285156.1376953.0117188.2402344.1318359.2285156.2695313-.15625 1.8945313.3007813 3.8320313 1.2875977 5.4560547.0712891.1181641.0336914.2714844-.0839844.34375-.0405274.024414-.0854492.0361327-.1298828.0361327z" fill="#c234e0"/></g><g><path d="m30.0102539 16.3748436c-.0864258 0-.1704102-.0449219-.2167969-.125l-1.2045898-2.0917969c-.0688477-.1201172-.0273438-.2724609.0922852-.3417969.1171875-.0693359.2719727-.0283203.3413086.0917969l1.2045898 2.0917969c.0688477.1201172.0273438.2724609-.0922852.3417969-.0390625.0224609-.0820312.0332031-.1245117.0332031z" fill="#c234e0"/></g><g><path d="m34.0136719 13.6433983c-.0922852 0-.1816406-.0517578-.2246094-.140625-.5717773-1.1738281-.8657227-2.484375-.8496094-3.7890625.0014648-.1367188.1132813-.2470703.25-.2470703h.0029297c.1381836.0019531.2485352.1152344.2470703.2529297-.0151367 1.2275391.2612305 2.4599609.7988281 3.5644531.0605469.1240234.0087891.2734375-.1152344.3339844-.0351562.0175781-.0722655.0253906-.1093749.0253906z" fill="#c234e0"/></g><g><path d="m34.9013672 10.8543358c-.0859375 0-.1694336-.0439453-.2158203-.1240234l-.4438477-.7607422c-.0698242-.1191406-.0297852-.2724609.0893555-.3417969.1201172-.0693359.2719727-.0302734.3422852.0898438l.4438477.7607422c.0698242.1191406.0292969.2724609-.0898438.3417969-.0395508.0234374-.0830079.0341796-.1259766.0341796z" fill="#c234e0"/></g><g><path d="m24.1791992 16.0535545c-.1289063 0-.2387695-.0996094-.2485352-.2304688-.0854492-1.1044922.5029297-2.2177734 1.4643555-2.7695313.1186523-.0693359.2714844-.0292969.3413086.0927734.0688477.1191406.0273438.2724609-.0922852.3408203-.7851563.4511719-1.284668 1.3955078-1.215332 2.296875.0107422.1376953-.0922852.2578125-.2299805.2685547-.0063476.0009767-.0126952.0009767-.0195312.0009767z" fill="#c234e0"/></g><g><path d="m27.8779297 12.9617577c-.0678711 0-.1352539-.0273438-.1845703-.0810547-.0932617-.1025391-.0859375-.2607422.0161133-.3535156.5810547-.53125.9736328-1.2519531 1.1040039-2.0292969.0229492-.1367188.1577148-.2304688.2880859-.2050781.1362305.0224609.2280273.1513672.2050781.2871094-.1489258.8876953-.5966797 1.7099609-1.2602539 2.3164063-.0478515.0439452-.1083984.0654296-.168457.0654296z" fill="#c234e0"/></g><g><path d="m30.5102539 60.9422264c-.0043945 0-.0092773 0-.0141602 0-.1376953-.0078125-.2431641-.1259766-.2353516-.2636719l.253418-4.5019531c.0180645-.3183708.5181561-.3098755.4990234.0273438l-.253418 4.5019531c-.0073241.133789-.1176757.2363281-.2495116.2363281z" fill="#3f54e8"/></g><g><path d="m31.8574219 59.7391014c-.1230469 0-.2304688-.0908203-.2470703-.2167969-.1206055-.8925781-.0981445-1.7939453.0654297-2.6787109.0249023-.1357422.1577148-.2285156.2910156-.2001953.4949608.0925827-.1456585.6929512.1386719 2.8125.0185547.1367188-.0771484.2626953-.2143555.28125-.0112305.0009765-.022461.0019531-.0336914.0019531z" fill="#3f54e8"/></g><g><path d="m33.1938477 59.2771873.0634766-.7597656c.0270157-.3312263.525959-.286953.4980469.0410156l-.0634766.7617188c-.0274125.3314209-.5262719.2886696-.4980469-.0429688z" fill="#3f54e8"/></g><g><path d="m48.5961914 64.7478867c-.1303711 0-.2402344-.1015625-.2490234-.2333984-.1333008-2.0175743-.090332-4.0585899.1279297-6.067379.0379333-.3450546.5318375-.2615662.4970703.0546875-.215332 1.9794922-.2578125 3.9912109-.1259766 5.9794884.0092773.1376953-.0952148.2568359-.2329102.265625-.0058593.0009765-.0112304.0009765-.0170898.0009765z" fill="#3f54e8"/></g><g><path d="m47.015625 62.6736717c-.0070496-.1186447.0584488-1.2224503.0634766-1.2958984.0063477-.1328125.1157227-.2363281.2485352-.2373047h.0009766c.1323242 0 .2416992.1035156.2495117.2353516.0070457.1185722-.0584488 1.2224503-.0634766 1.2958984-.0149422.3126221-.4802781.318264-.4990235.0019531z" fill="#3f54e8"/></g><g><path d="m44.4443359 63.3435936.2456055-4.1220703c.0198631-.3295097.5189667-.3015213.4990234.0292969l-.2456055 4.1220703c-.0195045.3315544-.5191116.3039589-.4990234-.0292969z" fill="#3f54e8"/></g><g><path d="m46.2504883 64.4939804c-.128418 0-.237793-.0986328-.2485352-.2285156l-.0634766-.7617149c-.0275154-.3233147.4694786-.379055.4980469-.0410156l.0634766.7597617c.0117188.1376953-.090332.2587891-.2280273.2705078-.006836.0009766-.0141602.0009766-.0214844.0009766z" fill="#3f54e8"/></g><g><path d="m41.6567383 64.7303085c-1.909668-.7568321-3.8862305-1.4365196-5.875-2.0195274-.1323242-.0390625-.2084961-.1777344-.1694336-.3105469.0380859-.1328125.1762695-.2109375.3100586-.1699219 2.003418.5878906 3.9951172 1.2724609 5.9189453 2.0351524.3014336.1192017.1305542.5868302-.1845703.4648438z" fill="#3f54e8"/></g><g><path d="m39.3408203 64.4265976c-.0126953 0-.0258789-.0009766-.0385742-.0029297l-2.8530273-.4433556c-.321064-.0504532-.2572403-.536438.0761719-.4941406l2.8530273.4433594c.1367188.0214844.2299805.1494102.2089844.2851524-.019043.1240235-.1254883.2119141-.2465821.2119141z" fill="#3f54e8"/></g><g><path d="m39.8491211 63.0027733-.4438477-.2539063c-.1196289-.0683594-.1611328-.2216797-.0922852-.3408203.0683594-.1210938.2216797-.1611328.3413086-.0927734l.4438477.2539063c.2862549.1635742.0365792.5978164-.2490234.4335937z" fill="#3f54e8"/></g><g><path d="m33.7172852 51.9246483 7.1748047-1.1376953c.3274422-.0500107.4043312.4426956.078125.4941406l-7.1748047 1.1376953c-.329216.0487709-.4031258-.4428863-.078125-.4941406z" fill="#3f54e8"/></g><g><path d="m34.7744141 53.3982811c-.3237762 0-.3347473-.4861908-.0102539-.5l1.5854492-.0634766c.3418579 0 .343998.4862328.0205078.5-.1006127.0040093-1.6973076.0675278-1.5957031.0634766z" fill="#3f54e8"/></g><g><path d="m46.9482422 50.3553123c-.3861732-.0219498-2.356678-.1339607-2.2333984-.1269531-.304081-.0172539-.3344193-.4808464.0283203-.5l2.2197266.1269531c.1376953.0087891.2431641.1269531.2348633.2646484-.0078126.1328126-.1176759.2353516-.2495118.2353516z" fill="#3f54e8"/></g><g><path d="m55.4658203 54.3846092c-.0419922-.1318359.0302734-.2724609.1621094-.3144531l4.2973633-1.3759766c.3180733-.0989571.4657593.3763618.1523438.4765625l-4.2973633 1.3759766c-.136345.041954-.2731743-.0335541-.3144532-.1621094z" fill="#3f54e8"/></g></g><g><g><g><path d="m16.2421417 14.9324131c.3123226-1.4587288.6812992-2.9551344 1.2600727-4.3237925 2.4807301 2.0678911 5.1371384 4.3186646 7.8553123 6.0714025-.4122276 1.6447277-.9890099 3.1970959-1.4011688 4.841877-1.9666309-1.8752193-3.79673-3.9715424-5.4139385-6.1654339-.2108803 1.2011185-.507494 2.4535732-.863121 3.6416931-.026722.1156731-.0546665.2213268-.0926991.3281517-2.9848156-3.1815624-5.8509712-6.4798689-8.5671167-9.8885174 3.3844853 2.5984298 5.2189484 3.9378597 7.2226591 5.4946195z" fill="#ffd55f"/></g><g><path d="m12.9496737 23.9504795c3.1162882-.0631943 6.8245363-.1125584 9.9169283-.5580082.7672081 1.5108051 1.3555717 3.0639305 2.1127014 4.5759678-1.9840717-.0947895-3.9841423-.3204899-5.948637-.6731129-.7307434-.1253338-1.4638824-.2707729-2.1794472-.4388199.6914883 1.1418552 1.3360424 2.4019184 1.8737698 3.6239491-4.3361483-.4409637-8.6528997-1.0580215-12.9402962-1.8523922 2.9851255-.160429 6.059844-.4238148 9.0550489-.5854759-.7312813-1.3005505-1.4196176-2.6677304-1.890068-4.0921078z" fill="#ffd55f"/></g><g><path d="m16.2421417 14.9324131c.3123226-1.4587288.6812992-2.9551344 1.2600727-4.3237925 2.4807301 2.0678911 5.1371384 4.3186646 7.8553123 6.0714025-.4122276 1.6447277-.9890099 3.1970959-1.4011688 4.841877-1.9666309-1.8752193-3.79673-3.9715424-5.4139385-6.1654339-.2108803 1.2011185-.507494 2.4535732-.863121 3.6416931-.1447468-.4319992-.3197308-.860302-.5224915-1.2647514-1.5393848-3.0048962-4.8627691-4.9130135-6.2312279-6.831995 1.7792741 1.3461896 3.5775443 2.6798907 5.3165627 4.0310002z" fill="#ffcc21"/></g><g opacity=".56"><g><path d="m15.7253418 25.576992c-.0499878.0300293-.0899658.0599976-.1299438.0900269-.0200195.0700073-.0700073.1400146-.1600342.1900024-.2299805.1300049-.4500122.2199707-.6900024.0700073-.7358913-.4529362.1869011-1.677536 1.0700073-1.0300293.2700195.1900025.2200317.5599976-.0900269.6799927z" fill="#fff"/></g></g></g><g><path d="m18.5093155 23.7819862c1.4736023-.0676975 2.9511909-.1869717 4.3572865-.3895149.7672081 1.5108051 1.3555717 3.0639305 2.1127014 4.5759678-1.9840717-.0947895-3.9841423-.3204899-5.948637-.6731129-.2825299-1.1408138-.4088269-2.3415794-.5213509-3.51334z" fill="#ffcc21"/></g></g><g opacity=".56"><g><path d="m17.3965225 25.3933372c.4825878 0 .483387-.75 0-.75-.4825897 0-.4833889.75 0 .75z" fill="#fff"/></g></g><g opacity=".56"><g><path d="m17.1653442 16.5070457c-.0899658.2099609-.289978.2299805-.4499512.1499634-.1000404-.0066738-.111866-.0004921-.2300415-.0299683-.7406263-.2073975.2799301-1.5900145.7200317-.9300537.2000123.3000489.0899659.5100098-.040039.8100586z" fill="#fff"/></g></g><g opacity=".56"><g><path d="m17.5856304 14.3033791c.0034199.0279713.0068378.0559425.0102577.0839138.0578079.4729834.8085175.4787874.75 0-.0034199-.0279713-.0068378-.0559425-.0102577-.0839138-.0578079-.4729824-.8085174-.4787875-.75 0z" fill="#fff"/></g></g><g><path d="m47.7932701 20.152216c-.1533966.7644253-.6701584 1.4983845-1.4209213 1.7087021-.7507629.2103157-1.6802521-.2799873-1.7641182-1.05513-.0582542-.5384121.2630386-1.0331554.468708-1.5341358.5541-1.34972.1183815-2.2346573.1192169-3.1739883.0012093-1.347723 1.3680992-2.2291241 1.8403625-.6650257.4106141 1.3599127 1.0375901 3.3200701.7567521 4.7195777z" fill="#fff"/></g><g><path d="m44.870842 23.4593143c-.4258995.4570618-.3676529 1.2674561.106163 1.6746311s1.2653732.3540211 1.6960182-.0985718c.4306412-.4525928.4527397-1.2272701.0654144-1.7174473-.3873253-.4901752-1.1273842-.6517582-1.6935883-.3877373" fill="#fff"/></g><g opacity=".56"><g fill="#fff"><path d="m54.7753906 33.7069969c.1502571.6777649-.6371765.773777-1.0400391.2200317 0 0 0 0-.0100098-.0100098-.3889809-.5324745-.3355217-1.4206009.3900146-1.3400269.5000001.0700075.9700319.6600343.6600343 1.130005z"/><path d="m53.7253418 33.9170189c-.1399536-.0599976-.2799683-.1699829-.3799438-.289978-.2000122-.2300415-.0500488-.5300293.1599731-.6199951-.0599976.2799682.0300293.6499633.2199707.9099731z"/></g></g><g opacity=".56"><g><path d="m54.9425735 35.2048378c0 .5713348.75.5760078.75 0 0-.4825897-.75-.483387-.75 0z" fill="#fff"/></g></g><g opacity=".56"><g><path d="m55.2541695 36.0870743c.4825897 0 .4833908-.75 0-.75-.4825898 0-.483387.75 0 .75z" fill="#fff"/></g></g><g opacity=".56"><g><path d="m44.7153931 58.326992c-.3327637-.2801704-.6294518-1.1322479-.0599976-1.3599854.0499878-.0299683.0999756-.0499878.1599731-.0599976.0300293-.0100098.0599976-.0100098.0900269-.0100098.3746147-.0449066.7400475.2805672.7699585.4000244.6401596.7855951-.1286812 1.7146952-.9599609 1.0299684z" fill="#fff"/></g></g><g opacity=".56"><g><path d="m45.4953384 59.4252701c0 .5713348.75.5760078.75 0 0-.4825897-.75-.4833908-.75 0z" fill="#fff"/></g></g><g opacity=".56"><g><path d="m45.2308693 59.5520782c0-.5713348-.75-.5760078-.75 0 0 .4825898.75.483387.75 0z" fill="#fff"/></g></g><g opacity=".56"><g><path d="m45.501461 61.2524452c-.0211334-.0211372-.0422707-.0422707-.0634041-.0634041-.3417282-.341732-.8722076.1884537-.5303307.5303307.0211372.0211334.0422707.0422668.0634041.0634041.3417321.3417282.8722077-.1884537.5303307-.5303307z" fill="#fff"/></g></g><g opacity=".56"><g><path d="m41.4753418 53.1270409c-.0699463.1699829-.1299438.2599487-.2999878.3499756-.3899536.2000122-.7399902-.3300171-.4599609-.5900269.0548515-.285244.4238739-.4734268.6599731-.1199951.0800171.0900268.1500244.2400512.0999756.3600464z" fill="#fff"/></g></g><g opacity=".56"><g><path d="m41.691082 53.338459v.0634041c0 .4825897.75.483387.75 0 0-.0211334 0-.0422707 0-.0634041 0-.4825897-.75-.483387-.75 0z" fill="#fff"/></g></g><g opacity=".56"><g><path d="m50.7534103 48.526516c.1827545.1162605.173893.3408318.1446877.5275726-.0738487.4721794.6487312.6755867.7232094.199379.0851746-.5446053.004982-1.06007-.489357-1.3745537-.4084358-.2598381-.7850762.3889732-.3785401.6476021z" fill="#fff"/></g></g><g opacity=".56"><g><path d="m33.4453735 53.2170067c-.0900269-.0499878-.210022-.1300049-.3200073-.2199707-.0999756-.0200195-.1699829-.0900269-.2000122-.1799927-.1900024-.2000122-.2799683-.4400024-.0499878-.6700439.3599854-.3599854.8099976 0 .9199829.3900146v.0100098c.0100098.0100098.0200195.0100098.0300293.0200195.3999634.2699585.0200195.9199829-.3800049.6499634z" fill="#fff"/></g></g><g opacity=".56"><g><path d="m34.446022 52.1222305c-.5581207.6521034.4390984 1.0582085.5633659.4916649-.011013.012886-.0220222.0257759-.0330353.0386658.3122674-.3648529-.2158546-.8977585-.5303306-.5303307z" fill="#fff"/></g></g><g opacity=".56"><g><path d="m34.5843811 53.713459c.4825859 0 .483387-.75 0-.75-.4825897 0-.4833908.75 0 .75z" fill="#fff"/></g></g></g></svg>