<?xml version="1.0" encoding="UTF-8"?>
<svg xmlns="http://www.w3.org/2000/svg" xmlns:xlink="http://www.w3.org/1999/xlink" version="1.1" id="Layer_1" x="0px" y="0px" viewBox="0 0 3000 3000" style="enable-background:new 0 0 3000 3000;" xml:space="preserve" width="512" height="512">
<style type="text/css">
	.st0{fill:#D0E6FC;}
	.st1{fill:#FFFAEE;}
	.st2{fill:#63C7FD;}
	.st3{fill:#FC183A;}
</style>
<g>
	<path class="st0" d="M2714.78,2445.09H265.22c-73.94,0-133.89-59.94-133.89-133.89V753.22c0-73.94,59.94-133.89,133.89-133.89   h2449.55c73.94,0,133.89,59.94,133.89,133.89V2311.2C2848.66,2385.15,2788.72,2445.09,2714.78,2445.09z"/>
</g>
<g>
	<path class="st1" d="M2511.79,2344.16H393.07c-73.95,0-133.89-59.94-133.89-133.89V855.28c0-73.94,59.94-133.89,133.89-133.89   h2118.72c73.94,0,133.89,59.94,133.89,133.89v1354.99C2645.68,2284.22,2585.73,2344.16,2511.79,2344.16z"/>
</g>
<g>
	<rect x="686.47" y="1094.84" class="st2" width="202.99" height="1081.1"/>
</g>
<g>
	<rect x="962.35" y="1267.55" class="st2" width="202.99" height="908.39"/>
</g>
<g>
	<rect x="1249.44" y="1463.8" class="st2" width="202.99" height="712.13"/>
</g>
<g>
	<rect x="1514.11" y="843.63" class="st2" width="202.99" height="1332.31"/>
</g>
<g>
	<rect x="1778.78" y="963.75" class="st2" width="202.99" height="1212.19"/>
</g>
<g>
	<rect x="2043.45" y="843.63" class="st2" width="202.99" height="1332.31"/>
</g>
<g>
	<g>
		<path class="st3" d="M467.19,2206.23c-4.8,0-9.68-1.13-14.23-3.5c-15.1-7.87-20.96-26.5-13.09-41.6l370.09-709.89    c5.24-10.06,15.58-16.42,26.92-16.58c11.37-0.15,21.85,5.92,27.37,15.83l121.71,218.53l231.8-397.37    c5.53-9.48,15.67-15.3,26.64-15.3h264.37l96.63-175.79c5.42-9.86,15.78-15.98,27.03-15.98h740.17c17.03,0,30.84,13.81,30.84,30.84    c0,17.03-13.81,30.84-30.84,30.84h-721.93l-96.63,175.79c-5.42,9.86-15.78,15.98-27.03,15.98h-264.9l-250.13,428.8    c-5.53,9.48-15.68,15.3-26.64,15.3c-0.1,0-0.2,0-0.31,0c-11.08-0.11-21.25-6.15-26.64-15.83L838.2,1530.5l-343.64,659.16    C489.06,2200.19,478.32,2206.23,467.19,2206.23z"/>
	</g>
</g>
<g>
	<path d="M2684.77,2457.43H278.61c-88.01,0-159.61-71.6-159.61-159.61v-331.6c0-6.81,5.52-12.34,12.34-12.34   c6.81,0,12.34,5.52,12.34,12.34v331.6c0,74.4,60.53,134.94,134.94,134.94h2406.16c83.57,0,151.56-67.99,151.56-151.56V781.95   c0-82.86-67.41-150.28-150.28-150.28h-541.11c-6.81,0-12.34-5.52-12.34-12.34s5.52-12.34,12.34-12.34h541.11   c96.47,0,174.95,78.48,174.95,174.95V2281.2C2861,2378.37,2781.94,2457.43,2684.77,2457.43z"/>
</g>
</svg>
