<?xml version="1.0" encoding="UTF-8"?>
<!-- Generator: Adobe Illustrator 25.4.6, SVG Export Plug-In . SVG Version: 6.00 Build 0)  -->
<svg xmlns="http://www.w3.org/2000/svg" xmlns:xlink="http://www.w3.org/1999/xlink" version="1.1" id="Capa_1" x="0px" y="0px" viewBox="0 0 512 512" style="enable-background:new 0 0 512 512;" xml:space="preserve" width="512" height="512">
<g>
	<g>
		<polygon style="fill:#4691FF;" points="0.731,105.482 60.97,374.657 266.368,512 511.269,354.986 355.241,271.055 363.14,0.482       "/>
		<polygon style="fill:#2A3C95;" points="301.425,422.138 394.247,373.503 419.921,395.69 337.96,443.635   "/>
		<polygon style="fill:#2A3C95;" points="71.235,376.118 9.423,109.508 11.175,108.963 362.517,0 363.689,3.775 14.101,112.192     74.077,370.888 354.565,269.198 355.915,272.912   "/>
		<polygon style="fill:#2A3C95;" points="263.87,499.296 262.821,498.616 76.517,377.482 78.671,374.17 263.927,494.624     501.189,348.444 503.261,351.809   "/>
		<path style="fill:#FF873E;" d="M82.646,377.846c-1.41,2.798-6.404,3.125-11.149,0.728c-4.752-2.396-7.453-6.61-6.037-9.411    c1.416-2.798,6.408-3.123,11.156-0.726C81.358,370.831,84.064,375.043,82.646,377.846z"/>
	</g>
	<g>
		<polygon style="fill:#FF873E;" points="112.319,390.045 359.685,285.864 458.435,335.732 214.526,449.786   "/>
		<polygon style="fill:#4691FF;" points="123.965,401.558 120.392,399.883 375.874,284.5 377.112,287.229   "/>
		
			<rect x="182.731" y="385.028" transform="matrix(0.9061 -0.4231 0.4231 0.9061 -133.0648 173.6306)" style="fill:#4691FF;" width="283.637" height="2.999"/>
		
			<rect x="148.013" y="362.755" transform="matrix(0.9027 -0.4302 0.4302 0.9027 -128.9658 158.1146)" style="fill:#4691FF;" width="274.324" height="3.001"/>
		
			<rect x="130.143" y="353.159" transform="matrix(0.9035 -0.4285 0.4285 0.9035 -126.2364 148.5308)" style="fill:#4691FF;" width="273.302" height="2.998"/>
		
			<rect x="161.597" y="374.326" transform="matrix(0.9102 -0.4142 0.4142 0.9102 -128.3782 159.6378)" style="fill:#4691FF;" width="284.594" height="2.999"/>
		
			<rect x="239.359" y="320.251" transform="matrix(0.5851 -0.8109 0.8109 0.5851 -211.7881 354.7982)" style="fill:#4691FF;" width="2.998" height="128.267"/>
		
			<rect x="339.26" y="275.228" transform="matrix(0.4682 -0.8836 0.8836 0.4682 -119.7581 482.2175)" style="fill:#4691FF;" width="2.999" height="130.757"/>
		
			<rect x="356.704" y="266.09" transform="matrix(0.464 -0.8859 0.8859 0.464 -100.4852 494.3144)" style="fill:#4691FF;" width="3.001" height="128.195"/>
		
			<rect x="386.493" y="256.256" transform="matrix(0.4903 -0.8716 0.8716 0.4903 -80.8746 501.1215)" style="fill:#4691FF;" width="2.999" height="126.896"/>
		
			<rect x="215.658" y="331.483" transform="matrix(0.557 -0.8305 0.8305 0.557 -232.4242 355.6297)" style="fill:#4691FF;" width="3" height="128.415"/>
		
			<rect x="188.266" y="341.194" transform="matrix(0.5205 -0.8539 0.8539 0.5205 -257.8707 357.9622)" style="fill:#4691FF;" width="3" height="134.749"/>
		
			<rect x="247.752" y="317.837" transform="matrix(0.5717 -0.8205 0.8205 0.5717 -197.6321 363.4144)" style="fill:#4691FF;" width="2.999" height="106.314"/>
		
			<rect x="309.55" y="290.571" transform="matrix(0.4882 -0.8727 0.8727 0.4882 -141.5506 447.8172)" style="fill:#4691FF;" width="3" height="108.058"/>
		
			<rect x="277.625" y="307.967" transform="matrix(0.5608 -0.828 0.828 0.5608 -174.2738 388.5952)" style="fill:#4691FF;" width="2.998" height="101.176"/>
	</g>
	<g>
		<g>
			<polygon style="fill:#A782E4;" points="342.399,252.585 76.769,359.926 38.511,194.139 234.572,55.599 342.399,25.168    "/>
			<path style="fill:#8041ED;" d="M342.399,139.236v98.412c-23.516,8.435-55.094,9.419-44.43-24.43     C306.144,186.243,324.116,161.319,342.399,139.236z"/>
			<g>
				<path style="fill:#FFA0E4;" d="M297.97,213.219c-10.664,33.849,20.914,32.864,44.43,24.43v14.932L76.769,359.918l-16.035-69.515      c28.16-38.615,76.885-29.29,118.242-32.253c62.211-4.939,95.785-54.805,130.35-100.227      c10.959-14.519,21.688-29.054,33.074-42.961v24.274C324.116,161.319,306.144,186.243,297.97,213.219z"/>
			</g>
			<g>
				<path style="fill:#8041ED;" d="M234.571,55.597c-15.207,45.441-17.402,95.626-48.684,134.419      c-38.414,48.031-101.715,36.831-147.373,4.122v-0.016L20.483,116.01l50.795-14.338c21.568,12.486,37.408,33.93,61.775,41.436      c42.801,13.133,53.029-47.973,59.92-75.781L234.571,55.597z"/>
			</g>
			<path style="fill:#FF873E;" d="M287.757,138.194c-13.016,24.883-33.023,40.106-44.672,34.005     c-11.654-6.083-10.549-31.202,2.469-56.088c13.01-24.906,33.021-40.132,44.674-34.031     C301.897,88.182,300.771,113.283,287.757,138.194z"/>
			<g>
				<path style="fill:#FFC946;" d="M192.974,67.326c-6.891,27.809-17.119,88.914-59.92,75.781      c-24.367-7.506-40.207-28.949-61.775-41.436L192.974,67.326z"/>
			</g>
		</g>
		<path style="fill:#FFFFFF;" d="M202.923,59.577c0,1.25-2.113,2.268-4.719,2.268c-2.605,0-4.717-1.018-4.717-2.268    c0-1.254,2.111-2.271,4.717-2.271C200.81,57.307,202.923,58.323,202.923,59.577z"/>
		<polygon style="fill:#2A3C95;" points="77.331,361.316 76.206,358.536 340.903,251.572 340.903,25.168 343.901,25.168     343.901,253.597 342.962,253.975   "/>
		<polygon style="fill:#FFC946;" points="42.208,151.748 55.784,147.304 57.759,152.983 69.853,150.145 72.323,163.598     44.181,169.028   "/>
		<polygon style="fill:#FFC946;" points="51.343,192.139 64.917,187.694 66.894,193.376 78.991,190.535 81.46,203.987     53.314,209.422   "/>
		<polygon style="fill:#FFC946;" points="59.98,226.855 73.558,222.41 75.536,228.09 87.632,225.248 90.099,238.703 61.954,244.132       "/>
		<polygon style="fill:#FFC946;" points="154.259,247.105 167.839,242.663 169.814,248.338 181.907,245.5 184.376,258.955     156.233,264.389   "/>
		<g>
			<polygon style="fill:#FFFFFF;" points="80.224,137.428 104.911,129.531 110.589,158.477 87.632,165.079    "/>
			<polygon style="fill:#FF873E;" points="82.694,139.236 92.075,136.441 95.409,144.934 85.161,146.07    "/>
		</g>
		<g>
			<polygon style="fill:#FFFFFF;" points="91.827,177.818 116.515,169.919 122.192,198.871 99.233,205.469    "/>
			<polygon style="fill:#FF873E;" points="94.298,179.63 103.677,176.832 107.013,185.324 96.763,186.466    "/>
		</g>
		<g>
			<polygon style="fill:#FFFFFF;" points="113.329,249.698 138.015,241.796 143.694,270.743 120.733,277.346    "/>
			<polygon style="fill:#FF873E;" points="115.794,251.504 125.175,248.709 128.509,257.204 118.265,258.338    "/>
		</g>
		<g>
			<polygon style="fill:#FFFFFF;" points="79.114,300.119 103.804,292.22 109.48,321.166 86.521,327.768    "/>
			<polygon style="fill:#4691FF;" points="102.771,299.997 87.718,323.941 106.97,319.251    "/>
			<path style="fill:#FFC946;" d="M99.351,301.478c0,2.352-2.262,4.254-5.053,4.254s-5.049-1.902-5.049-4.254     c0-2.354,2.258-4.259,5.049-4.259S99.351,299.124,99.351,301.478z"/>
			<polyline style="fill:#FFA0E4;" points="87.718,318.759 97.343,316.04 95.86,308.638 85.987,313.698 87.718,317.029    "/>
		</g>
		<g>
			<polygon style="fill:#FFFFFF;" points="159.187,274.635 183.872,266.732 189.552,295.68 166.591,302.28    "/>
			<polygon style="fill:#4691FF;" points="182.841,274.51 167.782,298.452 187.038,293.765    "/>
			<path style="fill:#FFC946;" d="M179.421,275.991c0,2.35-2.264,4.257-5.053,4.257c-2.787,0-5.047-1.907-5.047-4.257     c0-2.354,2.26-4.264,5.047-4.264C177.157,271.728,179.421,273.638,179.421,275.991z"/>
			<polyline style="fill:#FFA0E4;" points="167.782,293.272 177.413,290.555 175.931,283.15 166.054,288.211 167.782,291.542    "/>
		</g>
		<g>
			<polygon style="fill:#FFFFFF;" points="291.831,224.733 322.884,214.429 321.157,245.715 304.556,251.367    "/>
			
				<rect x="292.848" y="222.88" transform="matrix(0.9497 -0.3131 0.3131 0.9497 -54.6439 107.4618)" style="fill:#4691FF;" width="28.839" height="1.977"/>
			
				<rect x="302.635" y="244.327" transform="matrix(0.9292 -0.3695 0.3695 0.9292 -68.5827 132.5811)" style="fill:#4691FF;" width="18.313" height="1.977"/>
			
				<rect x="305.437" y="229.186" transform="matrix(0.4357 -0.9001 0.9001 0.4357 -42.5397 410.8819)" style="fill:#4691FF;" width="1.973" height="20.363"/>
			
				<rect x="308.368" y="222.707" transform="matrix(0.4973 -0.8676 0.8676 0.4973 -47.5008 386.0048)" style="fill:#4691FF;" width="1.977" height="22.572"/>
			
				<rect x="313.171" y="222.384" transform="matrix(0.4098 -0.9122 0.9122 0.4098 -24.2414 422.2189)" style="fill:#4691FF;" width="1.975" height="14.917"/>
			
				<rect x="294.845" y="233.262" transform="matrix(0.2648 -0.9643 0.9643 0.2648 -0.6821 467.6034)" style="fill:#4691FF;" width="22.954" height="1.974"/>
			
				<rect x="301.342" y="234.09" transform="matrix(0.3238 -0.9461 0.9461 0.3238 -10.6392 455.268)" style="fill:#4691FF;" width="23.687" height="1.975"/>
		</g>
		<g>
			<polygon style="fill:#FFFFFF;" points="27.89,118.912 66.397,107.562 69.853,127.142 54.55,131.013 56.03,136.441      64.425,133.479 64.671,137.923 43.442,144.934 42.208,139.236 50.105,139.003 48.874,132.245 32.827,137.923    "/>
			<polygon style="fill:#4691FF;" points="31.099,121.137 63.931,111.261 66.397,125.084 34.06,133.727    "/>
		</g>
		<g>
			<polygon style="fill:#FFFFFF;" points="167.782,100.647 325.122,47.816 329.071,189.025 192.476,240.548    "/>
			<path style="fill:#4691FF;" d="M194.749,235.324l-23.312-129.845l0.791-0.281l149.018-52.839l4.143,134.787L194.749,235.324z      M173.677,106.778l22.6,125.878l127.098-46.87l-4.02-130.661L173.677,106.778z"/>
			<polygon style="fill:#4691FF;" points="177.413,109.041 315.589,59.577 317.011,78.925 179.421,122.864    "/>
			<path style="fill:#4691FF;" d="M197.413,224.505l-14.143-88.731l0.789-0.266L317.94,89.858l4.041,90.971l-0.693,0.241     L197.413,224.505z M185.481,137.108l13.51,84.748l120.953-42.407l-3.861-86.872L185.481,137.108z"/>
			
				<rect x="183.479" y="131.575" transform="matrix(0.9428 -0.3332 0.3332 0.9428 -29.7352 91.7599)" style="fill:#4691FF;" width="138.294" height="1.975"/>
			
				<rect x="187.49" y="154.478" transform="matrix(0.9531 -0.3026 0.3026 0.9531 -35.1229 84.2107)" style="fill:#4691FF;" width="133.482" height="1.975"/>
			
				<rect x="190.699" y="174.387" transform="matrix(0.9537 -0.3008 0.3008 0.9537 -40.8453 85.4249)" style="fill:#4691FF;" width="132.661" height="1.974"/>
			
				<rect x="231.776" y="121.49" transform="matrix(0.9919 -0.1267 0.1267 0.9919 -19.0941 30.8329)" style="fill:#4691FF;" width="1.975" height="87.97"/>
			
				<rect x="277.722" y="105.465" transform="matrix(0.9958 -0.092 0.092 0.9958 -12.5308 26.2638)" style="fill:#4691FF;" width="1.974" height="87.264"/>
		</g>
		<polygon style="fill:#FFFFFF;" points="79.814,234.69 90.706,250.494 93.37,244.873 102.021,250.494 103.517,245.796     93.37,241.737 100.741,235.619   "/>
	</g>
</g>















</svg>
