<?xml version="1.0" encoding="UTF-8"?>
<!-- Generator: Adobe Illustrator 27.2.0, SVG Export Plug-In . SVG Version: 6.00 Build 0)  -->
<svg xmlns="http://www.w3.org/2000/svg" xmlns:xlink="http://www.w3.org/1999/xlink" version="1.1" id="Capa_1" x="0px" y="0px" viewBox="0 0 512 512" style="enable-background:new 0 0 512 512;" xml:space="preserve" width="512" height="512">
<g>
	<g>
		<g>
			<g>
				<path style="fill:#FFBEDB;" d="M113.522,229.361l-9.091-20.179L80.482,206.3L74.495,92.99l37.918-18.405l82.932,42.575      l-5.1,60.092c0,0-66.301,16.631-62.753,48.118l-1.109,10.2H118.4L113.522,229.361z"/>
				<g>
					<g>
						<path style="fill:#222A5C;" d="M122.205,156.247c-1.071,0-2.142-0.275-3.202-0.826c-6.635-3.446-10.811-16.811-10.986-17.378        l1.696-0.521c0.041,0.132,4.132,13.223,10.108,16.326c1.306,0.678,2.561,0.805,3.848,0.387        c4.01-1.304,4.236-7.295,3.719-12.093c-0.59-5.473-2.275-10.684-2.293-10.736l1.686-0.551        c0.197,0.602,4.766,14.807,1.27,21.68c-0.866,1.702-2.156,2.842-3.835,3.388C123.549,156.139,122.877,156.247,122.205,156.247        z"/>
						
							<rect x="100.595" y="141.562" transform="matrix(0.9866 -0.1631 0.1631 0.9866 -21.8251 19.1136)" style="fill:#222A5C;" width="9.748" height="1.773"/>
						
							<rect x="103.871" y="146.041" transform="matrix(0.8533 -0.5214 0.5214 0.8533 -60.699 78.0891)" style="fill:#222A5C;" width="9.145" height="1.774"/>
						
							<rect x="108.222" y="149.809" transform="matrix(0.5977 -0.8018 0.8018 0.5977 -75.9699 150.007)" style="fill:#222A5C;" width="6.505" height="1.774"/>
					</g>
					<g>
						<path style="fill:#222A5C;" d="M147.901,149.416c-1.278,0-2.524-0.398-3.719-1.188c-6.431-4.255-9.463-18.865-9.59-19.485        l1.738-0.353c0.011,0.054,1.117,5.419,3.302,10.47c1.918,4.429,5.083,9.527,9.2,8.685c1.323-0.27,2.355-1.001,3.156-2.235        c3.669-5.647,0.77-19.053,0.741-19.188l1.732-0.383c0.128,0.579,3.088,14.266-0.984,20.536        c-1.059,1.63-2.502,2.642-4.29,3.007C148.756,149.372,148.326,149.416,147.901,149.416z"/>
						
							<rect x="153.977" y="127.431" transform="matrix(0.9387 -0.3448 0.3448 0.9387 -34.5024 62.6409)" style="fill:#222A5C;" width="9.749" height="1.774"/>
						
							<rect x="157.588" y="129.108" transform="matrix(0.0327 -0.9995 0.9995 0.0327 19.6863 287.7019)" style="fill:#222A5C;" width="1.773" height="9.145"/>
						
							<rect x="156.809" y="135.201" transform="matrix(0.4027 -0.9153 0.9153 0.4027 -32.5366 227.0467)" style="fill:#222A5C;" width="1.773" height="6.505"/>
					</g>
					<path style="fill:#222A5C;" d="M133.457,165.189c-1.437,0-2.794-0.267-3.843-0.987c-1.481-1.017-2.161-2.724-2.02-5.076       l0.061-1.026l5.783,1.208l-0.362,1.736l-3.706-0.773c0.095,1.148,0.508,1.96,1.246,2.468c2.383,1.635,7.747-0.016,10.341-1.077       l-9.001-33.112l1.712-0.466l9.4,34.583l-0.685,0.313C142.121,163.1,137.477,165.189,133.457,165.189z"/>
					<polygon style="fill:#FF9509;" points="103.009,126.968 122.613,124.477 106.073,135.291 103.009,126.968      "/>
					<polygon style="fill:#FF9509;" points="132.184,110.953 152.105,116.051 131.891,119.818 132.184,110.953      "/>
					<g>
						<path style="fill:#222A5C;" d="M121.913,182.925c-3.316,8.359-8.634,14.09-11.878,12.804        c-3.244-1.287-3.187-9.106,0.129-17.464c3.316-8.358,8.634-14.089,11.878-12.803        C125.285,166.749,125.228,174.568,121.913,182.925z"/>
						<path style="fill:#F4E4CE;" d="M113.577,174.924l10.145-3.104C123.722,171.819,123.168,158.958,113.577,174.924z"/>
						<path style="fill:#FF80B5;" d="M109.531,184.237c0,0,6.696-0.887,6.508,7.207        C116.038,191.443,106.537,200.424,109.531,184.237z"/>
					</g>
				</g>
			</g>
			<g>
				<path style="fill:#FF9509;" d="M112.191,90.772c0,0-49.005,70.293,1.33,118.854c0,0-81.823,34.148-105.771,8.648      s10.2-116.193,66.745-153.668c0,0,118.632,5.987,144.133,43.462s-37.696,85.149-37.696,85.149S202.219,108.733,112.191,90.772z"/>
				<path style="fill:#FFB93F;" d="M78.858,202.217c-32.057-58.738,24.479-116.665,25.054-117.244l1.258,1.251      c-0.565,0.569-56.174,57.575-24.755,115.143L78.858,202.217z"/>
				<path style="fill:#FFB93F;" d="M39.065,215.809c-12.619-9.766-19.37-22.27-20.065-37.167      C16.765,130.74,78.408,72.523,79.031,71.941l1.211,1.296c-0.617,0.577-61.669,58.24-59.47,105.324      c0.67,14.353,7.19,26.412,19.379,35.844L39.065,215.809z"/>
				<path style="fill:#FFB93F;" d="M79.142,215.844c-11.805-7.929-19.052-18.826-21.537-32.388      c-7.017-38.292,26.471-86.066,26.81-86.544l1.447,1.026c-0.334,0.472-33.396,47.649-26.511,85.203      c2.397,13.072,9.388,23.579,20.781,31.231L79.142,215.844z"/>
				<path style="fill:#FFB93F;" d="M196.222,171.053l-1.755-0.26c10.329-69.744-65.425-86.937-66.192-87.103l0.374-1.734      C129.433,82.126,206.792,99.685,196.222,171.053z"/>
				<path style="fill:#FFB93F;" d="M206.358,153.347l-1.772-0.087c2.8-57.632-46.54-66.703-47.039-66.788l0.298-1.748      C158.358,84.812,209.233,94.161,206.358,153.347z"/>
			</g>
		</g>
		<g>
			<g>
				<path style="fill:#848BF1;" d="M211.976,415.626l-65.981-140.99l-6.308-10.904l-21.731-12.418v16.409l-9.757,3.326      c0,0-51.888,34.37,11.309,82.71c0,0-38.583,38.14,6.209,74.727h13.748l-4.584-94.943l63.659,85.746L211.976,415.626z"/>
				<polygon style="fill:#222A5C;" points="138.58,428.529 132.338,299.225 144.09,295.7 144.599,297.399 134.176,300.526       140.352,428.444     "/>
			</g>
			<polygon style="fill:#FFBEDB;" points="127.27,425.309 129.044,439.205 141.61,438.613 137.027,423.978    "/>
			<polygon style="fill:#FFBEDB;" points="205.767,429.595 198.228,415.847 210.424,409.195 217.298,427.507 213.75,429.595    "/>
			<polygon style="fill:#555AFF;" points="119.731,425.826 142.348,421.169 141.61,429.595 121.948,430.926    "/>
			<polygon style="fill:#555AFF;" points="196.897,422.5 193.128,416.069 211.976,405.647 215.051,416.681    "/>
			<g>
				<path style="fill:#F4E4CE;" d="M218.856,429.057c0,0,6.209-9.018,1.479-9.757c-4.73-0.739-5.913,6.209-5.913,6.209h-12.122      v5.026c19.661,10.939,61.497,1.33,61.497,1.33C259.509,414.571,218.856,429.057,218.856,429.057z"/>
				<path style="fill:#222A5C;" d="M230.473,433.905c-17.852,0-28.378-4.538-28.535-4.607l0.72-1.622      c0.227,0.099,23.316,10.012,59.347-0.043l0.476,1.708C250.227,432.762,239.428,433.905,230.473,433.905z"/>
				
					<rect x="215.399" y="426.38" transform="matrix(0.9286 -0.3711 0.3711 0.9286 -142.9276 111.6452)" style="fill:#222A5C;" width="6.568" height="1.774"/>
				
					<rect x="220.023" y="428.131" transform="matrix(0.7409 -0.6716 0.6716 0.7409 -230.449 260.6734)" style="fill:#222A5C;" width="5.216" height="1.775"/>
			</g>
			<g>
				<path style="fill:#F4E4CE;" d="M143.827,440.682c0,0,6.209-9.018,1.479-9.757c-4.73-0.739-5.913,6.209-5.913,6.209H127.27v5.026      c19.661,10.939,61.497,1.33,61.497,1.33C184.481,426.196,143.827,440.682,143.827,440.682z"/>
				<path style="fill:#222A5C;" d="M154.77,446.654c-17.557,0-27.312-5.015-27.915-5.335l0.831-1.568      c0.218,0.114,22.189,11.356,59.56-0.064l0.518,1.696C174.835,445.334,163.776,446.654,154.77,446.654z"/>
				
					<rect x="141.3" y="438.244" transform="matrix(0.9071 -0.4209 0.4209 0.9071 -171.3766 101.6548)" style="fill:#222A5C;" width="6.68" height="1.774"/>
				
					<rect x="144.447" y="440.048" transform="matrix(0.7353 -0.6777 0.6777 0.7353 -259.7386 216.7917)" style="fill:#222A5C;" width="6.477" height="1.774"/>
			</g>
		</g>
		<g>
			<g>
				<path style="fill:#FFBEDB;" d="M223.277,201.061c-3.365-5.354-26.224,16.011-33.659,23.191      c-1.254-2.781-2.383-4.806-2.383-4.806l-13.023,10.717l6.696,7.723l-7.716,27.831l2.21,18.323c0,0,14.996-14.719,13.1-36.44      c0,0,26.229,11.162,6.32-19.771C194.821,227.829,227.304,207.469,223.277,201.061z"/>
				<path style="fill:#222A5C;" d="M174.046,265.954l-1.71-0.475l7.589-27.372l-6.98-8.051l14.544-11.969l0.519,0.924      c1.004,1.79,9.643,17.609,3.859,21.717c-1.317,0.935-2.399,0.75-3.076,0.43c-3.746-1.773-4.692-12.794-4.844-14.985l1.77-0.123      c0.324,4.673,1.65,12.472,3.832,13.505c0.148,0.069,0.547,0.256,1.29-0.273c3.222-2.288-0.494-12.157-3.868-18.47l-11.493,9.458      l6.411,7.395L174.046,265.954z"/>
				
					<rect x="188.672" y="240.406" transform="matrix(0.9982 -0.0607 0.0607 0.9982 -14.4771 11.9571)" style="fill:#222A5C;" width="1.774" height="7.691"/>
				<rect x="189.559" y="243.364" style="fill:#222A5C;" width="12.695" height="1.774"/>
				
					<rect x="192.421" y="237.029" transform="matrix(0.9839 -0.1788 0.1788 0.9839 -39.3759 38.9315)" style="fill:#222A5C;" width="7.751" height="1.773"/>
				
					<rect x="192.303" y="229.193" transform="matrix(0.6397 -0.7686 0.7686 0.6397 -106.8896 232.131)" style="fill:#222A5C;" width="3.71" height="1.774"/>
			</g>
			<g>
				<path style="fill:#FFBEDB;" d="M66.956,276.371l-12.418-2.328c-15.992,23.942,32.374,16.298,32.374,16.298      c-6.849,6.149-7.861,12.574-7.492,16.917l-18.341-0.73l1.885,17.518l32.596-9.313l1.109-26.831L66.956,276.371z"/>
				<path style="fill:#222A5C;" d="M62.759,320.61l-0.511-1.699l17.958-5.394c-5.716-13.098,5.996-23.731,6.117-23.839l1.18,1.324      c-0.468,0.418-11.385,10.37-5.266,22.674l0.469,0.942L62.759,320.61z"/>
				
					<rect x="62.255" y="312.322" transform="matrix(0.9728 -0.2315 0.2315 0.9728 -70.5653 25.0319)" style="fill:#222A5C;" width="18.256" height="1.774"/>
				
					<rect x="61.426" y="308.373" transform="matrix(0.9931 -0.1172 0.1172 0.9931 -35.7533 10.3992)" style="fill:#222A5C;" width="18.274" height="1.774"/>
			</g>
			<path style="fill:#F4E4CE;" d="M170.51,265.506c0,0-12.196,5.987-27.053-19.735l-4.878,5.544c0,0,8.648,36.588,33.261,33.927     L170.51,265.506z"/>
			<g>
				<path style="fill:#F4E4CE;" d="M106.473,230.604c0,0-47.722,14.722-53.93,47.319l16.852,1.774c0,0,7.761-24.613,35.479-36.366      l3.326,27.718c0,0,18.183,20.844,38.362,3.104l4.878-33.04l-19.957-14.413l0.222-8.426l-7.761,1.109l-1.109,8.426l-6.874-7.539      l-10.865,1.996L106.473,230.604z"/>
				<polygon style="fill:#222A5C;" points="118.056,234.201 107.488,232.379 107.79,230.631 116.084,232.061 115.159,221.679       116.926,221.522     "/>
				<polygon style="fill:#222A5C;" points="127.287,232.671 123.587,220.077 125.288,219.576 128.264,229.704 130.578,227.947       131.65,229.361     "/>
				
					<rect x="125.2" y="229.1" transform="matrix(0.9927 -0.1207 0.1207 0.9927 -29.8296 17.0779)" style="fill:#222A5C;" width="1.775" height="51.45"/>
				<path style="fill:#222A5C;" d="M128.967,237.555c0.322,0.583-0.127,1.447-1.003,1.931c-0.876,0.483-1.847,0.401-2.168-0.183      c-0.322-0.584,0.127-1.448,1.002-1.932C127.674,236.889,128.645,236.97,128.967,237.555z"/>
				<path style="fill:#222A5C;" d="M131.009,252.58c0.322,0.583-0.127,1.447-1.003,1.931c-0.876,0.482-1.847,0.401-2.168-0.183      c-0.322-0.584,0.127-1.448,1.002-1.931C129.717,251.913,130.688,251.995,131.009,252.58z"/>
				<path style="fill:#222A5C;" d="M132.699,266.849c0.322,0.583-0.127,1.447-1.003,1.931c-0.876,0.483-1.847,0.401-2.168-0.183      c-0.322-0.584,0.127-1.448,1.002-1.932C131.407,266.183,132.378,266.264,132.699,266.849z"/>
			</g>
			<polygon style="fill:#555AFF;" points="73.165,275.262 52.543,267.723 48.995,280.362 71.391,280.362    "/>
			<polygon style="fill:#555AFF;" points="165.188,264.175 174.279,261.292 180.932,285.379 167.627,288.567    "/>
		</g>
	</g>
	<g>
		<polygon style="fill:#FFB93F;" points="484.658,402.177 489.623,324.185 498.56,324.785 500.414,308.102 490.692,307.39     495.78,227.466 485.585,223.294 481.919,306.748 269.403,291.19 273.798,217.27 264.066,215.107 261.279,290.595 247.208,289.565     250.263,308.102 260.607,308.797 257.496,393.07 223.438,405.206 223.438,413.036 286.464,389.566 286.464,382.109     263.368,392.679 268.325,309.316 481.178,323.617 477.706,402.641 437.388,417.007 437.388,426.276 512,398.492 512,389.665   "/>
		<g>
			<polygon style="fill:#222A5C;" points="504.716,92.99 292.335,65.265 273.798,277.515 472.609,289.565    "/>
			<path style="fill:#848BF1;" d="M461.069,280.646l-177.984-14.114L298.311,81.85l192.539,19.443L461.069,280.646z      M284.999,264.903l174.587,13.846l29.203-175.88L299.931,83.798L284.999,264.903z"/>
			<polygon style="fill:#F4E4CE;" points="405.562,209.648 320.211,203.537 325.325,132.025 328.007,132.217 323.083,201.048      405.754,206.966    "/>
			<path style="fill:#F4E4CE;" d="M403.683,200.5c-12.722-5.408-16.054-26.479-18.993-45.07     c-2.221-14.045-4.318-27.312-9.923-27.369c-10.213-0.1-13.859,11.35-19.367,28.685c-1.706,5.37-3.641,11.457-5.981,17.721     c-10,26.766-23.911,25.437-24.495,25.372l0.304-2.67c0.125,0.007,12.479,0.965,21.674-23.642     c2.316-6.202,4.24-12.254,5.937-17.595c5.632-17.726,9.71-30.558,21.784-30.558c0.057,0,0.113,0,0.171,0.001     c7.878,0.08,9.94,13.123,12.551,29.636c2.83,17.901,6.038,38.192,17.389,43.016L403.683,200.5z"/>
			<polygon style="fill:#F4E4CE;" points="318.761,142.89 334.197,142.322 328.567,115.6    "/>
			<polygon style="fill:#F4E4CE;" points="396.371,201.956 396.521,218.246 413.071,207.822    "/>
			<path style="fill:#F4E4CE;" d="M371.634,200.549l-2.685-0.104l0.104-2.686l2.685,0.104L371.634,200.549z M371.841,195.178     l-2.685-0.104l0.104-2.686l2.685,0.104L371.841,195.178z M372.048,189.805l-2.685-0.104l0.104-2.686l2.685,0.104L372.048,189.805     z M372.256,184.433l-2.685-0.102l0.103-2.686l2.685,0.102L372.256,184.433z M372.463,179.062l-2.685-0.104l0.104-2.685     l2.685,0.104L372.463,179.062z M372.67,173.691l-2.685-0.104l0.104-2.686l2.685,0.104L372.67,173.691z M372.877,168.32     l-2.685-0.104l0.104-2.686l2.685,0.104L372.877,168.32z M373.085,162.947l-2.685-0.103l0.103-2.686l2.685,0.103L373.085,162.947z      M373.292,157.577l-2.685-0.104l0.104-2.686l2.685,0.104L373.292,157.577z M373.499,152.204l-2.685-0.104l0.104-2.685     l2.685,0.104L373.499,152.204z M373.706,146.833l-2.685-0.104l0.104-2.686l2.685,0.104L373.706,146.833z M373.914,141.461     l-2.685-0.102l0.103-2.686l2.685,0.102L373.914,141.461z M374.121,136.09l-2.685-0.104l0.104-2.686l2.685,0.104L374.121,136.09z"/>
			<g>
				<path style="fill:#F4E4CE;" d="M319.708,218.559c0.402,0,0.734,0.003,0.998,0.01c0.263,0.007,0.471,0.01,0.624,0.01h0.416h0.478      c0.194,0,0.454-0.003,0.78-0.01s0.752-0.024,1.278-0.052c-0.249,0.055-0.443,0.114-0.582,0.177s-0.243,0.128-0.312,0.197      c-0.083,0.069-0.132,0.146-0.146,0.229c0.014,0.111,0.062,0.284,0.146,0.52c0.069,0.208,0.191,0.492,0.364,0.852      c0.173,0.36,0.433,0.845,0.78,1.455c0.582-0.665,1.026-1.192,1.33-1.58c0.305-0.388,0.534-0.686,0.686-0.894      c0.152-0.236,0.243-0.395,0.27-0.478c-0.014-0.069-0.035-0.139-0.062-0.208c-0.042-0.111-0.146-0.284-0.312-0.52      c0.374,0.028,0.7,0.045,0.977,0.052c0.277,0.007,0.513,0.017,0.707,0.031c0.222,0.014,0.402,0.021,0.54,0.021      c0.152,0,0.374-0.007,0.665-0.021c0.236-0.014,0.558-0.031,0.967-0.052c0.409-0.021,0.925-0.059,1.549-0.114      c-0.513,0.249-0.949,0.489-1.31,0.717c-0.36,0.229-0.658,0.433-0.894,0.613c-0.277,0.208-0.506,0.402-0.686,0.582      c-0.18,0.208-0.402,0.464-0.665,0.769c-0.236,0.277-0.523,0.62-0.863,1.029c-0.34,0.409-0.752,0.918-1.237,1.528      c0.36,0.624,0.703,1.157,1.029,1.601c0.326,0.443,0.606,0.811,0.842,1.102c0.277,0.346,0.534,0.624,0.769,0.832      c0.236,0.208,0.492,0.416,0.769,0.624c0.236,0.18,0.509,0.371,0.821,0.572s0.648,0.378,1.008,0.53      c-0.36,0.028-0.71,0.045-1.05,0.052s-0.641,0.024-0.904,0.052c-0.305,0.028-0.596,0.049-0.873,0.062      c-0.277,0.028-0.561,0.049-0.852,0.062c-0.249,0.014-0.527,0.028-0.832,0.042c-0.305,0.014-0.617,0.021-0.935,0.021      c0.125-0.125,0.222-0.243,0.291-0.353c0.069-0.111,0.125-0.208,0.166-0.291c0.055-0.097,0.09-0.187,0.104-0.27      c-0.014-0.111-0.083-0.291-0.208-0.54c-0.111-0.222-0.284-0.53-0.52-0.925c-0.236-0.395-0.582-0.932-1.039-1.611      c-0.319,0.333-0.572,0.624-0.759,0.873c-0.187,0.249-0.329,0.457-0.426,0.624c-0.111,0.194-0.187,0.353-0.229,0.478      c-0.028,0.125-0.028,0.263,0,0.416c0.028,0.125,0.069,0.274,0.125,0.447c0.055,0.173,0.152,0.35,0.291,0.53      c-0.693,0.042-1.275,0.062-1.746,0.062h-0.707c-0.222,0-0.485-0.007-0.79-0.021c-0.263-0.014-0.592-0.024-0.987-0.031      c-0.395-0.007-0.856-0.024-1.382-0.052c0.152-0.055,0.312-0.125,0.478-0.208c0.166-0.083,0.312-0.159,0.437-0.229      c0.152-0.083,0.298-0.173,0.437-0.27c0.152-0.125,0.395-0.36,0.728-0.707c0.277-0.291,0.658-0.703,1.143-1.237      c0.485-0.534,1.116-1.251,1.892-2.152c-0.457-0.832-0.828-1.493-1.112-1.985s-0.502-0.877-0.655-1.154      c-0.18-0.319-0.312-0.534-0.395-0.644s-0.194-0.236-0.333-0.374C320.567,219.128,320.207,218.864,319.708,218.559z"/>
			</g>
			<g>
				<path style="fill:#F4E4CE;" d="M317.072,240.691c0.277,0.042,0.523,0.073,0.738,0.094s0.405,0.038,0.572,0.052      c0.18,0.014,0.353,0.021,0.52,0.021c0.152,0,0.346-0.007,0.582-0.021c0.194-0.014,0.447-0.031,0.759-0.052      s0.683-0.052,1.112-0.094c-0.028,0.055-0.083,0.225-0.166,0.509s-0.166,0.631-0.249,1.039c-0.083,0.409-0.156,0.859-0.218,1.351      c-0.062,0.492-0.09,0.977-0.083,1.455s0.066,0.929,0.177,1.351s0.291,0.766,0.54,1.029c0.527,0.54,0.994,0.866,1.403,0.977      c0.409,0.111,0.766,0.097,1.071-0.042c0.305-0.139,0.554-0.346,0.748-0.624s0.333-0.534,0.416-0.769      c0.208-0.638,0.333-1.31,0.374-2.016c0.028-0.61-0.021-1.289-0.146-2.037s-0.423-1.511-0.894-2.287      c0.36,0.028,0.672,0.049,0.935,0.062c0.263,0.014,0.492,0.028,0.686,0.042c0.222,0.014,0.416,0.028,0.582,0.042      c0.152,0.014,0.333,0.014,0.54,0c0.18,0,0.398-0.01,0.655-0.031c0.256-0.021,0.544-0.045,0.863-0.073      c0.055,1.358,0.104,2.567,0.146,3.628c0.042,1.06,0.073,1.996,0.094,2.806s0.031,1.511,0.031,2.1s0,1.084,0,1.486      c-0.014,0.956-0.055,1.587-0.125,1.892c-0.111,0.43-0.308,0.859-0.592,1.289c-0.284,0.43-0.641,0.814-1.071,1.154      c-0.43,0.34-0.925,0.603-1.486,0.79s-1.175,0.253-1.84,0.197c-0.651-0.055-1.168-0.142-1.549-0.26      c-0.381-0.118-0.679-0.253-0.894-0.405s-0.367-0.312-0.457-0.478c-0.09-0.166-0.156-0.336-0.198-0.509      c-0.042-0.173-0.083-0.336-0.125-0.489c-0.042-0.152-0.125-0.284-0.249-0.395c-0.152-0.125-0.312-0.249-0.478-0.374      c-0.152-0.111-0.315-0.222-0.489-0.333c-0.173-0.111-0.343-0.201-0.509-0.27l4.428-0.249c-0.125,0.166-0.215,0.319-0.27,0.457      c-0.055,0.139-0.09,0.256-0.104,0.353c-0.014,0.125-0.007,0.229,0.021,0.312c0.055,0.166,0.156,0.35,0.301,0.551      c0.146,0.201,0.336,0.36,0.572,0.478c0.236,0.118,0.516,0.156,0.842,0.114c0.326-0.042,0.696-0.215,1.112-0.52      c0.346-0.263,0.638-0.686,0.873-1.268c0.194-0.499,0.346-1.199,0.457-2.1s0.09-2.086-0.062-3.555      c-0.249,0.859-0.589,1.518-1.019,1.975c-0.43,0.457-0.859,0.79-1.289,0.998c-0.499,0.249-1.019,0.381-1.559,0.395      c-0.721-0.028-1.337-0.121-1.85-0.281s-0.935-0.378-1.268-0.655s-0.592-0.606-0.78-0.987c-0.187-0.381-0.322-0.807-0.405-1.278      s-0.125-0.946-0.125-1.424s0.003-0.925,0.01-1.341s0.01-0.793,0.01-1.133s-0.035-0.613-0.104-0.821      c-0.083-0.208-0.194-0.416-0.333-0.624c-0.111-0.18-0.267-0.378-0.468-0.592S317.35,240.885,317.072,240.691z"/>
			</g>
			
				<rect x="362.557" y="200.335" transform="matrix(0.046 -0.9989 0.9989 0.046 124.2615 578.9138)" style="fill:#F4E4CE;" width="5.322" height="48.13"/>
			
				<rect x="359.767" y="224.81" transform="matrix(0.1549 -0.9879 0.9879 0.1549 59.6928 569.0046)" style="fill:#F4E4CE;" width="5.322" height="49.604"/>
			
				<rect x="447.034" y="89.183" transform="matrix(0.0433 -0.9991 0.9991 0.0433 312.1299 562.3472)" style="fill:#F4E4CE;" width="5.322" height="58.024"/>
			
				<rect x="434.015" y="119.436" transform="matrix(0.1032 -0.9947 0.9947 0.1032 256.8452 555.8477)" style="fill:#F4E4CE;" width="5.323" height="32.102"/>
			
				<rect x="442.441" y="131.33" transform="matrix(0.0854 -0.9963 0.9963 0.0854 250.3689 587.3373)" style="fill:#F4E4CE;" width="5.322" height="51.929"/>
		</g>
	</g>
</g>















</svg>
