<?xml version="1.0" encoding="UTF-8"?>
<!DOCTYPE svg PUBLIC "-//W3C//DTD SVG 1.1//EN" "http://www.w3.org/Graphics/SVG/1.1/DTD/svg11.dtd">
<svg xmlns="http://www.w3.org/2000/svg" version="1.1" width="400px" height="300px" style="shape-rendering:geometricPrecision; text-rendering:geometricPrecision; image-rendering:optimizeQuality; fill-rule:evenodd; clip-rule:evenodd" xmlns:xlink="http://www.w3.org/1999/xlink">
<g><path style="opacity:1" fill="#fffefe" d="M -0.5,-0.5 C 132.833,-0.5 266.167,-0.5 399.5,-0.5C 399.5,99.5 399.5,199.5 399.5,299.5C 266.167,299.5 132.833,299.5 -0.5,299.5C -0.5,199.5 -0.5,99.5 -0.5,-0.5 Z"/></g>
<g><path style="opacity:1" fill="#ffeaa7" d="M 158.5,29.5 C 159.209,30.404 160.209,30.7373 161.5,30.5C 155.527,32.2688 149.527,34.2688 143.5,36.5C 142.508,36.6716 141.842,36.3382 141.5,35.5C 147.022,33.1036 152.689,31.1036 158.5,29.5 Z"/></g>
<g><path style="opacity:1" fill="#fff6db" d="M 141.5,35.5 C 141.842,36.3382 142.508,36.6716 143.5,36.5C 138.101,39.0349 132.768,41.8683 127.5,45C 126.5,45.6667 125.5,45.6667 124.5,45C 129.871,41.3143 135.538,38.1476 141.5,35.5 Z"/></g>
<g><path style="opacity:1" fill="#ffda65" d="M 313.5,113.5 C 313.672,114.492 313.338,115.158 312.5,115.5C 298.318,73.818 270.318,45.9847 228.5,32C 206.254,25.5033 183.92,25.0033 161.5,30.5C 160.209,30.7373 159.209,30.404 158.5,29.5C 209.568,17.472 253.068,30.472 289,68.5C 300.289,81.7405 308.456,96.7405 313.5,113.5 Z"/></g>
<g><path style="opacity:1" fill="#ffefbb" d="M 313.5,113.5 C 316.424,120.437 318.09,127.77 318.5,135.5C 318.631,136.239 318.464,136.906 318,137.5C 317.722,136.584 317.222,135.918 316.5,135.5C 316.059,128.628 314.726,121.962 312.5,115.5C 313.338,115.158 313.672,114.492 313.5,113.5 Z"/></g>
<g><path style="opacity:1" fill="#fff7e0" d="M 316.5,135.5 C 317.222,135.918 317.722,136.584 318,137.5C 318.464,136.906 318.631,136.239 318.5,135.5C 319.84,156.662 319.173,156.662 316.5,135.5 Z"/></g>
<g><path style="opacity:1" fill="#ffecb2" d="M 72.5,186.5 C 71.8333,186.5 71.5,186.833 71.5,187.5C 69.5829,184.196 68.4162,180.529 68,176.5C 66.8549,171.201 66.5216,165.868 67,160.5C 68.7247,169.182 70.558,177.849 72.5,186.5 Z"/></g>
<g><path style="opacity:1" fill="#fff2c8" d="M 242.5,268.5 C 242.158,267.662 241.492,267.328 240.5,267.5C 245.408,265.046 250.408,262.546 255.5,260C 256.5,259.333 257.5,259.333 258.5,260C 253.588,263.623 248.255,266.456 242.5,268.5 Z"/></g>
<g><path style="opacity:1" fill="#ffe89d" d="M 240.5,267.5 C 241.492,267.328 242.158,267.662 242.5,268.5C 236.973,270.898 231.307,272.898 225.5,274.5C 224.791,273.596 223.791,273.263 222.5,273.5C 228.341,271.331 234.341,269.331 240.5,267.5 Z"/></g>
<g><path style="opacity:1" fill="#ffd95f" d="M 72.5,186.5 C 89.5683,237.368 124.568,267.201 177.5,276C 186.16,276.5 194.827,276.666 203.5,276.5C 206.059,276.198 208.393,276.532 210.5,277.5C 162.205,282.927 122.705,266.927 92,229.5C 82.2306,216.961 75.3973,202.961 71.5,187.5C 71.5,186.833 71.8333,186.5 72.5,186.5 Z"/></g>
<g><path style="opacity:1" fill="#ffe07e" d="M 222.5,273.5 C 223.791,273.263 224.791,273.596 225.5,274.5C 220.556,275.778 215.556,276.778 210.5,277.5C 208.393,276.532 206.059,276.198 203.5,276.5C 209.714,275.571 216.047,274.571 222.5,273.5 Z"/></g>
</svg>
