<?xml version="1.0" encoding="iso-8859-1"?>
<!-- Generator: Adobe Illustrator 28.0.0, SVG Export Plug-In . SVG Version: 6.00 Build 0)  -->
<svg xmlns="http://www.w3.org/2000/svg" xmlns:xlink="http://www.w3.org/1999/xlink" version="1.1" id="Layer_1" x="0px" y="0px" viewBox="0 0 512 512" style="enable-background:new 0 0 512 512;" xml:space="preserve">
<g>
	<g>
		<polygon style="fill:#EDDED1;" points="351.147,267.872 357.759,89.999 477.849,90.54 511.955,135.113 505.958,265.299   "/>
		<path style="fill:#B2BD66;" d="M388.816,145.428l-5.423,67.453l87.325,4.878l3.963-78.885L388.816,145.428z M419.466,203.482    l-21.948-26.359l13.714-8.981l9.488,25.363l32.735-47.549l13.574,6.894L419.466,203.482z"/>
		<polygon style="fill:#7AB2FD;" points="511.91,136.642 476.347,135.619 476.897,91.268 479.955,91.307 479.441,132.648     512,133.584   "/>
		<polygon style="fill:#7AB2FD;" points="500.705,256.644 361.701,256.577 367.862,95.74 370.921,95.857 364.879,253.522     500.705,253.586   "/>
		
			<rect x="395.168" y="225.566" transform="matrix(0.9999 -0.0137 0.0137 0.9999 -3.0782 5.9021)" style="fill:#7AB2FD;" width="66.139" height="3.058"/>
		
			<rect x="395.445" y="235.819" transform="matrix(0.9996 -0.0273 0.0273 0.9996 -6.3238 11.3875)" style="fill:#7AB2FD;" width="37.079" height="3.059"/>
		
			<rect x="394.674" y="244.993" transform="matrix(1 -0.0098 0.0098 1 -2.3978 4.1658)" style="fill:#7AB2FD;" width="57.607" height="3.058"/>
	</g>
	<path style="fill:#4E2957;" d="M243.044,418.917l-30.582-12.742l-0.741,14.84c-20.198,0.918-44.364-3.367-58.47-18.551   c-9.703-10.447-12.69-24.261-8.864-41.097c0.911-4.56,6.105-15.404,13.015-25.763c15.07-2.671,30.047-11.226,33.586-23.029   l0.335-1.108l-0.977-0.621c-3.488-2.22-7.538-2.37-12.03-0.451c-7.846,3.348-16.008,12.578-22.668,22.378   c-3.892,0.614-7.747,0.81-11.331,0.521c-6.693-0.526-18.167-3.208-19.792-15.224c-0.917-7.645,3.33-17.199,11.36-25.555   c9.345-9.721,21.348-15.539,30.579-14.788l0.245-3.049c-10.127-0.811-23.071,5.361-33.028,15.718   c-8.789,9.145-13.233,19.364-12.188,28.061c1.397,10.347,9.628,16.866,22.584,17.886c2.993,0.236,6.143,0.172,9.333-0.172   c-6.495,10.18-11.167,20.313-12.015,24.557c-4.056,17.843-0.822,32.585,9.614,43.818c13.588,14.631,35.9,19.658,55.653,19.658   c1.655,0,3.288-0.043,4.901-0.112l-0.633,12.664L243.044,418.917z M179.518,313.207c1.699-0.726,3.273-1.089,4.737-1.089   c1.206,0,2.341,0.246,3.411,0.739c-3.518,9.191-15.335,16.16-27.721,19.074C165.984,323.517,172.993,315.992,179.518,313.207z"/>
	<path style="fill:#4E2957;" d="M484.339,327.799c-3.456-10.032-9.381-17.655-17.618-22.832l13.215-6.712l-33.234-19.541   l0.597,36.117l16.082-8.168c8.491,4.799,14.544,12.202,17.976,22.163c8.502,24.67-0.783,58.91-13.831,78.597   c-13.287,19.885-31.039,30.939-47.527,29.608c-1.777-0.104-3.745-0.409-5.749-0.915c3.802-8.285,7.269-21.212-0.087-26.417   c-2.488-1.683-5.677-1.916-8.971-0.667c-4.402,1.671-8.201,5.658-9.258,9.787c-0.848,4.33,0.066,8.262,2.718,11.685   c2.625,3.391,6.773,5.886,11.119,7.499c-4.626,7.849-20.661,13.142-31.4,10.32c-4.513-1.187-9.895-4.307-9.895-12.424h-3.154   c0,7.899,4.351,13.395,12.248,15.472c2.249,0.591,4.683,0.868,7.194,0.868c11.095,0,23.638-5.402,27.858-12.875   c0.068-0.123,0.137-0.248,0.206-0.376c2.425,0.668,4.817,1.063,6.949,1.189c17.62,1.427,36.435-10.153,50.373-31.006   C483.619,388.849,493.17,353.427,484.339,327.799z M411.208,435.195c-3.963-1.408-7.735-3.612-10.064-6.623   c-2.07-2.671-2.784-5.749-2.135-9.059c0.786-3.058,3.856-6.227,7.302-7.535c0.845-0.319,1.891-0.594,2.983-0.594   c1.025,0,2.094,0.24,3.079,0.906C417.776,416.113,414.864,427.414,411.208,435.195z"/>
	<g>
		<path style="fill:#FEB44C;" d="M283.876,462.561c0,0,7.132-21.72-11.364-34.3c-18.495-12.581-38.771-42.062-15.213-78.333    c23.549-36.269,66.883-46.298,111.495-21.098c44.612,25.202,42.707,79.831-3.512,101.934    c-46.213,22.102-47.874,45.519-47.874,45.519L283.876,462.561z"/>
		<polygon style="fill:#7AB2FD;" points="283.207,449.266 278.912,470.593 318.549,481.299 328.208,458.445   "/>
		
			<rect x="298.495" y="452.594" transform="matrix(0.2014 -0.9795 0.9795 0.2014 -221.4901 669.8367)" style="fill:#4E2957;" width="3.058" height="36.301"/>
		
			<rect x="301.058" y="445.996" transform="matrix(0.2344 -0.9721 0.9721 0.2344 -221.2544 650.8636)" style="fill:#4E2957;" width="3.057" height="39.808"/>
		
			<rect x="302.656" y="439.473" transform="matrix(0.1723 -0.985 0.985 0.1723 -201.0515 680.1265)" style="fill:#4E2957;" width="3.059" height="40.454"/>
		<path style="fill:#4E2957;" d="M302.867,399.315l-2.921-0.908c1.473-4.735,4.477-18.245,0.768-23.825    c-0.992-1.492-2.398-2.306-4.295-2.487c-2.028-0.205-3.667,0.36-5.008,1.701c-5.51,5.512-4.043,21.444-4.026,21.604l-3.046,0.295    c-0.069-0.712-1.619-17.528,4.907-24.059c2.001-1.998,4.507-2.879,7.466-2.585c2.834,0.272,5.035,1.564,6.549,3.839    C308.535,380.826,303.1,398.564,302.867,399.315z"/>
		<path style="fill:#4E2957;" d="M353.145,410.53l-2.831-1.156c1.869-4.59,6.021-17.792,2.801-23.671    c-0.86-1.571-2.189-2.501-4.065-2.846c-2.016-0.37-3.688,0.045-5.134,1.266c-5.964,5.02-5.866,21.019-5.862,21.18l-3.058,0.033    c-0.009-0.715-0.113-17.601,6.947-23.55c2.162-1.822,4.745-2.467,7.657-1.937c2.801,0.514,4.886,1.989,6.2,4.387    C360.375,392.593,353.444,409.801,353.145,410.53z"/>
		<path style="fill:#EDDED1;" d="M318.277,410.624l10.046-3.618c2.207-7.733,3.515-14.804,3.515-14.804l-24.012-1.317    c0,0,0.457,35.145,8.999,35.778c4.011,0.296,7.565-7.281,10.205-15.403L318.277,410.624z"/>
		
			<rect x="260.022" y="380.43" transform="matrix(0.9636 -0.2675 0.2675 0.9636 -92.4792 85.117)" style="fill:#EDDED1;" width="12.241" height="3.059"/>
		
			<rect x="265.065" y="358.464" transform="matrix(0.1875 -0.9823 0.9823 0.1875 -145.4867 561.353)" style="fill:#EDDED1;" width="3.059" height="20.319"/>
		
			<rect x="273.948" y="344.78" transform="matrix(0.9185 -0.3953 0.3953 0.9185 -117.2917 137.6877)" style="fill:#EDDED1;" width="3.057" height="17.383"/>
		
			<rect x="370.668" y="396.205" transform="matrix(0.5433 -0.8396 0.8396 0.5433 -168.8113 496.7971)" style="fill:#EDDED1;" width="3.058" height="14.695"/>
		
			<rect x="375.748" y="379.06" transform="matrix(0.0499 -0.9988 0.9988 0.0499 -31.3696 747.6717)" style="fill:#EDDED1;" width="3.059" height="22.525"/>
		
			<rect x="367.492" y="374.805" transform="matrix(0.904 -0.4276 0.4276 0.904 -124.7253 197.2479)" style="fill:#EDDED1;" width="18.667" height="3.059"/>
	</g>
	<g>
		<g>
			<path style="fill:#FFABE7;" d="M63.968,169.858c0.37-2.754,1.209-5.389,2.509-7.616c2.437-4.385,7.09-8.822,12.242-11.352     c-5.549-14.559,5.668-28.911,19.487-34.139c4.796-1.768,9.425-1.669,13.89-0.209c6.006-14.487,29.354-17.261,41.922-12.024     c1.49,0.614,2.894,1.369,4.253,2.188c12.116-7.298,30.349-6.094,41.238,4.311c6.52,6.518,10.211,16.92,9.04,26.481     c7.858-3.563,17.952-4.837,23.071,0.66c7.451,8.128,5.268,17.163-0.732,23.141c3.467,1.125,6.639,2.887,9.142,5.53     c7.645,8.41,8.792,24.083,0.764,32.493c-0.932,1.048-1.941,1.88-2.998,2.562c1.726,1.547,3.169,3.157,4.145,4.701     c6.499,9.939,6.499,24.083-3.058,32.493c-8.183,7.335-27.38,8.197-40.73,3.082c-0.514,4.733-3.19,8.871-8.583,9.915     c-6.233,1.113-13.093-1.288-17.301-5.74c-0.475,4.115-1.878,8.099-3.724,9.945c-7.938,7.94-19.861,5.162-29.513-0.888     c-9.664,12.454-32.902,17.095-45.03,9.298c-8.523-5.453-13.98-14.558-10.731-24.325c-3.381-0.352-6.433-1.066-8.001-1.67     c-13.762-6.116-26.377-20.643-29.817-35.169C41.617,186.264,51.565,173.173,63.968,169.858z"/>
			<path style="fill:#F66057;" d="M180.346,241.637l-2.533-1.717c2.628-3.872,3.479-7.07,2.53-9.507     c-1.251-3.202-5.394-4.256-5.436-4.265l-2.936-0.688l2.291-1.964c0.119-0.1,11.755-10.249,8.926-23.687     c-2.84-13.484-19.72-19.366-19.89-19.424l-1.726-0.587l0.875-1.598c2.458-4.472,2.9-8.34,1.314-11.495     c-3.578-7.121-16.112-8.931-16.238-8.949l-1.598-0.221l0.305-1.583c1.914-9.894,0.418-17.93-4.444-23.883     c-9.207-11.268-27.524-11.576-27.709-11.577l0.03-3.058c0.809,0.007,19.944,0.336,30.047,12.702     c5.205,6.372,7.003,14.732,5.352,24.869c3.823,0.779,13.502,3.391,16.987,10.329c1.863,3.711,1.669,8.005-0.573,12.785     c4.65,1.932,17.587,8.37,20.26,21.061c2.506,11.907-4.638,21.194-8.141,24.904c1.789,0.875,4.083,2.479,5.152,5.219     C184.53,232.732,183.571,236.881,180.346,241.637z"/>
			<path style="fill:#F66057;" d="M78.226,228.077c-6.308,0.002-12.087-0.615-15.339-1.728c-9.07-3.103-9.33-36.722-9.33-40.545     h1.529c0,10.086,1.49,36.77,8.296,39.099c8.556,2.927,36.665,2.318,41.103-4.341c1.18-1.77,0.914-6.057-0.744-12.07     c-3.449-12.503-11.719-28.532-14.723-29.962c-4.647-2.211-27.963,3.061-29.387,5.703c-1.018,1.893,1.846,22.572,5.298,32.106     c1.063,2.943,1.673,3.217,1.699,3.227c3.333,1.117,27.485-0.214,30.408-5.228c2.279-3.905-3.646-20.226-8.377-27.486     c-1.869-2.87-2.664-2.918-2.697-2.918l0,0c-3.213,0.402-17.641,5.092-20.001,8.182c-0.173,0.228-0.224,0.388-0.215,0.462     c0.379,2.661,7.648,19.122,11.871,22.007c0.373,0.252,0.696,0.366,0.884,0.322c3.984-0.938,13.329-7.072,13.329-9.23     c0-1.785-6.929-11.337-11.292-14.499c-1.213-0.875-1.616-0.781-1.616-0.781c-1.123,0.372-0.66,7.689,0.961,15.352l-1.493,0.317     c-1.021-4.804-3.055-16.088,0.045-17.12c0.75-0.252,1.699,0.058,2.975,0.976c4.011,2.891,11.949,12.954,11.949,15.755     c0,3.506-10.874,9.863-14.506,10.717c-0.636,0.154-1.344-0.035-2.099-0.548c-4.641-3.169-12.074-19.915-12.519-23.053     c-0.075-0.521,0.095-1.062,0.51-1.605c2.795-3.66,18.018-8.396,21.025-8.771c1.141-0.143,2.431,0.959,4.083,3.467     c4.525,6.856,11.376,24.303,8.503,29.224c-3.596,6.164-28.858,7.026-32.215,5.908c-0.81-0.27-1.535-1.307-2.35-3.36     c-3.028-7.635-7.144-31.103-5.504-34.148c1.959-3.643,26.607-8.634,31.388-6.358c3.694,1.759,12.119,18.528,15.542,30.936     c1.828,6.634,2.01,11.117,0.541,13.324C102.643,226.085,89.58,228.077,78.226,228.077z"/>
			<path style="fill:#F66057;" d="M102.111,153.68c-8.461,0-18.143-0.839-20.655-3.082c-0.878-0.787-1.12-2.074-0.717-3.824     c1.329-5.779,9.715-16.188,13.081-17.145c3.813-1.078,22.435,1.223,24.014,2.972c1.35,1.496-1.138,9.139-1.424,10.005     c-1.123,3.383-2.846,7.493-4.674,7.856c-2.598,0.521-21.781,0.172-24.639-2.754c-0.995-1.017-0.866-2.9,0.388-5.598     c1.917-4.126,6.549-10.081,9.145-10.081c0.039,0,0.081,0.001,0.119,0.004c1.744,0.13,14.998,2.392,16.447,4.377     c0.203,0.276,0.272,0.594,0.2,0.899c-0.346,1.439-7.696,11.597-11.316,11.046c-2.189-0.307-11.301-3.073-11.301-5.304     c0-0.52,0.361-1.048,1.168-1.71c1.932-1.586,7.194-4.335,9.264-3.909c0.582,0.115,1.054,0.448,1.365,0.963     c0.962,1.593,0.092,4.638-0.009,4.98l-1.463-0.436c0.332-1.121,0.603-3.027,0.161-3.754c-0.089-0.148-0.191-0.221-0.352-0.254     c-1.663-0.29-7.663,2.943-8.538,4.096c0.979,1.053,7.042,3.409,9.918,3.814c0.042,0.006,0.083,0.009,0.132,0.009     c2.332,0,8.532-7.742,9.398-9.661c-1.613-1.174-12.194-3.408-15.186-3.629c-0.012-0.001-0.024-0.001-0.036-0.001     c-1.257,0-5.573,4.556-7.729,9.195c-1.063,2.294-1.033,3.527-0.681,3.885c2.099,2.147,20.18,2.934,23.247,2.324     c0.006-0.001,0.594-0.14,1.676-2.262c2.267-4.459,4.041-12.064,3.548-13.13c-1.254-0.993-18.66-3.542-22.423-2.47     c-2.652,0.754-10.743,10.512-12.009,16.018c-0.185,0.802-0.293,1.859,0.248,2.34c3.106,2.774,24.349,3.382,31.445,1.935     c5.023-1.023,6.126-12.906,6.126-17.4h1.529c0,0.711-0.081,17.417-7.35,18.899C111.85,153.376,107.203,153.68,102.111,153.68z"/>
			<path style="fill:#F66057;" d="M224.017,194.329c-6.215,0-13.376-0.623-15.234-2.283c-0.699-0.627-0.896-1.629-0.585-2.98     c0.979-4.245,7.164-11.901,9.649-12.607c2.467-0.705,16.354,0.779,17.653,2.219c1.01,1.12-0.499,5.994-0.986,7.462     c-1.215,3.658-2.41,5.629-3.557,5.856c-1.915,0.381-15.981,0.1-18.086-2.059c-0.791-0.806-0.711-2.252,0.239-4.296     c1.24-2.67,4.736-7.447,6.836-7.447c0.033,0,0.066,0.001,0.098,0.003c1.326,0.099,10.988,1.741,12.101,3.264     c0.182,0.251,0.245,0.544,0.179,0.824c-0.325,1.36-5.689,7.532-8.309,7.135c-8.532-1.201-8.532-2.516-8.532-3.012     c0-0.447,0.284-0.88,0.926-1.404c1.466-1.206,5.307-3.227,6.902-2.884c0.481,0.096,0.872,0.37,1.129,0.798     c0.732,1.209,0.14,3.364,0.015,3.785l-1.463-0.438c0.224-0.756,0.424-2.091,0.14-2.558c-1.084-0.296-4.85,1.623-5.911,2.594     c1.018,0.482,4.059,1.189,7.007,1.604c1.466,0.17,5.591-4.211,6.466-5.683c-1.559-0.86-8.625-2.343-10.763-2.499h-0.003     c-0.83,0-4.112,3.451-5.579,6.894c-0.621,1.457-0.526,2.108-0.385,2.25c1.475,1.512,14.712,2.019,16.695,1.629     c1.371-0.538,4.107-9.557,3.637-10.896c-0.97-0.623-13.373-2.422-16.031-1.673c-1.84,0.524-7.69,7.635-8.577,11.482     c-0.099,0.432-0.215,1.201,0.117,1.496c2.219,1.986,17.528,2.401,22.658,1.356c3.512-0.715,4.28-9.218,4.28-12.433h1.529     c0,1.311-0.153,12.841-5.504,13.932C231.048,194.111,227.7,194.329,224.017,194.329z"/>
			<path style="fill:#F66057;" d="M156.364,253.779c-6.215,0-13.377-0.623-15.234-2.283c-0.699-0.627-0.896-1.629-0.585-2.98     c0.98-4.245,7.165-11.901,9.65-12.608c2.464-0.699,16.351,0.778,17.653,2.219c1.01,1.12-0.499,5.994-0.985,7.462     c-1.216,3.658-2.41,5.63-3.557,5.856c-1.911,0.384-15.978,0.099-18.086-2.059c-0.791-0.807-0.711-2.252,0.239-4.296     c1.24-2.67,4.737-7.447,6.836-7.447c0.033,0,0.066,0.001,0.099,0.003c1.326,0.098,10.987,1.741,12.102,3.264     c0.182,0.251,0.245,0.544,0.179,0.824c-0.322,1.35-5.498,7.321-8.171,6.938c-7.374-1.038-8.67-1.734-8.67-2.815     c0-0.446,0.284-0.879,0.926-1.403c1.466-1.207,5.322-3.215,6.902-2.883c0.481,0.095,0.872,0.37,1.129,0.797     c0.732,1.21,0.14,3.364,0.015,3.785l-1.463-0.437c0.224-0.756,0.424-2.09,0.14-2.558c-1.063-0.267-4.802,1.601-5.889,2.576     c0.657,0.278,2.416,0.763,7.123,1.424c1.481,0.179,5.477-4.038,6.328-5.486c-1.553-0.86-8.625-2.343-10.763-2.5h-0.003     c-0.83,0-4.112,3.451-5.579,6.894c-0.621,1.458-0.526,2.109-0.385,2.25c1.478,1.513,14.712,2.019,16.695,1.629     c1.371-0.538,4.107-9.557,3.638-10.896c-0.971-0.623-13.374-2.424-16.031-1.672c-1.84,0.524-7.691,7.635-8.577,11.482     c-0.099,0.431-0.215,1.201,0.117,1.496c2.219,1.988,17.531,2.399,22.659,1.356c3.512-0.715,4.28-9.218,4.28-12.433h1.529     c0,1.311-0.152,12.84-5.504,13.932C163.395,253.561,160.047,253.779,156.364,253.779z"/>
			<path style="fill:#F66057;" d="M213.096,241.538c-4.74,0-9.954-0.358-14.272-1.109c-5.396-0.938-8.691-2.344-9.793-4.178     c-3.67-6.094,5.483-26.823,10.943-32.444c5.346-5.5,29.519,5.679,32.254,6.973l-0.651,1.383     c-7.167-3.384-26.622-11.297-30.504-7.29c-4.82,4.959-13.878,25.364-10.734,30.589c0.487,0.81,2.27,2.334,8.745,3.46     c10.53,1.834,24.43,1.084,26.212-0.372c3.279-2.677,6.884-21.176,5.806-22.664c-1.732-2.21-25.493-8.198-27.332-6.887     c-1.888,1.975-9.049,19.503-6.487,23.239c1.529,2.229,10.862,3.606,18.173,3.5c5.164-0.094,6.806-0.872,6.974-1.137     c1.177-3.591,2.186-16.321,0.735-17.111c-2.007-0.62-16.112-0.981-19.562,1.042c-0.307,0.181-0.436,0.337-0.454,0.418     c-0.711,3.317,0.657,11.801,2.004,12.437c1.048,0.499,8.297-0.724,12.749-2.574c2.07-0.862,2.276-1.375,2.276-1.381     c-0.206-0.903-5.418-2.928-11.158-4.287l0.353-1.487c4.737,1.12,12.633,3.387,12.319,5.977c-0.081,0.679-0.645,1.289-1.777,1.914     c-3.524,1.949-13.341,4.205-15.413,3.221c-2.625-1.239-3.488-11.149-2.846-14.14c0.117-0.553,0.511-1.029,1.174-1.417     c3.85-2.261,18.394-1.925,20.792-1.181c0.442,0.136,0.803,0.469,1.069,0.988c1.726,3.335-0.045,15.723-0.818,18.079     c-0.305,0.93-1.532,1.502-3.975,1.853c-6.448,0.913-21.297-0.094-23.874-3.85c-3.219-4.693,4.716-23.148,6.66-25.178     c0.508-0.53,1.517-0.709,3.312-0.594c6.492,0.413,24.704,5.428,26.338,7.645c2.049,2.769-2.661,21.972-6.069,24.757     C224.824,240.91,219.374,241.538,213.096,241.538z"/>
			<path style="fill:#F66057;" d="M132.645,196.905c-4.74,0-9.954-0.358-14.273-1.109c-5.396-0.938-8.691-2.344-9.793-4.178     c-3.67-6.094,5.483-26.823,10.942-32.444c5.346-5.503,29.519,5.679,32.254,6.973l-0.651,1.383     c-7.168-3.384-26.628-11.296-30.504-7.29c-4.82,4.959-13.878,25.364-10.734,30.589c0.487,0.809,2.27,2.334,8.744,3.46     c10.53,1.835,24.429,1.083,26.212-0.372c3.279-2.677,6.884-21.176,5.806-22.665c-1.732-2.208-25.487-8.204-27.332-6.887     c-1.888,1.976-9.049,19.503-6.487,23.239c1.526,2.229,10.88,3.615,18.173,3.5c5.164-0.094,6.806-0.872,6.973-1.136     c1.177-3.591,2.186-16.321,0.735-17.111c-2.007-0.621-16.115-0.983-19.562,1.043c-0.308,0.18-0.436,0.337-0.454,0.418     c-0.711,3.316,0.657,11.801,2.004,12.437c1.048,0.497,8.297-0.723,12.75-2.574c2.069-0.862,2.276-1.375,2.276-1.381     c-0.206-0.903-5.418-2.928-11.158-4.287l0.352-1.488c4.736,1.12,12.633,3.387,12.319,5.977c-0.08,0.68-0.645,1.289-1.777,1.914     c-3.524,1.95-13.347,4.2-15.414,3.221c-2.625-1.24-3.488-11.149-2.846-14.139c0.117-0.553,0.511-1.029,1.174-1.417     c3.847-2.261,18.391-1.925,20.792-1.181c0.442,0.136,0.803,0.469,1.069,0.988c1.726,3.334-0.045,15.722-0.818,18.079     c-0.305,0.93-1.532,1.502-3.975,1.853c-6.448,0.917-21.297-0.096-23.874-3.85c-3.22-4.693,4.716-23.148,6.66-25.178     c0.508-0.532,1.517-0.705,3.312-0.594c6.493,0.414,24.705,5.428,26.338,7.646c2.049,2.768-2.661,21.971-6.068,24.757     C144.374,196.277,138.923,196.905,132.645,196.905z"/>
			<path style="fill:#F66057;" d="M211.612,171.704c-8.031,0-24.092-2.341-25.618-4.117c-1.475-1.714,1.168-10.872,2.21-13.946     c1.857-5.468,3.605-8.41,5.199-8.742c3.139-0.652,26.798-0.122,30.173,3.505c1.248,1.335,0.95,3.945-0.887,7.755     c-2.452,5.088-7.828,12.358-10.859,12.1c-2.637-0.205-18.355-3.176-20.093-5.541c-0.29-0.393-0.287-0.756-0.233-0.99     c0.415-1.838,9.306-14.774,13.732-14.105c2.784,0.411,13.747,4.039,13.747,6.629c0,0.939-1.49,2.625-4.426,5.013     c-1.171,0.953-7.135,5.674-9.587,5.158c-0.526-0.109-0.953-0.429-1.236-0.924c-1.293-2.261,0.69-8.416,1.102-9.627l1.445,0.49     c-0.926,2.742-1.92,7.154-1.218,8.378c0.084,0.148,0.155,0.173,0.218,0.187c1.899,0.363,11.725-7.014,12.179-8.733     c-0.505-1.098-8.649-4.498-12.445-5.056c-3.055-0.5-11.158,10.454-11.97,12.767c1.475,1.507,15.025,4.529,18.905,4.832     c0.018,0,0.036,0.002,0.054,0.002c1.646,0,6.583-5.58,9.309-11.243c1.705-3.537,1.711-5.443,1.147-6.048     c-2.751-2.951-25.586-3.712-28.745-3.051c-0.092,0.019-0.95,0.286-2.479,3.666c-2.747,6.064-4.713,15.407-4.065,16.55     c1.607,1.528,23.444,4.578,27.774,3.294c3.199-0.953,13.18-13.541,14.867-20.674c0.275-1.166,0.442-2.71-0.331-3.436     c-3.942-3.703-29.832-4.468-38.819-2.54c-6.304,1.349-7.687,16.84-7.687,22.695h-1.529c0-0.909,0.099-22.306,8.894-24.191     c7.556-1.619,35.387-1.585,40.187,2.922c1.048,0.984,1.308,2.634,0.773,4.902c-1.741,7.374-11.928,20.598-15.918,21.788     C214.61,171.601,213.284,171.704,211.612,171.704z"/>
			<path style="fill:#F66057;" d="M120.338,260.2c-8.031,0-24.092-2.341-25.618-4.117c-1.475-1.714,1.168-10.872,2.21-13.946     c1.857-5.468,3.605-8.41,5.2-8.742c3.139-0.655,26.798-0.124,30.173,3.505c1.248,1.335,0.95,3.945-0.887,7.755     c-2.452,5.089-7.863,12.324-10.859,12.1c-2.637-0.205-18.355-3.176-20.093-5.541c-0.29-0.393-0.287-0.756-0.233-0.99     c0.418-1.837,9.27-14.726,13.732-14.105c2.784,0.411,13.747,4.039,13.747,6.629c0,0.939-1.49,2.625-4.426,5.013     c-1.171,0.953-7.138,5.691-9.587,5.158c-0.526-0.109-0.953-0.428-1.236-0.924c-1.293-2.261,0.69-8.416,1.102-9.627l1.445,0.49     c-0.926,2.742-1.92,7.154-1.218,8.378c0.084,0.148,0.155,0.173,0.218,0.187c1.95,0.375,11.728-7.012,12.179-8.733     c-0.505-1.098-8.649-4.498-12.445-5.056c-0.06-0.009-0.123-0.013-0.185-0.013c-3.13,0-10.987,10.514-11.785,12.781     c1.475,1.507,15.025,4.529,18.904,4.832c0.018,0,0.036,0.002,0.054,0.002c1.646,0,6.582-5.58,9.309-11.243     c1.705-3.537,1.711-5.443,1.147-6.048c-2.751-2.949-25.583-3.709-28.745-3.051c-0.092,0.019-0.949,0.287-2.479,3.666     c-2.747,6.064-4.713,15.407-4.065,16.55c1.607,1.528,23.444,4.583,27.774,3.294c3.199-0.953,13.18-13.541,14.867-20.674     c0.275-1.166,0.442-2.71-0.331-3.436c-3.942-3.703-29.832-4.466-38.819-2.54c-6.305,1.349-7.687,16.84-7.687,22.694h-1.529     c0-0.909,0.098-22.306,8.894-24.191c7.559-1.617,35.387-1.584,40.186,2.922c1.048,0.984,1.308,2.634,0.774,4.902     c-1.741,7.374-11.928,20.598-15.918,21.788C123.336,260.097,122.011,260.2,120.338,260.2z"/>
			<path style="fill:#F66057;" d="M180.755,138.125c-6.758,0-19.8-1.934-21.12-3.467c-1.505-1.747,1.774-11.574,1.807-11.673     c1.55-4.563,3.028-7.023,4.396-7.306c2.64-0.557,22.169-0.187,25.078,2.937c1.072,1.148,0.833,3.355-0.711,6.56     c-2.01,4.175-6.463,10.089-8.992,10.09c-0.039,0-0.081-0.001-0.12-0.006c-2.267-0.176-15.222-2.61-16.715-4.637     c-0.209-0.285-0.284-0.614-0.215-0.926c0.349-1.534,7.834-12.296,11.507-11.77c1.977,0.293,11.483,3.27,11.483,5.615     c0,0.305,0,1.233-3.712,4.25c-0.977,0.793-6.027,4.707-8.037,4.29c-0.472-0.097-0.857-0.384-1.111-0.827     c-1.096-1.917,0.559-7.06,0.902-8.071l1.445,0.49c-0.758,2.246-1.577,5.846-1.018,6.823c1.628,0.406,9.163-5.291,9.963-6.923     c-0.806-1.014-6.994-3.669-10.136-4.132c-2.303-0.437-8.921,8.376-9.727,10.389c1.505,1.245,12.403,3.664,15.491,3.907     c0.012,0,0.024,0,0.036,0c1.195,0,5.253-4.393,7.58-9.226c1.383-2.868,1.386-4.407,0.971-4.853     c-2.139-2.296-20.532-3.136-23.65-2.483c-0.006,0.002-0.579,0.143-1.637,2.279c-2.35,4.743-4.22,13.135-3.685,14.252     c1.269,1.081,18.961,3.805,22.817,2.658c2.622-0.782,10.817-11.132,12.206-17.002c0.218-0.932,0.355-2.159-0.236-2.716     c-3.16-2.967-24.77-3.615-31.988-2.068c-5.134,1.099-6.254,13.829-6.254,18.642h-1.529c0-0.757,0.08-18.557,7.46-20.138     c6.442-1.378,29.265-1.389,33.356,2.45c0.905,0.848,1.132,2.256,0.678,4.183c-1.448,6.128-9.933,17.125-13.257,18.116     C183.389,138.034,182.219,138.125,180.755,138.125z"/>
			<path style="fill:#F66057;" d="M155.671,228.156c-6.759,0-19.801-1.934-21.121-3.467c-1.505-1.747,1.774-11.574,1.807-11.673     c1.55-4.563,3.028-7.023,4.396-7.307c2.64-0.552,22.169-0.188,25.078,2.937c1.072,1.148,0.833,3.355-0.711,6.56     c-2.01,4.175-6.463,10.088-8.992,10.09c-0.039,0-0.081-0.001-0.119-0.006c-2.267-0.176-15.222-2.61-16.715-4.637     c-0.209-0.285-0.284-0.613-0.215-0.926c0.34-1.496,7.383-11.789,11.221-11.789c0.098,0,0.194,0.006,0.286,0.02     c1.977,0.293,11.483,3.27,11.483,5.615c0,0.305,0,1.233-3.712,4.25c-0.98,0.791-6.009,4.699-8.037,4.29     c-0.472-0.097-0.857-0.384-1.111-0.827c-1.096-1.918,0.559-7.06,0.902-8.071l1.446,0.49c-0.759,2.246-1.577,5.846-1.018,6.822     c1.634,0.418,9.162-5.29,9.963-6.922c-0.806-1.014-6.994-3.669-10.136-4.132c-2.35-0.428-8.921,8.376-9.727,10.389     c1.505,1.245,12.403,3.664,15.491,3.906c0.012,0,0.024,0,0.036,0c1.195,0,5.253-4.393,7.58-9.225     c1.383-2.869,1.386-4.406,0.971-4.853c-2.138-2.298-20.532-3.133-23.65-2.483c-0.006,0.002-0.579,0.144-1.636,2.279     c-2.351,4.743-4.22,13.135-3.685,14.252c1.272,1.083,18.964,3.809,22.817,2.658c2.622-0.783,10.817-11.132,12.206-17.002     c0.218-0.932,0.355-2.159-0.236-2.716c-3.16-2.965-24.77-3.614-31.989-2.068c-5.134,1.099-6.254,13.829-6.254,18.642h-1.529     c0-0.757,0.081-18.557,7.46-20.138c6.445-1.378,29.265-1.389,33.356,2.451c0.905,0.848,1.132,2.256,0.678,4.183     c-1.449,6.128-9.933,17.125-13.257,18.116C158.305,228.065,157.135,228.156,155.671,228.156z"/>
		</g>
		<g>
			<polygon style="fill:#7AB2FD;" points="49.839,116.04 73.522,112.901 70.849,77.344 0,85.899 2.942,122.258 37.077,117.732      65.769,138.874    "/>
			<g>
				<path style="fill:#EDDED1;" d="M29.713,107.646c1.277,3.835-3.309,3.773-5.946,3.938c-2.685,0.106-2.302-3.678-2.548-5.61      c-0.217-2.349,2.979-1.926,4.48-2.366C28.956,102.714,29.515,104.92,29.713,107.646z"/>
				<path style="fill:#EDDED1;" d="M42.056,106.223c1.271,3.837-3.31,3.773-5.949,3.939c-2.684,0.103-2.302-3.678-2.548-5.61      c-0.213-2.348,2.977-1.929,4.48-2.366C41.3,101.292,41.849,103.497,42.056,106.223z"/>
				<path style="fill:#EDDED1;" d="M54.396,104.801c1.273,3.834-3.307,3.774-5.946,3.938c-2.69,0.106-2.298-3.677-2.55-5.61      c0.055-2.754,4.036-2.046,6.045-2.471C54.355,100.286,54.007,103.278,54.396,104.801z"/>
			</g>
		</g>
		<g>
			<polygon style="fill:#7AB2FD;" points="133.07,68.384 156.95,69.052 159.966,33.523 88.66,30.701 85.781,67.064 120.201,68.026      135.498,95.799    "/>
			<g>
				<path style="fill:#EDDED1;" d="M114.535,56.897c0.675,4.233-4.638,3.249-7.311,2.733c-1.622-1.181-0.879-3.902-0.81-5.734      c0.485-2.713,4.309-1.381,6.359-1.479C115.211,52.429,114.391,55.329,114.535,56.897z"/>
				<path style="fill:#EDDED1;" d="M126.947,57.455c0.67,4.235-4.638,3.249-7.314,2.733c-1.619-1.184-0.881-3.902-0.809-5.734      c0.484-2.714,4.309-1.38,6.358-1.479C127.625,52.986,126.798,55.886,126.947,57.455z"/>
				<path style="fill:#EDDED1;" d="M139.356,58.014c0.676,4.234-4.637,3.251-7.311,2.733c-1.62-1.183-0.88-3.902-0.809-5.734      c0.161-2.359,3.243-1.428,4.8-1.625C139.392,53.026,139.591,55.287,139.356,58.014z"/>
			</g>
		</g>
		<g>
			<polygon style="fill:#7AB2FD;" points="229.286,102.102 205.406,102.769 202.389,67.24 273.695,64.418 276.574,100.782      242.155,101.743 217.19,127.179    "/>
			<g>
				<path style="fill:#EDDED1;" d="M247.805,89.745c-0.936-4.521,3.715-3.88,6.798-3.64c2.33,0.517,1.385,4.366,1.326,6.158      c-0.871,2.353-4.702,1.304-6.732,1.3C247.397,93.367,247.979,91.067,247.805,89.745z"/>
				<path style="fill:#EDDED1;" d="M235.396,90.304c-0.868-4.692,3.622-3.791,6.801-3.64c2.325,0.524,1.386,4.366,1.32,6.158      c-0.865,2.355-4.704,1.301-6.729,1.303C234.989,93.923,235.568,91.628,235.396,90.304z"/>
				<path style="fill:#EDDED1;" d="M222.987,90.862c-0.944-4.524,3.717-3.877,6.798-3.64c2.325,0.523,1.386,4.366,1.32,6.158      c-0.864,2.356-4.702,1.301-6.729,1.303C222.577,94.488,223.158,92.183,222.987,90.862z"/>
			</g>
		</g>
	</g>
</g>
<g>
</g>
<g>
</g>
<g>
</g>
<g>
</g>
<g>
</g>
<g>
</g>
<g>
</g>
<g>
</g>
<g>
</g>
<g>
</g>
<g>
</g>
<g>
</g>
<g>
</g>
<g>
</g>
<g>
</g>
</svg>
