<?xml version="1.0" encoding="UTF-8"?>
<!DOCTYPE svg PUBLIC "-//W3C//DTD SVG 1.1//EN" "http://www.w3.org/Graphics/SVG/1.1/DTD/svg11.dtd">
<svg xmlns="http://www.w3.org/2000/svg" version="1.1" width="400px" height="300px" style="shape-rendering:geometricPrecision; text-rendering:geometricPrecision; image-rendering:optimizeQuality; fill-rule:evenodd; clip-rule:evenodd" xmlns:xlink="http://www.w3.org/1999/xlink">
<g><path style="opacity:1" fill="#fffefe" d="M -0.5,-0.5 C 132.833,-0.5 266.167,-0.5 399.5,-0.5C 399.5,99.5 399.5,199.5 399.5,299.5C 266.167,299.5 132.833,299.5 -0.5,299.5C -0.5,199.5 -0.5,99.5 -0.5,-0.5 Z"/></g>
<g><path style="opacity:1" fill="#ffd44b" d="M 50.5,37.5 C 153.167,37.3333 255.834,37.5 358.5,38C 363,39.8333 366.167,43 368,47.5C 368.5,104.499 368.667,161.499 368.5,218.5C 368.167,218.5 367.833,218.5 367.5,218.5C 367.667,162.166 367.5,105.832 367,49.5C 365.573,43.905 362.073,40.5717 356.5,39.5C 254.5,38.8333 152.5,38.1667 50.5,37.5 Z"/></g>
<g><path style="opacity:1" fill="#fff3d0" d="M 48.5,38.5 C 48.8417,37.6618 49.5084,37.3284 50.5,37.5C 152.5,38.1667 254.5,38.8333 356.5,39.5C 254.167,39.5 151.833,39.5 49.5,39.5C 49.5,38.8333 49.1667,38.5 48.5,38.5 Z"/></g>
<g><path style="opacity:1" fill="#ffde76" d="M 48.5,38.5 C 49.1667,38.5 49.5,38.8333 49.5,39.5C 43.9236,41.075 40.9236,44.7417 40.5,50.5C 39.8333,53.8333 39.1667,57.1667 38.5,60.5C 38.3343,56.1539 38.501,51.8206 39,47.5C 40.7435,42.9213 43.9102,39.9213 48.5,38.5 Z"/></g>
<g><path style="opacity:1" fill="#fff4d0" d="M 40.5,50.5 C 40.8991,60.8983 40.3991,71.2317 39,81.5C 38.5004,74.5079 38.3337,67.5079 38.5,60.5C 39.1667,57.1667 39.8333,53.8333 40.5,50.5 Z"/></g>
<g><path style="opacity:1" fill="#fff2c9" d="M 330.5,229.5 C 330.5,230.167 330.5,230.833 330.5,231.5C 303.833,230.833 303.833,230.167 330.5,229.5 Z"/></g>
<g><path style="opacity:1" fill="#ffe48e" d="M 367.5,218.5 C 367.833,218.5 368.167,218.5 368.5,218.5C 367.934,223.8 365.267,227.633 360.5,230C 350.58,231.423 340.58,231.923 330.5,231.5C 330.5,230.833 330.5,230.167 330.5,229.5C 339.839,229.666 349.173,229.5 358.5,229C 363.561,227.116 366.561,223.616 367.5,218.5 Z"/></g>
</svg>
