<?xml version="1.0" encoding="UTF-8"?>
<!-- Generator: Adobe Illustrator 26.4.1, SVG Export Plug-In . SVG Version: 6.00 Build 0)  -->
<svg xmlns="http://www.w3.org/2000/svg" xmlns:xlink="http://www.w3.org/1999/xlink" version="1.1" id="Capa_1" x="0px" y="0px" viewBox="0 0 512 512" style="enable-background:new 0 0 512 512;" xml:space="preserve" width="512" height="512">
<g>
	<path style="fill:#000733;" d="M436.096,161.541c-24.564,28.581-60.561,41.411-96.519,48.354   c-16.256,3.138-32.815,5.264-49.463,7.179c1.585-46.054,5.196-93.57,29.523-133.595c20.556-33.818,56.235-55.027,92.814-69.017   L396.644,2.807c-32.472,11.681-63.95,27.689-89.106,51.465c-31.361,29.639-44.674,69.864-50.299,111.698   c-2.47,18.363-3.395,36.829-3.997,55.316c-9.851,1.204-19.676,2.539-29.439,4.174c-32.699,5.469-64.84,15.98-95.174,29.211   C74.001,278.502,17.684,319.258,0,376.936l31.681,24.901c4.901-62.705,56.767-107.265,110.995-133.891   c14.547-7.144,29.587-13.106,44.968-18.188c15.477-5.116,26.674-8.004,42.223-11.037c7.512-1.466,15.187-2.693,22.962-3.788   c-0.567,20.36-1.118,40.719-3.266,60.974c-3.032,28.624-9.649,56.873-19.108,84.038c-11.592,33.3-28.114,65.548-51.637,92.032   c-7.999,9.008-17.273,17.229-27.384,23.986l16.831,13.229c8.113-4.229,15.892-9.15,23.207-14.793   c23.814-18.363,41.961-43.592,55.903-69.977c14.298-27.061,24.133-56.332,31.191-86.046c7.841-33.008,9.834-66.286,10.885-100.106   c0.079-2.581,0.158-5.175,0.235-7.774c18.067-1.984,36.264-3.968,53.98-6.997c43.378-7.413,88.498-21.354,120.433-53.109   c23-22.868,37.776-51.968,47.9-82.542l-29.639-21.849C473.51,100.51,459.471,134.345,436.096,161.541z"/>
	<g>
		<polygon style="fill:#FF9ABE;" points="56.377,356.328 77.451,321.812 199.801,430.555 187.76,451.353   "/>
		<polygon style="fill:#FFE132;" points="132.433,283.493 105.817,298.727 207.197,409.543 216.07,398.954   "/>
		<polygon style="fill:#FF9ABE;" points="151.196,272.667 229.932,356.328 241.02,327.005 164.501,268.23   "/>
		<polygon style="fill:#00D4B1;" points="302.569,144.027 297.023,167.869 331.257,182.465 345.859,180.451 340.885,167.732   "/>
		<polygon style="fill:#FF9ABE;" points="325.304,88.023 311.995,110.203 405.147,178.404 419.565,171.197   "/>
		<polygon style="fill:#00D4B1;" points="387.382,83.74 385.416,99.343 436.754,150.681 445.624,144.027 403.524,89.723   "/>
		<path style="fill:#FF5187;" d="M199.796,430.549l-12.026,20.81l-70.248-50.819c3.459-3.793,8.865-5.622,17.3-1.199    c-0.433-0.698-11.546-18.596,2.611-24.219L199.796,430.549z"/>
		<path style="fill:#00D4B1;" d="M174.361,341.404l-7.369,5.107c0,0-6.655-12.576-11.912-8.966    c-5.27,3.594,5.859,11.644,5.859,11.644l-4.478,4.89l-50.654-55.359l26.616-15.221L174.361,341.404z"/>
		<path style="fill:#FF5187;" d="M241.015,326.999l-11.079,29.326l-40.852-43.399c2.077-1.563,3.308-4.591,2.309-10.047    c0,0,10.999,2.961,14.473-2.877L241.015,326.999z"/>
		<path style="fill:#FFE132;" d="M379.647,191.711l-11.097,6.654l-37.293-15.902l2.228-5.855c0,0-13.306-3.376-9.748-8.667    c3.576-5.29,14.389,3.943,14.389,3.943l2.764-4.16L379.647,191.711z"/>
		<path style="fill:#FF5187;" d="M419.568,171.201l-14.421,7.203l-44.414-32.52c1.743-1.68,2.677-4.624,1.78-9.598    c0,0,10.827,2.911,14.37-2.745L419.568,171.201z"/>
		<path style="fill:#FFE132;" d="M402.818,106.276c-5.691,2.895-10.68-10.429-10.68-10.429l-6.721,3.494l-39.041-39.042    L369.1,45.328l34.419,44.398l-5.042,4.258C398.477,93.984,408.507,103.367,402.818,106.276z"/>
	</g>
</g>















</svg>
