<?xml version="1.0" encoding="UTF-8"?>
<!-- Generator: Adobe Illustrator 26.4.1, SVG Export Plug-In . SVG Version: 6.00 Build 0)  -->
<svg xmlns="http://www.w3.org/2000/svg" xmlns:xlink="http://www.w3.org/1999/xlink" version="1.1" id="Capa_1" x="0px" y="0px" viewBox="0 0 512 512" style="enable-background:new 0 0 512 512;" xml:space="preserve" width="512" height="512">
<g>
	<g>
		<path style="fill:#FF9ABE;" d="M477.24,94.837c-7.81,2.404,9.017,43.872,9.017,43.872l-59.248,25.672    c-12.482-26.301-34.277-46.95-61.873-60.834l20.481-54.985c0,0,42.341,19.235,44.748,12.623    c2.405-6.614-77.532-45.076-83.536-38.788c-6.016,6.287,34.855,26.165,34.855,26.165l-28.939,49.359    c-41.748-17.006-94.304-19.858-147.411-5.29l2.059-56.089c0,0,48.082-2.404,46.28-11.418    c-1.806-9.016-121.398,6.61-118.999,13.821c2.406,7.21,65.211,0,65.211,0l-7.936,57.721c-1.545,0.506-3.089,1.026-4.63,1.563    c-54.468,19.027-97.773,53.109-123.471,92.574l-40.964-43.081c0,0,21.035-36.059,14.956-40.866    c-6.08-4.809-45.008,82.937-36.679,85.801c8.33,2.861,19.921-34.115,19.921-34.115l34.989,45.344    c-18.613,34.644-23.846,72.458-11.632,107.418c1.318,3.777,2.816,7.45,4.488,11.024l-29.049,23.725    c0,0-3.604-39.066-15.623-36.061c-12.025,3.005,14.419,79.935,21.031,78.13c6.612-1.804-5.408-33.054-5.408-33.054l34.453-22.523    c19.49,32.843,54.468,55.583,96.825,65.661l-29.106,57.681c0,0-40.263-15.625-40.263-7.814c0,7.814,84.137,33.656,84.738,27.646    c0.603-6.01-37.261-15.025-37.261-15.025l34.786-59.85c29.979,5.158,63.035,4.241,96.59-3.571l11.059,68.375    c0,0-42.669,17.429-40.268,23.441c2.407,6.013,102.173-12.031,99.766-18.936c-2.399-6.909-49.906,0-49.906,0l-7.82-76.194    c5.148-1.465,10.296-3.093,15.438-4.888c22.902-7.997,43.821-18.663,62.303-31.265l64.13,41.705c0,0-24.646,41.464-18.037,45.074    c6.612,3.605,54.69-72.121,48.082-78.733c-6.608-6.61-23.44,29.887-23.44,29.887l-57.75-47.41    c29.327-22.936,51.228-50.978,63.373-80.605l53.416,9.998c0,0-11.418,46.276-4.812,46.276c6.617,0,26.446-91.952,21.64-93.756    c-4.807-1.803-12.02,37.264-12.02,37.264l-53.86-11.825c8.292-26.258,8.85-53.373,0.085-78.981l58.442-33.181    c0,0,16.229,48.681,21.038,43.873C516.307,182.582,485.055,92.432,477.24,94.837z"/>
		<path style="fill:#FF5187;" d="M67.102,334.794l-3.392-1.221c2.328-6.464,2.286-11.638-0.123-15.38    c-3.664-5.687-11.759-6.4-11.844-6.406l0.281-3.598c0.402,0.031,9.926,0.839,14.576,8.024    C69.666,320.952,69.836,327.205,67.102,334.794z"/>
		<path style="fill:#FF5187;" d="M76.081,346.614l-3.315-1.424c4.65-10.851,5.055-20.273,1.205-28.001    c-6.354-12.751-22.356-16.823-22.515-16.864l0.855-3.502c0.724,0.176,17.759,4.479,24.875,18.732    C81.547,324.281,81.174,334.73,76.081,346.614z"/>
		<path style="fill:#FF5187;" d="M62.713,216.668c-2.273,0-3.817-0.699-3.921-0.749l1.51-3.273c0.109,0.043,2.764,1.188,6.004-0.486    c3.21-1.663,7.612-6.455,10.322-19.86l3.533,0.718c-2.42,11.964-6.562,19.504-12.312,22.404    C65.958,216.373,64.182,216.668,62.713,216.668z"/>
		<path style="fill:#FF5187;" d="M192.453,113.338c-0.312,0-0.619-0.008-0.929-0.028c-6.617-0.448-9.815-5.596-9.947-5.813    l3.083-1.874l-1.543,0.938l1.536-0.945c0.096,0.156,2.427,3.805,7.172,4.1c4.105,0.253,11.046-2.01,20.931-14.208l2.805,2.273    C207.186,108.11,199.417,113.338,192.453,113.338z"/>
		<path style="fill:#FF5187;" d="M190.608,122.063c-9.255,0-15.178-5.864-15.433-6.125l2.558-2.543    c0.054,0.057,5.633,5.47,13.861,5.035c7.146-0.384,14.265-4.909,21.161-13.456l2.805,2.267    c-7.589,9.399-15.605,14.377-23.836,14.798C191.346,122.056,190.973,122.063,190.608,122.063z"/>
		<path style="fill:#FF5187;" d="M171.835,397.341c-4.627-7.403-9.661-11.427-14.967-11.95c-6.7-0.664-11.666,4.516-11.715,4.567    l-2.623-2.477c0.251-0.265,6.243-6.51,14.691-5.68c6.476,0.642,12.421,5.226,17.671,13.631L171.835,397.341z"/>
		<path style="fill:#FF5187;" d="M250.275,394.354l-2.822-2.245c0.154-0.191,15.249-18.81,32.238-6.184l-2.153,2.892    C263.327,378.266,250.802,393.692,250.275,394.354z"/>
		<path style="fill:#FF5187;" d="M341.265,357.855l-3.607-0.073c0.01-0.436,0.29-10.755,7.942-16.786    c5.173-4.077,12.34-5.135,21.295-3.166l-0.775,3.523c-7.844-1.735-13.987-0.899-18.268,2.457    C341.541,348.765,341.265,357.765,341.265,357.855z"/>
		<path style="fill:#FF5187;" d="M335.393,351.691l-3.574-0.474c0.047-0.368,1.273-9.052,8.59-14.648    c5.032-3.842,11.626-5.237,19.579-4.173l-0.48,3.574c-6.98-0.945-12.666,0.226-16.906,3.464    C336.458,344.132,335.404,351.616,335.393,351.691z"/>
		<path style="fill:#FF5187;" d="M414.435,277.2c-0.134-0.312-3.286-7.766-0.156-15.268c2.039-4.888,6.218-8.593,12.424-11.016    l1.312,3.36c-5.259,2.05-8.761,5.096-10.407,9.043c-2.547,6.105,0.113,12.388,0.137,12.448L414.435,277.2z"/>
		<path style="fill:#FF5187;" d="M429.838,187.677c-4.951-0.618-8.814-2.789-11.486-6.455c-6.045-8.29-3.686-21.266-3.581-21.814    l3.54,0.668c-0.021,0.117-2.17,12.01,2.962,19.033c2.058,2.818,5.095,4.5,9.018,4.988L429.838,187.677z"/>
		<path style="fill:#FF5187;" d="M426.812,194.375c-19.66-6.227-17.942-23.984-17.925-24.163l3.586,0.388    c-0.062,0.61-1.359,15.021,15.43,20.34L426.812,194.375z"/>
		<path style="fill:#FF5187;" d="M357.582,116.785c-5.502,0-9.881-1.22-13.079-3.661c-4.835-3.684-5.031-8.771-5.037-8.988    l3.603-0.099l-1.804,0.05l1.804-0.064c0.006,0.147,0.2,3.674,3.688,6.285c3.15,2.362,9.759,4.463,23.378,1.129l0.861,3.498    C365.968,116.17,361.491,116.785,357.582,116.785z"/>
		<path style="fill:#FF5187;" d="M108.68,244.707c0,7.346-9.277,13.304-20.724,13.304c-11.448,0-20.725-5.958-20.725-13.304    c0-7.34,9.276-13.292,20.725-13.292C99.402,231.415,108.68,237.367,108.68,244.707z"/>
		<path style="fill:#FF5187;" d="M133.02,209.131c0,4.13-5.448,7.477-12.168,7.477c-6.723,0-12.173-3.347-12.173-7.477    c0-4.124,5.45-7.468,12.173-7.468C127.572,201.663,133.02,205.007,133.02,209.131z"/>
		<path style="fill:#FF5187;" d="M384.538,232.652c0,6.658-9.688,12.055-21.636,12.055c-11.949,0-21.638-5.396-21.638-12.055    c0-6.656,9.689-12.056,21.638-12.056C374.851,220.597,384.538,225.996,384.538,232.652z"/>
		<path style="fill:#FF5187;" d="M398.511,199.19c0,3.604-4.54,6.528-10.141,6.528c-5.601,0-10.145-2.925-10.145-6.528    c0-3.609,4.544-6.533,10.145-6.533C393.971,192.657,398.511,195.581,398.511,199.19z"/>
		<path style="fill:#FF5187;" d="M393.102,281.448c0,4.478-5.044,8.108-11.271,8.108c-6.224,0-11.267-3.631-11.267-8.108    c0-4.488,5.043-8.115,11.267-8.115C388.058,273.333,393.102,276.96,393.102,281.448z"/>
		<path style="fill:#FF5187;" d="M292.584,100.245c0,3.237-4.136,5.862-9.24,5.862c-5.102,0-9.24-2.625-9.24-5.862    c0-3.232,4.139-5.859,9.24-5.859C288.448,94.386,292.584,97.013,292.584,100.245z"/>
		<path style="fill:#FF5187;" d="M331.351,125.197c0,6.631-7.566,12.01-16.902,12.01c-9.336,0-16.901-5.379-16.901-12.01    c0-6.636,7.565-12.012,16.901-12.012C323.784,113.185,331.351,118.561,331.351,125.197z"/>
		<path style="fill:#FF5187;" d="M115.442,339.878c0,3.329-4.338,6.023-9.689,6.023c-5.356,0-9.694-2.694-9.694-6.023    c0-3.328,4.338-6.024,9.694-6.024C111.104,333.853,115.442,336.55,115.442,339.878z"/>
		<path style="fill:#FF5187;" d="M151.054,357.665c0,5.202-7.367,9.422-16.454,9.422c-9.088,0-16.454-4.22-16.454-9.422    c0-5.201,7.366-9.42,16.454-9.42C143.686,348.245,151.054,352.464,151.054,357.665z"/>
		<path style="fill:#FF5187;" d="M118.146,371.593c0,2.493-3.429,4.508-7.66,4.508c-4.233,0-7.665-2.015-7.665-4.508    c0-2.486,3.432-4.506,7.665-4.506C114.717,367.087,118.146,369.106,118.146,371.593z"/>
	</g>
	<g>
		<path style="fill:#FFE132;" d="M207.394,301.347l-3.441,41.291c-16.08,13.791-39.736,28.504-44.029,0.416    c-6.616-43.272,19.222-99.399,19.222-99.399c0.699,22.035,14.298,23.692,25.418,21.292l-12.185,36.4H207.394z"/>
		<path style="fill:#000733;" d="M173.345,360.817c-1.423,0-2.788-0.18-4.086-0.57c-5.935-1.779-9.678-7.477-11.122-16.93    c-6.618-43.307,18.311-98.107,19.377-100.421l3.198-6.941l0.242,7.639c0.298,9.364,3.031,15.567,8.115,18.438    c10.794,6.079,28.98-3.991,29.161-4.096l1.768,3.146c-0.819,0.457-20.153,11.168-32.699,4.09    c-4.772-2.689-7.85-7.526-9.197-14.415c-6.389,15.835-21.568,58.207-16.4,92.016c1.214,7.96,4.106,12.676,8.592,14.021    c13.185,3.937,38.748-20.3,47.482-29.983l2.679,2.419C219.205,330.611,191.73,360.813,173.345,360.817z"/>
		<rect x="161.357" y="300.444" style="fill:#000733;" width="46.036" height="1.805"/>
		
			<rect x="152.924" y="280.692" transform="matrix(0.0352 -0.9994 0.9994 0.0352 -114.803 444.2724)" style="fill:#000733;" width="39.529" height="1.803"/>
		<polygon style="fill:#000733;" points="181.015,301.488 179.233,301.204 185.489,262.25 187.27,262.534   "/>
		
			<rect x="170.383" y="325.5" transform="matrix(0.1258 -0.9921 0.9921 0.1258 -152.7764 479.4311)" style="fill:#000733;" width="50.513" height="1.801"/>
		
			<rect x="153.845" y="328.68" transform="matrix(0.071 -0.9975 0.9975 0.071 -159.5325 487.8683)" style="fill:#000733;" width="56.616" height="1.803"/>
		<polygon style="fill:#000733;" points="166.06,355.9 164.284,355.564 174.506,301.179 176.28,301.515   "/>
		<path style="fill:#000733;" d="M167.969,243.767l-2.881-2.17c3.106-4.123,6.744-6.41,10.811-6.798    c6.473-0.575,11.482,3.875,11.694,4.066l-2.419,2.675c-0.041-0.037-4.112-3.652-8.962-3.146    C173.206,238.685,170.433,240.496,167.969,243.767z"/>
	</g>
	<g>
		<path style="fill:#FFFFFF;" d="M232.637,243.651c0,0-32.455-23.81-66.108-15.993l4.209-34.859c0,0,37.259,32.225,58.898,25.425    c0,0-6.611-67.493,13.218-75.906c19.836-8.415,28.85,66.768,28.85,66.768S244.656,221.784,232.637,243.651z"/>
		<path style="fill:#000733;" d="M229.232,227.646c0,4.853-1.763,8.792-3.936,8.792c-2.166,0-3.927-3.939-3.927-8.792    c0-4.853,1.761-8.789,3.927-8.789C227.47,218.857,229.232,222.794,229.232,227.646z"/>
		<path style="fill:#000733;" d="M239.673,225.394c0,4.852-1.762,8.79-3.931,8.79c-2.169,0-3.93-3.939-3.93-8.79    c0-4.854,1.761-8.786,3.93-8.786C237.911,216.607,239.673,220.54,239.673,225.394z"/>
		<path style="fill:#000733;" d="M223.009,220.666c-28.669,0-57.851-32.098-59.179-33.572l2.681-2.413    c0.336,0.371,32.831,36.074,61.129,32.055c-1.163-10.225-5.762-60.955,15.004-77.793c7.554-6.129,17.535-7.056,29.661-2.762    l-1.203,3.4c-10.868-3.85-19.672-3.117-26.188,2.16c-21.09,17.105-13.569,75.656-13.491,76.245l0.224,1.675l-1.658,0.331    C227.675,220.451,225.343,220.666,223.009,220.666z"/>
	</g>
</g>















</svg>
