<?xml version="1.0" encoding="UTF-8"?>
<!-- Generator: Adobe Illustrator 26.4.1, SVG Export Plug-In . SVG Version: 6.00 Build 0)  -->
<svg xmlns="http://www.w3.org/2000/svg" xmlns:xlink="http://www.w3.org/1999/xlink" version="1.1" id="Capa_1" x="0px" y="0px" viewBox="0 0 512 512" style="enable-background:new 0 0 512 512;" xml:space="preserve" width="512" height="512">
<g>
	<g>
		<path style="fill:#BCF2EB;" d="M485.578,390.668C314.722,547.935,130.576,493.616,66.649,467.233    c-34.643-57.972-102.411-197.355-43.36-322.051c76.9-162.355,372.435-175.883,458.578-30.622    C530.63,196.765,511.441,308.858,485.578,390.668z"/>
		<path style="fill:#00D4B1;" d="M510.123,275.558c-3.925,40.753-13.645,80.621-24.545,115.11    C314.722,547.935,130.576,493.616,66.649,467.233c-14.687-24.567-35.314-63.749-49.688-110.223    C79.586,394.691,304.684,503.887,510.123,275.558z"/>
	</g>
	<g>
		<path style="fill:#FF5187;" d="M445.426,202.031c12.16,77.796-61.643,153.941-164.848,170.079    c-103.2,16.133-196.727-33.855-208.887-111.649c-12.16-77.796,61.642-153.942,164.842-170.078    C339.739,74.249,433.26,124.236,445.426,202.031z"/>
		<g>
			<path style="fill:#BCF2EB;" d="M307.033,202.718c-11.848-6.838-13.086,25.605-26.171,28.449     c-13.092,2.846-12.521-32.433,5.686-46.086c18.208-13.658,73.972-22.194,82.506,16.499     C377.588,240.271,331.433,216.799,307.033,202.718z"/>
			<path style="fill:#00D4B1;" d="M305.756,199.335c-9.829-4.375-10.853,16.383-21.706,18.201     c-10.852,1.821-10.381-20.746,4.719-29.484c15.098-8.735,61.336-14.194,68.414,10.558     C364.258,223.362,325.985,208.343,305.756,199.335z"/>
		</g>
		<g>
			<path style="fill:#FFE132;" d="M210.871,331.881c2.576,30.25,44.899,30.874,58.608,22.189     c17.068-10.812,15.934-38.691,38.122-42.674c22.19-3.98,35.85,10.809,57.469-3.129c21.624-13.942,9.104-46.88-24.465-41.79     c-33.572,5.09-26.174,34.677-47.799,26.14C271.187,284.083,204.434,256.205,210.871,331.881z"/>
			
				<rect x="202.994" y="338.882" transform="matrix(0.9368 -0.3499 0.3499 0.9368 -105.8702 95.6502)" style="fill:#FFE132;" width="17.625" height="3.943"/>
			
				<rect x="260.232" y="350.416" transform="matrix(0.917 -0.399 0.399 0.917 -121.6747 134.459)" style="fill:#FFE132;" width="3.943" height="18.28"/>
			
				<rect x="229.62" y="274.466" transform="matrix(0.886 -0.4636 0.4636 0.886 -105.2931 139.7449)" style="fill:#FFE132;" width="3.944" height="19.14"/>
			
				<rect x="364.462" y="279.592" transform="matrix(0.8508 -0.5255 0.5255 0.8508 -91.8743 239.5442)" style="fill:#FFE132;" width="22.875" height="3.942"/>
			
				<rect x="336.462" y="259.421" transform="matrix(0.925 -0.38 0.38 0.925 -76.0226 148.6067)" style="fill:#FFE132;" width="3.945" height="14.92"/>
			
				<rect x="364.314" y="302.267" transform="matrix(0.6862 -0.7274 0.7274 0.6862 -111.4609 364.1313)" style="fill:#FFE132;" width="3.945" height="17.957"/>
			
				<rect x="216.495" y="350.682" transform="matrix(0.6477 -0.7619 0.7619 0.6477 -190.1343 294.1127)" style="fill:#FFE132;" width="12.939" height="3.943"/>
			
				<rect x="226.089" y="356.596" transform="matrix(0.2876 -0.9578 0.9578 0.2876 -176.8488 479.391)" style="fill:#FFE132;" width="15.439" height="3.943"/>
			
				<rect x="242.927" y="352.633" transform="matrix(0.9967 -0.0815 0.0815 0.9967 -28.4112 21.1465)" style="fill:#FFE132;" width="3.944" height="12.117"/>
			
				<rect x="206.449" y="317.241" transform="matrix(0.0997 -0.995 0.995 0.0997 -136.6415 500.8056)" style="fill:#FFE132;" width="3.946" height="17.339"/>
			
				<rect x="206.452" y="303.548" transform="matrix(0.1136 -0.9935 0.9935 0.1136 -125.4611 483.8446)" style="fill:#FFE132;" width="3.941" height="17.369"/>
			
				<rect x="213.722" y="285.355" transform="matrix(0.6726 -0.74 0.74 0.6726 -147.8154 256.2389)" style="fill:#FFE132;" width="3.944" height="19.652"/>
			
				<rect x="239.972" y="273.776" transform="matrix(0.9991 -0.0412 0.0412 0.9991 -11.3273 10.2143)" style="fill:#FFE132;" width="3.943" height="11.842"/>
			
				<rect x="247.475" y="279.59" transform="matrix(0.1218 -0.9926 0.9926 0.1218 -56.824 498.8987)" style="fill:#FFE132;" width="12.101" height="3.944"/>
			
				<rect x="256.674" y="280.708" transform="matrix(0.248 -0.9688 0.9688 0.248 -75.3015 468.3539)" style="fill:#FFE132;" width="14.705" height="3.944"/>
			
				<rect x="269.146" y="283.519" transform="matrix(0.4014 -0.9159 0.9159 0.4014 -95.7751 424.4419)" style="fill:#FFE132;" width="15.342" height="3.943"/>
			
				<rect x="270.039" y="344.764" transform="matrix(0.6248 -0.7808 0.7808 0.6248 -173.2884 344.706)" style="fill:#FFE132;" width="3.945" height="15.78"/>
			
				<rect x="278.05" y="334.43" transform="matrix(0.5589 -0.8293 0.8293 0.5589 -160.0877 383.0787)" style="fill:#FFE132;" width="3.943" height="15.159"/>
			
				<rect x="286.552" y="323.571" transform="matrix(0.6 -0.8 0.8 0.6 -149.8542 363.4677)" style="fill:#FFE132;" width="3.943" height="16.021"/>
			
				<rect x="294.688" y="311.982" transform="matrix(0.9584 -0.2855 0.2855 0.9584 -78.4573 97.9478)" style="fill:#FFE132;" width="3.943" height="12.084"/>
			
				<rect x="303.189" y="305.023" transform="matrix(0.9903 -0.1386 0.1386 0.9903 -40.1924 45.2984)" style="fill:#FFE132;" width="3.947" height="12.443"/>
			<rect x="319" y="308.042" style="fill:#FFE132;" width="3.943" height="11.832"/>
			
				<rect x="330.918" y="307.976" transform="matrix(0.9906 -0.1366 0.1366 0.9906 -39.9286 48.4191)" style="fill:#FFE132;" width="3.945" height="14.429"/>
			
				<rect x="347.925" y="304.419" transform="matrix(0.9285 -0.3714 0.3714 0.9285 -91.4893 152.4027)" style="fill:#FFE132;" width="3.946" height="18.582"/>
			
				<rect x="374.545" y="289.936" transform="matrix(0.3863 -0.9224 0.9224 0.3863 -44.2594 530.4489)" style="fill:#FFE132;" width="3.943" height="17.101"/>
			<rect x="370.092" y="287.832" style="fill:#FFE132;" width="12.833" height="3.943"/>
			
				<rect x="363.339" y="270.087" transform="matrix(0.5414 -0.8408 0.8408 0.5414 -59.2915 435.4121)" style="fill:#FFE132;" width="12.307" height="3.942"/>
			
				<rect x="352.224" y="264.171" transform="matrix(0.3484 -0.9374 0.9374 0.3484 -14.6394 511.2257)" style="fill:#FFE132;" width="16.295" height="3.942"/>
			<rect x="347.924" y="258.503" style="fill:#FFE132;" width="3.945" height="13.555"/>
			
				<rect x="281.254" y="285.625" transform="matrix(0.3726 -0.928 0.928 0.3726 -87.1089 446.3463)" style="fill:#FFE132;" width="10.599" height="3.944"/>
			
				<rect x="295.55" y="285.433" transform="matrix(0.9913 -0.1315 0.1315 0.9913 -35.8226 41.6726)" style="fill:#FFE132;" width="3.943" height="13.112"/>
			
				<rect x="304.914" y="279.194" transform="matrix(0.9273 -0.3744 0.3744 0.9273 -84.7993 135.713)" style="fill:#FFE132;" width="3.946" height="13.824"/>
			
				<rect x="314.854" y="272.517" transform="matrix(0.8297 -0.5582 0.5582 0.8297 -102.3087 224.5035)" style="fill:#FFE132;" width="3.944" height="14.854"/>
			
				<rect x="324.756" y="262.17" transform="matrix(0.9694 -0.2456 0.2456 0.9694 -56.5936 88.5413)" style="fill:#FFE132;" width="3.945" height="18.051"/>
			<path style="fill:#FF8320;" d="M279.217,322.337c0,13.108-13.241,23.739-29.575,23.739c-16.337,0-29.578-10.631-29.578-23.739     c0-13.11,13.241-23.739,29.578-23.739C265.976,298.598,279.217,309.227,279.217,322.337z"/>
			<path style="fill:#FF8320;" d="M366.29,290.129c0,6.44-8.858,11.661-19.781,11.661c-10.924,0-19.78-5.221-19.78-11.661     c0-6.441,8.856-11.664,19.78-11.664C357.432,278.465,366.29,283.688,366.29,290.129z"/>
		</g>
		<g>
			<path style="fill:#00D4B1;" d="M136.641,294.68c0,3.929-6.496,7.11-14.509,7.11s-14.51-3.182-14.51-7.11     c0-3.93,6.497-7.112,14.51-7.112S136.641,290.75,136.641,294.68z"/>
			<polygon style="fill:#00D4B1;" points="115.072,296.15 101.022,293.483 101.393,291.548 115.442,294.215    "/>
			<polygon style="fill:#00D4B1;" points="118.063,295.929 107.585,286.853 108.876,285.359 119.351,294.435    "/>
			
				<rect x="116.859" y="283.96" transform="matrix(0.9849 -0.1731 0.1731 0.9849 -48.2464 24.7668)" style="fill:#00D4B1;" width="1.971" height="9.962"/>
			
				<rect x="121.035" y="287.954" transform="matrix(0.1238 -0.9923 0.9923 0.1238 -176.3316 378.1917)" style="fill:#00D4B1;" width="9.888" height="1.973"/>
			
				<rect x="128.106" y="288.016" transform="matrix(0.5344 -0.8452 0.8452 0.5344 -182.6916 246.3369)" style="fill:#00D4B1;" width="8.309" height="1.974"/>
			
				<rect x="137.069" y="290.889" transform="matrix(0.0848 -0.9964 0.9964 0.0848 -169.2907 409.0877)" style="fill:#00D4B1;" width="1.97" height="11.626"/>
			<polygon style="fill:#00D4B1;" points="131.35,305.458 127.896,297.078 129.724,296.329 133.174,304.71    "/>
			
				<rect x="121.527" y="297.178" transform="matrix(0.9953 -0.0964 0.0964 0.9953 -28.4541 13.21)" style="fill:#00D4B1;" width="1.972" height="7.925"/>
			
				<rect x="111.841" y="302.865" transform="matrix(0.2009 -0.9796 0.9796 0.2009 -204.8685 356.5504)" style="fill:#00D4B1;" width="8.556" height="1.974"/>
			
				<rect x="106.505" y="298.014" transform="matrix(0.7228 -0.6911 0.6911 0.7228 -175.9813 159.2739)" style="fill:#00D4B1;" width="8.083" height="1.971"/>
		</g>
		<g>
			<path style="fill:#FF9ABE;" d="M186.734,239.63c2.939,11.709-11.11,25.327-31.378,30.42c-20.264,5.09-39.081-0.277-42.022-11.984     c-2.938-11.709,11.107-25.33,31.376-30.42C164.974,222.557,183.79,227.921,186.734,239.63z"/>
			<path style="fill:#FFE132;" d="M138.916,252.34c0,4.22-4.525,7.641-10.104,7.641c-5.578,0-10.104-3.421-10.104-7.641     c0-4.222,4.525-7.64,10.104-7.64C134.391,244.701,138.916,248.119,138.916,252.34z"/>
			<path style="fill:#FFE132;" d="M176.692,246.794c0,7.282-8.014,13.187-17.9,13.187c-9.889,0-17.903-5.904-17.903-13.187     c0-7.283,8.015-13.188,17.903-13.188C168.679,233.607,176.692,239.511,176.692,246.794z"/>
			<rect x="102.686" y="258.009" style="fill:#FF9ABE;" width="16.021" height="3.943"/>
			
				<rect x="112.157" y="266.143" transform="matrix(0.5394 -0.842 0.842 0.5394 -171.0055 223.5962)" style="fill:#FF9ABE;" width="13.458" height="3.943"/>
			
				<rect x="109.399" y="244.404" transform="matrix(0.595 -0.8037 0.8037 0.595 -156.0711 190.8839)" style="fill:#FF9ABE;" width="3.947" height="11.805"/>
			
				<rect x="171.34" y="226.708" transform="matrix(0.3124 -0.9499 0.9499 0.3124 -94.0694 327.3928)" style="fill:#FF9ABE;" width="15.568" height="3.942"/>
			
				<rect x="178.824" y="236.195" transform="matrix(0.9594 -0.282 0.282 0.9594 -59.6043 62.1914)" style="fill:#FF9ABE;" width="14.866" height="3.945"/>
			
				<rect x="184.763" y="242.358" transform="matrix(0.3846 -0.9231 0.9231 0.3846 -115.4571 325.9487)" style="fill:#FF9ABE;" width="3.942" height="14.419"/>
			
				<rect x="177.769" y="257.174" transform="matrix(0.6809 -0.7324 0.7324 0.6809 -134.043 215.0358)" style="fill:#FF9ABE;" width="3.942" height="8.326"/>
			
				<rect x="164.61" y="223.627" transform="matrix(0.1688 -0.9856 0.9856 0.1688 -81.9062 354.0664)" style="fill:#FF9ABE;" width="8.754" height="3.944"/>
		</g>
		<g>
			<path style="fill:#BCF2EB;" d="M209.352,168.964c8.197,1.73,21.353,0.626,20.564-8.782c-0.794-9.408,17.795-11.388,13.049-20.087     C238.219,131.396,173.764,161.451,209.352,168.964z"/>
			<path style="fill:#00D4B1;" d="M222.226,161.023c0,2.38-3.976,4.312-8.872,4.312c-4.902,0-8.875-1.933-8.875-4.312     c0-2.384,3.973-4.316,8.875-4.316C218.25,156.707,222.226,158.639,222.226,161.023z"/>
			<path style="fill:#00D4B1;" d="M237.595,146.082c0.539,1.469-1.713,3.645-5.033,4.857c-3.314,1.213-6.44,1.003-6.98-0.466     c-0.533-1.471,1.719-3.646,5.033-4.857C233.935,144.406,237.059,144.612,237.595,146.082z"/>
		</g>
		<g>
			<path style="fill:#00D4B1;" d="M318.429,122.626c0,10.845-17.139,19.631-38.276,19.631c-21.143,0-38.279-8.786-38.279-19.631     c0-10.841,17.137-19.631,38.279-19.631C301.29,102.996,318.429,111.786,318.429,122.626z"/>
			<path style="fill:#FF9ABE;" d="M289.017,123.925c0,6.675-8.552,12.079-19.101,12.079c-10.549,0-19.101-5.404-19.101-12.079     c0-6.669,8.552-12.073,19.101-12.073C280.465,111.852,289.017,117.256,289.017,123.925z"/>
			<path style="fill:#FF9ABE;" d="M312.678,121.957c0,3.539-4.378,6.406-9.782,6.406c-5.398,0-9.776-2.867-9.776-6.406     c0-3.538,4.379-6.409,9.776-6.409C308.3,115.547,312.678,118.418,312.678,121.957z"/>
			
				<rect x="298.054" y="135.364" transform="matrix(0.9056 -0.4241 0.4241 0.9056 -31.9641 140.6572)" style="fill:#00D4B1;" width="3.946" height="13.553"/>
			
				<rect x="307.89" y="130.423" transform="matrix(0.6213 -0.7836 0.7836 0.6213 8.1943 295.5699)" style="fill:#00D4B1;" width="3.945" height="17.771"/>
			
				<rect x="315.146" y="124.184" transform="matrix(0.334 -0.9426 0.9426 0.334 88.2307 385.7892)" style="fill:#00D4B1;" width="3.942" height="12.549"/>
			
				<rect x="233.148" y="124.791" transform="matrix(0.9787 -0.2051 0.2051 0.9787 -20.8736 52.1047)" style="fill:#00D4B1;" width="15.615" height="3.943"/>
			
				<rect x="238.123" y="107.778" transform="matrix(0.3284 -0.9445 0.9445 0.3284 50.9396 305.2042)" style="fill:#00D4B1;" width="3.942" height="18.006"/>
			
				<rect x="243.916" y="103.365" transform="matrix(0.6364 -0.7713 0.7713 0.6364 4.7402 229.5681)" style="fill:#00D4B1;" width="3.943" height="12.781"/>
			
				<rect x="254.07" y="99.872" transform="matrix(0.8782 -0.4783 0.4783 0.8782 -19.0973 135.2828)" style="fill:#00D4B1;" width="3.944" height="10.523"/>
		</g>
	</g>
	<g>
		<path style="opacity:0.5;fill:#FFFFFF;" d="M248.598,44.07l236.531,239.965C485.129,284.035,562.188,26.981,248.598,44.07z"/>
		<path style="opacity:0.5;fill:#FFFFFF;" d="M102.367,220.457c-17.189,39.925-46.97,65.465-66.515,57.045    c-19.543-8.413-21.449-47.598-4.256-87.525c17.194-39.923,46.974-65.466,66.516-57.048    C117.66,141.343,119.56,180.531,102.367,220.457z"/>
	</g>
</g>















</svg>
