<?xml version="1.0" encoding="UTF-8"?>
<!-- Generator: Adobe Illustrator 26.4.1, SVG Export Plug-In . SVG Version: 6.00 Build 0)  -->
<svg xmlns="http://www.w3.org/2000/svg" xmlns:xlink="http://www.w3.org/1999/xlink" version="1.1" id="Capa_1" x="0px" y="0px" viewBox="0 0 512 512" style="enable-background:new 0 0 512 512;" xml:space="preserve" width="512" height="512">
<g>
	<g>
		<polygon style="fill:#BCF2EB;" points="0,102.323 504.227,35.842 512,399.317 45.762,476.158   "/>
		<polygon style="fill:#FFFFFF;" points="21.584,115.277 483.301,54.405 490.416,387.233 63.487,457.595   "/>
	</g>
	<g>
		<polygon style="fill:#FF5187;" points="458.732,349.844 458.732,374.55 430.449,378.962 403.441,383.168 375.746,387.49     351.804,391.228 329.749,394.67 303.094,398.817 277.565,402.8 246.045,407.711 210.421,413.279 180.748,417.897 178.432,397.117     208.252,392.092 243.537,386.144 275.029,380.825 300.63,376.513 327.549,371.969 350.029,368.177 374.326,364.072     401.933,359.415 429.158,354.828   "/>
		<polygon style="fill:#FFE132;" points="140.625,361.746 105.119,367.46 71.911,372.824 68.878,344.937 65.829,316.963     62.976,290.764 59.015,254.397 55.984,226.583 52.686,196.163 48.524,157.993 88.413,152.231 91.33,189.774 128.945,183.562     131.011,215.023 132.844,243.039 135.187,278.833 137.02,306.647 138.836,334.295   "/>
		<polygon style="fill:#FF9ABE;" points="458.732,328.484 458.732,349.844 429.158,354.828 401.933,359.415 374.326,364.072     350.029,368.177 327.549,371.969 300.63,376.513 275.029,380.825 243.537,386.144 208.252,392.092 178.432,397.117     175.502,370.918 205.615,366.403 240.638,361.158 272.232,356.424 297.992,352.572 325.278,348.467 348.241,345.038     372.934,341.335 400.527,337.2 428.002,333.081   "/>
		<polygon style="fill:#00D4B1;" points="323.695,332.218 296.234,336.658 270.445,340.804 238.864,345.905 204.078,351.515     173.874,356.385 140.625,361.746 138.836,334.295 137.02,306.647 135.187,278.833 132.844,243.039 131.011,215.023     222.028,200.997 253.826,196.103 280.278,192.03 309.685,187.502 312.385,215.418 315.638,249.043 318.67,280.332 321.219,306.56       "/>
		<polygon style="fill:#FF8320;" points="458.732,98.721 458.732,310.457 427.064,315.556 399.428,320.01 371.908,324.452     346.968,328.469 323.695,332.218 321.219,306.56 318.67,280.332 315.638,249.043 312.385,215.418 309.685,187.502     306.448,154.196 333.222,149.771 361.033,145.171 388.025,140.7 417.469,135.837 415.825,104.916   "/>
		<g>
			
				<rect x="97.515" y="126.686" transform="matrix(0.997 -0.0774 0.0774 0.997 -22.0305 8.5284)" style="fill:#FFFFFF;" width="2.93" height="323.435"/>
			
				<rect x="58.508" y="339.893" transform="matrix(0.9873 -0.1588 0.1588 0.9873 -50.808 46.7298)" style="fill:#FFFFFF;" width="417.114" height="2.93"/>
			
				<rect x="149.476" y="348.984" transform="matrix(0.989 -0.1482 0.1482 0.989 -48.4963 50.1332)" style="fill:#FFFFFF;" width="325.283" height="2.933"/>
			
				<rect x="168.381" y="210.269" transform="matrix(0.9938 -0.1112 0.1112 0.9938 -34.5841 20.8789)" style="fill:#FFFFFF;" width="2.93" height="220.299"/>
			
				<rect x="41.678" y="160.879" transform="matrix(0.9866 -0.1634 0.1634 0.9866 -23.0666 44.1971)" style="fill:#FFFFFF;" width="431.014" height="2.929"/>
			
				<rect x="421.309" y="79.53" transform="matrix(0.9986 -0.0534 0.0534 0.9986 -11.9428 22.8991)" style="fill:#FFFFFF;" width="2.93" height="311.055"/>
			
				<rect x="155.311" y="371.906" transform="matrix(0.9861 -0.166 0.166 0.9861 -57.5358 58.155)" style="fill:#FFFFFF;" width="327.839" height="2.931"/>
			
				<rect x="199.206" y="206.414" transform="matrix(0.9948 -0.1023 0.1023 0.9948 -31.5229 22.1986)" style="fill:#FFFFFF;" width="2.93" height="224.058"/>
			
				<rect x="233.194" y="196.762" transform="matrix(0.9933 -0.1154 0.1154 0.9933 -34.1821 29.1539)" style="fill:#FFFFFF;" width="2.931" height="225.97"/>
			
				<rect x="265.008" y="193.617" transform="matrix(0.9935 -0.1141 0.1141 0.9935 -33.1955 32.4038)" style="fill:#FFFFFF;" width="2.931" height="225.143"/>
			
				<rect x="290.498" y="182.591" transform="matrix(0.994 -0.1097 0.1097 0.994 -30.9101 33.8184)" style="fill:#FFFFFF;" width="2.929" height="230.598"/>
			
				<rect x="316.581" y="134.428" transform="matrix(0.9953 -0.0964 0.0964 0.9953 -24.9169 31.9421)" style="fill:#FFFFFF;" width="2.93" height="278.714"/>
			
				<rect x="340.688" y="126.761" transform="matrix(0.9971 -0.0767 0.0767 0.9971 -19.3834 27.0239)" style="fill:#FFFFFF;" width="2.93" height="278.236"/>
			
				<rect x="366.771" y="126.918" transform="matrix(0.9982 -0.0606 0.0606 0.9982 -15.3114 22.7932)" style="fill:#FFFFFF;" width="2.932" height="273.972"/>
			
				<rect x="394.04" y="121.364" transform="matrix(0.998 -0.0635 0.0635 0.998 -15.5997 25.6207)" style="fill:#FFFFFF;" width="2.93" height="274.016"/>
			
				<rect x="42.04" y="193.877" transform="matrix(0.9883 -0.1526 0.1526 0.9883 -26.7843 41.786)" style="fill:#FFFFFF;" width="433.45" height="2.931"/>
			
				<rect x="46.043" y="222.132" transform="matrix(0.9883 -0.1526 0.1526 0.9883 -31.0829 42.1624)" style="fill:#FFFFFF;" width="426.237" height="2.931"/>
			
				<rect x="133.21" y="162.111" transform="matrix(0.9979 -0.0654 0.0654 0.9979 -17.4334 9.3934)" style="fill:#FFFFFF;" width="2.93" height="217.419"/>
			
				<rect x="50.444" y="256.513" transform="matrix(0.9867 -0.1627 0.1627 0.9867 -38.4856 45.985)" style="fill:#FFFFFF;" width="422.176" height="2.931"/>
			
				<rect x="53.455" y="286.744" transform="matrix(0.9896 -0.1437 0.1437 0.9896 -38.6752 40.9742)" style="fill:#FFFFFF;" width="421.688" height="2.93"/>
			
				<rect x="58.777" y="313.025" transform="matrix(0.9887 -0.1502 0.1502 0.9887 -44.1848 43.9781)" style="fill:#FFFFFF;" width="420.527" height="2.929"/>
		</g>
	</g>
	<g>
		<path style="fill:#000733;" d="M128.984,158.539c0.378-4.474,0.721-8.845,1.029-13.113c0.118-1.784,0.238-3.673,0.364-5.654    c0.125-1.98,0.238-3.93,0.342-5.845c0.101-1.912,0.195-3.761,0.282-5.542c0.086-1.783,0.145-3.409,0.174-4.888    c0.895-0.416,1.777-0.79,2.65-1.12c0.872-0.33,1.771-0.642,2.699-0.929c0.927-0.29,1.809-0.491,2.646-0.604    c1.448-0.197,2.694-0.119,3.743,0.229c1.044,0.351,1.93,0.896,2.651,1.633c0.723,0.735,1.288,1.636,1.693,2.694    c0.405,1.06,0.693,2.215,0.862,3.47c0.245,1.803,0.15,3.586-0.285,5.348c-0.432,1.76-1.116,3.369-2.05,4.821    c-0.933,1.455-2.065,2.663-3.392,3.63c-1.327,0.965-2.764,1.553-4.309,1.762l-0.532,0.072c-0.108,1.129-0.189,2.351-0.239,3.667    c-0.05,1.318-0.083,2.535-0.095,3.654c-0.053,1.314-0.087,2.632-0.106,3.943L128.984,158.539z M138.169,133.069    c-0.098,1.946-0.209,4.023-0.336,6.234c0.498-0.194,0.997-0.566,1.494-1.111c0.502-0.541,0.943-1.222,1.322-2.044    c0.382-0.82,0.648-1.752,0.804-2.788c0.154-1.035,0.158-2.103,0.011-3.197c-0.161-1.189-0.549-2.054-1.163-2.592    c-0.613-0.541-1.242-0.77-1.886-0.682C138.349,129.063,138.265,131.12,138.169,133.069z"/>
		<path style="fill:#000733;" d="M147.807,155.992l1.681-35.167l15.074-3.367c-0.13,0.739-0.226,1.487-0.284,2.248    c-0.081,0.638-0.147,1.288-0.203,1.97c-0.055,0.68-0.096,1.283-0.124,1.812c-0.316,0.075-0.773,0.159-1.365,0.259    c-0.594,0.096-1.227,0.199-1.9,0.305c-0.672,0.109-1.355,0.207-2.048,0.3c-0.691,0.094-1.295,0.176-1.81,0.244l-0.519,8.871    c0.988-0.203,1.914-0.378,2.779-0.524c0.703-0.127,1.425-0.244,2.166-0.342c0.737-0.101,1.283-0.19,1.633-0.272    c-0.007,0.919-0.007,1.821-0.003,2.706c0.004,0.883-0.013,1.786-0.051,2.707c-0.317,0.075-0.836,0.172-1.559,0.284    c-0.721,0.116-1.45,0.239-2.186,0.369c-0.831,0.146-1.744,0.304-2.737,0.47l-0.441,9.1l6.897-2.061l0.261,5.566L147.807,155.992z"/>
		<path style="fill:#000733;" d="M164.07,153.792c0.291-4.398,0.562-8.695,0.814-12.889c0.054-1.776,0.131-3.629,0.229-5.558    c0.1-1.93,0.176-3.842,0.232-5.732c0.054-1.893,0.103-3.72,0.145-5.476c0.04-1.758,0.045-3.356,0.015-4.794    c1.756-0.825,3.676-1.52,5.762-2.08c2.088-0.563,4.176-0.982,6.268-1.265c1.254-0.171,2.312-0.168,3.172,0.011    c0.859,0.18,1.558,0.503,2.097,0.972c0.537,0.467,0.952,1.043,1.24,1.722c0.29,0.682,0.492,1.458,0.61,2.328    c0.174,1.286,0.119,2.581-0.164,3.877c-0.284,1.301-0.729,2.559-1.334,3.77c-0.604,1.212-1.337,2.342-2.195,3.393    c-0.856,1.051-1.809,1.939-2.857,2.673c0.752,1.208,1.563,2.534,2.431,3.974c0.865,1.439,1.683,2.809,2.448,4.114    c0.86,1.521,1.738,3.039,2.631,4.559l-7.128,3.617c-0.922-1.971-1.762-3.825-2.52-5.558c-0.324-0.707-0.654-1.44-0.986-2.202    c-0.333-0.757-0.642-1.477-0.933-2.156c-0.286-0.681-0.535-1.296-0.739-1.843c-0.206-0.544-0.347-0.992-0.427-1.34l-0.602,0.273    c-0.053,1.058-0.124,2.297-0.211,3.717c-0.086,1.418-0.153,2.791-0.205,4.105c-0.086,1.552-0.169,3.119-0.249,4.704    L164.07,153.792z M172.578,131.313c0.603-0.146,1.316-0.507,2.14-1.075c0.824-0.569,1.597-1.225,2.314-1.96    c0.721-0.735,1.325-1.48,1.812-2.233c0.489-0.757,0.698-1.39,0.629-1.903c-0.048-0.355-0.199-0.622-0.454-0.801    c-0.252-0.178-0.589-0.297-1.005-0.356c-0.418-0.059-0.87-0.069-1.357-0.034c-0.487,0.029-0.988,0.081-1.502,0.153    c-0.355,0.047-0.715,0.106-1.082,0.17c-0.369,0.067-0.698,0.118-0.988,0.158L172.578,131.313z"/>
		<path style="fill:#000733;" d="M191.676,149.147c-0.844,0.197-1.708,0.412-2.593,0.649c-0.887,0.232-1.685,0.447-2.395,0.642    c-0.711,0.193-1.097,0.312-1.156,0.354c0.133-1.427,0.258-3.01,0.366-4.742c0.111-1.738,0.215-3.552,0.319-5.451    c0.104-1.896,0.188-3.815,0.253-5.758c0.065-1.94,0.123-3.817,0.172-5.624c0.119-4.211,0.224-8.535,0.311-12.972l7.366-2.226    c-0.158,4.415-0.308,8.745-0.456,12.989c-0.05,1.809-0.1,3.683-0.148,5.625c-0.05,1.938-0.099,3.861-0.154,5.768    c-0.053,1.909-0.09,3.756-0.109,5.545c-0.02,1.789-0.047,3.406-0.081,4.854C193.082,148.838,192.515,148.953,191.676,149.147z"/>
		<path style="fill:#000733;" d="M218.706,127.358c-0.247,2.413-0.706,4.653-1.376,6.723c-0.67,2.073-1.52,3.958-2.552,5.653    c-1.032,1.698-2.151,3.176-3.357,4.436c-1.204,1.262-2.463,2.267-3.768,3.012c-1.308,0.752-2.589,1.213-3.844,1.383    c-1.062,0.143-2.056,0.075-2.978-0.211c-0.924-0.284-1.76-0.778-2.509-1.48c-0.751-0.702-1.395-1.646-1.934-2.834    c-0.537-1.189-0.921-2.65-1.156-4.391c-0.244-1.801-0.276-3.727-0.097-5.784c0.181-2.057,0.524-4.116,1.031-6.185    c0.507-2.065,1.205-4.063,2.091-5.985c0.886-1.918,1.914-3.655,3.079-5.207c1.167-1.549,2.469-2.831,3.905-3.843    c1.435-1.014,2.988-1.635,4.662-1.86c1.447-0.194,2.686-0.058,3.716,0.405c1.028,0.47,1.873,1.14,2.533,2.016    c0.659,0.88,1.181,1.897,1.569,3.057c0.385,1.161,0.661,2.338,0.82,3.527C218.9,122.427,218.954,124.952,218.706,127.358z     M202.597,138.507c0.181,0.369,0.402,0.682,0.667,0.939c0.265,0.262,0.579,0.473,0.944,0.635c0.367,0.162,0.743,0.219,1.129,0.168    c1.447-0.196,2.668-0.868,3.66-2.018c0.99-1.149,1.758-2.499,2.303-4.048c0.543-1.547,0.905-3.165,1.085-4.864    c0.18-1.695,0.179-3.219-0.003-4.57c-0.053-0.386-0.134-0.802-0.243-1.246c-0.108-0.441-0.261-0.848-0.459-1.212    c-0.196-0.367-0.467-0.668-0.809-0.9c-0.343-0.231-0.772-0.312-1.288-0.244c-1.029,0.138-1.942,0.526-2.741,1.155    c-0.801,0.633-1.488,1.426-2.062,2.372c-0.579,0.944-1.051,1.989-1.419,3.138c-0.371,1.149-0.665,2.304-0.884,3.462    c-0.219,1.162-0.339,2.281-0.355,3.366c-0.018,1.082,0.025,2.011,0.13,2.784C202.3,137.778,202.415,138.138,202.597,138.507z"/>
		<path style="fill:#000733;" d="M240.066,123.785c-0.227,1.944-0.652,3.902-1.268,5.87c-0.618,1.971-1.45,3.881-2.492,5.742    c-1.044,1.861-2.283,3.536-3.719,5.025c-1.438,1.486-3.06,2.748-4.872,3.777c-1.81,1.032-3.791,1.695-5.947,1.986    c-0.451,0.061-0.904,0.097-1.362,0.11c-0.456,0.012-0.914,0.018-1.374,0.013c0.269-4.557,0.535-8.998,0.803-13.328    c0.082-1.811,0.172-3.7,0.266-5.662c0.095-1.963,0.176-3.9,0.247-5.809c0.069-1.908,0.141-3.736,0.217-5.482    c0.074-1.748,0.114-3.325,0.121-4.734c1.347-0.447,2.715-0.875,4.101-1.294c1.385-0.415,2.819-0.725,4.299-0.925    c1.735-0.236,3.245-0.161,4.526,0.223c1.28,0.385,2.364,1.006,3.251,1.871c0.886,0.863,1.593,1.913,2.122,3.151    c0.527,1.242,0.891,2.584,1.086,4.03C240.297,120.025,240.295,121.835,240.066,123.785z M227.798,121.732    c-0.152,1.788-0.299,3.593-0.446,5.417c-0.148,1.823-0.285,3.724-0.41,5.707c-0.124,1.982-0.21,4.137-0.253,6.475    c0.703-0.622,1.355-1.422,1.96-2.403c0.604-0.985,1.15-2.099,1.638-3.343c0.485-1.244,0.907-2.547,1.263-3.907    c0.357-1.357,0.646-2.676,0.868-3.952c0.222-1.273,0.363-2.456,0.43-3.545c0.064-1.09,0.044-2.021-0.059-2.795    c-0.163-1.188-0.617-2.08-1.368-2.665c-0.752-0.586-1.835-0.785-3.249-0.592C228.073,118.075,227.949,119.943,227.798,121.732z"/>
		<path style="fill:#000733;" d="M246.5,141.734c-0.844,0.197-1.707,0.409-2.592,0.646c-0.887,0.235-1.684,0.449-2.396,0.642    c-0.71,0.195-1.096,0.316-1.157,0.354c0.135-1.426,0.258-3.007,0.368-4.742c0.108-1.736,0.214-3.55,0.319-5.448    c0.103-1.899,0.187-3.817,0.254-5.761c0.064-1.939,0.123-3.817,0.172-5.623c0.117-4.209,0.223-8.533,0.311-12.97l7.366-2.226    c-0.159,4.412-0.31,8.742-0.456,12.989c-0.049,1.806-0.1,3.683-0.149,5.623c-0.048,1.94-0.1,3.861-0.153,5.769    c-0.052,1.909-0.09,3.756-0.109,5.542c-0.02,1.79-0.047,3.407-0.08,4.854C247.906,141.423,247.34,141.54,246.5,141.734z"/>
		<path style="fill:#000733;" d="M267.117,133.933c-0.774,1.431-1.623,2.66-2.549,3.688c-0.927,1.023-1.891,1.82-2.896,2.381    c-1.007,0.561-2.007,0.91-3.004,1.046c-0.999,0.134-1.938,0.032-2.819-0.308c-0.882-0.34-1.688-0.917-2.422-1.738    c-0.732-0.814-1.373-1.859-1.922-3.13c-0.549-1.27-0.943-2.788-1.182-4.559c-0.408-3.022-0.394-6.064,0.043-9.119    c0.439-3.059,1.256-5.865,2.451-8.417c1.193-2.556,2.73-4.686,4.613-6.401c1.882-1.709,4.078-2.735,6.586-3.073    c0.773-0.106,1.534-0.046,2.287,0.18c0.75,0.225,1.424,0.596,2.016,1.101c0.594,0.513,1.1,1.164,1.52,1.961    c0.418,0.795,0.696,1.706,0.836,2.735c0.026,0.195,0.054,0.395,0.082,0.604c0.027,0.209,0.041,0.428,0.039,0.657l-6.094,2.547    c-0.495-0.755-1-1.093-1.514-1.023c-0.516,0.068-1.014,0.435-1.496,1.11c-0.484,0.671-0.934,1.518-1.352,2.538    c-0.42,1.026-0.807,2.159-1.162,3.404c-0.357,1.242-0.647,2.488-0.871,3.729c-0.225,1.243-0.387,2.419-0.482,3.53    c-0.094,1.111-0.096,2.002-0.005,2.681c0.14,1.029,0.374,1.734,0.704,2.112c0.328,0.383,0.719,0.545,1.169,0.483    c0.354-0.049,0.737-0.242,1.152-0.574c0.412-0.335,0.782-0.747,1.111-1.23c0.327-0.49,0.613-1.028,0.862-1.617    c0.246-0.591,0.398-1.17,0.453-1.733l5.803,1.477C268.544,130.85,267.891,132.503,267.117,133.933z"/>
		<path style="fill:#000733;" d="M283.613,137.626c0.261-3.641,0.496-7.226,0.707-10.761c0.094-1.487,0.178-3.036,0.254-4.654    c0.076-1.617,0.148-3.206,0.216-4.771c0.065-1.562,0.108-3.076,0.124-4.537c0.014-1.458,0.023-2.796,0.023-4.008    c-0.756,0.003-1.508,0.075-2.26,0.206c-0.752,0.136-1.513,0.141-2.283,0.014c-0.038-0.52-0.1-1.118-0.191-1.794    c-0.092-0.676-0.168-1.351-0.226-2.03c-0.071-0.748-0.143-1.54-0.224-2.378c0.844-0.05,1.688-0.116,2.529-0.195    c0.84-0.08,1.68-0.18,2.516-0.292c1.641-0.221,3.219-0.477,4.736-0.764c1.517-0.285,2.921-0.576,4.209-0.862    c1.287-0.291,2.547-0.597,3.781-0.932l-0.178,2.679c-0.062,0.76-0.113,1.539-0.153,2.331c-0.04,0.791-0.088,1.471-0.142,2.036    c-0.682,0.285-1.38,0.52-2.093,0.699c-0.712,0.177-1.416,0.378-2.105,0.603c-0.078,1.125-0.155,2.373-0.232,3.743    c-0.076,1.371-0.139,2.785-0.186,4.252c-0.047,1.464-0.086,2.951-0.107,4.462c-0.028,1.509-0.061,2.957-0.103,4.337    c-0.083,3.258-0.12,6.621-0.109,10.091L283.613,137.626z"/>
		<path style="fill:#000733;" d="M311.766,133.228c-0.943,0.288-1.791,0.555-2.545,0.788c-0.016-1.082-0.029-2.145-0.041-3.19    c-0.025-0.914-0.059-1.828-0.099-2.741c-0.042-0.908-0.073-1.692-0.097-2.344l-4.199,0.566l-0.989,7.215    c-0.696,0.189-1.518,0.407-2.468,0.651c-0.951,0.241-1.838,0.467-2.662,0.68c-1.011,0.267-2.007,0.534-2.986,0.797    c0.708-4.452,1.408-8.842,2.102-13.161c0.28-1.808,0.573-3.697,0.879-5.672c0.306-1.975,0.613-3.942,0.921-5.9    c0.31-1.96,0.604-3.843,0.885-5.648c0.279-1.807,0.514-3.459,0.705-4.959c2.164-0.458,4.367-0.952,6.605-1.486    c2.238-0.527,4.408-1.133,6.512-1.811c0.043,1.04,0.111,2.334,0.205,3.881c0.093,1.542,0.215,3.22,0.361,5.034    c0.147,1.814,0.306,3.711,0.475,5.686c0.17,1.978,0.334,3.918,0.494,5.832c0.438,4.46,0.9,9.197,1.383,14.21    c-0.945,0.294-1.893,0.553-2.846,0.781C313.576,132.671,312.709,132.937,311.766,133.228z M305.292,121.327    c0.128-0.018,0.36-0.057,0.696-0.117c0.336-0.062,0.688-0.127,1.055-0.194c0.367-0.065,0.711-0.13,1.031-0.188    c0.318-0.062,0.541-0.115,0.667-0.165c-0.026-0.193-0.048-0.525-0.062-0.999c-0.015-0.473-0.038-1.011-0.07-1.613    c-0.031-0.599-0.065-1.262-0.097-1.976c-0.031-0.716-0.06-1.418-0.086-2.1c-0.094-1.661-0.172-3.451-0.236-5.379l-0.278-4.235    l-0.718,0.146l-0.549,4.299L305.292,121.327z"/>
		<path style="fill:#000733;" d="M337.48,121.692c-0.393,1.198-0.995,2.319-1.804,3.363c-0.81,1.042-1.786,1.996-2.933,2.854    c-1.145,0.86-2.369,1.615-3.673,2.269c-1.305,0.648-2.657,1.192-4.057,1.627c-1.399,0.437-2.759,0.741-4.076,0.92    c-1.192,0.16-2.315,0.214-3.368,0.16c0.782-5.841,1.246-11.675,1.391-17.511c0.143-5.836,0.242-11.702,0.296-17.607    c1.624-0.584,3.32-1.131,5.086-1.646c1.764-0.519,3.611-0.91,5.542-1.17c0.804-0.111,1.671-0.128,2.598-0.057    c0.927,0.072,1.794,0.315,2.605,0.73c0.809,0.413,1.52,1.007,2.131,1.774c0.612,0.769,1.006,1.798,1.18,3.084    c0.165,1.223,0.119,2.394-0.141,3.509c-0.26,1.115-0.642,2.151-1.151,3.103c-0.511,0.958-1.128,1.801-1.845,2.536    c-0.72,0.734-1.479,1.322-2.269,1.757c0.447,0.17,0.925,0.433,1.434,0.789c0.505,0.357,0.991,0.792,1.455,1.303    c0.46,0.509,0.864,1.135,1.211,1.876c0.346,0.738,0.583,1.591,0.715,2.555C337.986,119.23,337.877,120.49,337.48,121.692z     M325.99,116.485c-0.032,0.613-0.058,1.199-0.079,1.759c-0.024,0.562-0.054,1.145-0.085,1.753    c-0.032,0.613-0.057,1.329-0.075,2.151c0.6-0.148,1.278-0.353,2.028-0.621c0.75-0.264,1.456-0.613,2.118-1.049    c0.663-0.435,1.198-0.964,1.604-1.593c0.406-0.623,0.557-1.343,0.447-2.146c-0.079-0.578-0.298-1.043-0.655-1.387    c-0.358-0.345-0.787-0.613-1.289-0.807c-0.502-0.197-1.034-0.312-1.598-0.352c-0.559-0.037-1.082-0.026-1.566,0.039    c-0.159,0.021-0.296,0.04-0.406,0.057c-0.115,0.015-0.233,0.047-0.358,0.097C326.05,115.176,326.023,115.878,325.99,116.485z     M326.621,103.698c-0.016,0.494-0.034,1.014-0.061,1.557c-0.024,0.545-0.059,1.081-0.1,1.609    c-0.044,0.531-0.072,0.995-0.083,1.386c0.688-0.222,1.374-0.494,2.051-0.817c0.678-0.318,1.28-0.653,1.806-1.004    c0.525-0.351,0.937-0.708,1.231-1.074c0.294-0.369,0.415-0.746,0.361-1.132c-0.064-0.481-0.263-0.857-0.592-1.123    c-0.333-0.269-0.746-0.466-1.237-0.598c-0.492-0.129-0.993-0.197-1.502-0.213c-0.512-0.013-0.958,0.004-1.345,0.059l-0.482,0.063    C326.652,102.777,326.637,103.206,326.621,103.698z"/>
		<path style="fill:#000733;" d="M348.248,127.361c-1.1,0.214-2.206,0.464-3.312,0.742c-1.109,0.281-2.189,0.601-3.24,0.952    c-1.05,0.358-1.987,0.738-2.818,1.145c-0.001-1.474,0.005-3.114,0.022-4.919c0.019-1.803,0.069-3.677,0.15-5.62    c0.08-1.943,0.159-3.904,0.236-5.88c0.076-1.978,0.172-3.874,0.286-5.691c0.234-4.323,0.507-8.735,0.815-13.232l8.296-2.256    c-0.363,3.853-0.709,7.604-1.033,11.251c-0.15,1.559-0.292,3.177-0.426,4.848c-0.135,1.674-0.26,3.305-0.371,4.892    c-0.113,1.589-0.2,3.122-0.26,4.605c-0.065,1.485-0.099,2.8-0.108,3.945c0.795-0.171,1.651-0.325,2.566-0.467    c0.914-0.141,1.725-0.262,2.434-0.356c0.115,0.607,0.244,1.205,0.389,1.79c0.144,0.588,0.29,1.114,0.435,1.59    c0.147,0.473,0.268,0.889,0.367,1.255c0.099,0.359,0.172,0.606,0.223,0.731c-0.26,0.035-0.508,0.058-0.751,0.075    c-0.245,0.019-0.495,0.041-0.753,0.076C350.398,126.97,349.35,127.148,348.248,127.361z"/>
		<path style="fill:#000733;" d="M353.254,128.206l1.681-35.167l15.075-3.367c-0.131,0.738-0.227,1.486-0.287,2.247    c-0.079,0.638-0.145,1.292-0.199,1.971c-0.057,0.679-0.098,1.283-0.124,1.812c-0.317,0.075-0.774,0.163-1.367,0.26    c-0.593,0.097-1.226,0.198-1.897,0.305c-0.675,0.108-1.356,0.208-2.049,0.302c-0.693,0.092-1.297,0.173-1.81,0.244l-0.52,8.868    c0.986-0.203,1.912-0.376,2.778-0.522c0.704-0.128,1.424-0.244,2.163-0.342c0.742-0.103,1.287-0.19,1.637-0.274    c-0.006,0.92-0.006,1.822-0.002,2.706c0.002,0.884-0.014,1.788-0.051,2.708c-0.32,0.075-0.838,0.171-1.561,0.284    c-0.721,0.115-1.449,0.24-2.185,0.369c-0.833,0.147-1.744,0.304-2.738,0.47l-0.439,9.102l6.896-2.062l0.261,5.566L353.254,128.206    z"/>
	</g>
	
		<rect x="85.95" y="389.777" transform="matrix(0.988 -0.1544 0.1544 0.988 -59.3145 24.5109)" style="fill:#000733;" width="84.397" height="8.712"/>
	
		<rect x="88.983" y="412.89" transform="matrix(0.9931 -0.1169 0.1169 0.9931 -47.8772 18.0006)" style="fill:#000733;" width="81.136" height="8.71"/>
</g>















</svg>
