<?xml version="1.0" encoding="UTF-8"?>
<!-- Generator: Adobe Illustrator 26.4.1, SVG Export Plug-In . SVG Version: 6.00 Build 0)  -->
<svg xmlns="http://www.w3.org/2000/svg" xmlns:xlink="http://www.w3.org/1999/xlink" version="1.1" id="Capa_1" x="0px" y="0px" viewBox="0 0 512 512" style="enable-background:new 0 0 512 512;" xml:space="preserve" width="512" height="512">
<g>
	<g>
		<path style="fill:#FFE132;" d="M282.527,281.306c0,0,5.219,30.332,11.684,28.591c6.462-1.741,6.462-18.148,6.462-18.148    s4.479,14.668,9.699,12.43c5.22-2.237,2.733-30.333,2.733-30.333L282.527,281.306z"/>
		<path style="fill:#BCF2EB;" d="M167.166,50.835c-57.93,43.756-42.017,124.062-42.017,124.062l58.176,53.452l89.007-50.22    C288.492,62.024,225.093,7.078,167.166,50.835z"/>
		<path style="fill:#BCF2EB;" d="M328.771,201.251c-17.156-60.911-54.698-73.591-89.255-59.918    c-34.559,13.672-46.742,48.231-46.742,48.231C116.696,33.679-30.986,218.902,7.8,269.622    c38.784,50.718,206.356-12.184,206.356-12.184l-22.13,78.814l5.222,27.596l17.154,2.734l33.066-87.513    c0,0,16.444,35.344,21.859,7.375c53.738,20.523,167.839-76.493,167.839-76.493l3.979-12.183    C391.67,175.392,328.771,201.251,328.771,201.251z"/>
		<path style="fill:#000733;" d="M472.673,201.308c-11.487,18.921-29.352,29.068-39.898,22.662    c-10.544-6.404-9.774-26.934,1.715-45.854c11.489-18.92,29.356-29.067,39.9-22.661    C484.934,161.859,484.167,182.385,472.673,201.308z"/>
		<g>
			<path style="fill:#000733;" d="M234.887,262.573l-2.676-1.316c2.566-5.228,5.962-8.488,10.088-9.689     c5.632-1.648,10.465,1.243,10.672,1.366l-1.549,2.55c-0.039-0.022-3.968-2.331-8.321-1.042     C239.826,255.407,237.064,258.143,234.887,262.573z"/>
			<path style="fill:#000733;" d="M286.344,290.808c-5.774,0-11.204-0.771-16.189-2.47c-14.175-4.828-23.388-16.794-27.379-35.563     l2.92-0.621c3.754,17.669,12.31,28.893,25.421,33.361c52.856,18.004,163.969-75.751,165.084-76.701l1.931,2.273     C433.945,214.648,343.653,290.808,286.344,290.808z"/>
		</g>
		<path style="fill:#000733;" d="M193.463,336.655l-2.873-0.807l21.34-76.001c-22.697,8.229-168.594,58.703-205.314,10.681    c-10.248-13.402-8.508-37.242,4.656-63.772c19.709-39.719,62.054-79.855,104.923-79.855c0.075,0,0.149,0,0.226,0    c30.319,0.1,56.627,20.505,76.228,59.069c3.988-8.912,17.649-34.683,46.319-46.024c17.62-6.974,34.738-6.794,49.501,0.513    c18.799,9.31,33.232,30.191,41.736,60.388l-2.874,0.809c-8.266-29.363-22.163-49.6-40.187-58.523    c-13.984-6.924-30.264-7.065-47.082-0.414c-33.538,13.269-45.764,47.002-45.883,47.341l-1.186,3.36l-1.561-3.201    c-19.216-39.374-45.159-60.238-75.023-60.335c-0.07,0-0.147,0-0.217,0c-41.655,0-82.947,39.302-102.249,78.198    C1.296,233.57-0.558,256.236,8.985,268.716c37.678,49.271,202.982-12.047,204.646-12.673l2.758-1.035L193.463,336.655z"/>
		<path style="fill:#000733;" d="M13.736,248.205l-2.615-1.436c0.346-0.629,35.179-62.972,90.9-71.596    c31.439-4.878,63.455,7.989,95.164,38.209l2.697,2.572h-11.711l13.438,7.72l-14.588,12.288l-1.922-2.282l11.329-9.542    l-19.438-11.168h15.391c-30.093-27.699-60.321-39.432-89.89-34.851C48.229,186.508,14.075,247.588,13.736,248.205z"/>
		<g>
			<path style="fill:#00D4B1;" d="M207.938,189.712c0,0,58.18-33.214,129.781-27.743c0,0,9.448,65.883-19.144,73.84     c-28.591,7.956-37.044-29.09-37.044-29.09s-9.448,37.292-29.337,39.78C232.305,248.986,210.924,219.444,207.938,189.712z"/>
			<path style="fill:#000733;" d="M251.633,222.07l-2.856-0.868c0.447-1.471,4.585-14.405,12.239-15.357     c4.094-0.512,8.17,2.536,12.098,9.055l-2.559,1.538c-2.241-3.722-5.676-8.064-9.168-7.632     C256.514,209.41,252.693,218.585,251.633,222.07z"/>
			<path style="fill:#000733;" d="M289.949,212.503l-2.914-0.626c0.107-0.5,2.716-12.288,9.904-13.921     c4.288-0.981,9.041,1.856,14.114,8.415l-2.361,1.825c-4.238-5.48-8.071-8.016-11.093-7.331     C293.156,201.874,290.572,209.608,289.949,212.503z"/>
			
				<rect x="233.397" y="186.217" transform="matrix(0.9642 -0.2652 0.2652 0.9642 -41.6108 79.1554)" style="fill:#000733;" width="77.871" height="14.918"/>
		</g>
	</g>
	<g>
		<g>
			<g>
				<path style="fill:#FFE132;" d="M338.469,280.057l-9.471,48.287c0.037,0.048,0.074,0.1,0.109,0.148l-0.337,0.218L315.69,348      l6.34,15.861l-6.34,32.311l143.846,56.923L512,321.825L338.469,280.057z"/>
				<g>
					<path style="fill:#FF5187;" d="M398.344,322.535c0,5.4-4.377,9.779-9.776,9.779c-5.401,0-9.78-4.379-9.78-9.779       c0-5.401,4.379-9.78,9.78-9.78C393.967,312.755,398.344,317.134,398.344,322.535z"/>
					<path style="fill:#FF5187;" d="M424.627,380.254c0,5.402-4.379,9.782-9.779,9.782c-5.4,0-9.78-4.379-9.78-9.782       c0-5.399,4.38-9.779,9.78-9.779C420.248,370.475,424.627,374.855,424.627,380.254z"/>
					<path style="fill:#FF5187;" d="M457.771,338.488c0,5.402-4.381,9.782-9.781,9.782c-5.401,0-9.779-4.38-9.779-9.782       c0-5.4,4.378-9.778,9.779-9.778C453.39,328.709,457.771,333.087,457.771,338.488z"/>
					<path style="fill:#00D4B1;" d="M365.749,347.512c0,3.712-3.008,6.722-6.72,6.722c-3.712,0-6.721-3.01-6.721-6.722       c0-3.712,3.009-6.719,6.721-6.719C362.741,340.793,365.749,343.8,365.749,347.512z"/>
					<path style="fill:#00D4B1;" d="M385.506,362.105c0,3.712-3.008,6.722-6.719,6.722c-3.713,0-6.723-3.01-6.723-6.722       c0-3.712,3.01-6.72,6.723-6.72C382.498,355.385,385.506,358.393,385.506,362.105z"/>
					<path style="fill:#00D4B1;" d="M460.306,376.03c0,3.712-3.011,6.72-6.724,6.72c-3.708,0-6.72-3.008-6.72-6.72       c0-3.711,3.012-6.722,6.72-6.722C457.295,369.309,460.306,372.319,460.306,376.03z"/>
					<path style="fill:#00D4B1;" d="M437.167,411.975c0,3.713-3.006,6.721-6.719,6.721c-3.714,0-6.723-3.008-6.723-6.721       c0-3.711,3.009-6.72,6.723-6.72C434.161,405.255,437.167,408.265,437.167,411.975z"/>
					<path style="fill:#00D4B1;" d="M405.067,410.433c0,3.712-3.008,6.721-6.724,6.721c-3.709,0-6.719-3.009-6.719-6.721       c0-3.713,3.01-6.721,6.719-6.721C402.06,403.712,405.067,406.719,405.067,410.433z"/>
					<path style="fill:#00D4B1;" d="M484.543,362.105c0,3.712-3.005,6.722-6.719,6.722c-3.712,0-6.724-3.01-6.724-6.722       c0-3.712,3.012-6.72,6.724-6.72C481.538,355.385,484.543,358.393,484.543,362.105z"/>
					
						<rect x="364.493" y="333.57" transform="matrix(0.8382 -0.5453 0.5453 0.8382 -123.309 257.4652)" style="fill:#000733;" width="15.552" height="5.967"/>
					
						<rect x="376.917" y="341.375" transform="matrix(0.0954 -0.9954 0.9954 0.0954 5.2713 694.517)" style="fill:#000733;" width="15.68" height="5.967"/>
					
						<rect x="447.778" y="352.151" transform="matrix(0.998 -0.0636 0.0636 0.998 -21.8431 29.3738)" style="fill:#000733;" width="5.965" height="11.709"/>
					
						<rect x="461.686" y="344.772" transform="matrix(0.7106 -0.7036 0.7036 0.7106 -112.4725 428.4983)" style="fill:#000733;" width="5.968" height="12.411"/>
					
						<rect x="399.484" y="337.233" transform="matrix(0.9099 -0.4147 0.4147 0.9099 -109.3968 198.544)" style="fill:#000733;" width="5.967" height="27.871"/>
					
						<rect x="414.79" y="355.891" transform="matrix(0.713 -0.7011 0.7011 0.713 -129.4325 401.5238)" style="fill:#000733;" width="21.972" height="5.966"/>
					
						<rect x="399.941" y="392.798" transform="matrix(0.5605 -0.8281 0.8281 0.5605 -149.6568 509.5514)" style="fill:#000733;" width="10.646" height="5.966"/>
					
						<rect x="421.112" y="391.064" transform="matrix(0.9345 -0.3559 0.3559 0.9345 -113.09 176.8494)" style="fill:#000733;" width="5.967" height="9.433"/>
				</g>
			</g>
			<g>
				<path style="fill:#BCF2EB;" d="M338.709,355.895c-3.551,4.461-8.893-2.52-13.146-10.082l-3.533,18.048l-27.819,14.411      l-2.73-14.425l17.393-20.631c0,0-3.728-20.884,4.729-25.121c3.595-1.79,9.875,3.223,15.396,10.249      C336.484,337.861,342.572,351.033,338.709,355.895z"/>
				<path style="fill:#000733;" d="M292.615,364.81l-2.281-1.923l16.964-20.112c-0.598-3.842-2.871-21.754,5.636-26.007      c5.516-2.757,13.468,5.999,16.626,9.895c6.697,8.252,15.421,23.738,10.321,30.157c-1.498,1.888-3.203,2.079-4.359,1.918      c-7.478-1.079-16.376-22.182-18.08-26.401l2.765-1.119c3.707,9.155,11.257,23.92,15.743,24.567      c0.396,0.051,0.93,0.017,1.595-0.819c2.937-3.696-1.879-16.044-10.3-26.423c-5.3-6.532-10.648-10.277-12.976-9.107      c-6.118,3.058-4.904,18.01-3.921,23.515l0.122,0.689L292.615,364.81z"/>
			</g>
			<path style="fill:#FF9ABE;" d="M227.332,360.864c0,0,24.613,53.949,68.121-8.702l14.919,54.201c0,0-36.3,67.373-83.04-22.626     V360.864z"/>
		</g>
		<g>
			<polygon style="fill:#000733;" points="190.287,318.101 236.035,331.776 218.132,375.036 182.581,373.792    "/>
			<path style="fill:#FF9ABE;" d="M229.693,352.659l23.75,98.947c0,0-101.245,64.767-135.495-16.112     c-21.033-10.143-40.485-27.806-35.071-57.968c10.949-60.922,94.977-54.21,94.977-54.21l3.239-21.868l23.865,10.441v42.007     l24.852-35.802l24.614,13.426L229.693,352.659z"/>
			
				<rect x="126.291" y="407.758" transform="matrix(0.2177 -0.976 0.976 0.2177 -248.6989 508.2248)" style="fill:#000733;" width="132.778" height="2.985"/>
			<g>
				<polygon style="fill:#FFFFFF;" points="138.077,381.748 144.044,358.131 186.061,367.827 177.359,393.933     "/>
				<polygon style="fill:#000733;" points="159.708,367.578 162.069,354.649 173.133,358.131 166.421,369.567     "/>
				
					<rect x="152.933" y="363.268" transform="matrix(0.1914 -0.9815 0.9815 0.1914 -239.3327 451.5936)" style="fill:#000733;" width="2.983" height="15.579"/>
				
					<rect x="157.718" y="363.222" transform="matrix(0.2137 -0.9769 0.9769 0.2137 -245.554 453.9544)" style="fill:#000733;" width="2.984" height="32.576"/>
			</g>
			<polygon style="fill:#000733;" points="187.563,341.287 176.994,325.714 179.463,324.038 187.371,335.691 201.181,312.003      203.758,313.505    "/>
			<polygon style="fill:#000733;" points="215.928,356.542 227.905,320.674 230.732,321.618 220.336,352.755 229.44,351.188      229.946,354.131    "/>
			<path style="fill:#000733;" d="M239.637,436.252c-3.645,0-6.92-0.957-9.779-2.869c-8.281-5.534-9.984-17.006-10.051-17.491     l2.953-0.417c0.015,0.105,1.6,10.658,8.768,15.435c3.674,2.452,8.265,2.989,13.641,1.601l0.748,2.889     C243.717,435.969,241.623,436.252,239.637,436.252z"/>
			<g>
				<g>
					<path style="fill:#BCF2EB;" d="M190.283,391.562c0,0,23.12,13.798,19.018,29.969c-4.102,16.155-30.444,25.105-33.682,0       l-8.607-0.866l2.938-17.782h15.112l0.999-22.63c0,0,45.006,2.493,47.481,11.308       C236.035,400.394,190.283,391.562,190.283,391.562z"/>
					<path style="fill:#000733;" d="M185.223,423.755c-5.714-3.879-8.42-1.301-8.531-1.188l-2.164-2.053       c0.177-0.192,4.443-4.606,12.371,0.773L185.223,423.755z"/>
					<path style="fill:#000733;" d="M191.525,438.3l-1.979-2.233c2.278-2.021,3.396-4.311,3.42-7.005       c0.062-7.229-7.835-14.566-7.916-14.639l2.02-2.198c0.365,0.335,8.955,8.322,8.881,16.862       C195.92,432.623,194.432,435.723,191.525,438.3z"/>
					<path style="fill:#000733;" d="M204.223,432.305l-2.833-0.934c5.126-15.544-9.716-24.44-9.867-24.528l1.507-2.576       C193.199,404.367,210.096,414.496,204.223,432.305z"/>
				</g>
				<polygon style="fill:#000733;" points="163.914,448.622 160.971,448.136 168.937,399.85 115.645,389.804 152.02,337.635       154.466,339.342 120.729,387.725 172.356,397.459     "/>
			</g>
		</g>
	</g>
</g>















</svg>
