<?xml version="1.0" encoding="UTF-8"?>
<!-- Generator: Adobe Illustrator 26.4.1, SVG Export Plug-In . SVG Version: 6.00 Build 0)  -->
<svg xmlns="http://www.w3.org/2000/svg" xmlns:xlink="http://www.w3.org/1999/xlink" version="1.1" id="Capa_1" x="0px" y="0px" viewBox="0 0 512 512" style="enable-background:new 0 0 512 512;" xml:space="preserve" width="512" height="512">
<g>
	<g>
		<path style="fill:#FFE132;" d="M196.508,512c-3.472,0-6.878-0.482-10.12-1.436c-24.6-7.237-39.362-40.968-41.565-94.984    c-2.142-52.473,7.586-118.449,27.391-185.774C210.751,98.795,276.879,0,326.034,0c3.473,0,6.877,0.484,10.117,1.436    c49.939,14.691,56.166,138.015,14.176,280.761C311.791,413.207,245.663,512,196.508,512z M326.034,8.684    c-44.705,0-108.611,98.203-145.489,223.57c-19.544,66.44-29.15,131.422-27.047,182.973c2.012,49.278,14.893,80.991,35.341,87.006    c2.448,0.72,5.027,1.084,7.67,1.084c44.706,0,108.611-98.203,145.488-223.567c39.262-133.474,35.463-257.11-8.297-269.981    C331.256,9.048,328.678,8.684,326.034,8.684z"/>
		<path style="fill:#FFE132;" d="M72.991,427.415c-31.196,0-52.554-8.603-61.763-24.885    c-27.164-48.027,59.292-146.588,196.824-224.381c86.311-48.818,173.022-77.965,231.954-77.965    c31.193,0,52.551,8.604,61.758,24.883c27.168,48.027-59.289,146.59-196.82,224.383C218.636,398.27,131.924,427.415,72.991,427.415    z M440.006,108.868c-56.643,0-143.883,29.443-227.678,76.838C83.477,258.589-5.154,355.925,18.787,398.257    c7.578,13.396,26.321,20.476,54.204,20.476c56.643,0,143.884-29.443,227.677-76.839    c128.851-72.885,217.48-170.221,193.539-212.553C486.631,115.947,467.889,108.868,440.006,108.868z"/>
		<path style="fill:#FFE132;" d="M421.717,427.351c-60.894,0-145.375-28.744-225.982-76.889    c-64.082-38.276-118.453-84.23-153.097-129.391c-35.474-46.245-46.163-86.525-30.097-113.42    c11.998-20.086,37.813-30.703,74.654-30.703c60.899,0,145.376,28.743,225.982,76.891    c64.082,38.276,118.451,84.228,153.094,129.388c35.473,46.243,46.162,86.524,30.1,113.421    C484.373,416.733,458.561,427.351,421.717,427.351z M87.196,85.632c-33.618,0-56.855,9.153-67.2,26.472    c-14.116,23.632-3.628,60.454,29.532,103.684c33.993,44.311,87.498,89.492,150.661,127.219    c79.32,47.377,162.133,75.661,221.529,75.661c33.619,0,56.856-9.153,67.201-26.472c14.115-23.634,3.625-60.454-29.533-103.684    c-33.994-44.311-87.498-89.492-150.66-127.217C229.408,113.918,146.594,85.632,87.196,85.632z"/>
	</g>
	<g>
		<path style="fill:#FF5187;" d="M329.483,286.66c-20.272,48.018-67.031,74.143-104.442,58.35    c-37.41-15.792-51.31-67.52-31.041-115.537c20.268-48.017,67.03-74.14,104.44-58.347    C335.852,186.918,349.75,238.645,329.483,286.66z"/>
		<path style="fill:#000733;" d="M257.446,239.278c-1.633,0-3.173-0.48-4.604-1.439c-7.69-5.163-9.107-23.259-9.163-24.026    l3.463-0.255c0.354,4.763,2.415,17.895,7.638,21.397c1.355,0.909,2.848,1.084,4.563,0.522c10.744-3.496,5.002-24.876,4.943-25.093    l3.348-0.92c0.279,1.01,6.647,24.803-7.215,29.316C259.399,239.113,258.405,239.278,257.446,239.278z"/>
		<path style="fill:#000733;" d="M285.909,232.599c-1.635,0-3.176-0.482-4.607-1.441c-7.689-5.163-9.107-23.259-9.162-24.026    l3.463-0.255c0.353,4.763,2.414,17.893,7.637,21.397c1.359,0.912,2.85,1.079,4.562,0.524c10.727-3.493,5.004-24.883,4.943-25.098    l3.35-0.92c0.279,1.01,6.646,24.806-7.217,29.321C287.858,232.434,286.868,232.599,285.909,232.599z"/>
		<g>
			<path style="fill:#FFFFFF;" d="M258.426,278.52l-7.032,35.755c-17.227,11.01-38.38,9.049-36.087-14.343     c2.901-29.523,24.885-60.486,24.885-60.486s0.764,22.609,16.307,17.645l-13.928,26.064L258.426,278.52z"/>
			<path style="fill:#000733;" d="M231.672,322.485c-2.809,0.003-5.463-0.449-7.85-1.397c-4.434-1.762-11.659-6.872-10.242-21.322     c2.908-29.641,24.295-60.046,25.205-61.325l2.971-4.184l0.18,5.128c0.005,0.132,0.541,13.171,7.377,16.097     c4.475,1.92,11.235-0.972,19.545-8.36l2.307,2.594c-9.527,8.468-17.346,11.481-23.227,8.955     c-5.731-2.458-8.002-9.498-8.897-14.33c-5.847,9.168-19.777,33.069-22.004,55.766c-0.898,9.163,1.892,15.303,8.067,17.754     c10.34,4.1,27.364-3.129,37.166-15.8l2.748,2.124C256.349,315.392,242.814,322.485,231.672,322.485z"/>
			
				<rect x="217.379" y="283.523" transform="matrix(0.9599 -0.2803 0.2803 0.9599 -70.1549 78.1926)" style="fill:#000733;" width="41.888" height="1.739"/>
			
				<rect x="213.947" y="273.943" transform="matrix(0.063 -0.998 0.998 0.063 -61.4814 484.1429)" style="fill:#000733;" width="26.268" height="1.738"/>
			<polygon style="fill:#000733;" points="236.5,285.726 234.806,285.346 242.363,251.402 244.057,251.782    "/>
			<polygon style="fill:#000733;" points="248.576,315.871 246.84,315.847 247.288,281.508 249.024,281.533    "/>
			
				<rect x="220.167" y="301.311" transform="matrix(0.009 -1 1 0.009 -66.7925 536.9626)" style="fill:#000733;" width="34.682" height="1.736"/>
			
				<rect x="225.78" y="288.205" transform="matrix(0.9944 -0.106 0.106 0.9944 -30.9428 25.7291)" style="fill:#000733;" width="1.736" height="31.683"/>
		</g>
	</g>
</g>















</svg>
