<?xml version="1.0" encoding="UTF-8"?>
<!-- Generator: Adobe Illustrator 26.4.1, SVG Export Plug-In . SVG Version: 6.00 Build 0)  -->
<svg xmlns="http://www.w3.org/2000/svg" xmlns:xlink="http://www.w3.org/1999/xlink" version="1.1" id="Capa_1" x="0px" y="0px" viewBox="0 0 512 512" style="enable-background:new 0 0 512 512;" xml:space="preserve" width="512" height="512">
<g>
	<g>
		<g>
			<path style="fill:#BCF2EB;" d="M78.084,460.881c-6.907,0-14.568-1.855-22.938-5.57l3.069-6.914     c14.014,6.212,25.347,6.512,33.687,0.885c19.727-13.32,18.511-55.128,18.496-55.55l7.562-0.266     c0.067,1.889,1.377,46.405-21.812,62.078C90.882,459.103,84.843,460.881,78.084,460.881z"/>
			<path style="fill:#BCF2EB;" d="M40.969,423.983l-6.404-4.028c0.53-0.841,13.205-20.613,35.189-23.432     c14.776-1.873,29.931,4.336,45.021,18.511l-5.182,5.515c-13.362-12.555-26.444-18.108-38.879-16.521     C52.233,406.397,41.079,423.809,40.969,423.983z"/>
			<path style="fill:#BCF2EB;" d="M64.495,404.47c-9.766-4.616-15.585-11.035-17.295-19.081     c-3.083-14.504,8.757-28.472,9.263-29.059l5.739,4.931c-0.1,0.116-9.916,11.763-7.597,22.581     c1.201,5.603,5.616,10.24,13.122,13.787L64.495,404.47z"/>
			<path style="fill:#BCF2EB;" d="M134.962,451.483c-0.917,0-1.831-0.052-2.744-0.151c-16.798-1.844-25.768-20.038-26.142-20.812     l6.809-3.296c0.074,0.151,7.567,15.229,20.19,16.591c9.197,1.007,19.27-5.366,29.958-18.893l5.936,4.691     C157.494,444.139,146.067,451.483,134.962,451.483z"/>
			<path style="fill:#BCF2EB;" d="M160.146,477.3c-5.598,0-11.005-1.216-14.881-4.763c-6.072-5.554-6.912-15.29-2.497-28.937     l7.198,2.329c-2.352,7.269-4.191,16.814,0.403,21.024c6.821,6.245,25.817,0.268,31.934-2.319l2.955,6.965     C183.346,472.413,171.364,477.3,160.146,477.3z"/>
			<path style="fill:#BCF2EB;" d="M75.356,509.71l-0.764-7.527c0.213-0.021,21.384-2.351,26.942-15.037     c3.543-8.087,0.156-19.125-10.069-32.805l6.061-4.531c11.985,16.036,15.661,29.629,10.927,40.397     C101.101,506.931,76.403,509.605,75.356,509.71z"/>
		</g>
		<g>
			<path style="fill:#00D4B1;" d="M173.566,429.155c0,6.271-2.792,11.352-6.241,11.352c-3.447,0-6.241-5.081-6.241-11.352     c0-6.266,2.794-11.347,6.241-11.347C170.774,417.809,173.566,422.89,173.566,429.155z"/>
			<path style="fill:#00D4B1;" d="M188.32,466.201c0,5.027-2.71,9.108-6.053,9.108c-3.342,0-6.052-4.081-6.052-9.108     c0-5.027,2.71-9.107,6.052-9.107C185.61,457.094,188.32,461.174,188.32,466.201z"/>
			<path style="fill:#00D4B1;" d="M80.89,504.056c0,4.388-2.792,7.944-6.242,7.944c-3.445,0-6.241-3.557-6.241-7.944     c0-4.387,2.795-7.943,6.241-7.943C78.098,496.112,80.89,499.669,80.89,504.056z"/>
			<path style="fill:#00D4B1;" d="M63.11,454.365c0,5.298-2.827,9.593-6.318,9.593c-3.493,0-6.322-4.295-6.322-9.593     c0-5.301,2.829-9.601,6.322-9.601C60.283,444.765,63.11,449.065,63.11,454.365z"/>
			<path style="fill:#00D4B1;" d="M45.71,423.482c0,3.135-3.387,5.673-7.566,5.673c-4.176,0-7.565-2.538-7.565-5.673     c0-3.133,3.389-5.674,7.565-5.674C42.323,417.809,45.71,420.35,45.71,423.482z"/>
			<path style="fill:#00D4B1;" d="M66.111,361.068c0,3.971-3.889,7.186-8.687,7.186c-4.799,0-8.688-3.215-8.688-7.186     s3.889-7.187,8.688-7.187C62.222,353.882,66.111,357.098,66.111,361.068z"/>
		</g>
	</g>
	<g>
		<path style="fill:#00D4B1;" d="M119.773,385.72l-14.344,4.779c-4.073-12.194-7.399-30.032-5.962-47.525l15.146,0.453    C112.828,364.337,119.652,385.354,119.773,385.72z"/>
		<path style="fill:#00D4B1;" d="M133.105,308.552c-11.016,6.855-16.039,18.097-17.901,29.896l-15.16-0.648    c2.163-15.478,8.458-30.203,21.742-39.933L133.105,308.552z"/>
		<path style="fill:#00D4B1;" d="M189.315,300.26l-6.643,13.648c-14.707-8.809-28.324-13.875-41.806-9.079    c-1.8,0.634-3.481,1.359-5.054,2.178l-9.683-11.968c2.919-1.71,6.142-3.208,9.652-4.463    C154.576,283.888,171.915,290.017,189.315,300.26z"/>
		<path style="fill:#00D4B1;" d="M227.961,325.801l-4.117,15.251c-7.293-4.445-14.315-9.259-21.109-13.936    c-5.961-4.085-11.709-8.036-17.295-11.515l7.355-13.237c6.128,3.778,12.272,8.005,18.505,12.284    C216.794,318.432,222.332,322.229,227.961,325.801z"/>
		<path style="fill:#00D4B1;" d="M277.544,344.486l-5.355,14.877c-15.812-1.576-30.248-7.781-43.73-15.571l3.452-15.541    C246.284,337.011,261.263,343.851,277.544,344.486z"/>
		<path style="fill:#00D4B1;" d="M333.757,339.189c-7.553,7.13-17.068,12.62-28.508,16.389c-10.152,3.345-19.777,4.526-28.945,4.088    l6.143-15.161c5.842-0.212,11.848-1.242,18.053-3.301c10.363-3.42,18.717-8.504,24.965-15.205L333.757,339.189z"/>
		<path style="fill:#00D4B1;" d="M347.63,319.84c-2.602,5.598-5.869,10.638-9.82,15.13l-8.881-13.135    c1.922-2.57,3.57-5.357,4.949-8.321c5.914-12.726,6.385-27.355,4.978-39.916l15.115-1.228    C355.544,287.006,354.849,304.267,347.63,319.84z"/>
	</g>
	<g>
		<path style="fill:#00D4B1;" d="M481.421,160.01l-1.897-10.969l-33.285,13.994l6.809-19.67l15.889-4.538l-0.758-7.187    l-18.912,9.456l-5.297-9.456l-5.295,3.403l8.32,9.834l-3.402,15.132c0,0-20.852-6.675-56.608,7.398    c-10.392-10.487-40.473-50.125,18.09-114.169c8.256-1.076,27.814-1.084,30.195,22.416L440,74.518l-6.809-14.938l15.131-1.705    v-4.981l-15.131,3.847c0,0-9.627-11.177-24.236-7.651c5.414-5.642,11.523-11.476,18.371-17.495l-4.918-4.933l-11.922,16.084    l-2.072-13.996l-5.676,1.893l3.965,14.177c0,0-3.418,4.536-9.66,10.933l-5.463-17.924l4.728-12.864l-3.594-1.13l-1.891,10.211    l-18.914-7.378l-0.758,4.92l16.645,3.594l7.725,22.135c-21.715,21.731-72.736,60.979-132.289,25.814    c-1.484-30.503-28.447-47.389-28.447-47.389l-0.575-15.493l12.862-13.622L240.655,3.6l-6.446,11.35L224.01,0l-4.538,6.625    l11.15,8.504l0.954,20.611l-16.462-7.369l-2.269-17.963L204.9,15.89l7.945,14.752h-23.832l2.466,8.698    c43.305-20.61,77.35,28.567,61.084,64.685c-16.266,36.118-51.067,3.783-75.656,0.378c-1.997-0.271-4.01-0.405-6.037-0.424    l-5.114-16.127l9.442-15.981l-5.661-2.451l-4.537,15.692l-19.868-6.431v5.871l17.021,2.633l6.492,16.812    c-18.852,0.556-37.131,10.421-37.131,10.421l3.782,8.144c18.688-16.555,43.578-16.055,61.221-7.824    c-1.09,6.887-6.356,28.718-29.067,22.017v4.901l14.662-1.118l-2.936,10.771h6.43l-0.938-12.481c0,0,15.723-7.944,16.947-21.363    c12.045,7.244,19.247,18.337,15.948,29.307c-8.124,27.056-67.696,26.298-67.696,26.298l-10.033-16.464l-7.565,5.115l17.204,15.692    l-21.743,6.611l2.829,7.2c99.503-53.909,137.694,16.07,89.668,43.685c-48.057,27.616-57.318-6.611-57.318-6.611l-6.809,5.658    c12.181,24.964,40.702,17.354,52.385,12.952c-2.862,7.23-2.453,17.883-2.453,17.883l-19.291,7.945l1.892,5.676l17.021-9.456    l5.297,15.885l4.54-4.16c0,0-22.697-30.262,28.37-54.848c51.066-24.592,95.83,44.005,95.83,44.005l9.33-1.198    c-5.547-20.682-0.369-82.455,37.449-95.768c47.285-16.645,80.197,11.728,80.197,11.728l3.402-6.057l-22.318-10.908L481.421,160.01    z"/>
		<g>
			<path style="fill:#FFFFFF;" d="M309.349,153.586c0,4.127-0.32,8.083-0.922,11.761c-10.531-7.97-24.031-7.917-31.435-7.122     c-0.104-1.514-0.154-3.062-0.154-4.639c0-19.587,7.289-35.472,16.256-35.472C302.072,118.114,309.349,133.999,309.349,153.586z"/>
			<path style="fill:#000733;" d="M314.04,173.275c-13.816-19.431-41.834-12.769-42.117-12.698l-0.727-2.938     c0.303-0.07,30.314-7.211,45.311,13.883L314.04,173.275z"/>
			<path style="fill:#000733;" d="M295.24,141.197c0,8.002-3.535,14.491-7.898,14.491c-4.365,0-7.898-6.489-7.898-14.491     c0-8.005,3.533-14.492,7.898-14.492C291.705,126.705,295.24,133.192,295.24,141.197z"/>
		</g>
		<g>
			<path style="fill:#FFFFFF;" d="M292.918,190.242l-5.963,17.705c-6.459,4.279-15.326,7.88-15.781-4.086     c-0.74-18.946,8.322-35.377,8.322-35.377s2.348,13.181,10.713,12.09l-6.93,12.693L292.918,190.242z"/>
			<path style="fill:#000733;" d="M276.912,213.498c-0.949,0-1.857-0.153-2.693-0.502c-2.842-1.179-4.377-4.233-4.562-9.076     c-0.738-19.142,8.131-35.472,8.508-36.159l2.059-3.736l0.756,4.202c0.453,2.516,2.539,9.339,6.697,10.654     c2.869,0.909,6.5-0.784,10.799-5.035l2.125,2.153c-5.162,5.102-9.824,7.038-13.846,5.767c-4.105-1.307-6.428-5.676-7.633-8.999     c-2.531,5.764-6.951,17.844-6.443,31.036c0.139,3.56,1.047,5.713,2.701,6.399c3.98,1.667,12.711-4.385,17.271-8.589l2.051,2.227     C293.507,204.939,283.992,213.498,276.912,213.498z"/>
			
				<rect x="270.808" y="192.829" transform="matrix(0.955 -0.2965 0.2965 0.955 -44.7107 92.3461)" style="fill:#000733;" width="22.615" height="1.515"/>
			
				<rect x="267.271" y="186.068" transform="matrix(0.0064 -1 1 0.0064 87.3669 461.5778)" style="fill:#000733;" width="17.373" height="1.513"/>
			
				<rect x="272.316" y="184.948" transform="matrix(0.2001 -0.9798 0.9798 0.2001 42.992 424.0685)" style="fill:#000733;" width="17.773" height="1.514"/>
			<polygon style="fill:#000733;" points="276.197,212.083 274.388,196.381 275.89,196.205 277.699,211.907    "/>
			
				<rect x="280.942" y="193.81" transform="matrix(0.9993 -0.0386 0.0386 0.9993 -7.5971 11.0241)" style="fill:#000733;" width="1.513" height="16.899"/>
			
				<rect x="277.841" y="199.677" transform="matrix(0.1285 -0.9917 0.9917 0.1285 50.8561 458.7386)" style="fill:#000733;" width="17.203" height="1.513"/>
			<path style="fill:#000733;" d="M272.421,169.523l-2.215-2.062c3.437-3.692,6.672-5.301,9.619-4.771     c3.65,0.652,5.225,4.328,5.291,4.484l-2.791,1.177c-0.008-0.024-1.027-2.336-3.051-2.687     C277.427,165.359,275.066,166.682,272.421,169.523z"/>
		</g>
	</g>
</g>















</svg>
