<?xml version="1.0" encoding="UTF-8"?>
<!-- Generator: Adobe Illustrator 26.4.1, SVG Export Plug-In . SVG Version: 6.00 Build 0)  -->
<svg xmlns="http://www.w3.org/2000/svg" xmlns:xlink="http://www.w3.org/1999/xlink" version="1.1" id="Capa_1" x="0px" y="0px" viewBox="0 0 512 512" style="enable-background:new 0 0 512 512;" xml:space="preserve" width="512" height="512">
<g>
	<g>
		<path style="fill:#BCF2EB;" d="M27.568,66.946c0,1.559,75.271,240.356,75.271,240.356s-71.64,23.36-80.982,85.656    c-9.344,62.295,90.324,71.121,161.448,37.377c71.115-33.745,82.536-86.696,51.908-114.73    c-30.624-28.032-103.819-10.38-103.819-10.38L70.133,52.41c0,0,27-9.345,22.842-19.726c-4.15-10.382-95.52,22.841-92.921,34.78    C2.646,79.406,27.568,66.946,27.568,66.946z"/>
		<path style="fill:#FF5187;" d="M28.603,386.339l206.352-65.8c0,0,44.773,72.03-77.48,110.965    C14.683,476.98,28.603,386.339,28.603,386.339z"/>
		
			<rect x="27.395" y="372.971" transform="matrix(0.9375 -0.348 0.348 0.9375 -127.7786 37.613)" style="fill:#000733;" width="26.853" height="3.115"/>
		
			<rect x="30.023" y="409.571" transform="matrix(0.9248 -0.3805 0.3805 0.9248 -153.0109 48.3369)" style="fill:#000733;" width="31.427" height="3.114"/>
		
			<rect x="54.142" y="433.449" transform="matrix(0.9368 -0.3499 0.3499 0.9368 -147.8532 51.6317)" style="fill:#000733;" width="29.649" height="3.115"/>
		
			<rect x="47.985" y="429.7" transform="matrix(0.9344 -0.3561 0.3561 0.9344 -149.9356 48.104)" style="fill:#000733;" width="15.384" height="3.115"/>
		
			<rect x="41.915" y="420.602" transform="matrix(0.9286 -0.371 0.371 0.9286 -153.0418 48.6531)" style="fill:#000733;" width="16.077" height="3.114"/>
		
			<rect x="30.6" y="400.485" transform="matrix(0.9285 -0.3714 0.3714 0.9285 -146.5221 43.2326)" style="fill:#000733;" width="16.773" height="3.116"/>
		
			<rect x="29.356" y="390.232" transform="matrix(0.9355 -0.3533 0.3533 0.9355 -135.9686 38.6218)" style="fill:#000733;" width="16.924" height="3.116"/>
		<path style="fill:#FFFFFF;" d="M94.964,174.528c14.509,57.845,24.067,105.288,21.349,105.97    c-2.718,0.682-16.682-45.658-31.191-103.5C70.612,119.154,61.056,71.71,63.774,71.027    C66.491,70.347,80.456,116.685,94.964,174.528z"/>
		<path style="fill:#FFFFFF;" d="M207.702,316.126c0,6.094-12.725,11.032-28.421,11.032c-15.696,0-28.423-4.938-28.423-11.032    c0-6.091,12.727-11.031,28.423-11.031C194.977,305.096,207.702,310.035,207.702,316.126z"/>
		<path style="fill:#000733;" d="M5.625,66.698c-0.605,0-0.934-0.011-0.969-0.012l0.134-3.112    c0.42,0.017,41.469,1.368,82.016-31.324l1.956,2.426C50.747,65.324,12.17,66.698,5.625,66.698z"/>
	</g>
	<g>
		<path style="fill:#FF9ABE;" d="M231.584,134.168l-24.398-77.606c0,0-22.842,3.115-24.4-5.19    c-1.557-8.308,112.13-41.532,115.241-31.149c3.118,10.381-20.246,16.61-20.246,16.61l10.904,86.176l84.094,58.663    c0,0-78.905,112.131-198.82,49.318L231.584,134.168z"/>
		<path style="fill:#00D4B1;" d="M205.366,187.383l115.243-36.21l42.438,31.538c0,0-70.86,96.947-181.039,45.941L205.366,187.383z"/>
		<path style="fill:#FFFFFF;" d="M278.935,73.376c1.884,18.428,1.733,33.538-0.344,33.751c-2.078,0.214-5.291-14.554-7.175-32.984    c-1.883-18.427-1.729-33.539,0.351-33.752C273.843,40.18,277.054,54.947,278.935,73.376z"/>
		<path style="fill:#FFFFFF;" d="M285.022,120.727c-1.386,1.646-4.64,1.183-7.273-1.032c-2.629-2.213-3.645-5.342-2.26-6.988    c1.384-1.646,4.643-1.185,7.27,1.03C285.394,115.951,286.406,119.081,285.022,120.727z"/>
		
			<rect x="285.14" y="143.127" transform="matrix(0.9601 -0.2797 0.2797 0.9601 -28.5868 89.0311)" style="fill:#000733;" width="25.065" height="3.115"/>
		
			<rect x="312.021" y="167.715" transform="matrix(0.9423 -0.3348 0.3348 0.9423 -37.8711 118.8417)" style="fill:#000733;" width="27.527" height="3.115"/>
		
			<rect x="335.462" y="186.863" transform="matrix(0.9174 -0.3979 0.3979 0.9174 -46.0351 155.0061)" style="fill:#000733;" width="29.99" height="3.115"/>
		
			<rect x="342.095" y="178.142" transform="matrix(0.9168 -0.3994 0.3994 0.9168 -42.7283 154.3268)" style="fill:#000733;" width="13.767" height="3.115"/>
		
			<rect x="338.231" y="171.839" transform="matrix(0.9074 -0.4203 0.4203 0.9074 -41.0313 160.5795)" style="fill:#000733;" width="11.269" height="3.116"/>
		
			<rect x="313.453" y="157.157" transform="matrix(0.9048 -0.4258 0.4258 0.9048 -37.0805 151.5361)" style="fill:#000733;" width="13.965" height="3.115"/>
		
			<rect x="308.216" y="151.238" transform="matrix(0.9722 -0.2343 0.2343 0.9722 -27.0243 78.0804)" style="fill:#000733;" width="13.88" height="3.114"/>
		<path style="fill:#000733;" d="M197.98,53.339c-6.033,0-9.544-0.404-9.676-0.421l0.382-3.091    c0.52,0.058,52.24,5.966,104.311-29.591l1.752,2.573C255.154,49.849,215.691,53.339,197.98,53.339z"/>
	</g>
	<g>
		<path style="fill:#BCF2EB;" d="M295.951,284.459l-29.07,161.968c0,0,47.202,65.682,167.631,42.31l52.986-155.999    c0,0,20.883,9.319,24.397-5.71c5.715-24.398-223.731-80.464-231.52-62.815C272.59,281.865,295.951,284.459,295.951,284.459z"/>
		<path style="fill:#FF8320;" d="M293.745,327.158l170.917,46.722l-38.155,106.682c0,0-82.931,29.047-153.979-36.292    L293.745,327.158z"/>
		<path style="fill:#000733;" d="M482.228,327.759c-93.967,0-196.263-59.19-197.376-59.842l1.572-2.688    c1.209,0.705,121.712,70.424,220.473,57.919l0.393,3.09C499.059,327.28,490.672,327.759,482.228,327.759z"/>
		<path style="fill:#FFFFFF;" d="M304.908,360.92c-6.515,33.733-14.686,60.522-18.253,59.831c-3.567-0.69-1.175-28.594,5.342-62.325    c6.52-33.733,14.69-60.521,18.255-59.832C313.818,299.285,311.426,327.188,304.908,360.92z"/>
		<path style="fill:#FFFFFF;" d="M286.384,435.009c0,4.576-1.822,8.287-4.074,8.287c-2.255,0-4.078-3.711-4.078-8.287    c0-4.579,1.823-8.29,4.078-8.29C284.562,426.72,286.384,430.431,286.384,435.009z"/>
		
			<rect x="456.483" y="342.67" transform="matrix(0.3237 -0.9462 0.9462 0.3237 -29.2455 675.6969)" style="fill:#000733;" width="3.116" height="31.272"/>
		
			<rect x="418.16" y="455.708" transform="matrix(0.3237 -0.9461 0.9461 0.3237 -162.1197 715.8732)" style="fill:#000733;" width="3.115" height="31.274"/>
		
			<rect x="435.318" y="405.126" transform="matrix(0.3237 -0.9462 0.9462 0.3237 -102.6482 697.9216)" style="fill:#000733;" width="3.116" height="31.276"/>
		
			<rect x="454.147" y="367.611" transform="matrix(0.2525 -0.9676 0.9676 0.2525 -23.999 722.6678)" style="fill:#000733;" width="3.116" height="18.509"/>
		
			<rect x="450.113" y="382.537" transform="matrix(0.2524 -0.9676 0.9676 0.2524 -41.4534 729.9263)" style="fill:#000733;" width="3.115" height="18.508"/>
		
			<rect x="445.193" y="395.123" transform="matrix(0.2525 -0.9676 0.9676 0.2525 -57.3259 734.5512)" style="fill:#000733;" width="3.114" height="18.509"/>
		
			<rect x="436.069" y="422.897" transform="matrix(0.2523 -0.9676 0.9676 0.2523 -90.9709 746.5662)" style="fill:#000733;" width="3.117" height="18.509"/>
		
			<rect x="432.037" y="437.823" transform="matrix(0.2525 -0.9676 0.9676 0.2525 -108.4741 753.7451)" style="fill:#000733;" width="3.114" height="18.509"/>
		
			<rect x="427.114" y="450.411" transform="matrix(0.2524 -0.9676 0.9676 0.2524 -124.3053 758.4424)" style="fill:#000733;" width="3.116" height="18.508"/>
	</g>
</g>















</svg>
