<?xml version="1.0" encoding="UTF-8"?>
<!-- Generator: Adobe Illustrator 26.4.1, SVG Export Plug-In . SVG Version: 6.00 Build 0)  -->
<svg xmlns="http://www.w3.org/2000/svg" xmlns:xlink="http://www.w3.org/1999/xlink" version="1.1" id="Capa_1" x="0px" y="0px" viewBox="0 0 512.001 512.001" style="enable-background:new 0 0 512.001 512.001;" xml:space="preserve" width="512" height="512">
<g>
	<g>
		<path style="fill:#FF8320;" d="M471.023,96.944l2.828-36.169l-28.799,11.713c-15.775-11.925-34.006-21.397-54.359-28.257    l-9.99-25.982L361.34,36.443c-27.541-5.5-58.076-6.898-90.949-3.914c-6.855,0.622-13.68,1.43-20.473,2.39l-19.066-21.395    l-17.188,28.161c-36.736,8.543-71.354,21.808-101.102,38.55l-31.564-7.564l1.799,26.683c-50.521,37.13-78.762,85.73-64.32,136.488    L0,255.177l32.73,11.782c0.381,0.596,0.727,1.19,1.119,1.785c16.305,24.78,36.215,37.982,58.6,43.255l4.754,27.775l16.746-25.059    c35.393,1.018,75.498-13.061,116.643-30.391l14.434,12.025l4.428-20.125c29.078-12.684,58.395-26.087,86.676-36.103l18.246,17.755    l13.293-27.419c0.617-0.156,1.236-0.321,1.855-0.475c117.008-28.52,137.4,42.415,137.4,42.415    C520.565,197.678,506.094,138.179,471.023,96.944z"/>
		<path style="fill:#FFE132;" d="M74.588,216.7c0,4.473-6.047,8.1-13.504,8.1s-13.498-3.627-13.498-8.1    c0-4.473,6.041-8.103,13.498-8.103S74.588,212.227,74.588,216.7z"/>
		<path style="fill:#FFE132;" d="M144.787,271.723c0,9.127-15.715,16.527-35.102,16.527c-19.383,0-35.098-7.4-35.098-16.527    c0-9.125,15.715-16.527,35.098-16.527C129.072,255.196,144.787,262.598,144.787,271.723z"/>
		<path style="fill:#FFE132;" d="M384.75,155.952c0,5.404-6.723,9.786-15.022,9.786c-8.291,0-15.018-4.382-15.018-9.786    c0-5.409,6.727-9.79,15.018-9.79C378.027,146.162,384.75,150.543,384.75,155.952z"/>
		<path style="fill:#FFE132;" d="M342.607,104.988c0,19.571-29.627,35.44-66.17,35.44c-36.551,0-66.174-15.868-66.174-35.44    c0-19.573,29.623-35.438,66.174-35.438C312.98,69.551,342.607,85.415,342.607,104.988z"/>
		<path style="fill:#FFE132;" d="M473.852,123.888c0,13.605-15.867,24.635-35.439,24.635c-19.568,0-35.436-11.029-35.436-24.635    c0-13.608,15.867-24.641,35.436-24.641C457.984,99.248,473.852,110.28,473.852,123.888z"/>
		<path style="fill:#FF8320;" d="M448.197,378.683c-67.488,12.841-56.695-70.186-131.623-68.625    c-74.926,1.556-132.293,75.389-129.598,139.501c1.92,45.785,54.795,45.805,102.561,39.121    c-94.219,29.506-116.879-12.166-110.664-64.758c7.432-62.774,59.396-118.807,132.982-128.264    c73.57-9.438,78.977,84.384,134.32,73.59c55.344-10.815,60.748-87.765,60.748-87.765S515.691,365.864,448.197,378.683z"/>
	</g>
	<g>
		<g>
			<path style="fill:#FFE132;" d="M240.393,254.912l-18.326-23.694l12.496-8.441l-21.467-9.701     c5.814-7.594,8.852-20.028,1.58-40.157c1.193,0.651,39.449,21.589,48.66,48.175C270.344,241.324,256.17,253.027,240.393,254.912z     "/>
			<path style="fill:#000733;" d="M235.801,257.225c-3.949,0-7.916-0.586-11.656-1.813l1.262-3.848     c11.281,3.694,24.801,0.952,32.156-6.524c5.773-5.87,7.109-13.924,3.859-23.29c-7.121-20.539-32.666-37.944-43.17-44.397     c4.139,14.009,3.535,25.563-1.809,34.4c-7.742,12.813-22.496,14.968-23.121,15.053l-0.553-4.013     c0.133-0.017,13.512-2.015,20.23-13.171c5.303-8.799,5.215-20.924-0.258-36.041l-1.799-4.987l4.664,2.518     c1.639,0.881,40.129,21.881,49.645,49.314c3.728,10.759,2.023,20.512-4.803,27.452     C254.553,253.881,245.23,257.225,235.801,257.225z"/>
			
				<rect x="218.852" y="219.116" transform="matrix(0.8445 -0.5356 0.5356 0.8445 -80.6407 162.5677)" style="fill:#000733;" width="41.463" height="2.025"/>
			
				<rect x="227.989" y="195.883" transform="matrix(0.6801 -0.7331 0.7331 0.6801 -80.9284 235.1655)" style="fill:#000733;" width="2.025" height="28.864"/>
			
				<rect x="235.028" y="175.115" transform="matrix(0.8351 -0.5501 0.5501 0.8351 -69.3146 162.3069)" style="fill:#000733;" width="2.025" height="43.284"/>
			
				<rect x="238.049" y="223.011" transform="matrix(0.6944 -0.7196 0.7196 0.6944 -99.6603 245.3589)" style="fill:#000733;" width="2.024" height="34.021"/>
			
				<rect x="249.138" y="216.321" transform="matrix(0.9091 -0.4165 0.4165 0.9091 -74.317 125.3554)" style="fill:#000733;" width="2.024" height="33.375"/>
		</g>
		<g>
			<path style="fill:#FFFFFF;" d="M144.352,191.387c-2.148,19.033-12.094,33.412-24.041,33.412     c-13.504,0-24.461-18.427-24.461-41.168c0-6.561,0.912-12.778,2.553-18.285C106.037,179.236,121.447,199.162,144.352,191.387z"/>
			<path style="fill:#000733;" d="M128.432,192.517c-0.062,0.955-0.104,1.926-0.104,2.919c0,9.507,2.82,17.624,6.801,20.922     c4.699-6.025,8.074-14.823,9.223-24.971C138.562,193.352,133.258,193.543,128.432,192.517z"/>
			<path style="fill:#000733;" d="M133.428,200.486c-7.139,0-13.801-1.799-19.926-5.394c-23.127-13.569-28.801-48.231-29.029-49.7     l16.002-2.521c0.045,0.284,4.754,28.621,21.264,38.269c6.768,3.957,14.713,4.163,24.289,0.622l5.615,15.197     C145.283,199.308,139.201,200.486,133.428,200.486z"/>
			<path style="fill:#000733;" d="M114.908,232.522c-5.254,0.003-9.857-1.614-13.744-4.833     c-13.846-11.458-13.439-39.218-13.414-40.395l4.047,0.084c-0.004,0.27-0.387,26.99,11.951,37.197     c4.342,3.588,9.889,4.705,16.488,3.308l0.838,3.96C118.932,232.298,116.875,232.522,114.908,232.522z"/>
		</g>
		<g>
			<path style="fill:#FFFFFF;" d="M197.053,155.833c13.164,21.66,13.049,45.775-0.25,53.857c-13.303,8.082-34.76-2.93-47.916-24.595     c-13.166-21.665-13.055-45.779,0.246-53.861C162.434,123.153,183.891,134.168,197.053,155.833z"/>
			<path style="fill:#000733;" d="M192.598,149.344c-5.109,3.107-7.105,14.059-4.416,26.159     c2.982,13.438,10.609,23.175,17.029,21.75c0.143-0.032,0.27-0.1,0.408-0.14c3.084-11.156,0.258-26.76-8.566-41.28     C195.658,153.536,194.156,151.389,192.598,149.344z"/>
			<path style="fill:#000733;" d="M120.256,144.803c-0.088-1.075-1.973-26.459,15.072-39.221c11.734-8.784,28.613-9.028,50.17-0.729     l-5.822,15.116c-11.004-4.236-25.949-7.927-34.639-1.421c-9.795,7.335-8.648,24.751-8.635,24.925L120.256,144.803z"/>
		</g>
	</g>
</g>















</svg>
