<?xml version="1.0" encoding="UTF-8"?>
<!-- Generator: Adobe Illustrator 26.4.1, SVG Export Plug-In . SVG Version: 6.00 Build 0)  -->
<svg xmlns="http://www.w3.org/2000/svg" xmlns:xlink="http://www.w3.org/1999/xlink" version="1.1" id="Capa_1" x="0px" y="0px" viewBox="0 0 512 512" style="enable-background:new 0 0 512 512;" xml:space="preserve" width="512" height="512">
<g>
	<g>
		<path style="fill:#FF8320;" d="M420.749,336.498c-19.897-10.696-42.616-14.178-59.223-1.944    c-25.795,20.491-9.097,62.493,16.837,80.254c-5.376,7.018-11.461,13.37-15.963,18.622c-26.247,29.749-50.75,60.374-89.245,73.497    c-55.131,20.125-97.13-23.624-131.254-61.246C91.148,389.678,36.025,312.678,22.902,235.68    C-9.476,44.054,254.775-37.323,399.153,16.052C548.325,69.848,488.229,227.085,420.749,336.498z"/>
	</g>
	<g>
		<path style="fill:#FFE132;" d="M418.212,322.574c-18.872-10.142-51.877-8.061-67.635,3.545    c-24.465,19.438-13.978,76.361,10.625,93.213c-5.095,6.656,0,0-4.268,4.982c-24.9,28.221-48.143,57.27-84.663,69.723    c-52.294,19.088-92.139-22.414-124.508-58.105C99.623,382.81,47.326,309.767,34.879,236.724    C4.17,54.944,254.84-22.251,391.795,28.379C533.303,79.413,482.226,218.789,418.212,322.574z"/>
	</g>
	<g>
		<path style="fill:#FFE132;" d="M418.212,322.574c-18.872-10.142-51.877-8.061-67.635,3.545    c-24.465,19.438-13.978,76.361,10.625,93.213c-5.095,6.656,0,0-4.268,4.982c-24.9,28.221-48.143,57.27-84.663,69.723    c-52.294,19.088-92.139-22.414-124.508-58.105C99.623,382.81,47.326,309.767,34.879,236.724    C4.17,54.944,254.84-22.251,391.795,28.379C533.303,79.413,482.226,218.789,418.212,322.574z"/>
	</g>
	<g>
		<path style="fill:#FF5187;" d="M252.833,238.856c-36.377,66.958-108.271,98.201-160.587,69.778    C39.938,280.216,27.014,202.895,63.392,135.94c36.371-66.957,108.271-98.197,160.581-69.779    C276.29,94.578,289.21,171.898,252.833,238.856z"/>
		<path style="opacity:0.2;fill:#FFFFFF;" d="M227.454,225.069c-26.628,49.021-79.263,71.892-117.561,51.084    c-38.297-20.804-47.756-77.41-21.125-126.425c26.626-49.02,79.261-71.889,117.558-51.085    C244.623,119.448,254.085,176.052,227.454,225.069z"/>
		<path style="fill:#FF9ABE;" d="M230.883,167.146c0,35.292-19.564,63.899-43.691,63.899c-24.138,0-43.697-28.608-43.697-63.899    c0-35.289,19.559-63.896,43.697-63.896C211.318,103.249,230.883,131.857,230.883,167.146z"/>
	</g>
	<g>
		<path style="fill:#00D4B1;" d="M292.115,222.724l-7.202-2.152c31.399-105.055-55.325-168.132-56.204-168.758l4.346-6.132    C233.979,46.336,325.085,112.412,292.115,222.724z"/>
		<path style="fill:#00D4B1;" d="M298.875,267.981l-6.538-3.708c52.854-93.212-16.82-192.927-17.529-193.923l6.117-4.366    C281.666,67.018,354.122,170.55,298.875,267.981z"/>
		<path style="fill:#00D4B1;" d="M328.356,244.302l-7.009-2.71c44.292-114.689-59.596-212.288-60.65-213.26l5.098-5.527    C266.885,23.813,374.474,124.899,328.356,244.302z"/>
		<path style="fill:#00D4B1;" d="M350.514,175.036l-7.479-0.744c9.061-91.213-49.087-135.874-49.677-136.314l4.495-6.027    C298.475,32.415,360.012,79.433,350.514,175.036z"/>
		<path style="fill:#00D4B1;" d="M354.052,241.142l-7.036-2.653c40.117-106.363-15.273-186.772-15.836-187.572l6.136-4.34    C337.902,47.408,395.621,130.921,354.052,241.142z"/>
		
			<rect x="291.971" y="137.824" transform="matrix(0.9535 -0.3013 0.3013 0.9535 -28.6764 97.2631)" style="fill:#00D4B1;" width="17.921" height="7.518"/>
		
			<rect x="301.792" y="109.992" transform="matrix(0.988 -0.1546 0.1546 0.988 -13.8385 49.5795)" style="fill:#00D4B1;" width="20.016" height="7.516"/>
		
			<rect x="300.273" y="64.404" transform="matrix(0.8483 -0.5295 0.5295 0.8483 11.1036 175.0804)" style="fill:#00D4B1;" width="21.645" height="7.517"/>
		<rect x="347.28" y="137.824" style="fill:#00D4B1;" width="18.184" height="7.518"/>
	</g>
	<g>
		<path style="fill:#FF5187;" d="M213.395,382.693c-2.502,0-4.979-0.241-7.432-0.722c-24.17-4.744-36.269-31.12-36.771-32.24    l6.857-3.084c0.108,0.239,11.061,23.99,31.401,27.955c13.224,2.58,27.818-3.641,43.392-18.482l5.186,5.443    C241.286,375.611,226.981,382.693,213.395,382.693z"/>
		<path style="fill:#FF5187;" d="M210.471,397.454c-2.507,0-5-0.184-7.477-0.552c-30.969-4.608-47.541-36.254-48.23-37.6    l6.688-3.435c0.151,0.295,15.561,29.599,42.694,33.605c18.638,2.751,38.735-6.847,59.747-28.528l5.397,5.23    C249.15,386.962,229.398,397.454,210.471,397.454z"/>
		<path style="fill:#FF5187;" d="M212.897,413.154c-3.358,0-6.701-0.226-10.027-0.679c-40.249-5.479-63.187-41.967-64.144-43.517    l6.396-3.951c0.219,0.35,22.115,35.064,58.822,40.027c24.87,3.361,50.987-7.457,77.635-32.152l5.111,5.514    C261.762,401.496,236.986,413.154,212.897,413.154z"/>
		<path style="fill:#FF5187;" d="M260.724,451.589c-53.576-48.485-110.243-20.161-110.811-19.87l-3.443-6.683    c0.611-0.317,61.905-30.959,119.297,20.979L260.724,451.589z"/>
		<path style="fill:#FF5187;" d="M243.942,464.131c-10.282-17.216-22.98-27.43-37.74-30.357    c-23.879-4.729-45.626,11.233-45.842,11.395l-4.506-6.017c0.987-0.741,24.544-18.127,51.74-12.765    c16.966,3.34,31.366,14.742,42.802,33.891L243.942,464.131z"/>
	</g>
	<polygon style="fill:#FF8320;" points="309.475,378.929 266.593,298.701 277.866,286.173 316.042,373.249  "/>
	<polygon style="fill:#FF8320;" points="321.688,348.192 299.719,279.283 316.042,276.508 327.98,348.192  "/>
	<g>
		<path style="fill:#FF5187;" d="M406.762,271.919c-23.794,17.864-46.788,27.406-51.358,21.319    c-4.57-6.09,11.017-25.503,34.815-43.362c23.797-17.863,46.791-27.407,51.363-21.317    C446.149,234.643,430.565,254.058,406.762,271.919z"/>
		<polygon style="fill:#FFE132;" points="362.437,287.739 373.084,279.909 367.765,276.508 374.653,272.076 377.784,278.343     385.616,272.076 381.229,264.249 385.616,262.054 389.06,268.632 398.49,260.898 393.758,256.002 401.587,252.658     403.155,258.295 410.046,252.658 405.973,245.454 411.301,242.948 413.182,249.838 418.818,244.825 413.805,239.816     418.818,236.369 421.949,242.948 426.96,236.369 430.408,238.561 423.199,245.765 426.646,248.898 423.199,252.032     420.381,248.586 415.373,252.972 418.818,256.002 412.553,260.898 411.301,256.002 405.034,260.898 406.603,264.56     401.587,269.884 400.023,266.127 391.879,271.765 393.758,276.508 387.808,280.222 386.553,276.508 379.974,280.848     381.856,283.353 375.277,287.739 373.715,284.292 365.464,290.244   "/>
	</g>
	<g>
		<path style="fill:#FF5187;" d="M446.38,147.102c0,29.753-6.172,53.874-13.781,53.874c-7.609,0-13.78-24.12-13.78-53.874    c0-29.756,6.171-53.875,13.78-53.875C440.208,93.227,446.38,117.346,446.38,147.102z"/>
		<polygon style="fill:#FFE132;" points="432.75,105.153 432.88,118.372 438.748,116.037 438.323,124.216 431.409,123.099     431.917,133.114 440.836,134.13 440.055,138.969 432.701,137.927 433.47,150.094 440.208,149.116 438.348,157.423     432.852,155.404 433.404,164.286 441.631,165.193 440.555,170.979 433.864,168.476 434.637,175.982 441.636,174.841     441.501,180.924 434.335,179.621 436.747,187.531 432.956,189.049 431.317,178.991 426.758,179.96 426.227,175.33     430.673,175.057 430.041,168.427 425.567,169.452 425.254,161.51 429.962,163.352 429.645,155.408 425.76,154.539     424.364,147.362 428.326,148.286 428.515,138.381 423.566,137.135 424.026,130.137 427.774,131.289 428.094,123.414     424.962,123.477 425.246,115.575 428.956,116.319 428.942,106.148   "/>
	</g>
</g>















</svg>
