<?xml version="1.0" encoding="UTF-8"?>
<!-- Generator: Adobe Illustrator 26.3.1, SVG Export Plug-In . SVG Version: 6.00 Build 0)  -->
<svg xmlns="http://www.w3.org/2000/svg" xmlns:xlink="http://www.w3.org/1999/xlink" version="1.1" id="Capa_1" x="0px" y="0px" viewBox="0 0 510.871 510.871" style="enable-background:new 0 0 510.871 510.871;" xml:space="preserve" width="512" height="512">
<g>
	<g>
		<g>
			<path style="fill:#00A3F7;" d="M150.568,57.695c-21.654,4.656-24.016,7.573-25.767,31.813c-4.465-23.89-7.14-26.523-29.18-28.714     c21.654-4.655,24.016-7.573,25.766-31.813C125.853,52.871,128.529,55.504,150.568,57.695z"/>
			<path d="M125.021,93.405L124.31,89.6c-4.439-23.751-6.856-26.133-28.738-28.309l-3.175-0.315l3.12-0.671     c21.499-4.621,23.632-7.259,25.373-31.359l0.279-3.861l0.711,3.806c4.439,23.751,6.856,26.133,28.738,28.309l3.175,0.315     l-3.12,0.671c-21.499,4.621-23.632,7.26-25.373,31.359L125.021,93.405z M98.726,60.619c18.467,2.084,21.911,5.378,25.865,25.154     c1.705-20.096,4.756-23.756,22.872-27.903c-18.467-2.084-21.911-5.378-25.865-25.154     C119.894,52.812,116.842,56.472,98.726,60.619z"/>
		</g>
		<g>
			<path style="fill:#00A3F7;" d="M476.972,155.409c-19.341-2.2-22.128-0.434-30.389,19.264c2.986-21.15,1.497-24.094-16.244-32.104     c19.341,2.2,22.127,0.434,30.389-19.264C457.742,144.454,459.231,147.398,476.972,155.409z"/>
			<path d="M445.547,178.437l0.541-3.834c2.963-20.986,1.621-23.643-15.954-31.578l-2.909-1.313l3.171,0.36     c19.16,2.183,21.674,0.586,29.871-18.961l1.498-3.57l-0.542,3.834c-2.963,20.986-1.621,23.643,15.955,31.579l2.908,1.313     l-3.17-0.36c-19.158-2.182-21.673-0.585-29.872,18.96L445.547,178.437z M433.32,143.39c14.423,6.783,16.411,10.568,14.249,27.701     c6.914-15.824,10.562-18.054,26.422-16.503c-14.423-6.784-16.411-10.568-14.25-27.702     C452.829,142.71,449.181,144.943,433.32,143.39z"/>
		</g>
		<g>
			<path style="fill:#00A3F7;" d="M355.357,48.414c-15.911,0.165-17.993,1.878-22.709,18.689     c0.291-17.457-1.214-19.695-16.412-24.405c15.911-0.165,17.993-1.879,22.709-18.689     C338.654,41.466,340.159,43.704,355.357,48.414z"/>
			<path d="M332.083,70.966l0.064-3.871c0.287-17.26-1.063-19.271-16.061-23.919l-3.048-0.944l3.19-0.033     c15.7-0.163,17.57-1.704,22.233-18.324l1.046-3.728l-0.064,3.871c-0.287,17.26,1.063,19.271,16.061,23.919l3.048,0.944     l-3.19,0.033c-15.7,0.163-17.57,1.704-22.233,18.324L332.083,70.966z M319.261,43.141c11.815,3.922,13.884,6.884,13.917,20.334     c3.88-12.878,6.709-15.124,19.153-15.503c-11.816-3.923-13.884-6.882-13.917-20.334     C334.533,40.519,331.706,42.762,319.261,43.141z"/>
		</g>
		<g>
			<path style="fill:#00A3F7;" d="M63.496,206.388c-14.633,3.146-16.23,5.118-17.413,21.499     c-3.017-16.144-4.825-17.924-19.719-19.404c14.633-3.146,16.229-5.118,17.412-21.499     C46.794,203.128,48.602,204.907,63.496,206.388z"/>
			<path d="M46.303,231.784l-0.711-3.806c-2.979-15.941-4.601-17.54-19.277-18.999l-3.176-0.315l3.12-0.671     c14.419-3.099,15.851-4.869,17.019-21.046l0.279-3.861l0.711,3.806c2.979,15.941,4.601,17.54,19.277,18.999l3.175,0.315     l-3.12,0.671c-14.419,3.1-15.851,4.87-17.019,21.046L46.303,231.784z M29.389,208.312c11.335,1.397,13.953,3.886,16.49,15.951     c1.165-12.275,3.484-15.041,14.593-17.704c-11.337-1.397-13.954-3.885-16.491-15.951     C42.816,202.883,40.495,205.649,29.389,208.312z"/>
		</g>
	</g>
	<g>
		<g>
			<g>
				<g>
					<path d="M425.44,466.27c-10.558-28.039-21.069-57.336-39.783-81.151c-21.306-27.112-54.011-43.095-85.777-54.715       c-5.068-1.854-10.803-0.791-13.436,4.422c-2.214,4.382-0.677,11.57,4.422,13.435c28.619,10.469,60.036,24.344,79.075,49.154       c17.152,22.351,26.752,49.253,36.577,75.347C411.04,484.772,429.994,478.363,425.44,466.27z"/>
				</g>
				<g>
					<path d="M214.564,340.737c-0.979,26.66-0.847,52.672-8.43,77.955c-3.54,11.804-8.683,22.656-17.756,30.873       c-3.566,3.23-9.277,6.572-14.106,8.13c-7.563,2.441-14.906,2.455-22.045-1.245c-9.138-4.736-17.165-11.72-25.311-17.935       c-9.737-7.428-19.212-15.191-27.638-24.105c-8.86-9.373-22.984,4.787-14.142,14.142c8.377,8.862,17.796,16.536,27.436,23.971       c8.435,6.506,16.773,13.557,25.882,19.111c17.201,10.49,37.39,9.781,54.484-0.692c27.753-17.004,35.688-51.731,39.007-81.82       c1.774-16.076,2.026-32.24,2.619-48.387C235.037,327.865,215.036,327.885,214.564,340.737z"/>
				</g>
				<g>
					<g>
						<g>
							<path style="fill:#B489F9;" d="M104.466,414.96c0,0,25.615-5.488,1.084,26.987c-26.302,34.819-23.356,1.93-23.356,1.93         l-6.977,2.805c0,0-0.41,59.868-40.1,50.677c-39.69-9.191-13.032-52.765,5.899-77.408         C59.945,395.308,75.206,364.82,104.466,414.96z"/>
							<path d="M43.005,498.815c-2.542,0-5.21-0.322-8.001-0.969c-10.392-2.406-16.997-7.356-19.633-14.713         c-6.185-17.258,10.316-44.05,25.248-63.487c1.852-2.411,3.691-4.909,5.471-7.324c9.638-13.087,18.743-25.418,29.994-24.847         c8.923,0.476,18.292,9.285,28.635,26.927c1.658-0.291,8.435-1.211,11.003,2.82c2.773,4.35-0.515,12.77-9.773,25.026         c-9.315,12.33-15.895,17.535-20.111,15.906c-4.465-1.723-4.345-10.731-4.197-13.518l-5.931,2.385         c-0.089,3.558-1.315,34.095-17.015,46.486C54.219,497.042,48.963,498.815,43.005,498.815z M75.303,388.455         c-10.396,0-19.15,11.889-28.409,24.46c-1.782,2.42-3.625,4.922-5.483,7.341c-14.78,19.24-31.132,45.708-25.1,62.541         c2.514,7.015,8.878,11.751,18.917,14.075c9.023,2.091,16.71,0.694,22.846-4.148c16.227-12.808,16.639-45.715,16.641-46.046         l0.002-0.335l8.046-3.234l-0.073,0.813c-0.01,0.115-0.979,11.571,3.506,13.301c2.539,0.973,7.887-0.928,18.953-15.577         c11.186-14.808,11.464-21.162,9.728-23.886c-2.505-3.933-10.231-2.328-10.308-2.311l-0.354,0.075l-0.182-0.312         c-10.231-17.532-19.392-26.278-28.004-26.737C75.788,388.461,75.544,388.455,75.303,388.455z"/>
						</g>
						<g>
							<path d="M91.811,427.486l-0.835-0.551c6.028-9.134,12.993-12.302,13.286-12.433l0.407,0.914         C104.6,415.447,97.668,418.613,91.811,427.486z"/>
						</g>
						<g>
							<path style="fill:#FFFFFF;" d="M84.994,436.944c0,0-1.684,1.742-2.801,6.933"/>
							<path d="M82.683,443.982l-0.978-0.211c1.134-5.27,2.857-7.1,2.93-7.175l0.719,0.695l-0.359-0.348l0.361,0.346         C85.34,437.307,83.746,439.038,82.683,443.982z"/>
						</g>
						<g>
							<rect x="73.98" y="427.298" transform="matrix(0.9971 -0.0759 0.0759 0.9971 -32.9497 6.9126)" width="1" height="19.411"/>
						</g>
						<g>
							
								<rect x="68.832" y="433.144" transform="matrix(0.6821 -0.7312 0.7312 0.6821 -300.5717 190.9345)" width="1" height="16.096"/>
						</g>
						<g>
							<path style="fill:#FFFFFF;" d="M56.911,485.664c-8.324,6.911-21.037,7.043-29.123-0.351c-1.848-1.542-3.401-3.406-4.77-5.373         c0,0,0.076-0.064,0.076-0.064C32.127,490.84,44.955,492.926,56.911,485.664L56.911,485.664z"/>
						</g>
					</g>
				</g>
				<g>
					<g>
						<g>
							<path style="fill:#B489F9;" d="M396.178,473.139c0,0-25.943-4.527,9.148-25.563c37.625-22.554,22.498,6.993,22.498,6.993         l7.559,0.013c0,0,22.92-55.649,56.456-32.141c33.535,23.508-7.717,54.089-34.64,69.932         C430.278,508.217,404.575,530.89,396.178,473.139z"/>
							<path d="M418.997,510.871c-2.347,0-4.589-0.44-6.709-1.432c-8.138-3.803-13.554-15.539-16.553-35.879         c-1.651-0.349-8.318-2.043-9.195-6.769c-0.947-5.098,5.288-11.707,18.53-19.645c13.324-7.987,21.413-10.36,24.731-7.257         c3.514,3.287,0.006,11.644-1.179,14.18l6.432,0.011c1.418-3.273,14.057-31.283,33.358-36.925         c7.849-2.294,15.827-0.653,23.714,4.876c8.779,6.154,13.073,13.254,12.761,21.102c-0.732,18.414-26.199,37.175-47.434,49.67         c-2.634,1.551-5.29,3.187-7.857,4.769C438.561,504.371,428.011,510.87,418.997,510.871z M425.858,439.594         c-3.417,0-9.5,1.953-20.274,8.411c-16.001,9.592-18.654,15.411-18.061,18.604c0.856,4.609,8.663,6.023,8.742,6.037         l0.357,0.062l0.052,0.358c2.937,20.195,8.183,31.797,16.039,35.468c9.775,4.566,22.688-3.389,36.36-11.813         c2.572-1.585,5.232-3.223,7.875-4.778c21.02-12.37,46.227-30.886,46.941-48.849c0.298-7.485-3.853-14.297-12.335-20.243         c-7.625-5.345-15.315-6.938-22.858-4.735c-19.942,5.827-32.722,36.35-32.848,36.657l-0.128,0.311l-8.711-0.015l0.372-0.727         c0.053-0.104,5.27-10.419,1.738-13.721C428.478,440.024,427.462,439.594,425.858,439.594z"/>
						</g>
						<g>
							<path d="M396.195,473.639l-0.035-1c0.076-0.002,7.73-0.343,16.53-6.41l0.567,0.824         C404.201,473.296,396.518,473.627,396.195,473.639z"/>
						</g>
						<g>
							<path style="fill:#FFFFFF;" d="M422.604,459.977c0,0,2.225-0.99,5.221-5.408"/>
							<path d="M422.807,460.435l-0.409-0.913c0.021-0.01,2.159-1.023,5.012-5.232l0.828,0.561         C425.198,459.335,422.903,460.392,422.807,460.435z"/>
						</g>
						<g>
							
								<rect x="422.67" y="463.38" transform="matrix(0.3027 -0.9531 0.9531 0.3027 -140.5919 735.5912)" width="19.513" height="1"/>
						</g>
						<g>
							
								<rect x="438.303" y="453.824" transform="matrix(0.9063 -0.4226 0.4226 0.9063 -154.0879 228.6899)" width="1" height="16.181"/>
						</g>
						<g>
							<path style="fill:#FFFFFF;" d="M467.122,425.137c10.361-3.302,22.255,1.359,27.011,11.292         c1.142,2.133,1.889,4.454,2.426,6.803c0,0-0.095,0.031-0.095,0.031C492.173,429.644,480.999,422.867,467.122,425.137         L467.122,425.137z"/>
						</g>
					</g>
				</g>
			</g>
			<g>
				<g>
					<g>
						<path d="M348.523,257.943c0.824,9.489,1.401,19.027,0.876,28.01c1.576,0.963,3.231,1.87,4.905,2.727        c22.376,11.459,44.23,9.21,66.96,6.378c7.968-1.025,16.039-2.097,24.278-2.706c13.683-0.987,9.441-21.937-4.098-20.953        c-1.608,0.108-3.211,0.276-4.838,0.434c-5.663,0.58-11.32,1.447-16.983,2.255c-17.629,2.611-35.142,4.838-52.321-2.701        C359.744,268.06,353.55,263.452,348.523,257.943z"/>
					</g>
					<g>
						<g>
							<path style="fill:#FFFFFF;" d="M471.771,250.942c0,0,20.872-9.993,30.789-0.387c8.319,8.058-2.145,15.705-2.145,15.705         c17.326,8.965,1.459,22.5,1.459,22.5c0.076,0.074,0.15,0.148,0.224,0.222c5.092,5.13,5.008,13.655-0.297,18.565         c-12.673,11.728-31.698,2.502-31.698,2.502c-18.435,17.527-29.888-2.143-29.888-2.143         c-13.226,7.656-20.753-5.451-20.637-31.87c0.115-26.42,18.642-13.349,18.642-13.349         C445.654,232.511,472.908,243.709,471.771,250.942z"/>
							<path d="M455.188,317.821c-0.698,0-1.392-0.049-2.083-0.147c-7.394-1.055-11.949-7.378-13.062-9.097         c-4.308,2.375-8.113,2.638-11.321,0.78c-6.298-3.649-9.723-15.484-9.645-33.323c0.038-8.694,2.07-14.142,6.041-16.188         c4.815-2.481,10.872,0.838,12.789,2.038c4.418-16.87,15.419-21.004,24.321-19.213c5.452,1.099,9.761,4.388,10.061,7.484         c3.87-1.71,21.51-8.782,30.619,0.04c2.405,2.329,3.531,4.862,3.346,7.528c-0.283,4.088-3.549,7.274-4.935,8.452         c4.643,2.561,7.209,5.722,7.632,9.403c0.708,6.16-4.783,11.744-6.352,13.201c2.46,2.56,3.823,6.071,3.747,9.671         c-0.077,3.664-1.571,7.024-4.206,9.464c-11.875,10.988-29.374,3.863-31.939,2.729         C465.107,315.414,460.067,317.821,455.188,317.821z M440.395,307.224l0.251,0.431c0.046,0.079,4.699,7.906,12.606,9.03         c5.281,0.751,10.833-1.604,16.505-6.997l0.251-0.238l0.312,0.15c0.186,0.091,18.869,8.935,31.14-2.419         c2.434-2.253,3.814-5.36,3.886-8.75c0.072-3.401-1.242-6.717-3.604-9.096l-0.609-0.601l0.416-0.354         c0.072-0.062,7.156-6.196,6.408-12.689c-0.404-3.504-3.019-6.527-7.772-8.986l-0.716-0.371l0.651-0.477         c0.048-0.035,4.819-3.582,5.136-8.206c0.162-2.357-0.862-4.623-3.044-6.736c-9.552-9.252-30.02,0.381-30.226,0.479         l-0.857,0.41l0.147-0.939c0.386-2.452-3.316-6.018-9.246-7.212c-8.569-1.723-19.198,2.399-23.327,19.154l-0.175,0.711         l-0.599-0.422c-0.071-0.049-7.218-5.007-12.357-2.358c-3.611,1.863-5.46,7.012-5.497,15.302         c-0.077,17.466,3.172,28.991,9.146,32.454c2.977,1.726,6.591,1.383,10.74-1.019L440.395,307.224z"/>
						</g>
						<g>
							<g>
								<path d="M439.603,308.824c-2.391-3.443-3.952-8.58-4.641-15.269l0.995-0.102c0.671,6.518,2.174,11.497,4.467,14.8          L439.603,308.824z"/>
							</g>
							<g>
								<path d="M436.58,281.098c-1.452-8.049-0.093-13.019,1.479-18.772l0.965,0.264c-1.541,5.637-2.872,10.506-1.46,18.331          L436.58,281.098z"/>
							</g>
						</g>
					</g>
				</g>
				<g>
					<g>
						<g>
							<path style="fill:#FFFFFF;" d="M486.764,305.855c0,0-25.093-3.796-19.577-17.25c4.543-11.081,34.604,0.09,34.604,0.09"/>
							<path d="M486.689,306.349c-0.629-0.095-15.451-2.415-19.684-9.882c-1.379-2.433-1.474-5.142-0.281-8.052         c4.671-11.398,33.995-0.652,35.241-0.189l-0.349,0.938c-0.296-0.11-29.658-10.875-33.967-0.369         c-1.071,2.611-0.995,5.027,0.226,7.18c3.996,7.048,18.814,9.364,18.963,9.387L486.689,306.349z"/>
						</g>
						<g>
							<path style="fill:#FFFFFF;" d="M494.91,246.762c0,0-33.56-4.619-19.963,20.509c0,0,13.86-2.024,25.386-1.077         c0,0-53.948-5.24-33.145,22.41c0,0,7.725-8.223,27.946-1.958"/>
							<path d="M467.144,289.376l-0.356-0.471c-4.736-6.295-6.025-11.469-3.831-15.379c1.9-3.388,6.193-5.43,11.222-6.635         c-3.418-6.568-3.891-11.718-1.402-15.311c5.232-7.555,21.51-5.409,22.201-5.314l-0.136,0.99         c-0.165-0.021-16.361-2.157-21.244,4.895c-2.289,3.306-1.754,8.187,1.59,14.512c10.783-2.308,24.344-1.047,25.192-0.967         l-0.089,0.996c-11.333-0.929-25.134,1.055-25.272,1.074l-0.339,0.049c-4.909,1.126-9.075,3.033-10.851,6.2         c-1.932,3.443-0.778,8.1,3.428,13.843c1.905-1.629,10.119-7.237,28.025-1.689l-0.296,0.955         c-19.634-6.082-27.359,1.744-27.435,1.824L467.144,289.376z"/>
						</g>
					</g>
					<g>
						<path style="fill:#FFFFFF;" d="M453.092,263.981c5.475,4.003,14.938,9.992,21.325,12.405        c7.484,2.827,19.585,3.813,17.186-7.654c-1.284-6.142-5.89-10.831-9.667-15.517c-4.843-6.008-9.762-12.446-17.607-14.513        c-8.837-2.329-16.479,3.503-20.892,10.709c-1.582,2.582-3.423,6.84-4.298,9.738"/>
						<path d="M483.674,278.739c-3.155,0-6.621-0.822-9.434-1.885c-6.238-2.356-15.489-8.116-21.443-12.47l0.59-0.807        c4.926,3.601,14.638,9.859,21.207,12.341c5.223,1.973,11.884,2.774,14.986,0.118c1.711-1.465,2.228-3.888,1.534-7.202        c-1.061-5.073-4.472-9.167-7.771-13.127c-0.608-0.729-1.212-1.454-1.795-2.179l-0.584-0.726        c-4.617-5.739-9.391-11.675-16.761-13.617c-8.837-2.327-16.299,3.891-20.339,10.486c-1.482,2.42-3.347,6.646-4.246,9.621        l-0.957-0.289c0.935-3.096,2.806-7.332,4.351-9.854c4.228-6.904,12.078-13.399,21.446-10.932        c7.689,2.026,12.567,8.092,17.286,13.957l0.583,0.726c0.581,0.72,1.181,1.44,1.786,2.166c3.377,4.054,6.87,8.245,7.981,13.562        c0.774,3.699,0.147,6.447-1.862,8.167C488.596,278.196,486.237,278.739,483.674,278.739z"/>
					</g>
				</g>
			</g>
		</g>
		<g>
			<polygon style="fill:#FF63C3;" points="494.068,212.451 349.078,272.904 407.062,362.308 301.495,336.148 283.582,492.211      223.129,347.221 126.602,405.391 159.885,299.638 3.822,281.724 148.812,221.271 92.86,126.08 196.395,158.028 214.308,1.965      274.761,146.955 358.567,88.375 338.005,194.538    "/>
			<path d="M283.859,494.176l-60.969-146.228l-97.162,58.553l33.498-106.436L1.857,282.002L148.09,221.03l-56.314-95.809     l104.191,32.151L214.031,0l60.953,146.189l84.309-58.932l-20.694,106.845l157.435,18.071l-146.209,60.961l58.347,89.963     L301.927,336.77L283.859,494.176z M223.367,346.493l59.937,143.752l17.76-154.72l104.891,25.992l-57.622-88.844l0.553-0.231     l143.217-59.714l-154.691-17.755l0.103-0.53l20.328-104.951l-83.303,58.229l-0.239-0.573L214.586,3.93l-17.763,154.754     L93.944,126.937l55.59,94.576L5.788,281.447l154.756,17.763l-0.182,0.578L127.476,404.28L223.367,346.493z"/>
		</g>
		<g>
			<g>
				<g>
					
						<rect x="276.98" y="261.086" transform="matrix(0.9974 -0.0724 0.0724 0.9974 -18.4425 25.4927)" style="fill:#FFFFFF;" width="131.206" height="12.339"/>
					<path d="M277.136,278.691l-0.965-13.305l131.859-9.567l0.965,13.305L277.136,278.691z M277.24,266.312l0.821,11.309       l129.865-9.423l-0.821-11.309L277.24,266.312z"/>
				</g>
				<g>
					<g>
						<path style="fill:#FF63C3;" d="M258.407,224.027l4.431,21.314c0,0,29.598-10.895,33.135,6.449        c2.977,14.594-19.376,19.562-19.376,19.562s23.672-7.746,27.555,10.936c2.946,14.172-31.516,17.566-31.516,17.566"/>
						<path d="M272.685,300.353l-0.098-0.996c0.233-0.022,23.43-2.402,29.707-10.943c1.355-1.844,1.815-3.87,1.368-6.023        c-0.941-4.527-3.167-7.836-6.614-9.834c-6.204-3.595-14.863-2.093-18.538-1.207c-1.087,0.326-1.767,0.482-1.805,0.491        l-0.264-0.964c0.119-0.038,0.86-0.276,2.035-0.56c5.323-1.625,19.33-7.035,17.006-18.427c-0.685-3.356-2.45-5.85-5.247-7.408        c-9.285-5.175-27.047,1.265-27.225,1.328l-0.544,0.201l-4.549-21.883l0.979-0.203l4.314,20.754        c3.155-1.087,18.655-6.007,27.512-1.071c3.063,1.708,4.994,4.427,5.74,8.083c1.91,9.365-6.293,14.896-12.709,17.728        c4.206-0.421,9.489-0.222,13.793,2.271c3.707,2.146,6.094,5.678,7.096,10.498c0.507,2.442-0.011,4.736-1.542,6.818        C296.559,297.905,273.657,300.256,272.685,300.353z"/>
					</g>
					<g>
						<path style="fill:#FFCA42;" d="M276.337,217.456c2.053,6.4-3.748,13.983-12.958,16.937c-9.21,2.955-18.34,0.162-20.393-6.237        c-2.053-6.4,3.748-13.983,12.958-16.938C265.153,208.263,274.284,211.056,276.337,217.456z"/>
						<path d="M256.052,236.075c-1.996,0-3.922-0.271-5.7-0.814c-4.013-1.228-6.798-3.696-7.843-6.953        c-2.134-6.651,3.824-14.531,13.281-17.566c4.552-1.459,9.233-1.598,13.18-0.391c4.013,1.228,6.798,3.697,7.842,6.953        c1.044,3.255,0.215,6.884-2.334,10.217c-2.509,3.279-6.396,5.889-10.947,7.349        C261.03,235.671,258.489,236.075,256.052,236.075z M263.268,210.535c-2.332,0-4.769,0.388-7.172,1.159        c-8.933,2.865-14.601,10.182-12.635,16.309c0.941,2.935,3.493,5.173,7.183,6.301c3.755,1.148,8.223,1.011,12.581-0.388        c4.358-1.397,8.072-3.885,10.458-7.004c2.345-3.064,3.118-6.369,2.176-9.304l0,0c-0.941-2.935-3.492-5.173-7.183-6.302        C266.993,210.792,265.165,210.535,263.268,210.535z"/>
					</g>
				</g>
			</g>
			<g>
				<g>
					<g>
						<path style="fill:#FFFFFF;" d="M231.936,188.933c6.712,23.512-5.266,47.942-27.082,57.407c-1.916,0.85-3.938,1.562-5.996,2.15        c-25.57,7.3-52.227-7.517-59.535-33.118c-7.3-25.57,7.516-52.226,33.087-59.526c2.058-0.588,4.152-1.05,6.228-1.34        C202.162,151.029,225.224,165.422,231.936,188.933z"/>
						<path d="M185.574,250.862c-8.165,0-16.24-2.076-23.574-6.155c-11.362-6.319-19.586-16.688-23.157-29.196        c-3.567-12.496-2.054-25.634,4.261-36.995s16.674-19.583,29.169-23.149c2.165-0.618,4.283-1.074,6.296-1.354        c24.017-3.555,47.173,11.401,53.849,34.784l0,0c6.68,23.4-5.084,48.336-27.363,58.004c-1.852,0.822-3.892,1.554-6.058,2.172        C194.567,250.236,190.057,250.862,185.574,250.862z M185.634,154.491c-2.29,0-4.602,0.167-6.923,0.51        c-1.971,0.275-4.043,0.721-6.164,1.326c-12.238,3.494-22.385,11.547-28.57,22.674c-6.185,11.128-7.667,23.996-4.173,36.234        c3.498,12.253,11.553,22.408,22.682,28.598c11.126,6.188,23.997,7.671,36.235,4.178c2.122-0.606,4.117-1.322,5.931-2.127        c21.825-9.47,33.346-33.894,26.803-56.812C225.562,168.428,206.558,154.491,185.634,154.491z"/>
					</g>
					<g>
						<g>
							<path d="M141.403,264.101l-0.899-0.438l0.141-0.289c1.807-3.713,3.001-6.167,7.859-11.243         c3.284-3.432,7.005-6.441,11.06-8.948l0.525,0.852c-3.982,2.461-7.637,5.418-10.862,8.788         c-4.75,4.964-5.917,7.36-7.682,10.989L141.403,264.101z"/>
						</g>
						<g>
							<path d="M166.45,275.048l-0.991-0.135c0.586-4.317,1.608-8.591,3.037-12.701c1.557-4.477,3.61-8.796,6.101-12.838         l0.852,0.525c-2.453,3.979-4.475,8.232-6.008,12.641C168.033,266.588,167.027,270.796,166.45,275.048z"/>
						</g>
						<g>
							<path d="M192.249,276.794c-1.079-3.925-1.79-7.97-2.115-12.021c-0.369-4.619-0.241-9.293,0.383-13.895l0.991,0.135         c-0.614,4.53-0.741,9.133-0.377,13.68c0.319,3.99,1.02,7.972,2.082,11.836L192.249,276.794z"/>
						</g>
					</g>
					<g>
						<path d="M178.638,154.507c-3.079,10.019-3.725,22.655-1.576,36.179l34.709,4.02l-27.353,21.737        c5.314,12.61,12.532,22.995,20.437,29.897c21.815-9.465,33.794-33.896,27.082-57.407        C225.224,165.422,202.162,151.029,178.638,154.507z"/>
						<path d="M204.764,246.925l-0.238-0.207c-8.052-7.03-15.357-17.712-20.569-30.079l-0.147-0.35l26.707-21.224l-33.889-3.926        l-0.06-0.375c-2.11-13.271-1.545-26.2,1.591-36.404l0.093-0.302l0.312-0.046c24.025-3.553,47.178,11.401,53.853,34.783        c6.68,23.4-5.084,48.336-27.363,58.004L204.764,246.925z M185.027,216.6c5.091,11.959,12.148,22.288,19.919,29.155        c21.632-9.559,33.023-33.867,26.51-56.684c-6.509-22.801-29.015-37.424-52.432-34.115c-2.982,9.918-3.523,22.416-1.526,35.277        l35.528,4.115L185.027,216.6z"/>
					</g>
				</g>
				<g>
					<g>
						<path style="fill:#FFFFFF;" d="M358.24,156.573c6.712,23.512-5.267,47.942-27.082,57.407c-1.915,0.851-3.938,1.563-5.996,2.15        c-25.57,7.3-52.226-7.517-59.535-33.118c-7.3-25.57,7.517-52.227,33.087-59.527c2.058-0.587,4.152-1.05,6.228-1.339        C328.465,118.669,351.527,133.061,358.24,156.573z"/>
						<path d="M311.969,218.485c-21.183,0-40.722-13.966-46.823-35.335c-3.567-12.495-2.054-25.634,4.261-36.995        c6.314-11.361,16.674-19.583,29.169-23.149c2.168-0.618,4.287-1.074,6.296-1.354c24.017-3.562,47.173,11.401,53.849,34.783        l0,0c6.68,23.401-5.084,48.337-27.364,58.004c-1.851,0.821-3.89,1.553-6.058,2.172        C320.855,217.88,316.376,218.485,311.969,218.485z M311.937,122.132c-2.29,0-4.602,0.167-6.923,0.51        c-1.968,0.274-4.041,0.72-6.164,1.325c-12.238,3.494-22.384,11.547-28.569,22.675s-7.667,23.996-4.173,36.233        c7.219,25.286,33.646,39.985,58.917,32.775c2.123-0.606,4.118-1.322,5.93-2.127c21.825-9.469,33.345-33.894,26.804-56.812l0,0        C351.866,136.067,332.861,122.132,311.937,122.132z"/>
					</g>
					<g>
						<g>
							<path d="M383.771,193.639l-0.272-0.171c-3.416-2.148-5.672-3.568-12.327-5.277c-4.521-1.161-9.184-1.7-13.865-1.729l-0.003-1         c0.054,0,0.109,0,0.163,0c4.708,0,9.402,0.592,13.954,1.76c6.806,1.748,9.115,3.2,12.611,5.4l0.271,0.171L383.771,193.639z"/>
						</g>
						<g>
							<path d="M368.278,216.16c-2.734-3.307-5.81-6.35-9.144-9.044c-3.631-2.936-7.593-5.48-11.775-7.563l0.445-0.895         c4.248,2.115,8.271,4.699,11.958,7.681c3.385,2.736,6.509,5.826,9.285,9.185L368.278,216.16z"/>
						</g>
						<g>
							<path d="M346.331,231.547c-1.14-3.845-2.647-7.597-4.481-11.15c-2.091-4.054-4.629-7.896-7.542-11.421l0.771-0.637         c2.959,3.579,5.536,7.481,7.66,11.599c1.863,3.61,3.395,7.421,4.552,11.326L346.331,231.547z"/>
						</g>
					</g>
					<g>
						<path d="M304.941,122.147c-3.079,10.018-3.725,22.655-1.576,36.179l34.709,4.021l-27.353,21.737        c5.314,12.61,12.532,22.995,20.437,29.897c21.815-9.465,33.794-33.895,27.082-57.407        C351.527,133.061,328.465,118.669,304.941,122.147z"/>
						<path d="M331.067,214.564l-0.238-0.207c-8.052-7.03-15.357-17.712-20.569-30.079l-0.147-0.35l26.707-21.224l-33.889-3.926        l-0.06-0.375c-2.11-13.273-1.544-26.202,1.592-36.403l0.093-0.302l0.312-0.046c24.02-3.554,47.177,11.4,53.853,34.782        c6.68,23.401-5.084,48.337-27.364,58.004L331.067,214.564z M311.33,184.239c5.092,11.959,12.149,22.288,19.919,29.155        c21.633-9.558,33.024-33.866,26.51-56.684c-6.509-22.801-29.013-37.422-52.432-34.114c-2.982,9.916-3.523,22.414-1.527,35.276        l35.529,4.115L311.33,184.239z"/>
					</g>
				</g>
			</g>
		</g>
		<g>
			<g>
				<path d="M227.089,356.715c-0.95,3.19-3.61,5.73-6.95,7.02c-2.15,0.83-4.3,1.66-6.46,2.5c-16.39,6.31-32.93,12.47-49.95,16.78      c-5.09,1.29-10.23,2.42-15.42,3.33c-5.44,0.96-10.91,1.7-16.4,2.18c-5.31,0.48-10.64,0.7-15.98,0.65      c-8.29-0.08-17.17-0.71-24.49-5.02c-8.06-4.74-13.07-13.78-12.32-23.17c0.78-9.77,6.08-18.18,11.44-26.1      c10.77-15.94,23.93-28.36,40.18-38.6l29.15,3.35l-1.06,3.38c-17.53,9.93-36.16,20.53-48.04,37.06      c-7.77,10.8-14.02,29.06,5.46,29.96c7.28,0.34,14.69-0.42,22.02-1.71c7.47-1.33,14.87-3.21,21.99-5.08      c18.5-4.85,36.37-11.76,54.18-18.64c0.13-0.05,0.25-0.1,0.38-0.15c5.07-1.96,10.98,2.17,12.3,6.98      C227.639,353.315,227.589,355.095,227.089,356.715z"/>
			</g>
			<g>
				<g>
					<g>
						<path style="fill:#FFFFFF;" d="M178.273,348.26c0,0-14.181-6.079-13.987,4.731c0.147,8.235,5.456,24.992,7.976,32.508        c1.163,3.467,4.026,6.151,7.518,6.589c2.26,0.284,7.342-2.394,9.431-5.114c6.085,2.491,14.752,8.152,28.249,6.014        c10.096-1.599,20.357-5.733,28.546-12.126c4.21-3.287,7.759-7.293,9.312-12.634c0.863-2.968,1.198-6.287,0.356-9.311        c-0.419-1.507-1.145-2.899-2.188-4.037c-0.303-0.332-2.506-2.58-2.506-2.58s5.344-15.43-10.186-17.828        c0,0,5.361-27.144-23.531-14.527l-11.864,3.183c0,0,1.447-28.359-14.18-26.044c-16.324,2.418-6.662,37.878-6.662,37.878        C177.712,341.224,178.273,348.26,178.273,348.26l3.445,12.78"/>
						<path d="M211.575,393.961c-8.343,0-14.569-2.882-19.354-5.096c-1.006-0.466-1.963-0.908-2.856-1.285        c-2.275,2.688-7.252,5.299-9.647,5.004c-3.555-0.445-6.668-3.164-7.93-6.925c-2.356-7.026-7.852-24.274-8.002-32.658        c-0.049-2.73,0.784-4.692,2.475-5.829c3.464-2.33,9.467-0.411,11.513,0.354c0.057-2.102,0.776-7.614,6.223-12.727        c-0.755-2.883-6.03-24.176,0.226-33.749c1.65-2.524,3.979-4.025,6.923-4.461c3.293-0.492,6.113,0.307,8.376,2.362        c6.467,5.874,6.488,20.175,6.4,23.519l11.211-3.009c9.288-4.062,16.128-4.449,20.259-1.13        c5.392,4.334,4.34,13.454,3.98,15.729c4.367,0.774,7.486,2.67,9.275,5.64c2.941,4.883,1.337,11.033,0.901,12.465        c0.561,0.573,2.061,2.107,2.307,2.378c1.067,1.164,1.841,2.591,2.3,4.24c0.981,3.527,0.348,7.159-0.357,9.584        c-1.387,4.773-4.49,8.99-9.484,12.89c-7.946,6.202-18.165,10.544-28.775,12.226        C215.439,393.814,213.453,393.961,211.575,393.961z M189.047,386.367l0.354,0.145c1.011,0.414,2.094,0.915,3.241,1.446        c5.744,2.657,13.611,6.298,24.741,4.536c10.445-1.654,20.501-5.926,28.316-12.026c4.823-3.765,7.812-7.814,9.14-12.38        c0.668-2.301,1.272-5.735,0.354-9.037c-0.416-1.496-1.114-2.785-2.075-3.833c-0.302-0.331-2.495-2.568-2.495-2.568        l-0.217-0.221l0.101-0.292c0.023-0.068,2.32-6.885-0.72-11.925c-1.697-2.814-4.749-4.579-9.07-5.246l-0.515-0.079l0.101-0.512        c0.021-0.107,2.047-10.779-3.539-15.267c-3.818-3.066-10.312-2.631-19.301,1.294l-12.599,3.387l0.035-0.687        c0.009-0.171,0.791-17.199-6.05-23.411c-2.031-1.845-4.577-2.552-7.557-2.114c-2.649,0.393-4.746,1.745-6.232,4.02        c-6.331,9.686-0.085,32.998-0.021,33.232l0.08,0.295l-0.225,0.206c-6.567,6.009-6.128,12.823-6.123,12.892l3.429,12.689        l-0.966,0.26l-3.38-12.54c-1.273-0.504-7.711-2.865-11.038-0.628c-1.391,0.936-2.074,2.611-2.032,4.98        c0.147,8.245,5.609,25.375,7.951,32.357c1.14,3.399,3.93,5.854,7.106,6.251c1.96,0.237,6.927-2.258,8.973-4.922        L189.047,386.367z"/>
					</g>
					<g>
						
							<rect x="228.733" y="337.309" transform="matrix(0.8719 -0.4897 0.4897 0.8719 -135.315 158.3773)" width="12.615" height="0.999"/>
					</g>
					<g>
						
							<rect x="239.024" y="354.812" transform="matrix(0.8808 -0.4736 0.4736 0.8808 -139.0061 158.5766)" width="12.715" height="1"/>
					</g>
					<g>
						<rect x="187.543" y="377.454" transform="matrix(0.9704 -0.2417 0.2417 0.9704 -86.8164 56.7787)" width="1" height="9.663"/>
					</g>
				</g>
			</g>
		</g>
	</g>
</g>















</svg>
