<?xml version="1.0" encoding="UTF-8"?>
<!-- Generator: Adobe Illustrator 26.3.1, SVG Export Plug-In . SVG Version: 6.00 Build 0)  -->
<svg xmlns="http://www.w3.org/2000/svg" xmlns:xlink="http://www.w3.org/1999/xlink" version="1.1" id="Capa_1" x="0px" y="0px" viewBox="0 0 515.076 515.076" style="enable-background:new 0 0 515.076 515.076;" xml:space="preserve" width="512" height="512">
<g>
	<g>
		<g>
			<rect x="57.298" y="102.076" transform="matrix(0.5279 -0.8493 0.8493 0.5279 -85.9212 112.0121)" width="1" height="62.438"/>
		</g>
		<g>
			<rect x="187.003" y="2.391" transform="matrix(0.8998 -0.4363 0.4363 0.8998 6.2759 84.6729)" width="1" height="52.562"/>
		</g>
		<g>
			
				<rect x="333.573" y="30.321" transform="matrix(0.4045 -0.9145 0.9145 0.4045 186.3124 347.7725)" width="53.261" height="0.999"/>
		</g>
		<g>
			
				<rect x="440.053" y="155.01" transform="matrix(0.9518 -0.3068 0.3068 0.9518 -25.3629 149.6852)" width="46.683" height="0.999"/>
		</g>
	</g>
	<g>
		<g>
			<g>
				<g>
					<path d="M207.675,282.021c-45.472,53.434-50.657,133.211-34.909,199.109c3.77,15.775,28.327,9.938,24.541-5.905       c-13.391-56.036-11.562-128.746,27.616-174.784C235.343,288.196,218.201,269.651,207.675,282.021z"/>
					<path d="M184.475,490.937c-5.235,0-10.547-2.788-12.196-9.69c-8.383-35.079-10.289-71.186-5.512-104.416       c5.454-37.936,19.089-69.942,40.526-95.134c2.83-3.325,6.451-4.775,10.197-4.09c4.447,0.816,8.596,4.623,10.322,9.473       c1.713,4.811,0.798,9.799-2.51,13.686c-39.82,46.792-40.32,120.741-27.511,174.344c2.029,8.494-3.662,13.943-9.81,15.413       C186.847,490.793,185.663,490.937,184.475,490.937z M207.674,282.021l0.381,0.324       c-40.226,47.269-53.236,121.537-34.804,198.669c1.864,7.801,8.829,9.89,14.499,8.535c5.679-1.357,10.939-6.383,9.069-14.208       c-12.867-53.841-12.342-128.146,27.722-175.225c3.07-3.607,3.92-8.237,2.33-12.702c-1.611-4.523-5.453-8.07-9.562-8.824       c-2.393-0.439-5.938-0.144-9.255,3.755L207.674,282.021z"/>
				</g>
				<g>
					<g>
						<g>
							<path style="fill:#163BDD;" d="M164.149,468.906l35.861-0.927l1.271,45.867l-87.387,0.726l-0.4-10.515         c0,0,5.57-20.023,51.099-14.636L164.149,468.906z"/>
							<path d="M113.413,515.076l-0.422-11.077l0.021-0.075c0.231-0.831,6.162-20.21,51.068-15.065l-0.442-20.439l36.858-0.952         l1.298,46.876l-0.51,0.004L113.413,515.076z M113.997,504.126l0.379,9.942l86.392-0.718l-1.243-44.858l-34.864,0.901         l0.446,20.593l-0.571-0.068C121.365,484.812,114.422,502.868,113.997,504.126z"/>
						</g>
						<g>
							<path style="fill:#FFFFFF;" d="M138.671,489.257c-21.896,3.1-25.177,14.8-25.177,14.8l0.4,10.515l31.3-0.265         C144.295,505.681,142.34,497.287,138.671,489.257z"/>
							<path d="M113.413,515.076l-0.422-11.078l0.021-0.075c0.138-0.491,3.622-12.051,25.589-15.16l0.37-0.053l0.155,0.34         c3.434,7.518,5.581,15.762,6.564,25.206l0.058,0.547L113.413,515.076z M113.997,504.126l0.379,9.942l30.263-0.256         c-0.981-8.964-3.034-16.827-6.267-24.006C118.291,492.77,114.316,503.182,113.997,504.126z"/>
						</g>
						<g>
							<polygon style="fill:#FFFFFF;" points="200.889,502.68 113.494,504.057 113.894,514.573 201.35,513.846        "/>
							<path d="M113.413,515.076l-0.438-11.511l88.395-1.394l0.502,12.17l-0.517,0.004L113.413,515.076z M114.013,504.55         l0.362,9.519l86.454-0.719l-0.42-10.162L114.013,504.55z"/>
						</g>
						<g>
							<g>
								<g>
									<polygon style="fill:#FFFFFF;" points="164.847,477.072 164.822,475.988 180.369,475.602 180.394,476.686          "/>
								</g>
							</g>
							<g>
								<g>
									
										<rect x="165.013" y="483.768" transform="matrix(0.9997 -0.0256 0.0256 0.9997 -12.3585 4.5869)" style="fill:#FFFFFF;" width="15.419" height="1.084"/>
								</g>
							</g>
							<g>
								<path style="fill:#FFFFFF;" d="M182.194,476.053c0,0.521-0.422,0.943-0.942,0.943c-0.52,0-0.942-0.422-0.942-0.943          c0-0.52,0.422-0.942,0.942-0.942C181.772,475.11,182.194,475.532,182.194,476.053z"/>
								<path style="fill:#FFFFFF;" d="M181.251,477.495c-0.795,0-1.442-0.647-1.442-1.442s0.647-1.442,1.442-1.442          s1.442,0.647,1.442,1.442S182.046,477.495,181.251,477.495z M181.251,475.61c-0.244,0-0.442,0.198-0.442,0.442          s0.198,0.442,0.442,0.442s0.442-0.198,0.442-0.442S181.496,475.61,181.251,475.61z"/>
							</g>
							<g>
								<path style="fill:#FFFFFF;" d="M182.25,484.081c0,0.521-0.422,0.942-0.942,0.942c-0.52,0-0.942-0.422-0.942-0.942          s0.422-0.942,0.942-0.942C181.828,483.139,182.25,483.561,182.25,484.081z"/>
								<path style="fill:#FFFFFF;" d="M181.307,485.523c-0.795,0-1.442-0.647-1.442-1.442s0.647-1.442,1.442-1.442          s1.442,0.647,1.442,1.442S182.102,485.523,181.307,485.523z M181.307,483.639c-0.244,0-0.442,0.198-0.442,0.442          s0.198,0.442,0.442,0.442s0.442-0.198,0.442-0.442S181.551,483.639,181.307,483.639z"/>
							</g>
						</g>
					</g>
				</g>
			</g>
			<g>
				<g>
					<path d="M303.77,282.021c45.472,53.434,50.657,133.211,34.909,199.109c-3.77,15.775-28.327,9.938-24.541-5.905       c13.391-56.036,11.562-128.746-27.616-174.784C276.102,288.196,293.244,269.651,303.77,282.021z"/>
					<path d="M326.948,490.933c-3.658,0-7.368-1.38-9.998-3.871c-3.236-3.064-4.407-7.31-3.298-11.953       c12.81-53.603,12.31-127.552-27.511-174.344c-5.737-6.742-3.466-15.623,2.046-20.313c3.988-3.394,10.562-5.103,15.964,1.245       c21.438,25.191,35.072,57.198,40.526,95.134c4.777,33.23,2.871,69.337-5.512,104.416c-1.104,4.621-4.062,7.865-8.326,9.134       C329.585,490.753,328.27,490.933,326.948,490.933z M295.814,278.446c-2.638,0-5.117,1.182-6.979,2.767       c-5.138,4.372-7.265,12.638-1.933,18.903c40.063,47.078,40.589,121.384,27.722,175.225c-1.023,4.281,0.047,8.187,3.013,10.995       c3.329,3.152,8.519,4.391,12.918,3.085c3.907-1.162,6.62-4.147,7.638-8.407c18.433-77.132,5.422-151.4-34.804-198.669       C300.986,279.521,298.328,278.446,295.814,278.446z"/>
				</g>
				<g>
					<g>
						<g>
							<path style="fill:#163BDD;" d="M347.296,468.906l-35.861-0.927l-1.271,45.867l87.387,0.726l0.4-10.515         c0,0-5.57-20.023-51.099-14.636L347.296,468.906z"/>
							<path d="M398.032,515.076l-88.382-0.733l1.298-46.876l36.858,0.952l-0.441,20.439c44.902-5.144,50.836,14.233,51.067,15.065         l0.021,0.075L398.032,515.076z M310.677,513.351l86.392,0.718l0.379-9.942c-0.426-1.258-7.372-19.312-50.537-14.208         l-0.571,0.068l0.445-20.593l-34.864-0.901L310.677,513.351z"/>
						</g>
						<g>
							<path style="fill:#FFFFFF;" d="M372.773,489.257c21.896,3.1,25.177,14.8,25.177,14.8l-0.4,10.515l-31.3-0.265         C367.149,505.681,369.105,497.287,372.773,489.257z"/>
							<path d="M398.032,515.076l-32.336-0.273l0.058-0.547c0.983-9.444,3.131-17.688,6.564-25.206l0.155-0.34l0.37,0.053         c21.967,3.109,25.451,14.669,25.589,15.16l0.021,0.075L398.032,515.076z M366.806,513.812l30.263,0.256l0.379-9.942         c-0.319-0.944-4.294-11.356-24.375-14.319C369.84,496.985,367.788,504.849,366.806,513.812z"/>
						</g>
						<g>
							<polygon style="fill:#FFFFFF;" points="310.555,502.68 397.951,504.057 397.55,514.573 310.094,513.846        "/>
							<path d="M398.032,515.076l-88.458-0.734l0.502-12.17l88.395,1.394L398.032,515.076z M310.615,513.35l86.454,0.719         l0.362-9.519l-86.396-1.362L310.615,513.35z"/>
						</g>
						<g>
							<g>
								<g>
									<polygon style="fill:#FFFFFF;" points="346.597,477.072 346.622,475.988 331.075,475.602 331.05,476.686          "/>
								</g>
							</g>
							<g>
								<g>
									
										<rect x="338.18" y="476.6" transform="matrix(0.0257 -0.9997 0.9997 0.0257 -154.1421 810.4598)" style="fill:#FFFFFF;" width="1.084" height="15.419"/>
								</g>
							</g>
							<g>
								<path style="fill:#FFFFFF;" d="M329.25,476.053c0,0.521,0.422,0.943,0.942,0.943s0.942-0.422,0.942-0.943          c0-0.52-0.422-0.942-0.942-0.942S329.25,475.532,329.25,476.053z"/>
								<path style="fill:#FFFFFF;" d="M330.193,477.495c-0.795,0-1.442-0.647-1.442-1.442s0.647-1.442,1.442-1.442          s1.442,0.647,1.442,1.442S330.988,477.495,330.193,477.495z M330.193,475.61c-0.244,0-0.442,0.198-0.442,0.442          s0.198,0.442,0.442,0.442s0.442-0.198,0.442-0.442S330.437,475.61,330.193,475.61z"/>
							</g>
							<g>
								<circle style="fill:#FFFFFF;" cx="330.137" cy="484.081" r="0.942"/>
								<path style="fill:#FFFFFF;" d="M330.137,485.523c-0.795,0-1.442-0.647-1.442-1.442s0.647-1.442,1.442-1.442          s1.442,0.647,1.442,1.442S330.932,485.523,330.137,485.523z M330.137,483.639c-0.244,0-0.442,0.198-0.442,0.442          s0.198,0.442,0.442,0.442s0.442-0.198,0.442-0.442S330.381,483.639,330.137,483.639z"/>
							</g>
						</g>
					</g>
				</g>
			</g>
		</g>
		<g>
			<polygon style="fill:#FF652D;" points="257.538,1.906 296.822,146.451 435.678,69.802 352.378,197.571 509.466,233.718      352.378,269.865 435.678,397.634 296.822,320.985 257.538,465.53 218.254,320.985 79.398,397.634 162.698,269.865 5.61,233.718      162.698,197.571 79.398,69.802 218.254,146.451    "/>
			<path d="M257.538,467.436l-39.599-145.706L77.883,399.041l84.005-128.849L3.38,233.718l158.508-36.475L77.883,68.395     l140.056,77.312L257.538,0l39.6,145.706l140.056-77.312l-84.006,128.849l158.509,36.475l-158.509,36.475l84.006,128.849     l-140.056-77.312L257.538,467.436z M218.57,320.239l38.968,143.384l38.969-143.384l0.557,0.308l137.101,75.68l-82.596-126.688     l0.697-0.16l154.972-35.66l-155.669-35.82l0.391-0.601l82.205-126.088l-137.657,75.987L257.538,3.812L218.57,147.196     l-0.557-0.308L80.912,71.209l82.596,126.688l-0.697,0.16L7.839,233.718l155.668,35.82l-0.391,0.601L80.912,396.227     L218.57,320.239z"/>
		</g>
		<g>
			<g>
				
					<ellipse transform="matrix(0.9227 -0.3855 0.3855 0.9227 -53.385 114.1513)" style="fill:#FFCA42;" cx="257.989" cy="190.212" rx="11.935" ry="11.935"/>
				<path d="M257.99,202.647c-6.857,0-12.436-5.578-12.436-12.435c0-6.857,5.578-12.436,12.436-12.436      c6.856,0,12.435,5.578,12.435,12.436C270.424,197.069,264.846,202.647,257.99,202.647z M257.99,178.777      c-6.306,0-11.436,5.13-11.436,11.436c0,6.305,5.13,11.435,11.436,11.435c6.305,0,11.435-5.13,11.435-11.435      C269.424,183.907,264.294,178.777,257.99,178.777z"/>
			</g>
			<g>
				<g>
					<path d="M294.959,250.541c-0.045,0.043-0.089,0.064-0.133,0.107c-14.958,10.857-34.617,13.278-52.226,8.316       c-6.275-1.764-13.117-4.697-19.106-8.748c-9.351-6.281-16.594-15.292-16.23-26.858c0.369-10.714,8.594-13.628,18.07-13.546       c8.362,0.081,17.725,2.497,23.482,3.989c4.997,1.258,10.023,2.167,15.182,1.878c8.328-0.422,15.917-4.243,24.122-5.061       c1.619-0.164,3.455-0.236,5.396-0.11c5.585,0.287,11.887,1.79,15.464,5.268C319.622,226.231,303.358,244.421,294.959,250.541z"/>
					<path d="M260.306,261.922c-5.929,0-11.942-0.815-17.842-2.478c-6.862-1.929-13.699-5.06-19.251-8.815       c-7.731-5.192-16.862-14.143-16.449-27.288c0.321-9.312,6.44-14.032,18.188-14.032c0.129,0,0.257,0.001,0.386,0.002       c8.461,0.082,17.939,2.537,23.603,4.004c4.091,1.03,9.506,2.173,15.029,1.863c4.375-0.222,8.635-1.419,12.754-2.576       c3.668-1.03,7.461-2.096,11.347-2.482c1.867-0.19,3.711-0.228,5.478-0.111c3.239,0.167,11.274,1.027,15.78,5.409       c2.677,2.63,3.891,5.904,3.608,9.735c-0.729,9.922-11.205,21.062-17.656,25.773l-0.098,0.075       C285.298,258.179,273.002,261.922,260.306,261.922z M224.938,210.309c-11.253,0-16.871,4.276-17.174,13.065       c-0.398,12.687,8.485,21.373,16.008,26.426c5.468,3.698,12.201,6.781,18.964,8.682c18.244,5.144,37.606,2.061,51.796-8.238       l0.399,0.322l-0.312-0.391l0.045-0.038c6.771-4.934,16.606-15.969,17.275-25.058c0.259-3.524-0.854-6.534-3.311-8.947       c-4.26-4.143-12.007-4.965-15.139-5.126c-1.721-0.111-3.508-0.075-5.319,0.107c-3.8,0.379-7.55,1.433-11.177,2.451       c-4.172,1.173-8.486,2.385-12.971,2.611c-5.671,0.314-11.169-0.845-15.33-1.892c-5.622-1.457-15.026-3.893-23.364-3.974       C225.199,210.31,225.068,210.309,224.938,210.309z"/>
				</g>
				<g>
					<path style="fill:#FF45B7;" d="M294.959,250.541c-0.045,0.043-0.089,0.064-0.133,0.107       c-14.958,10.857-34.617,13.278-52.226,8.316c-6.275-1.764-13.117-4.697-19.106-8.748c7.21-9.943,20.534-16.619,35.753-16.553       C274.531,233.708,287.825,240.483,294.959,250.541z"/>
					<path d="M260.306,261.922c-5.929,0-11.942-0.815-17.842-2.478c-6.862-1.929-13.699-5.06-19.251-8.815l-0.428-0.289l0.304-0.419       c7.504-10.35,21.261-16.759,35.939-16.759c0.074,0,0.146,0,0.22,0c14.832,0.045,28.673,6.593,36.119,17.09l0.249,0.352       l-0.434,0.397C285.298,258.179,273.002,261.922,260.306,261.922z M224.207,250.091c5.386,3.568,11.944,6.54,18.529,8.391       c18.13,5.11,37.365,2.099,51.53-8.047c-7.327-10.007-20.693-16.229-35.021-16.272c-0.071,0-0.145,0-0.216,0       C244.863,234.162,231.592,240.24,224.207,250.091z M294.928,250.563l0.003,0.002L294.928,250.563L294.928,250.563z"/>
				</g>
			</g>
			<g>
				<g>
					<g>
						<g>
							<path style="fill:#FFFFFF;" d="M142.673,150.001c4.19-33.579,29.214-56.036,55.893-50.16         c26.679,5.877,44.91,37.861,40.719,71.44c-4.19,33.579-29.214,56.037-55.893,50.16         C156.714,215.565,138.483,183.58,142.673,150.001z"/>
							<path d="M191.804,222.86c-2.841,0-5.691-0.308-8.52-0.931c-26.881-5.921-45.322-38.216-41.108-71.99l0,0         c2.322-18.607,11.105-34.542,24.1-43.719c9.746-6.884,21.257-9.32,32.396-6.868c26.882,5.921,45.323,38.216,41.108,71.99         c-2.321,18.606-11.104,34.541-24.099,43.718C208.41,220.198,200.156,222.86,191.804,222.86z M143.168,150.062         c-4.151,33.277,13.94,65.078,40.331,70.891c10.869,2.394,22.093,0.011,31.606-6.709         c12.764-9.016,21.396-24.697,23.683-43.024c4.152-33.277-13.94-65.078-40.331-70.891         c-10.868-2.392-22.091-0.011-31.605,6.708C154.088,116.053,145.456,131.734,143.168,150.062L143.168,150.062z"/>
						</g>
						<g>
							
								<ellipse transform="matrix(0.999 -0.0442 0.0442 0.999 -6.5363 8.5037)" cx="189.021" cy="152.053" rx="34.111" ry="40.957"/>
							<path d="M189.572,193.497c-19.01,0.003-34.769-18.459-35.169-41.24l0,0c-0.216-12.322,4.115-23.949,11.883-31.899         c6.097-6.24,13.915-9.702,22.016-9.748c0.055,0,0.113,0,0.168,0c19.011,0,34.771,18.457,35.17,41.24         c0.216,12.322-4.116,23.95-11.884,31.899c-6.097,6.24-13.915,9.702-22.016,9.748         C189.685,193.497,189.626,193.497,189.572,193.497z M188.469,111.609c-0.055,0-0.107,0-0.162,0         c-7.831,0.045-15.397,3.399-21.306,9.447c-7.583,7.76-11.811,19.126-11.599,31.183l0,0         c0.389,22.238,15.702,40.258,34.169,40.258c0.055,0,0.107,0,0.162,0c7.831-0.045,15.397-3.399,21.306-9.446         c7.583-7.761,11.811-19.126,11.6-31.184C222.25,129.629,206.936,111.609,188.469,111.609z"/>
						</g>
					</g>
					<g>
						<path style="fill:#FF652D;" d="M240.013,162.039l-99.582-0.706c0,0,5.722,67.317,57.207,61.997        C239.41,219.013,240.013,162.039,240.013,162.039z"/>
						<path d="M191.985,224.128c-10.628,0-19.946-3.263-27.764-9.734c-21.036-17.416-24.258-52.663-24.288-53.018l-0.047-0.546        l100.632,0.713l-0.005,0.501c-0.006,0.574-1.091,57.47-42.823,61.783C195.749,224.028,193.846,224.128,191.985,224.128z         M140.985,161.838c0.497,4.521,4.592,35.825,23.877,51.787c8.972,7.427,19.987,10.52,32.725,9.208        c38.778-4.008,41.71-54.673,41.912-60.298L140.985,161.838z"/>
					</g>
				</g>
				<g>
					<g>
						<g>
							<path style="fill:#FFFFFF;" d="M276.054,150.001c4.19-33.579,29.214-56.036,55.893-50.16         c26.679,5.877,44.909,37.861,40.719,71.44c-4.19,33.579-29.214,56.037-55.893,50.16         C290.095,215.565,271.864,183.58,276.054,150.001z"/>
							<path d="M325.185,222.86c-2.841,0-5.691-0.308-8.52-0.931c-26.882-5.921-45.322-38.216-41.107-71.99         c2.321-18.606,11.104-34.541,24.098-43.718c9.748-6.885,21.258-9.322,32.398-6.869c26.882,5.921,45.322,38.216,41.107,71.99         c-2.321,18.606-11.104,34.541-24.099,43.718C341.791,220.198,333.537,222.86,325.185,222.86z M323.539,99.423         c-8.149,0-16.203,2.599-23.306,7.615c-12.764,9.015-21.396,24.697-23.683,43.024l0,0         c-4.152,33.276,13.939,65.078,40.33,70.891c10.869,2.394,22.093,0.011,31.606-6.709         c12.764-9.016,21.396-24.697,23.683-43.024c4.152-33.276-13.939-65.078-40.33-70.891         C329.084,99.723,326.305,99.423,323.539,99.423z"/>
						</g>
						<g>
							
								<ellipse transform="matrix(0.999 -0.0442 0.0442 0.999 -6.4059 14.3993)" cx="322.402" cy="152.053" rx="34.111" ry="40.957"/>
							<path d="M322.953,193.497c-19.012,0-34.771-18.457-35.169-41.24c-0.216-12.323,4.116-23.95,11.884-31.9         c6.097-6.239,13.915-9.701,22.015-9.747c0.055,0,0.113,0,0.168,0c19.011,0,34.771,18.457,35.17,41.24         c0.216,12.322-4.116,23.95-11.884,31.899c-6.097,6.24-13.915,9.702-22.016,9.748         C323.066,193.497,323.007,193.497,322.953,193.497z M321.85,111.609c-0.055,0-0.107,0-0.162,0         c-7.831,0.045-15.396,3.399-21.305,9.446c-7.583,7.76-11.811,19.126-11.6,31.184c0.389,22.238,15.702,40.258,34.169,40.258         c0.055,0,0.107,0,0.162,0c7.831-0.045,15.397-3.399,21.306-9.446c7.583-7.761,11.811-19.126,11.6-31.184         C355.63,129.629,340.317,111.609,321.85,111.609z"/>
						</g>
					</g>
					<g>
						<path style="fill:#FF652D;" d="M373.394,162.039l-99.582-0.706c0,0,5.722,67.317,57.207,61.997        C372.791,219.013,373.394,162.039,373.394,162.039z"/>
						<path d="M325.366,224.128c-10.628,0-19.946-3.263-27.764-9.734c-21.036-17.416-24.258-52.663-24.288-53.018l-0.047-0.546        l100.632,0.713l-0.005,0.501c-0.006,0.574-1.091,57.47-42.823,61.783C329.129,224.028,327.227,224.128,325.366,224.128z         M274.366,161.838c0.497,4.521,4.592,35.825,23.877,51.787c8.972,7.427,19.986,10.52,32.725,9.208        c38.778-4.008,41.71-54.673,41.912-60.298L274.366,161.838z"/>
					</g>
				</g>
			</g>
		</g>
		<g>
			<g>
				<g>
					<g>
						<g>
							<path style="fill:#00A3F7;" d="M363.506,341.669c0.096-17.017-13.649-28.574-30.701-25.814         c-17.052,2.76-30.953,18.793-31.049,35.81c-0.096,17.017,13.649,28.575,30.701,25.814         C349.509,374.719,363.41,358.687,363.506,341.669z M330.668,364.15c-10.199,1.651-18.421-5.262-18.364-15.441         c0.057-10.178,8.372-19.768,18.572-21.419c10.199-1.651,18.421,5.262,18.364,15.44         C349.182,352.909,340.867,362.499,330.668,364.15z"/>
							<path d="M327.44,378.391c-6.532,0-12.528-2.117-17.252-6.161c-5.807-4.971-8.979-12.274-8.932-20.567         c0.097-17.224,14.214-33.508,31.469-36.3c8.487-1.38,16.418,0.665,22.349,5.741c5.807,4.971,8.979,12.275,8.933,20.568l0,0         c-0.098,17.223-14.215,33.508-31.47,36.301C330.811,378.252,329.108,378.391,327.44,378.391z M337.819,315.944         c-1.615,0-3.263,0.134-4.934,0.404c-16.795,2.719-30.535,18.562-30.629,35.319c-0.046,7.993,3.002,15.026,8.582,19.803         c5.702,4.882,13.351,6.837,21.538,5.516c16.794-2.72,30.535-18.563,30.63-35.32c0.045-7.994-3.003-15.026-8.583-19.803         C349.885,317.979,344.113,315.944,337.819,315.944z M327.666,364.896c-3.954,0-7.586-1.282-10.448-3.732         c-3.52-3.013-5.441-7.437-5.413-12.457c0.059-10.395,8.579-20.224,18.992-21.909c5.137-0.829,9.938,0.405,13.53,3.479         c3.52,3.013,5.441,7.437,5.413,12.457c-0.059,10.396-8.579,20.224-18.991,21.909l0,0         C329.705,364.812,328.674,364.896,327.666,364.896z M333.875,327.545c-0.955,0-1.93,0.079-2.918,0.238         c-9.953,1.612-18.096,11-18.152,20.929c-0.026,4.722,1.771,8.873,5.063,11.691c3.365,2.881,7.883,4.03,12.721,3.253l0,0         c9.952-1.611,18.095-10.999,18.151-20.929c0.026-4.722-1.771-8.873-5.063-11.691         C340.999,328.744,337.591,327.545,333.875,327.545z"/>
						</g>
						<g>
							<path style="fill:#00A3F7;" d="M324.061,300.068c0,0-3.388,100.283-81.75,94.835         c-74.325-5.168-63.187-105.044-63.187-105.044L324.061,300.068z"/>
							<path d="M248.342,395.616c-1.99,0-4.011-0.071-6.067-0.214c-18.344-1.275-33.083-8.443-43.809-21.303         c-25.497-30.57-19.9-83.763-19.841-84.297l0.054-0.477l0.479,0.033l145.419,10.243l-0.016,0.481         c-0.018,0.521-2.103,52.322-31.988,79.273C280.593,390.16,265.735,395.616,248.342,395.616z M179.573,290.392         c-0.497,5.367-4.277,54.369,19.663,83.07c10.545,12.641,25.049,19.687,43.109,20.942         c19.735,1.378,36.414-3.938,49.555-15.787c28.034-25.278,31.354-72.779,31.639-78.085L179.573,290.392z"/>
						</g>
						<g>
							
								<ellipse transform="matrix(0.0703 -0.9975 0.9975 0.0703 -60.3202 525.208)" style="fill:#00A3F7;" cx="251.592" cy="294.963" rx="21.035" ry="72.648"/>
							<path d="M267.736,317.08c-5.653,0-11.562-0.206-17.657-0.635c-40.916-2.883-72.303-14.576-71.455-26.622l0,0         c0.85-12.045,33.564-19.22,74.481-16.342c40.916,2.883,72.303,14.576,71.455,26.621         C323.837,310.354,300.03,317.08,267.736,317.08z M179.622,289.894c-0.795,11.295,30.844,22.759,70.527,25.554         c39.688,2.8,72.618-4.121,73.413-15.415c0.795-11.295-30.844-22.758-70.527-25.553         C213.354,271.683,180.417,278.599,179.622,289.894L179.622,289.894z"/>
						</g>
						<g>
							<polygon style="fill:#FFFFFF;" points="230.751,353.395 219.23,340.895 236.021,342.727 238.737,326.686 247.435,340.293          261.354,332.457 256.398,347.927 272.978,352.335 256.16,359.879 261.069,376.396 246.901,367.151 237.669,380.401          235.593,364.265 219.743,365.134        "/>
						</g>
					</g>
					<g>
						<g>
							<path d="M182.945,297.322c-2.368-2.188-3.706-4.441-3.828-6.695l-0.001-0.011c11.546-10.024,27.503-12.406,43.842-5.7         c12.748,5.225,21.426,11.975,35.438,7.165c14.342-4.925,25.63-9.457,40.981-3.111c7.892,3.248,17.443,6.027,24.656,11.398         c-1.373,11.421-34.246,18.377-73.915,15.581c-30.134-2.125-55.593-9.263-65.988-17.615"/>
							<path d="M267.589,317.078c-5.614,0-11.472-0.204-17.507-0.629c-29.438-2.077-55.45-9.035-66.267-17.726l0.627-0.779         c10.668,8.571,36.461,15.443,65.71,17.507c38.793,2.732,71.485-3.919,73.342-14.858c-5.384-3.938-11.992-6.438-18.386-8.856         c-2.069-0.782-4.023-1.521-5.923-2.304c-14.39-5.947-25.005-2.279-38.444,2.368l-2.185,0.753         c-11.463,3.935-19.466,0.237-28.735-4.045c-2.249-1.039-4.574-2.113-7.054-3.13c-15.819-6.49-31.524-4.503-43.135,5.451         c0.197,2.017,1.424,4.067,3.65,6.125l-0.678,0.734c-2.521-2.328-3.863-4.695-3.988-7.036l-0.014-0.244l0.184-0.171         c11.925-10.352,28.093-12.461,44.359-5.785c2.5,1.025,4.836,2.104,7.095,3.147c9.07,4.192,16.903,7.815,27.991,4.008         l2.182-0.753c13.101-4.529,24.415-8.44,39.153-2.347c1.885,0.775,3.833,1.513,5.895,2.292         c6.554,2.479,13.329,5.041,18.869,9.166l0.232,0.174l-0.035,0.287C323.32,310.483,299.488,317.077,267.589,317.078z"/>
						</g>
						<g>
							<g>
								<path style="fill:#FFFFFF;" d="M282.796,291.484c5.643-1.093,11.369-0.499,16.745,1.494          c5.359,1.986,10.185,5.193,14.655,8.707c0.798,0.628-0.214,1.84-1.014,1.211c-4.284-3.368-8.878-6.421-13.996-8.369          c-5.208-1.983-10.753-2.534-16.231-1.472C281.956,293.249,281.806,291.676,282.796,291.484z"/>
							</g>
							<g>
								<path style="fill:#FFFFFF;" d="M182.945,297.322c2.483-3.134,5.559-5.756,9.142-7.634c4.609-2.411,9.821-3.518,15.009-3.439          c3.111,0.039,6.189,0.482,9.209,1.264c0.97,0.252,0.728,1.809-0.253,1.557c-9.7-2.52-20.415-1.269-28.229,5.391          c-1.361,1.16-2.595,2.466-3.693,3.873L182.945,297.322z"/>
							</g>
							<g>
								<path style="fill:#FFFFFF;" d="M276.688,291.388c0.753-0.196,1.518-0.349,2.289-0.453c0.41-0.056,0.841,0.29,0.865,0.706          c0.026,0.439-0.268,0.806-0.706,0.865c-0.568,0.077-1.133,0.181-1.692,0.311c-0.068,0.017-0.136,0.033-0.204,0.05          c-0.209,0.054-0.4,0.072-0.604-0.021c-0.176-0.08-0.351-0.255-0.412-0.442c-0.063-0.194-0.075-0.417,0.021-0.604          C276.336,291.625,276.489,291.44,276.688,291.388z"/>
							</g>
							<g>
								<path style="fill:#FFFFFF;" d="M220.775,288.817c0.896,0.118,1.73,0.507,2.411,1.1c0.311,0.271,0.391,0.793,0.099,1.112          c-0.284,0.311-0.779,0.389-1.112,0.099c-0.128-0.112-0.266-0.21-0.406-0.306c-0.231-0.138-0.474-0.251-0.73-0.337          c-0.169-0.044-0.338-0.086-0.512-0.108c-0.409-0.054-0.739-0.495-0.655-0.905          C219.96,289.044,220.337,288.76,220.775,288.817z"/>
							</g>
						</g>
						<g>
							<g>
								<path d="M307.644,304.88c2.622,5.419,4.816,11.189,6.259,17.033c1.091,4.419,2.98,10.975-1.257,14.36          c-2.41,1.926-6.039,1.768-8.196-0.469c-2.525-2.62-2.17-6.885-1.9-10.211c0.547-6.745,2.489-13.466,4.767-19.817          C307.424,305.476,307.531,305.176,307.644,304.88z"/>
								<path d="M308.791,338.116c-1.73,0-3.445-0.664-4.7-1.967c-2.673-2.771-2.322-7.092-2.041-10.562          c0.473-5.838,1.996-12.176,4.797-19.981l0.037-0.103c0.096-0.268,0.192-0.535,0.294-0.802l0.412-1.081l0.505,1.042          c2.798,5.781,4.915,11.545,6.294,17.13l0.159,0.639c1.139,4.561,2.697,10.807-1.589,14.232          C311.74,337.637,310.259,338.116,308.791,338.116z M307.706,306.172c-2.718,7.615-4.198,13.805-4.657,19.46          c-0.268,3.307-0.598,7.377,1.763,9.824c1.965,2.038,5.271,2.229,7.522,0.426c3.786-3.025,2.316-8.911,1.243-13.209          l-0.159-0.641C312.141,316.859,310.221,311.529,307.706,306.172z"/>
							</g>
							<g>
								<path style="fill:#FFFFFF;" d="M304.432,322.738c0.177-0.513,0.665-0.867,1.222-0.725c0.493,0.125,0.903,0.706,0.725,1.222          c-0.545,1.58-0.62,3.203-0.445,4.876c0.162,1.553,0.646,3.211,1.833,4.175c0.421,0.342,0.381,1.052,0.027,1.42          c-0.403,0.418-0.998,0.37-1.42,0.027c-1.572-1.277-2.177-3.395-2.419-5.324          C303.723,326.551,303.818,324.517,304.432,322.738z"/>
							</g>
						</g>
					</g>
				</g>
			</g>
			<g>
				<g>
					<g>
						<path d="M505.213,351.514c-14.28,17.32-41.11,19.75-61.83,20.82c-8.01,0.41-16.01,0.46-24.01,0.3        c-3.71-0.06-7.41-0.18-11.12-0.32c-0.17-0.01-0.34-0.01-0.51-0.02c-4.24-0.17-8.48-0.37-12.72-0.59h-0.01        c-2.32-0.12-4.64-0.23-6.95-0.35c-1.9-0.1-3.81-0.2-5.71-0.29c-12.35-0.63-24.71-1.15-37.09-0.98        c-5.4,0.08-10.46-2.78-11.23-8.59c-0.09-0.71-0.09-1.44-0.01-2.19c0.5-4.37,3.95-8.98,8.59-9.04c1.67-0.02,3.34-0.04,5-0.04        c0.73,0,1.46,0,2.19,0.01c15.26,0.08,30.49,0.96,45.72,1.69c3.55,0.17,7.1,0.33,10.65,0.47c1.39,0.06,2.78,0.11,4.17,0.16        c4.23,0.15,8.47,0.26,12.7,0.31c12.59,0.15,25.25-0.45,37.72-2.29c8.61-1.27,16.13-2.74,23.36-7.05        c2.58-1.54,4.77-3.34,6.23-5.51c-0.54,0.67,0.98-2.93,0.84-1.94c0.3-1.38,0.14-2.08-0.01-2.69        c-2.04-7.66-9.64-13.78-15.74-18.19c-15.85-11.48-35.05-17.91-53.32-24.38c-22.05-7.82-44.2-13.92-67.22-17.07l-2.53-3.88        l39.91-9.18h0.01c11.5,2.92,22.86,6.45,34.1,10.45c20.7,7.36,41.93,14.65,60.08,27.38        C502.613,309.824,521.043,332.324,505.213,351.514z"/>
					</g>
					<g>
						<g>
							<path style="fill:#FFFFFF;" d="M395.377,337.175c0,0,11.224-8.78,13.696,0.544c1.884,7.103,1.227,22.816,0.807,29.899         c-0.193,3.268-2.103,6.29-5.127,7.544c-1.956,0.811-7.167-0.209-9.706-2.018c-4.844,3.667-11.228,10.703-23.85,12.261         c-9.442,1.165-19.651,0.198-28.557-3.23c-4.578-1.762-8.741-4.308-11.44-8.501c-1.5-2.33-2.612-5.094-2.598-7.9         c0.007-1.398,0.316-2.776,0.973-4.014c0.191-0.361,1.615-2.844,1.615-2.844c0,0-8.567-11.897,4.766-17.858         c0,0-11.958-19.584,18.053-15.562c1.818,0.243,3.37-7.816,10.268-11.494c1.023-0.546,8.196-4.241,15.799-1.97         C389.123,314.734,395.728,324.971,395.377,337.175z"/>
							<path d="M363.488,386.377c-7.367,0.001-14.629-1.273-21.026-3.735c-5.44-2.095-9.261-4.939-11.68-8.697         c-1.231-1.912-2.695-4.882-2.678-8.174c0.009-1.542,0.355-2.971,1.031-4.245c0.152-0.289,1.091-1.93,1.467-2.587         c-0.771-1.174-3.587-5.911-2.283-10.752c0.83-3.081,3.163-5.554,6.936-7.354c-0.939-1.731-3.745-7.632-0.943-11.929         c2.608-3.998,9.26-5.312,19.767-3.902c0.4,0.006,1.186-1.366,1.838-2.504c1.511-2.639,3.793-6.625,8.128-8.937         c1.373-0.731,8.604-4.269,16.178-2.008c9.307,2.78,15.651,12.827,15.67,24.632c1.884-1.301,6.585-4.157,10.11-2.975         c1.743,0.586,2.939,2.06,3.556,4.382c1.921,7.244,1.215,23.433,0.822,30.056c-0.211,3.564-2.344,6.695-5.434,7.977         c-2.066,0.855-7.17-0.132-9.879-1.864c-0.705,0.546-1.451,1.164-2.236,1.813c-4.591,3.802-10.88,9.009-21.57,10.328         C368.679,386.22,366.077,386.377,363.488,386.377z M346.615,325.445c-5.883,0-9.728,1.339-11.466,4.005         c-2.906,4.456,1.194,11.278,1.236,11.347l0.296,0.485l-0.519,0.231c-3.777,1.689-6.091,4.02-6.876,6.928         c-1.352,5.002,2.274,10.132,2.312,10.183l0.188,0.262l-0.16,0.279c0,0-1.417,2.47-1.607,2.829         c-0.599,1.13-0.906,2.402-0.914,3.782c-0.016,3.046,1.36,5.829,2.519,7.627c2.3,3.572,5.963,6.289,11.198,8.305         c8.494,3.27,18.553,4.407,28.316,3.201c10.401-1.283,16.56-6.383,21.056-10.106c0.899-0.744,1.748-1.447,2.554-2.057         l0.293-0.222l0.299,0.213c2.481,1.767,7.539,2.662,9.225,1.963c2.738-1.136,4.63-3.927,4.818-7.111         c0.39-6.576,1.093-22.637-0.791-29.741c-0.523-1.976-1.502-3.217-2.906-3.689c-3.902-1.306-9.938,3.363-9.999,3.41         l-0.838,0.655l0.03-1.063c0.333-11.597-5.951-21.963-14.943-24.648c-7.195-2.152-14.108,1.231-15.42,1.932         c-4.081,2.176-6.277,6.012-7.73,8.551c-1.082,1.89-1.789,3.146-2.839,2.997C351.228,325.628,348.783,325.445,346.615,325.445         z"/>
						</g>
						<g>
							
								<rect x="341.433" y="336.651" transform="matrix(0.2178 -0.976 0.976 0.2178 -66.7892 601.6162)" width="1.001" height="11.65"/>
						</g>
						<g>
							
								<rect x="336.699" y="353.684" transform="matrix(0.1374 -0.9905 0.9905 0.1374 -65.455 644.3405)" width="1" height="12.13"/>
						</g>
						<g>
							
								<rect x="361.802" y="318.503" transform="matrix(0.1687 -0.9857 0.9857 0.1687 -21.0446 628.8779)" width="1.001" height="16.823"/>
						</g>
						<g>
							<rect x="394.897" y="337.175" transform="matrix(1 -0.0034 0.0034 1 -1.1586 1.3399)" width="1" height="11.833"/>
						</g>
						<g>
							<rect x="394.448" y="364.511" transform="matrix(0.9997 -0.0233 0.0233 0.9997 -8.4853 9.3011)" width="1" height="8.635"/>
						</g>
					</g>
				</g>
				<g>
					<g>
						<path d="M193.763,361.294c-0.81,5.8-5.89,8.62-11.29,8.51c-11.14-0.23-22.27,0.09-33.4,0.55c-4.86,0.2-9.72,0.43-14.58,0.65        c-1.43,0.06-2.85,0.12-4.28,0.18c-1.04,0.04-2.09,0.09-3.13,0.13c-5.93,0.23-11.86,0.42-17.8,0.51        c-4.35,0.06-8.7,0.07-13.05-0.02c-3.96-0.06-7.93-0.21-11.9-0.44c-20.7-1.22-47.52-3.83-61.68-21.26        c-15.69-19.3,2.9-41.67,19.11-52.87c18.24-12.6,39.52-19.74,60.28-26.95c8.8-3.06,17.67-5.84,26.61-8.26l34.05,7.84l-3.8,5.83        c-17.88,3.29-35.33,8.26-52.73,14.29c-18.32,6.35-37.56,12.64-53.49,24.01c-6.13,4.37-13.77,10.43-15.86,18.08        c-0.17,0.61-0.33,1.32-0.03,2.74c-0.19-1.15,1.37,2.59,0.82,1.9c1.45,2.18,3.62,3.99,6.19,5.55        c7.2,4.36,14.71,5.89,23.31,7.22c12.45,1.92,25.11,2.61,37.71,2.55c1.44-0.01,2.89-0.02,4.33-0.04        c4.07-0.06,8.14-0.17,12.21-0.3c3.32-0.1,6.63-0.23,9.95-0.37c11.42-0.46,22.84-1.02,34.27-1.27        c1.32-0.03,2.63-0.05,3.95-0.07h0.01c5.23-0.09,10.47-0.1,15.72,0.01c2.52,0.05,4.68,1.44,6.21,3.4        C193.223,355.664,194.133,358.694,193.763,361.294z"/>
					</g>
					<g>
						<g>
							<g>
								<path style="fill:#FFFFFF;" d="M149.988,333.187c1.511,0.193,3.049-3.221,3.768-4.626          c4.664-9.112,15.988-13.95,22.924-15.25c2.804-0.526,12.176-2.596,16.199,0.796c8.613,7.26-8.148,17.575-13.289,20.985          c2.795,0.403,3.479,0.52,4.207,0.621c1.395,0.193,2.791,0.372,4.19,0.529c2.494,0.278,4.995,0.479,7.501,0.598          c5.889,0.279,11.794-0.078,17.677,0.274c3.95,0.236,10.012,0.56,12.202,4.521c1.465,2.649-0.128,5.835-1.482,8.172          c-0.035,0.06-0.07,0.12-0.105,0.18c0,0,9.411,7.438-2.557,14.982c0.87,1,2.02,2.012,2.124,3.415          c0.373,5.046-7.169,9.425-10.835,11.39c-9.293,4.983-20.984,8.475-31.568,9.132c-8.784,0.545-17.208-1.84-24.355-6.993          c-1.39-1.002-2.719-2.086-3.994-3.231c-1.079-0.969-2.682-3.427-3.968-3.936c-0.025-0.01-1.328,1.552-1.425,1.647          c-1.205,1.186-2.631,2.19-4.224,2.781c-3.712,1.377-8.126,0.563-10.539-2.745c-3.632-4.98-2.608-11.553-1.885-17.251          c0.868-6.84,1.09-13.721,1.585-20.606c1.488-20.669,14.042-10.745,15.53-8.65          C149.874,333.026,149.174,333.084,149.988,333.187z"/>
								<path d="M178.501,389.483c-8.04,0-15.67-2.454-22.202-7.164c-1.352-0.974-2.709-2.072-4.036-3.264          c-0.41-0.368-0.872-0.915-1.361-1.495c-0.674-0.799-1.491-1.767-2.16-2.193c-0.164,0.189-0.388,0.453-0.594,0.696          c-0.291,0.343-0.552,0.646-0.594,0.688c-1.363,1.342-2.844,2.315-4.4,2.893c-4.165,1.544-8.736,0.344-11.117-2.919          c-3.601-4.938-2.785-11.296-2.066-16.907l0.09-0.701c0.609-4.797,0.904-9.708,1.19-14.456          c0.122-2.04,0.245-4.082,0.392-6.124c0.554-7.68,2.685-12.092,6.335-13.113c4.399-1.226,9.254,3.017,10.102,4.211          c1.1,1.548,1.494,2.36,1.706,2.797c0.047,0.096,0.099,0.202,0.128,0.25c0.006-0.012,0.052-0.001,0.139,0.011l0,0          c1.028,0.115,2.429-2.696,3.031-3.903l0.229-0.455c4.983-9.734,16.977-14.331,23.277-15.513l0.555-0.106          c3.306-0.638,12.088-2.336,16.059,1.013c1.836,1.547,2.706,3.346,2.586,5.348c-0.366,6.127-9.97,12.526-14.823,15.713          c0.869,0.128,1.446,0.215,1.882,0.281c0.432,0.065,0.723,0.109,1.021,0.15c1.391,0.192,2.783,0.371,4.177,0.527          c2.502,0.279,5.015,0.479,7.47,0.596c2.772,0.131,5.6,0.12,8.341,0.11c3.062-0.012,6.228-0.023,9.343,0.163l0.116,0.007          c4.059,0.242,10.191,0.608,12.493,4.771c1.487,2.69,0.162,5.786-1.383,8.486c0.946,0.858,3.557,3.562,3.366,7.14          c-0.154,2.897-2.105,5.604-5.801,8.053c0.014,0.016,0.028,0.031,0.042,0.047c0.805,0.881,1.718,1.88,1.817,3.229          c0.283,3.83-3.347,7.712-11.098,11.867c-9.533,5.112-21.411,8.548-31.772,9.19          C180.149,389.458,179.323,389.483,178.501,389.483z M148.598,374.223c0.065,0,0.13,0.025,0.217,0.061          c0.944,0.373,1.914,1.521,2.852,2.633c0.466,0.553,0.906,1.074,1.265,1.396c1.301,1.168,2.631,2.244,3.952,3.197          c7.011,5.055,15.33,7.438,24.032,6.899c10.226-0.634,21.95-4.026,31.362-9.073c7.263-3.894,10.82-7.565,10.572-10.912          c-0.074-1.005-0.828-1.831-1.558-2.629c-0.151-0.167-0.302-0.331-0.444-0.495l-0.383-0.44l0.493-0.311          c3.724-2.348,5.687-4.896,5.832-7.575c0.204-3.751-3.283-6.564-3.318-6.593l-0.339-0.269l0.323-0.557          c1.446-2.496,2.754-5.363,1.475-7.677c-2.036-3.682-7.838-4.028-11.678-4.258l-0.117-0.007          c-3.083-0.185-6.232-0.172-9.279-0.161c-2.746,0.011-5.592,0.021-8.391-0.112c-2.477-0.116-5.011-0.318-7.534-0.6          c-1.403-0.158-2.804-0.337-4.202-0.531c-0.302-0.041-0.596-0.086-1.034-0.152c-0.621-0.094-1.533-0.232-3.177-0.469          l-1.297-0.188l1.952-1.291c4.271-2.803,14.272-9.365,14.615-15.096c0.102-1.692-0.629-3.172-2.232-4.522          c-3.605-3.04-12.046-1.409-15.225-0.796l-0.561,0.107c-6.121,1.148-17.764,5.597-22.57,14.986l-0.225,0.446          c-1.181,2.363-2.46,4.655-4.053,4.448c-0.632-0.08-0.771-0.266-1.039-0.815c-0.199-0.411-0.57-1.175-1.622-2.656          c-0.906-1.275-5.337-4.851-9.017-3.826c-3.156,0.883-5.095,5.109-5.606,12.223c-0.146,2.038-0.27,4.075-0.392,6.111          c-0.287,4.766-0.583,9.692-1.196,14.521l-0.09,0.703c-0.695,5.426-1.483,11.575,1.883,16.19          c2.118,2.903,6.212,3.961,9.961,2.571c1.423-0.527,2.785-1.426,4.048-2.669c0.049-0.052,0.276-0.32,0.532-0.621          C148.198,374.46,148.4,374.223,148.598,374.223z"/>
							</g>
							<g>
								<path d="M198.13,354.036c-7.483,0-13.126-0.61-13.242-0.623l0.111-0.994c0.237,0.026,23.938,2.589,38.608-2.899l0.35,0.938          C216.257,353.337,206.14,354.036,198.13,354.036z"/>
							</g>
							<g>
								<path d="M189.887,370.954c-1.127,0-2.227-0.034-3.289-0.107l0.068-0.998c13.955,0.958,34.609-4.999,34.816-5.06l0.279,0.961          C221.57,365.806,203.746,370.954,189.887,370.954z"/>
							</g>
							<g>
								
									<rect x="146.403" y="336.583" transform="matrix(0.0644 -0.9979 0.9979 0.0644 -195.7169 465.4021)" width="7.905" height="1"/>
							</g>
							<g>
								
									<rect x="145.402" y="370.664" transform="matrix(0.1329 -0.9911 0.9911 0.1329 -238.7069 469.4669)" width="7.125" height="0.999"/>
							</g>
						</g>
					</g>
				</g>
			</g>
		</g>
	</g>
</g>















</svg>
