<?xml version="1.0" encoding="UTF-8"?>
<!-- Generator: Adobe Illustrator 26.0.3, SVG Export Plug-In . SVG Version: 6.00 Build 0)  -->
<svg xmlns="http://www.w3.org/2000/svg" xmlns:xlink="http://www.w3.org/1999/xlink" version="1.1" id="Capa_1" x="0px" y="0px" viewBox="0 0 512 512" style="enable-background:new 0 0 512 512;" xml:space="preserve" width="512" height="512">
<g>
	<g>
		<g>
			<path style="fill:#C15BD3;" d="M260.356,324.114l-75.957,25.52c-0.936,0.719-1.873,1.459-2.77,2.167     c-18.52,13.641-30.882,33.14-35.756,55.558c-5.849,26.968,23.397,31.53,43.555,31.838c25.405,0.492,48.82-6.41,70.928-17.073     l35.972-4.367l32.988-70.182L260.356,324.114z"/>
			<path style="fill:#002C54;" d="M156.182,381.979c-2.813,24.996,42.324,6.004,50.972-1c0.822-0.67,0.504-2.951-0.799-2.627     c-11.79,2.962-42.848,20.277-49.992,3.583C156.315,381.823,156.194,381.866,156.182,381.979L156.182,381.979z"/>
			<polygon style="fill:#002C54;" points="142.956,396.312 159.522,405.343 171.55,381.671 151.079,378.121    "/>
		</g>
		<g>
			<path style="fill:#99D7F7;" d="M354.68,483.281l-50.555-77.224c0,0-49.948-25.601-59.21,1.632     c-1.655,12.09,2.954,17.79,2.954,17.79s2.642,41.016-14.399,44.561c-11.112,2.319-20.803-6.177-26.183-12.36l-16.728,2.081     l13.784,19.759c5.557,7.734,14.68,15.246,29.127,15.246c29.731,0,50.186-65.724,50.186-65.724l67.788,76.252l6.053,2.718     l13.765-4.967L354.68,483.281z"/>
			<g>
				<path style="fill:#002C54;" d="M444.169,434.327C428.259,505.488,357.411,512,357.411,512l-5.967-6.707l12.476-4.016      c-6.083-2.767-12.183-13.765-9.24-17.997c0.507-0.74,1.305-1.265,2.418-1.502c7.466-1.632,9.417,11.03,9.417,11.03      C389.912,399.89,444.169,434.327,444.169,434.327z"/>
				<path style="fill:#FFFFFF;" d="M357.616,509.957l-0.239-1.935c0.569-0.07,56.886-7.826,76.929-74.862l1.867,0.556      C415.756,502.018,358.196,509.882,357.616,509.957z"/>
				<path style="fill:#FFFFFF;" d="M379.315,489.528c7.726,4.815,12.202-1.924,15.84-8.399c3.079-5.491,6.479-10.728,10.629-15.484      c5.795-6.637,12.11-6.474,19.984-8.074c1.277-0.259,1.167-2.335,0.188-2.891c-8.931-5.048-18.469,1.232-23.997,8.453      c-4.28,5.588-13.494,28.455-22.11,24.255C378.904,486.929,378.622,489.096,379.315,489.528L379.315,489.528z"/>
				<path style="fill:#FFFFFF;" d="M372.531,490.815c-1.706-3.675-0.871-7.674-1.649-11.528c-0.142-0.697-0.805-0.627-0.943,0.027      c-0.874,4.145-0.305,8.745,1.851,12.414C372.218,492.463,372.753,491.29,372.531,490.815L372.531,490.815z"/>
				<path style="fill:#FFFFFF;" d="M377.418,482.957c-2.438-3.243-0.812-7.864-2.133-11.468c-0.207-0.568-0.791-0.497-0.993,0.027      c-1.48,3.864-0.655,10.079,2.408,12.954C377.433,485.161,377.787,483.448,377.418,482.957L377.418,482.957z"/>
				<path style="fill:#FFFFFF;" d="M382.598,476.363c-1.319-3.599-1.131-7.523-1.913-11.236c-0.162-0.778-0.916-0.724-1.059,0.027      c-0.817,4.248,0.465,8.204,2.001,12.111C382.05,478.352,382.869,477.103,382.598,476.363L382.598,476.363z"/>
			</g>
			<g>
				<path style="fill:#002C54;" d="M201.439,460.971c0,0,4.307,12.695,2.904,18.548c-0.409,1.697-1.307,2.827-2.904,2.902      c-7.135,0.33-6.492-12.382-6.492-12.382s-41.587,53.326-83.192,24.412c0,0,8.129-40.631,90.991-42.733      c0,0,1.656,2.648,4.541,5.961L201.439,460.971z"/>
				<path style="fill:#FFFFFF;" d="M118.51,496.111l-1.636-1.054c0.243-0.389,25.393-38.474,84.522-41.15l0.085,1.951      C143.35,458.485,118.752,495.733,118.51,496.111z"/>
				<path style="fill:#FFFFFF;" d="M141.209,472.434c-1.333,6.048,4.174,11.533,10.278,11.668c5.461,0.113,9.351-3.864,13.153-7.366      c6.157-5.658,14.688-8.528,22.701-10.42c0.81-0.195,0.507-1.816-0.219-1.946c-7.271-1.259-14.164-0.913-20.274,3.821      c-3.02,2.335-5.718,4.972-8.492,7.593c-3.266,3.086-16.401,6.248-15.916-3.124C142.494,471.677,141.433,471.418,141.209,472.434      L141.209,472.434z"/>
				<path style="fill:#FFFFFF;" d="M172.647,488.41c0.372-2.367,0.403-4.999,0.004-7.372c-0.092-0.557-0.658-0.503-0.747,0.022      c-0.403,2.367-0.347,4.994,0.019,7.377C172.005,488.966,172.567,488.923,172.647,488.41L172.647,488.41z"/>
				<path style="fill:#FFFFFF;" d="M176.838,485.091c0.188-3.41,0.417-6.82,0.447-10.23c0.004-0.422-0.55-0.859-0.704-0.27      c-0.915,3.454-0.763,6.983-0.57,10.523C176.056,485.897,176.795,485.853,176.838,485.091L176.838,485.091z"/>
				<path style="fill:#FFFFFF;" d="M182.796,479.557c0.292-1.459,0.731-2.853,1.181-4.264c0.428-1.34,0.992-2.713,0.55-4.107      c-0.082-0.259-0.305-0.449-0.573-0.475c-1.294-0.13-1.933,2.394-2.214,3.302c-0.561,1.805-0.737,3.718-0.461,5.578      C181.448,480.752,182.591,480.584,182.796,479.557L182.796,479.557z"/>
			</g>
		</g>
		<g>
			<g>
				<g>
					<g>
						<path style="fill:#FFA33E;" d="M400.917,334.933c0,0,12.955-59.941,22.273-58.249c9.316,1.692-14.144,51.64-14.144,51.64        s41.115-49.208,49.253-41.42c8.135,7.788-56.939,57.044-56.939,57.044"/>
						<path style="fill:#FFA33E;" d="M431.224,349.844c-8.365,8.247-18.775,2.713-18.775,2.713l-17.937,23.104l-8.285-11.636        l12.788-19.072c0,0-20.238-8.712-17.583-17.683c2.124-7.134,22.204-1.054,29.087,7.155        C428.259,328.773,439.294,341.894,431.224,349.844z"/>
						<path style="fill:#002C54;" d="M391.024,332.41c3.702,3.88,13.234,14.868,19.329,12.69c9.284-3.308-2.609-14.84-6.037-16.97        c-4.887-3.037-22.36-10.49-23.628-0.011c-1.076,8.912,11.633,15.138,18.193,18.008c-0.043-0.74-0.084-1.481-0.127-2.227        c-4.267,6.356-8.535,12.717-12.803,19.078c-0.382,0.568,0.015,2.891,0.54,2.102c4.268-6.361,8.536-12.717,12.804-19.072        c0.295-0.443,0.523-1.946-0.13-2.227c-5.738-2.519-11.574-5.912-15.634-10.744c-5.026-5.983,1.597-7.912,5.994-7.615        c4.153,0.286,8.205,1.897,11.929,3.659c3.582,1.691,6.937,4.059,9.398,7.177c1.962,2.486,1.354,6.734-2.232,6.48        c-1.64-0.119-3.316-1.2-4.699-1.994c-4.601-2.664-8.711-6.609-12.357-10.436C390.859,329.561,390.547,331.907,391.024,332.41        L391.024,332.41z"/>
						<path style="fill:#002C54;" d="M409.427,344.494c-0.177,5.334,4.267,11.101,9.651,7.474c4.33-2.913,6.902-9.393,7.624-14.36        c0.063-0.427-0.45-1.438-0.842-0.713c-1.737,3.237-2.92,6.728-4.965,9.809c-1.285,1.93-3.024,3.659-5.426,3.913        c-3.305,0.351-4.971-3.653-5.369-6.28C410.006,343.721,409.445,344.002,409.427,344.494L409.427,344.494z"/>
					</g>
					<path style="fill:#002C54;" d="M326.223,370.111c0,0,29.245,32.703,65.963-20.915l21.446,8.793l-6.5,8.107       c0,0,10.073,37.367-30.622,45.101c-36.943,7.02-56.136-37.626-56.136-37.626L326.223,370.111z"/>
				</g>
				<g>
					<polygon style="fill:#008CF7;" points="405.705,366.133 386.696,360.199 387.276,358.335 406.285,364.269      "/>
					
						<rect x="398.306" y="346.504" transform="matrix(0.3308 -0.9437 0.9437 0.3308 -70.288 616.1269)" style="fill:#008CF7;" width="1.95" height="22.237"/>
				</g>
			</g>
			<g>
				<g>
					<path style="fill:#008CF7;" d="M213.468,349.52l110.479-11.041c0,0,31.844,41.263-14.298,68.231l0.974,4.221l-63.039,2.929       l-42.691,3.897L213.468,349.52z"/>
					
						<rect x="277.161" y="374.209" transform="matrix(0.0309 -0.9995 0.9995 0.0309 -136.0141 671.188)" style="fill:#002C54;" width="1.949" height="63.06"/>
					
						<rect x="242.837" y="412.738" transform="matrix(0.9966 -0.0824 0.0824 0.9966 -33.1305 24.1998)" style="fill:#002C54;" width="67.902" height="1.949"/>
					<path style="fill:#002C54;" d="M285.656,413.428l-1.808-0.735c15.973-39.426-7.447-59.822-7.685-60.028l1.254-1.486       C277.665,351.385,302.181,372.641,285.656,413.428z"/>
				</g>
				<polygon style="fill:#C15BD3;" points="217.042,361.221 245.636,403.462 263.834,390.464 240.439,359.27     "/>
				<path style="fill:#C15BD3;" d="M325.066,394.318l-14.428-54.51l13.315-1.329C323.953,338.479,347.272,368.695,325.066,394.318z"/>
			</g>
			<g>
				<g>
					<path style="fill:#FFA33E;" d="M263.864,428.107c-17.538,5.55-22.837-10.366-22.837-10.366l-7.536,4.886l-6.053-22.521       l6.021-2.172c0,0-13.19-7.95-1.013-13.917l8.03,11.803l19.56-10.425l7.655-4.086       C267.69,381.309,281.401,422.545,263.864,428.107z"/>
					<path style="fill:#002C54;" d="M242.869,402.754c9.532,3.237,19.259-2.356,24.889-10.155c0.273-0.384,0.089-1.994-0.635-1.546       c-8.062,4.94-13.733,11.825-24.185,10.614C242.479,401.614,242.49,402.624,242.869,402.754L242.869,402.754z"/>
					<path style="fill:#002C54;" d="M246.487,413.071c8.86,2.092,18.856,2.319,26.135-4.042c0.628-0.546,0.428-2.438-0.65-2.14       c-4.182,1.173-7.993,3.037-12.325,3.778c-4.242,0.729-8.754,0.654-13.045,0.643       C245.868,411.31,245.833,412.915,246.487,413.071L246.487,413.071z"/>
					<path style="fill:#002C54;" d="M248.612,421.891c6.573,3.702,16.599,4.291,22.199-1.351c0.558-0.562,0.721-3.053-0.576-2.827       c-3.462,0.621-6.58,1.951-10.16,2.081c-3.788,0.13-7.528-1.427-11.282-0.751C247.524,419.27,247.659,421.356,248.612,421.891       L248.612,421.891z"/>
				</g>
				<g>
					<path style="fill:#002C54;" d="M243.07,425.858l-15.632-25.752l-16.561,5.977l13.581-42.247l-17.875,0.022       c0,0-33.063,52.688-21.333,74.766c9.261,17.419,35.865-1.611,46.661-10.404L243.07,425.858z"/>
					
						<rect x="224.274" y="403.004" transform="matrix(0.8695 -0.494 0.494 0.8695 -176.3399 165.6345)" style="fill:#008CF7;" width="1.949" height="26.977"/>
					
						<rect x="230.03" y="399.505" transform="matrix(0.8668 -0.4986 0.4986 0.8668 -175.7354 170.3262)" style="fill:#008CF7;" width="1.951" height="29.315"/>
				</g>
			</g>
		</g>
	</g>
	<g>
		<g>
			<path style="fill:#002C54;" d="M367.002,48.14c-10.217-10.766-21.056-9.025-30.843-2.908c0.877-6.529,0.332-13.317-2.301-20.488     c-5.849-17.548-25.834-28.757-43.38-23.396c-20.469,6.334-30.219,31.686-28.757,51.661c0.253,4.529,1.151,10.333,2.906,15.641     c-11.66-11.852-33.731-22.964-39.461-12.225c-3.021,5.669,1.87,15.441,6.941,21.137c-25.151,2.41-50.807,7.793-71.767,21.753     c-33.633,22.423-53.127,56.055-60.926,95.535c-4.875,23.396-2.438,51.661,2.924,75.063c0.331,1.697,0.701,3.389,1.131,5.107     l11.541,28.698l239.321-10.409L357,116.631c2.358-1.897,6.353-5.42,8.051-7.561C377.723,93.953,381.136,63.245,367.002,48.14z"/>
			<path style="opacity:0.1;fill:#FFFFFF;" d="M222.706,104.265c-7.012,3-7.878,15.673,1.52,15.949     c13.029,0.394,26.636-13.7,25.524-26.769c-0.042-0.492-0.387-1.605-1.123-1.243c-6.572,3.254-5.081,14.014-3.737,19.851     c2.589,11.236,10.112,20.834,21.967,22.159c19.907,2.237,30.312-27.995,21.876-42.771c-1.236-2.156-3.836-6.95-7.251-5.421     c-2.573,1.157-4.579,4.891-3.975,7.68c2.107,9.701,13.945,13.436,22.534,14.673c28.08,4.042,58.428-6.367,59.763-38.323     c0.071-1.703-1.789-2.194-2.146-0.389c-4.222,21.342-18.069,31.168-39.18,33.61c-9.215,1.059-19.179,0.178-27.929-2.897     c-3.009-1.059-5.729-2.772-8.167-4.794c-2.755-7.986,3.87-5.023,5.65,1.751c0.763,2.6,0.83,5.334,0.833,8.02     c0.053,21.164-24.234,34.74-37.824,14.895c-2.72-3.972-4.528-9.339-5.064-14.079c-0.116-1.259-0.159-2.519-0.131-3.789     c0.73-1.729,1.459-3.459,2.19-5.183c-0.599,2.832-1.704,5.437-3.32,7.793c-2.479,4.091-6.45,7.296-10.432,9.804     c-1.343,0.778-2.747,1.41-4.215,1.908c-1.307,0.254-2.614,0.508-3.921,0.768c-6.189,0.573-7.214-3.221-3.073-11.403     C223.764,105.719,223.547,103.909,222.706,104.265L222.706,104.265z"/>
			<path style="opacity:0.1;fill:#FFFFFF;" d="M302.484,14.794c-17.832-2.751-38.362,16.408-32.486,35.161     c5.731,18.278,31.369,25.633,46.407,13.209c2.297-1.897,7.677-9.993,2.064-12.068c-7.183-2.648-15.066,6.248-17.436,12.09     c-3.671,9.063-2.487,17.77,6.233,23.196c8.663,5.383,20.834,2.438,29.293-1.708c0.827-0.405,0.827-2.837-0.297-2.61     c-10.302,2.054-24.428,4.421-32.224-4.513c-6.719-7.691,3.032-19.607,9.836-22.704c3.494-1.001,4.461,0.219,2.646,3.886     c-1.42,1.275-2.991,2.297-4.717,3.075c-2.89,1.519-6.252,2.389-9.419,3.081c-13.803,3.027-29.64-5.642-31.066-20.386     c-1.55-16.057,16.842-29.308,31.201-28.336C303.131,16.205,303.078,14.886,302.484,14.794L302.484,14.794z"/>
			<path style="opacity:0.1;fill:#FFFFFF;" d="M105.273,255.018c16.181-1.319,20.809-27.379,15.137-39.561     c-7.341-15.77-20.252,12.944-6.554,13.657c19.895,1.043,26.386-31.162,28.328-45.376c0.862-6.28,1.004-51.532-15.438-36.378     c-0.384,0.351-0.253,1.848,0.45,1.486c12.337-6.345,12.703,18.11,12.693,24.109c-0.022,11.522-2.433,23.553-6.938,34.145     c-2.065,4.842-5.006,9.29-8.565,13.16c-1.434,1.481-3.083,2.681-4.942,3.605c-7.792,4.297,1.078-4.912,1.163,2.016     c0.138,11.074-3.975,24.623-15.419,28.395C104.918,254.364,104.959,255.05,105.273,255.018L105.273,255.018z"/>
		</g>
		<g>
			<path style="fill:#FFA33E;" d="M252.46,368.371c-97.131,9.496-123.141-21.996-130.08-40.539     c-19.244,8.307-41.506,15.187-59.522,6.907c-20.96-9.263-3.899-41.431,8.773-51.672c7.976-6.604,19.771-8.847,31.838-8.047     c8.948,0.567,18.055,2.827,25.812,6.177l22.307-129.08c5.476,6.08,13.276,10.139,20.94,9.593     c14.288-1.216,25.343-11.155,31.893-23.558c-0.135,5.621,0.88,10.587,3.686,12.836c9.201,7.62,18.971-1.351,26.398-12.771     c0.878,5.788,3.532,10.685,8.697,12.279c6.2,2.248,14.659-4.27,18.832-11.403c4.445,14.798,21.428,25.752,35.757,14.819     c7.819-5.637,11.814-19.678,9.046-30.579c14.465,8.409,36.324,3.318,50.165-6.702c34.04,14.425,77.635,40.296,79.702,78.705     C440.114,258.703,377.237,356.184,252.46,368.371z"/>
			<g>
				<g>
					<path style="fill:#FFFFFF;" d="M284.63,293.308h-56.287l-25.714-79.078c8.934-8.503,20.428-14.851,35.211-16.943       C289.502,189.975,284.63,293.308,284.63,293.308z"/>
					<g>
						<path style="fill:#002C54;" d="M228.343,293.308H171.55c0,0,1.736-51.159,31.079-79.078        c5.672,2.432,10.995,6.118,15.712,10.841C235.479,243.03,236.902,270.534,228.343,293.308z"/>
					</g>
				</g>
				<g>
					<path style="fill:#FFFFFF;" d="M402.316,240.782c0,33.167-24.115,60.054-53.858,60.054c-7.774,0-15.163-1.837-21.838-5.142       l-14.417-99.321c9.57-9.717,22.293-15.641,36.256-15.641C378.202,180.733,402.316,207.615,402.316,240.782z"/>
					<g>
						<path style="fill:#002C54;" d="M326.624,295.686c-18.871-9.339-32.032-30.395-32.032-54.904        c0-17.602,6.787-33.432,17.605-44.414c11.386,6.432,21.953,18.073,25.561,25.293        C351.618,247.003,343.685,274.922,326.624,295.686z"/>
					</g>
				</g>
				<g>
					<path style="fill:#FFA33E;" d="M292.753,265.037l7.473,28.271c0,0,12.675-14.949,18.522-9.425       c5.848,5.523-22.176,20.802-33.995,20.802"/>
					<path style="fill:#002C54;" d="M284.753,305.657v-1.951c9.767,0,31.128-10.895,33.614-17.148       c0.435-1.092,0.072-1.627-0.289-1.962c-0.743-0.703-1.639-1.016-2.763-0.951c-5.825,0.319-14.261,10.187-14.345,10.296       l-1.209,1.421l-7.95-30.076l1.885-0.497l7.011,26.52c2.686-2.886,9.236-9.323,14.501-9.615       c1.648-0.092,3.071,0.405,4.209,1.486c1.121,1.054,1.392,2.513,0.762,4.097C317.379,294.319,295.527,305.657,284.753,305.657z"/>
				</g>
				<g>
					<path style="fill:#FFFFFF;" d="M237.292,350.352c-7.587,5.285-20.59,12.052-28.699,3.724       c-12.03-12.36,9.105-55.563,9.105-55.563s5.692,12.457,18.094,13.533L237.292,350.352z"/>
					<path style="fill:#002C54;" d="M218.161,359c-3.709,0-7.276-1.178-10.266-4.248c-12.359-12.695,8.047-54.882,8.923-56.671       l0.901-1.848l0.859,1.87c0.045,0.097,4.526,9.631,13.818,12.327c6.142,1.794,13.045,0.243,20.51-4.583l1.056,1.643       c-7.969,5.151-15.415,6.767-22.128,4.81c-7.692-2.243-12.242-8.528-14.08-11.625c-3.731,8.128-18.541,42.36-8.462,52.715       c11.232,11.539,33.194-8.285,33.413-8.485l1.315,1.443C243.291,347.007,229.996,359,218.161,359z"/>
					<polygon style="fill:#002C54;" points="232.976,352.876 229.291,310.554 230.263,310.473 233.95,352.795      "/>
					
						<rect x="198.565" y="331.734" transform="matrix(0.0278 -0.9996 0.9996 0.0278 -114.6088 546.6042)" style="fill:#002C54;" width="50.272" height="0.976"/>
					<polygon style="fill:#002C54;" points="207.741,352.514 206.803,352.249 220.622,303.588 221.56,303.847      "/>
					<polygon style="fill:#002C54;" points="209.309,320.082 209.263,319.109 236.017,317.92 236.063,318.893      "/>
				</g>
				<path style="fill:#002C54;" d="M203.247,200.324c4.618-11.047,14.06-20.245,24.838-25.228      c11.636-5.383,23.601-3.778,35.845-5.28c3.456-0.427,2.99-6.296,0.49-7.647c-12.642-6.821-28.779-4.172-40.756,2.778      c-12.804,7.426-18.963,19.289-23.373,32.875C199.588,199.995,201.927,203.481,203.247,200.324L203.247,200.324z"/>
				<path style="fill:#002C54;" d="M316.023,160.801c7.94-10.857,23.323-12.652,35.527-10.068c6.664,1.41,12.979,4.34,18.74,7.907      c4.027,2.497,8.358,8.161,12.962,9.09c1.754,0.351,2.751-1.583,2.581-3.151c-1.655-15.43-20.872-24.996-34.325-27.574      c-17.777-3.405-31.388,4.54-38.07,20.91C312.774,159.531,314.352,163.088,316.023,160.801L316.023,160.801z"/>
				<path style="fill:#002C54;" d="M58.06,326.492c0,0,1.333-22.304,20.631-29.476c19.279-7.172,35.053-0.876,34.64,12.587      c-0.436,13.484-33.513,30.865-27.707,5.999l-10.313,4.14l13.707-8.161c0,0-7.204,17.132,7.536,13.354      c14.725-3.81,18.782-20.532,8.99-25.698C95.756,294.054,69.913,293,58.06,326.492z"/>
			</g>
		</g>
	</g>
</g>















</svg>
