<?xml version="1.0" encoding="UTF-8"?>
<!-- Generator: Adobe Illustrator 26.0.3, SVG Export Plug-In . SVG Version: 6.00 Build 0)  -->
<svg xmlns="http://www.w3.org/2000/svg" xmlns:xlink="http://www.w3.org/1999/xlink" version="1.1" id="Capa_1" x="0px" y="0px" viewBox="0 0 512 512" style="enable-background:new 0 0 512 512;" xml:space="preserve" width="512" height="512">
<g>
	<g>
		<g>
			<g>
				<polygon style="fill:#99D7F7;" points="431.932,159.663 427.908,215.418 420.352,246.912 425.239,252.388 424.511,262.549       494.458,279.632 512,183.384     "/>
				<path style="fill:#002C54;" d="M434.624,193.49c2.418,0.61,4.904,0.805,7.369,1.13c3.027,0.399,6.024,1.026,9.083,0.639      c0.824-0.106,0.91-1.6,0.312-2.022c-4.654-3.276-11.375-4.025-16.839-2.744C433.493,190.74,433.618,193.238,434.624,193.49      L434.624,193.49z"/>
				<path style="fill:#002C54;" d="M434.548,207.071c5.955,2.27,12.994,3.948,19.401,3.24c1.146-0.127,1.002-2.106,0.164-2.542      c-5.864-3.04-13.045-2.448-19.449-2.565C433.854,205.19,433.909,206.83,434.548,207.071L434.548,207.071z"/>
				<path style="fill:#002C54;" d="M437.11,222.427c1.543,1.377,4.862,1.569,6.785,1.988c4.603,1.002,9.211,1.991,13.812,2.998      c7.503,1.638,14.874,3.459,22.56,3.881c1.38,0.077,1.106-2.544,0.194-3.009c-7.223-3.671-15.378-5.145-23.25-6.779      c-3.523-0.734-17.945-5.247-20.296-0.88C436.621,221.172,436.615,221.983,437.11,222.427L437.11,222.427z"/>
				<path style="fill:#002C54;" d="M432.03,236.006c13.402,5.064,28.214,8.869,42.507,10.316c1.491,0.151,1.289-2.895,0.218-3.373      c-7.177-3.186-14.335-5.142-22.004-6.774c-6.563-1.398-13.934-2.997-20.613-1.878      C431.433,234.413,431.382,235.764,432.03,236.006L432.03,236.006z"/>
				<path style="fill:#002C54;" d="M432.916,251.16c2.997,0.791,6.83,2.332,9.931,1.478c0.782-0.214,0.623-1.73,0.129-2.125      c-2.541-2.025-6.617-3.389-9.849-2.724C431.84,248.055,431.541,250.797,432.916,251.16L432.916,251.16z"/>
				<path style="fill:#002C54;" d="M453.595,256.275c3.553,2.297,8.096,2.765,12.136,3.907c4.083,1.151,8.699,2.871,12.904,1.681      c1.423-0.401,1.197-3.24,0.241-3.958c-3.465-2.601-7.927-3.56-12.065-4.664c-4.135-1.104-9.25-2.258-13.039,0.139      C452.953,253.9,452.668,255.676,453.595,256.275L453.595,256.275z"/>
			</g>
			<g>
				<path style="fill:#FF4F8A;" d="M468.544,213.463c-1.278-4.746-0.722-10.536-0.162-15.344c0.363-3.131,3.17-14.165,7.818-8.128      c5.723,7.436,1.752,18.61,6.293,26.231c0.814,1.36,2.418,0.659,2.803-0.623c1.655-5.492-0.321-12.706-1.451-18.142      c-1.065-5.124-2.971-13.045-8.618-14.984c-6.145-2.108-8.729,6.51-9.429,10.734c-1.129,6.822-0.424,14.208,1.491,20.819      C467.654,215.288,468.825,214.507,468.544,213.463L468.544,213.463z"/>
				<path style="fill:#FF4F8A;" d="M464.145,204.627c7.265-2.084,14.592-1.764,21.585-5.084c1.005-0.477,0.807-2.501-0.306-2.687      c-8.144-1.362-15.626-0.111-22.044,5.236C462.616,202.726,462.882,204.991,464.145,204.627L464.145,204.627z"/>
			</g>
			<g>
				<path style="fill:#FF4F8A;" d="M494.446,208.67c0.076-4.413,1.236-9.405-0.042-13.71c-0.15-0.51-0.766-0.89-0.984-0.169      c-1.337,4.381-0.157,9.411-0.079,13.906C493.356,209.742,494.426,209.699,494.446,208.67L494.446,208.67z"/>
				<path style="fill:#FF4F8A;" d="M488.519,204.91c2.138,0.063,3.967,0.358,6.14,0.128c2.062-0.217,4.097-1.143,5.749-2.356      c0.68-0.499,0.461-1.962-0.254-2.307c-4.429-2.139-7.824,1.697-11.845,2.674C487.593,203.224,487.76,204.887,488.519,204.91      L488.519,204.91z"/>
			</g>
		</g>
		<path style="fill:#FFA33E;" d="M440.362,238.369c-2.455,5.83-10-0.972-13.504-8.368l-1.62,22.387l-116.098,31.75l18.447-18.552    l93.103-32.168c0,0-4.613-16.193,3.603-18.216c1.159-0.284,2.388-0.19,3.615,0.216    C435.388,217.859,443.264,231.515,440.362,238.369z"/>
		<g>
			<polyline style="fill:#C15BD3;" points="296.005,287.468 418.637,257.119 415.591,231.65 312.985,269.472    "/>
			
				<rect x="400.731" y="237.448" transform="matrix(0.9283 -0.3718 0.3718 0.9283 -63.7388 167.2857)" style="fill:#002C54;" width="2.325" height="22.932"/>
			<path style="fill:#002C54;" d="M408.625,240.447c0,2.085-0.845,3.773-1.886,3.773c-1.044,0-1.888-1.689-1.888-3.773     c0-2.083,0.844-3.774,1.888-3.774C407.779,236.673,408.625,238.364,408.625,240.447z"/>
		</g>
	</g>
	<g>
		<g>
			<g>
				<polyline style="fill:#FFA33E;" points="181.072,347.553 145.925,384.211 153.411,399.054 188.045,350.927 180.172,347.553           "/>
				<path style="fill:#002C54;" d="M147.228,378.138c0,0,26.76-0.226,27.885,3.26c1.125,3.486-9.334,4.724-9.334,4.724      s8.52,4.487-4.569,9.945C148.125,401.524,147.228,378.138,147.228,378.138z"/>
				<g>
					<path style="fill:#008CF7;" d="M164.204,397.928c0,0,0.674-8.096-12.368-8.773c0,0,11.47-19.112-11.919-15.854l4.521,19.903       c0,0-49.468-22.659-85.675,0.505C22.555,416.874,114.053,430.312,164.204,397.928z"/>
					<path style="fill:#002C54;" d="M53.249,399.515c0.1,5.013,5.212,7.827,9.102,10.072c9.541,5.513,20.034,6.136,30.774,4.735       c22.225-2.896,41.88-15.898,64.871-14.038c1.586,0.129,1.504-3.406-0.089-3.609c-17.49-2.247-33.816,5.214-50.032,10.618       c-9.166,3.057-18.483,4.885-28.167,4.487c-6.13-0.251-24.333-4.172-25.412-12.509       C54.175,398.334,53.233,398.725,53.249,399.515L53.249,399.515z"/>
					<path style="fill:#002C54;" d="M103.453,385.601c-1.984,6.364,6.667,10.343,11.577,11.826c8.501,2.566,18.568,0.768,26.861-1.8       c0.644-0.201,0.521-1.724-0.197-1.733c-5.647-0.059-11.305,0.628-16.958,0.744c-4.938,0.1-19.93-1.247-20.257-8.644       C104.452,385.396,103.719,384.749,103.453,385.601L103.453,385.601z"/>
					<path style="fill:#002C54;" d="M113.335,385.455c1.664,2.037,3.119,4.001,4.244,6.396c0.908,1.937,1.57,4.016,2.875,5.736       c0.413,0.545,0.899-0.089,0.858-0.572c-0.387-4.709-3.114-10.633-7.139-13.321       C113.202,383.045,112.856,384.866,113.335,385.455L113.335,385.455z"/>
					<path style="fill:#002C54;" d="M121.129,385.641c1.634,3.433,1.056,7.709,2.978,10.961c0.325,0.551,0.714-0.152,0.725-0.484       c0.134-3.799-0.822-8.165-2.562-11.542C121.651,383.373,120.721,384.78,121.129,385.641L121.129,385.641z"/>
					<path style="fill:#002C54;" d="M130.14,387.05c-0.196,1.109-0.359,2.189-0.468,3.311c-0.117,1.17-0.365,2.375-0.21,3.544       c0.043,0.351,0.35,0.751,0.738,0.608c1.02-0.37,1.42-1.922,1.616-2.876c0.325-1.579,0.141-3.065-0.127-4.626       C131.492,385.864,130.329,385.967,130.14,387.05L130.14,387.05z"/>
				</g>
			</g>
			<g>
				<path style="fill:#FFA33E;" d="M286.546,328.213l-24.965,68.817h18.505c0,0,20.849-67.465,8.708-72.865L286.546,328.213z"/>
				<path style="fill:#002C54;" d="M281.822,381.285c0,0-15.292-13.605-20.241-10.343c-4.946,3.26,2.587,12.481,2.587,12.481      s-6.41-0.112-6.184,3.037c0.226,3.147,5.06,12.369,22.04,15.18L281.822,381.285z"/>
				<g>
					<path style="fill:#008CF7;" d="M284.297,392.307c0,0,33.733-18.893,73.088-2.251c39.353,16.643-54.083,42.35-102.773,10.57       c0,0,5.148-18.663,22.477-7.643c0,0-14.43-22.492,15.505-15.07L284.297,392.307z"/>
					<path style="fill:#002C54;" d="M258.318,401.41c6.593-6.319,19.18-0.635,25.839,2.711c8.455,4.247,16.627,6.814,26.102,7.22       c18.846,0.81,37.26-8.062,53.203-17.089c0.431-0.239,0.34-1.408-0.246-1.186c-19.41,7.406-38.784,16.821-60.113,14.25       c-10.224-1.232-18.792-6.819-28.516-9.616c-5.168-1.488-13.333-2.194-16.807,2.709       C257.537,400.753,257.825,401.883,258.318,401.41L258.318,401.41z"/>
					<path style="fill:#002C54;" d="M279.015,393.52c5.188,6.865,16.76,8.057,24.772,7.716c10.446-0.446,20.8-7.117,25.436-16.45       c0.2-0.403-0.053-1.975-0.693-1.287c-6.585,7.112-13.023,12.588-22.896,14.255c-7.809,1.315-19.957-0.069-26.051-5.43       C278.98,391.796,278.722,393.134,279.015,393.52L279.015,393.52z"/>
					<path style="fill:#002C54;" d="M293.117,399.559c0.237-1.922,0.627-3.844,1.057-5.735c0.444-1.941,1.27-3.796,1.515-5.784       c0.054-0.424-0.305-1.631-0.927-1.035c-1.431,1.374-1.832,3.481-2.296,5.335c-0.576,2.293-0.761,4.604-0.817,6.956       C291.621,400.423,292.959,400.837,293.117,399.559L293.117,399.559z"/>
					<path style="fill:#002C54;" d="M298.592,398.987c1.926-3.811,4.095-8.011,5.331-12.096c0.142-0.463-0.108-1.746-0.821-1.188       c-3.281,2.566-4.696,8.043-5.784,11.863C297.113,398.285,297.941,400.273,298.592,398.987L298.592,398.987z"/>
					<path style="fill:#002C54;" d="M307.968,397.198c1.123-3.956,3.621-6.896,5.353-10.52c0.17-0.359,0.159-2.092-0.655-1.594       c-3.623,2.225-5.459,7.212-6.24,11.179C306.224,397.286,307.556,398.652,307.968,397.198L307.968,397.198z"/>
				</g>
			</g>
			<g>
				<path style="fill:#002C54;" d="M189.167,334.06l-24.963-5.396c0,0,9.444,45.427,62.857,41.38      c53.413-4.049,68.029-50.362,68.029-50.362l-30.133,11.906L189.167,334.06z"/>
				<g style="opacity:0.2;">
					
						<rect x="168.905" y="335.773" transform="matrix(0.9996 -0.0294 0.0294 0.9996 -9.793 6.8307)" style="fill:#FFFFFF;" width="116.989" height="1.35"/>
					<polygon style="fill:#FFFFFF;" points="174.566,347.104 174.533,345.756 279.332,343.055 279.364,344.403      "/>
					
						<rect x="182.145" y="352.387" transform="matrix(0.9989 -0.0477 0.0477 0.9989 -16.5847 11.2178)" style="fill:#FFFFFF;" width="89.159" height="1.35"/>
					
						<rect x="194.615" y="360.373" transform="matrix(0.9981 -0.0614 0.0614 0.9981 -21.7405 14.648)" style="fill:#FFFFFF;" width="65.684" height="1.348"/>
					
						<rect x="180.945" y="331.301" transform="matrix(0.9083 -0.4184 0.4184 0.9083 -128.3669 107.7752)" style="fill:#FFFFFF;" width="1.349" height="30.705"/>
					
						<rect x="193.413" y="332.171" transform="matrix(0.8581 -0.5135 0.5135 0.8581 -152.5063 149.4326)" style="fill:#FFFFFF;" width="1.348" height="36.892"/>
					
						<rect x="207.495" y="330.728" transform="matrix(0.9446 -0.3283 0.3283 0.9446 -103.4628 87.7716)" style="fill:#FFFFFF;" width="1.351" height="39.046"/>
					
						<rect x="220.09" y="330.8" transform="matrix(0.9481 -0.318 0.318 0.9481 -99.9302 88.3973)" style="fill:#FFFFFF;" width="1.351" height="38.901"/>
					
						<rect x="230.66" y="328.12" transform="matrix(0.9836 -0.1804 0.1804 0.9836 -58.8949 47.4449)" style="fill:#FFFFFF;" width="1.35" height="38.641"/>
					
						<rect x="244.603" y="331.809" transform="matrix(1 -0.0068 0.0068 1 -2.354 1.6689)" style="fill:#FFFFFF;" width="1.349" height="33.285"/>
					
						<rect x="254.05" y="328.371" transform="matrix(0.9959 -0.0905 0.0905 0.9959 -30.1396 24.4717)" style="fill:#FFFFFF;" width="1.348" height="32.292"/>
					
						<rect x="262.369" y="331.606" transform="matrix(0.9924 -0.1234 0.1234 0.9924 -40.3764 35.0898)" style="fill:#FFFFFF;" width="1.35" height="23.684"/>
					
						<rect x="273.065" y="331.671" transform="matrix(0.9973 -0.0738 0.0738 0.9973 -24.4242 21.1382)" style="fill:#FFFFFF;" width="1.349" height="18.606"/>
					
						<rect x="280.616" y="328.308" transform="matrix(0.9778 -0.2096 0.2096 0.9778 -63.7724 66.3816)" style="fill:#FFFFFF;" width="1.35" height="11.502"/>
				</g>
			</g>
		</g>
		<g>
			<path style="fill:#C15BD3;" d="M199.288,311.571l-15.291,20.017c0,0,7.644,24.286,42.279,25.636l5.398-6.522l5.397,6.522     c0,0,22.488-5.848,33.056-28.111l-5.394-26.09L199.288,311.571z"/>
			
				<rect x="214.266" y="332.529" transform="matrix(0.0886 -0.9961 0.9961 0.0886 -119.3877 535.9312)" style="fill:#002C54;" width="37.791" height="1.351"/>
			<path style="fill:#002C54;" d="M241.903,321.109c0,0.787-1.055,1.426-2.359,1.426c-1.305,0-2.362-0.638-2.362-1.426     c0-0.79,1.057-1.427,2.362-1.427C240.848,319.681,241.903,320.318,241.903,321.109z"/>
			<path style="fill:#002C54;" d="M241.032,334.549c0,0.787-1.058,1.426-2.361,1.426c-1.303,0-2.361-0.638-2.361-1.426     c0-0.789,1.058-1.426,2.361-1.426C239.974,333.123,241.032,333.76,241.032,334.549z"/>
			<path style="fill:#002C54;" d="M239.544,346.653c0,0.787-1.057,1.426-2.362,1.426c-1.305,0-2.36-0.638-2.36-1.426     c0-0.787,1.056-1.425,2.36-1.425C238.487,345.228,239.544,345.866,239.544,346.653z"/>
		</g>
	</g>
	<g>
		<path style="fill:#FFA33E;" d="M141.493,290.432l-76.688-32.384c0,0,10.569-13.045,8.321-16.192    c-2.249-3.148-13.495,13.605-13.495,13.605s-20.576-37.556-27.773-35.644c-7.198,1.91,21.251,37.33,21.251,37.33    S3.523,233.332,0.148,244.845c-3.372,11.514,51.836,17.362,51.836,17.362s-53.074,5.059-51.274,10.233    c1.799,5.171,50.711-3.373,50.711-3.373s-36.768,17.428-32.834,21.364c3.936,3.936,36.771-18.666,36.771-18.666l76.687,23.387    L141.493,290.432z"/>
		<g>
			<polyline style="fill:#C15BD3;" points="159.144,304.31 59.157,276.733 70.746,256.587 153.864,296.179    "/>
			
				<rect x="66.136" y="269.373" transform="matrix(0.1308 -0.9914 0.9914 0.1308 -202.0304 310.6413)" style="fill:#002C54;" width="20" height="2.322"/>
			<path style="fill:#002C54;" d="M69.461,273.632c0,1.712-0.714,3.101-1.597,3.101c-0.881,0-1.596-1.388-1.596-3.101     c0-1.711,0.715-3.098,1.596-3.098C68.747,270.534,69.461,271.921,69.461,273.632z"/>
		</g>
	</g>
	<g>
		<g>
			<g>
				<path style="fill:#FF4F8A;" d="M268.179,171.069c-50.414,93.299-96.271,141.266-123.15,113.214      c-0.119-20.354,5.218-68.307,54.353-96.983C219.314,175.676,244.111,170.68,268.179,171.069z"/>
				<path style="opacity:0.1;fill:#FFFFFF;" d="M174.829,216.491c31.129,24.745,64.587-11.534,76.32-39.012      c0.354-0.828-0.424-2.529-1.285-1.44c-9.015,11.405-15.386,24.09-26.902,33.441c-12.6,10.232-33.41,15.757-47.708,5.818      C174.629,214.864,174.397,216.148,174.829,216.491L174.829,216.491z"/>
				<path style="opacity:0.1;fill:#FFFFFF;" d="M184.244,201.224c0.987,9.26,8.488,13.032,17.151,12.205      c10.806-1.034,21.28-9.829,28.383-17.343c0.647-0.684,0.504-3.634-0.873-2.868c-6.425,3.559-12.155,8.143-18.576,11.713      c-6.93,3.854-23.777,8.572-25.443-3.859C184.811,200.514,184.192,200.725,184.244,201.224L184.244,201.224z"/>
			</g>
			<g>
				<path style="fill:#FFA33E;" d="M356.707,235.563c-18.149,56.213-131.237,108.189-194.088,72.256      c-12.86,6.031-27.758,9.916-41.141,7.57c-13.495-2.469-6.303-13.939,0.673-20.455c6.085-5.735,15.126-9.459,23.803-9.595      c2.547-0.053,5.062,0.215,7.461,0.822c2.954,0.812,5.587,2.094,8.203,3.536l11.578-62.203c0,0,45.136,36.674,93.926-57.482      C319.884,169.955,369.525,195.866,356.707,235.563z"/>
				<g>
					<g>
						<path style="fill:#002C54;" d="M354.937,256.808c-1.613,2.964-6.428,3.893-9.412,3.925c-3.405,0.039-6.553-1.495-9.859-2.021        c-0.53-0.083-0.528,1.063-0.195,1.27c5.254,3.276,17.388,5.361,20.151-2.41C355.768,257.163,355.298,256.139,354.937,256.808        L354.937,256.808z"/>
						<path style="fill:#002C54;" d="M353.796,246.825c-0.848,3.937-5.335,7.563-8.877,9.012c-3.46,1.418-7.458,0.649-11.049,0.508        c-0.505-0.02-0.441,0.968-0.076,1.128c8.143,3.521,19.546-0.712,20.431-10.479        C354.259,246.647,353.891,246.383,353.796,246.825L353.796,246.825z"/>
						<path style="fill:#002C54;" d="M347.977,243.284c-0.752,2.857-2.324,5.368-4.546,7.305c-2.426,2.119-5.376,2.536-8.223,3.753        c-0.513,0.22-0.402,1.277,0.151,1.355c7.079,1.015,11.94-6.093,13.246-12.031        C348.697,243.242,348.132,242.699,347.977,243.284L347.977,243.284z"/>
						<path style="fill:#FFFFFF;" d="M344.564,267.986l-28.029,3.082l-22.466-13.354l-2.024-25.325        c3.535-2.152,7.596-3.978,12.263-5.333C344.564,215.362,344.564,267.986,344.564,267.986z"/>
						<path style="fill:#002C54;" d="M268.699,276.368c-0.006-25.496,19.914-49.149,45.987-50.16        c21.528-0.835,29.446,24.183,29.508,41.778c0.003,1.002,0.746,1.004,0.741,0c-0.063-18.182-7.499-42.413-28.931-43.46        c-27.504-1.337-48.055,26.304-48.047,51.842C267.957,277.369,268.699,277.369,268.699,276.368L268.699,276.368z"/>
						<path style="fill:#002C54;" d="M316.534,271.055l-48.212,5.305c0,0-0.161-29.686,24.033-44.164        c3.885,0.201,7.799,1.428,11.51,3.86C314.983,243.328,319.071,258.076,316.534,271.055z"/>
					</g>
					<g>
						<path style="fill:#FFA33E;" d="M267.206,259.816l-3.15,19.595c0,0,12.37-13.297,15.518-9.795        c3.149,3.499-8.546,13.738-26.31,15.703"/>
						<path style="fill:#002C54;" d="M253.337,285.99l-0.151-1.343c14.238-1.573,24.426-8.51,26.024-12.701        c0.307-0.806,0.26-1.439-0.139-1.881c-0.219-0.243-0.512-0.358-0.918-0.363c-0.006,0-0.013,0-0.02,0        c-3.381,0-10.946,7.337-13.582,10.17l-1.512,1.627l3.499-21.79l1.333,0.214l-2.807,17.471c2.979-3.004,9.422-9.04,13.072-9.04        c0.011,0,0.018,0,0.029,0c0.79,0.007,1.432,0.277,1.911,0.808c0.524,0.584,1.02,1.626,0.394,3.265        C278.708,277.049,268.298,284.335,253.337,285.99z"/>
					</g>
					<g>
						<path style="fill:#FFFFFF;" d="M260.233,276.942l-28.028,3.08l-21.844-13.615l-2.335-25.255        c3.462-2.07,7.422-3.829,11.952-5.146C260.233,224.314,260.233,276.942,260.233,276.942z"/>
						<path style="fill:#002C54;" d="M184.369,285.324c-0.012-25.495,19.909-49.15,45.981-50.165        c21.526-0.839,29.451,24.179,29.515,41.775c0.001,1.001,0.745,1.001,0.741,0c-0.066-18.185-7.508-42.414-28.94-43.457        c-27.505-1.336-48.051,26.308-48.037,51.847C183.63,286.324,184.369,286.327,184.369,285.324L184.369,285.324z"/>
						<path style="fill:#002C54;" d="M232.204,280.011l-48.212,5.299c0,0-0.165-29.684,24.031-44.162        c3.883,0.202,7.797,1.431,11.507,3.86C230.65,252.281,234.738,267.029,232.204,280.011z"/>
						<path style="fill:#002C54;" d="M172.954,274.573c2.743,7.672,14.848,5.724,20.057,2.453c0.369-0.23,0.468-1.426-0.151-1.332        c-3.343,0.525-6.459,1.79-9.88,2.022c-2.87,0.195-7.867-1.146-9.377-3.942C173.238,273.103,172.814,274.179,172.954,274.573        L172.954,274.573z"/>
						<path style="fill:#002C54;" d="M174.328,263.899c0.89,9.781,12.272,14.113,20.461,10.553c0.385-0.169,0.365-1.145-0.125-1.124        c-3.399,0.132-6.652,0.562-10.023-0.191c-3.958-0.887-9.015-5.313-9.882-9.338        C174.681,263.429,174.299,263.561,174.328,263.899L174.328,263.899z"/>
						<path style="fill:#002C54;" d="M179.961,260.666c1.307,5.927,6.217,13.04,13.271,12.013c0.579-0.083,0.579-1.151,0.089-1.362        c-2.678-1.136-5.347-1.587-7.747-3.37c-2.457-1.825-4.195-4.632-4.967-7.572C180.433,259.715,179.844,260.127,179.961,260.666        L179.961,260.666z"/>
					</g>
					<g>
						<path style="fill:#002C54;" d="M207.611,285.32l20.24,8.034c0,0-11.248,24.096-18.218,22.731        C202.66,314.719,207.611,285.32,207.611,285.32z"/>
						<path style="fill:#FFFFFF;" d="M209.07,287.281l16.979,6.635l-4.947,6.813l-8.546-2.314l9.558,3.935        c0,0-6.745,13.379-12.03,11.92C204.798,312.805,209.07,287.281,209.07,287.281z"/>
					</g>
					<path style="fill:#002C54;" d="M290.593,211.944c0,0,31.933-22.712,47.903,9.445"/>
					<path style="fill:#002C54;" d="M192.877,239.832c0,0,15.856-36.661,50.038-22.04"/>
					<path style="fill:#002C54;" d="M115.495,309.21c0,0,3.984-10.476,16.554-12.507c12.562-2.035,21.1,2.07,18.931,8.422       c-2.185,6.357-24.46,12.245-17.436,0.876l-6.762,1.23l9.368-2.895c0,0-6.757,7.608,2.605,6.862       c9.35-0.761,14.166-8.397,9.046-11.538C142.683,296.51,127.369,294.177,115.495,309.21z"/>
				</g>
			</g>
		</g>
		<g>
			<g>
				<g>
					<path style="fill:#FF4F8A;" d="M161.736,190.132c-1.551,15.798-5.896,31.939-12.063,46.698       c-7.678,3.616-15.88,6.652-23.923,9.526c-9.892,3.59-21.589,8.097-32.612,6.072c-10.795-2.023-14.385-13.275-13.493-23.167       c2.022-17.541,14.395-33.963,26.77-45.649c10.793-10.12,27.875-22.938,43.852-20.469       C162.625,165.168,162.625,180.684,161.736,190.132z"/>
				</g>
				<path style="opacity:0.1;fill:#FFFFFF;" d="M98.483,249.752c-5.179-10.816-3.631-25.066-0.23-36.174      c3.393-11.078,10.291-21.198,18.6-29.169c7.257-6.968,20.77-15.357,30.831-9.073c7.656,4.779,3.851,19.599,2.029,26.574      c-2.813,10.767-7.995,21.135-15.843,29.093c-9.137,9.263-23.494,10.546-26.723-4.554c-2.547-11.926,5.401-23.934,14.908-30.285      c6.069-4.053,17.577-7.671,22.23,0.017c1.461,2.419,2.991-1.155,2.741-2.556c-2.11-11.853-15.323-10.077-23.722-6.072      c-12.882,6.141-20.231,20.183-20.666,33.996c-0.372,11.759,6.412,24.598,19.684,22.536      c14.415-2.243,23.575-19.518,28.298-31.597c3.899-9.967,7.487-23.915,3.917-34.482c-4.789-14.167-20.912-11.158-31.176-4.906      c-13.526,8.244-23.102,23.281-28.017,38.012c-3.763,11.284-6.285,30.033,2.434,39.775      C98.323,251.493,98.664,250.126,98.483,249.752L98.483,249.752z"/>
			</g>
			<g>
				<path style="fill:#008CF7;" d="M153.864,242.589c0,3.864-3.136,6.999-7.002,6.999c-3.865,0-6.998-3.134-6.998-6.999      c0-3.867,3.133-6.999,6.998-6.999C150.727,235.59,153.864,238.722,153.864,242.589z"/>
				<path style="fill:#008CF7;" d="M160.863,234.999c0,3.865-3.133,6.999-6.999,6.999c-3.866,0-7.002-3.134-7.002-6.999      c0-3.866,3.136-6.999,7.002-6.999C157.729,227.999,160.863,231.132,160.863,234.999z"/>
			</g>
		</g>
		<g>
			<g>
				<g>
					<path style="fill:#FF4F8A;" d="M306.25,164.083c-15.641,2.721-32.354,2.841-48.225,0.837       c-5.535-6.432-10.651-13.53-15.566-20.515c-6.097-8.573-13.564-18.644-14.555-29.807c-0.93-10.945,8.956-17.408,18.727-19.189       c17.445-2.73,36.573,4.812,51.137,13.62c12.632,7.701,29.546,20.744,31.43,36.8       C330.546,158.279,315.591,162.419,306.25,164.083z"/>
				</g>
				<path style="opacity:0.1;fill:#FFFFFF;" d="M238.443,100.286c-4.675,15.185,6.606,35.373,16.667,46.001      c11.887,12.551,32.973,16.96,47.325,5.984c0.403-0.308,0.369-1.803-0.337-1.661c-14.727,2.946-27.854,3.675-40.894-5.182      c-12.316-8.366-24.28-28.713-20.8-43.951C240.703,100.159,239.004,98.467,238.443,100.286L238.443,100.286z"/>
				<path style="opacity:0.1;fill:#FFFFFF;" d="M309.384,142.837c7.045-26.057-29.37-45.27-50.173-32.601      c-8.874,5.402-6.102,16.45,0.364,22.324c9.039,8.211,28.436,10.945,38.2,3.07c0.814-0.656,0.622-2.797-0.586-2.884      c-8.788-0.626-16.833,1.537-25.666-0.73c-4.179-1.074-8.096-3.133-11.319-5.982c-6.32-5.586-0.073-10.597,5.335-12.674      c16.729-6.428,47.538,8.282,42.752,28.814C308.118,142.914,309.111,143.852,309.384,142.837L309.384,142.837z"/>
			</g>
			<g>
				<path style="fill:#008CF7;" d="M258.112,171.453c-2.698,2.77-7.129,2.826-9.898,0.13c-2.769-2.699-2.827-7.132-0.129-9.9      c2.698-2.769,7.129-2.829,9.899-0.129C260.752,164.255,260.811,168.685,258.112,171.453z"/>
				<path style="fill:#008CF7;" d="M268.422,170.901c-2.698,2.769-7.131,2.827-9.898,0.129c-2.77-2.697-2.826-7.129-0.128-9.898      c2.696-2.769,7.13-2.827,9.898-0.129C271.062,163.701,271.121,168.133,268.422,170.901z"/>
			</g>
		</g>
	</g>
</g>















</svg>
