<svg id="Layer_1" enable-background="new 0 0 3000 3000" height="512" viewBox="0 0 3000 3000" width="512" xmlns="http://www.w3.org/2000/svg"><g><g><g><path d="m1511.8 536.46c-38.17 3.82-494.2 58.35-752.97 519.39-226.01 402.67-167.24 876.12-7.69 1170.38 279.32 515.17 986.92 701.38 1428.46 302.62 284.23-256.7 380.86-685.97 351.42-1013.2-52.11-579.06-516.19-1029.55-1019.22-979.19z" fill="#139af4"/></g></g><g><g><path d="m1364.35 499.03c-38.17 3.82-494.2 58.35-752.97 519.39-226.01 402.67-167.24 876.12-7.69 1170.38 279.32 515.17 986.92 701.38 1428.46 302.62 284.23-256.7 380.86-685.97 351.42-1013.2-52.12-579.06-516.19-1029.55-1019.22-979.19z" fill="#0bbfe8"/></g></g><g><g><path d="m1375.82 683.97c-31.72 3.18-410.75 48.5-625.82 431.68-187.85 334.67-139 728.17-6.4 972.74 232.15 428.18 820.27 582.94 1187.24 251.51 236.23-213.35 316.55-570.13 292.08-842.1-43.31-481.26-429.02-855.68-847.1-813.83z" fill="#a1e5fd"/></g></g><g><g><path d="m1388.69 913.67c-23.73 2.38-307.31 36.28-468.22 322.97-140.54 250.39-103.99 544.8-4.78 727.78 173.69 320.35 613.7 436.14 888.26 188.18 176.74-159.62 236.83-426.56 218.52-630.04-32.4-360.08-320.98-640.2-633.78-608.89z" fill="#0bbfe8"/></g></g><g><g><path d="m1398.87 1089c-17.64 1.77-228.45 26.97-348.07 240.09-104.48 186.14-77.31 404.99-3.56 541.02 129.12 238.14 456.21 324.22 660.32 139.89 131.39-118.66 176.06-317.09 162.45-468.36-24.09-267.67-238.61-475.91-471.14-452.64z" fill="#a1e5fd"/></g></g><g><g><path d="m1417.13 1351.27c-8.92.89-115.51 13.64-176 121.4-52.83 94.12-39.09 204.78-1.8 273.56 65.29 120.41 230.68 163.94 333.88 70.73 66.44-60 89.02-160.34 82.14-236.82-12.17-135.34-120.64-240.64-238.22-228.87z" fill="#fc1234"/></g></g><g><g><path d="m1449.9 2707.07c-77.88 0-159.89-7.94-245.96-23.85-6.82-1.13-123.52-21.52-266.85-113.23-84.74-54.22-161.09-122.26-226.92-202.23-82.17-99.81-148.07-218.57-195.88-352.97-2.53-7.11 1.18-14.93 8.3-17.46 7.11-2.53 14.93 1.18 17.46 8.3 46.74 131.4 111.08 247.4 191.23 344.76 64.02 77.76 138.22 143.9 220.55 196.58 139.88 89.5 255.52 109.11 256.67 109.3.1.01.19.03.29.05 84.22 15.58 164.81 23.36 241.23 23.36 86.36 0 167.41-9.94 242.54-29.8 126.6-33.48 238.98-95.88 334-185.45 83.81-79.01 155.62-180.49 213.44-301.63 49.61-103.94 89.41-223.25 118.3-354.62 23.89-108.62 30.27-220.58 18.99-332.76-9.04-89.82-29.36-179.99-60.4-268.01-52.82-149.77-118.96-242.05-119.62-242.96-4.43-6.11-3.06-14.66 3.06-19.08 6.11-4.42 14.66-3.06 19.08 3.06 2.8 3.87 69.13 96.43 123.25 249.9 31.77 90.07 52.56 182.38 61.82 274.36 11.58 115.06 5.02 229.92-19.49 341.37-29.33 133.4-69.82 254.7-120.32 360.52-59.28 124.2-133.08 228.41-219.36 309.75-157.26 148.22-356.86 222.74-595.41 222.74z"/></g></g><g><g><path d="m1991.97 317.18-86.07-172.7-86.81 270.5c-18.39 57.3 18.41 118.19 71.33 118.01l54.58-.18" fill="#ff6c17"/></g></g><g><g><path d="m2017.88 325.09 181.6-65.22-124.38 255.43c-26.35 54.11-95.04 72.64-133.14 35.91l-39.3-37.88" fill="#ff6c17"/></g></g><g><g><path d="m1456.4 1894.31c-27.39 0-56.68-6.06-87.28-18.3-44.62-17.86-90.35-48.9-125.47-85.18-35.2-36.36-54.44-72.17-52.78-98.26.48-7.53 6.98-13.27 14.51-12.77 7.53.48 13.25 6.97 12.77 14.51-2.25 35.37 69.05 119.48 161.13 156.33 95.92 38.39 152.88 2.54 183.77-34.28 28.19-33.61 49.11-70.27 62.17-108.94 10.45-30.94 15.95-63.29 16.33-96.15.66-56.3-14.11-95.12-14.26-95.51-2.72-7.03.76-14.95 7.78-17.68 7.02-2.74 14.93.72 17.68 7.75.68 1.74 16.63 43.23 16.14 104.48-.29 35.89-6.18 71.23-17.51 105.06-14.14 42.21-36.81 82.09-67.39 118.55-33.57 40.01-77.37 60.39-127.59 60.39z"/></g></g><g><g><g><path d="m1431.87 1638.77c-20.8-8.95-30.41-33.07-21.46-53.87l561.48-1305.02c8.95-20.8 33.07-30.41 53.87-21.46 20.8 8.95 30.41 33.07 21.46 53.87l-561.48 1305.02c-8.95 20.8-33.07 30.41-53.87 21.46z" fill="#ffa169"/></g></g></g><g><g><path d="" style="fill:none;stroke:#000;stroke-width:22;stroke-linecap:round;stroke-linejoin:round;stroke-miterlimit:10"/></g></g><g><g><path d="m1407.02 1599.01c-1.81 0-3.65-.36-5.42-1.13-6.93-3-10.11-11.04-7.11-17.97l539.54-1246.6c3-6.93 11.04-10.11 17.97-7.11s10.11 11.04 7.11 17.97l-539.54 1246.6c-2.23 5.16-7.27 8.24-12.55 8.24z"/></g></g></g></svg>