<?xml version="1.0" encoding="iso-8859-1"?>
<!-- Generator: Adobe Illustrator 26.5.3, SVG Export Plug-In . SVG Version: 6.00 Build 0)  -->
<svg xmlns="http://www.w3.org/2000/svg" xmlns:xlink="http://www.w3.org/1999/xlink" version="1.1" id="Capa_1" x="0px" y="0px" viewBox="0 0 512 512" style="enable-background:new 0 0 512 512;" xml:space="preserve">
<g>
	<g>
		<g>
			<path style="fill:#FFBE08;" d="M56.089,383.408c0,0-9.054,22.635,10.099,18.805c19.153-3.831,12.885-42.485-18.108-37.261     c0,0,28.555-22.559,48.753-0.484c20.198,22.075-7.661,34.263-7.661,34.263s27.511,6.268,26.118-18.108     c0,0,35.172,46.315-25.421,52.235C29.275,438.778,24.747,414.75,56.089,383.408z"/>
			<path style="fill:#FF7B0F;" d="M69.62,431c-15.536-0.555-25.017-4.376-28.18-11.357c-4.328-9.556,4.932-21.074,5.33-21.559     l2.159,1.76c-0.086,0.106-8.57,10.675-4.948,18.656c2.693,5.934,11.353,9.202,25.74,9.717L69.62,431z"/>
			<path style="fill:#FF7B0F;" d="M61.367,421.261c-8.09,0-13.162-1.816-15.084-5.404c-2.417-4.514,1.194-9.804,1.349-10.027     l2.289,1.586c-0.027,0.041-2.797,4.128-1.178,7.133c1.459,2.71,6.172,4.091,13.703,3.915l0.055,2.786     C62.118,421.257,61.738,421.261,61.367,421.261z"/>
			<path style="fill:#FF7B0F;" d="M90.41,395.232l-2.013-1.926c6.17-6.445,8.634-12.298,7.321-17.397     c-2.239-8.7-14.794-12.721-14.921-12.762l0.828-2.659c0.577,0.179,14.154,4.515,16.789,14.718     C99.988,381.302,97.295,388.04,90.41,395.232z"/>
			<path style="fill:#FF7B0F;" d="M88.695,385.823l-2.296-1.578c2.315-3.368,3.168-6.426,2.534-9.09     c-0.812-3.417-3.877-5.131-3.908-5.149l1.322-2.451c0.17,0.091,4.163,2.28,5.286,6.912     C92.477,377.94,91.488,381.761,88.695,385.823z"/>
			<path style="fill:#FF7B0F;" d="M106.518,426.904l-1.263-2.484c8.41-4.279,13.374-9.483,14.755-15.462     c1.741-7.54-2.884-13.788-2.931-13.849l2.225-1.678c0.223,0.296,5.451,7.362,3.421,16.155     C121.15,416.405,115.697,422.231,106.518,426.904z"/>
		</g>
		<g>
			<g>
				<g>
					<path style="fill:#FF99C6;" d="M351.045,122.704l27.609,73.074l9.885,22.721l21.127,3.443l23.067-26.001l42.285-15.43       C475.017,180.512,453.9,83.005,351.045,122.704z"/>
					<polygon style="fill:none;" points="393.382,210.6 395.061,209.701 393.254,210.365      "/>
					<path style="fill:#FF1D1D;" d="M400.885,207.562l-5.823,2.139l-1.68,0.899l-0.128-0.235l-0.644,0.235l-10.232-18.817       l-2.953,3.995l-11.59,15.601l17.05,9.416c-7.857,30.45-34.641,21.995-48.292,14.612l-6.542,4.406l9.786,9.566       c11.088,8.72,27.83,18.024,42.985,10.753c12.871-6.191,17.416-20.411,18.787-32.94c31.11,7.314,32.212-18.984,31.122-31.251       L400.885,207.562z"/>
					<g>
						<path style="fill:#FCE4CC;" d="M423.115,189.911l47.737-23.252l-1.213-2.508l-48.889,23.81        c-1.549-1.214-3.103-2.315-4.654-3.305l41.329-42.233l-1.988-1.951l-41.792,42.705c-1.681-0.957-3.354-1.794-5.011-2.524        l27.203-57.496l-2.519-1.191l-27.267,57.63c-2.242-0.851-4.442-1.511-6.58-2.018l6.514-64.103l-2.772-0.28l-6.484,63.805        c-4.104-0.749-7.917-0.95-11.259-0.859l-10.327-60.779l-2.748,0.46l10.274,60.466c-6.404,0.502-10.748,1.86-10.861,1.903        l0.966,2.612c0.298-0.106,30.178-10.536,54.869,17.534l2.092-1.839C427.56,194.024,425.346,191.843,423.115,189.911z"/>
					</g>
				</g>
				<g>
					<path style="fill:#1D212B;" d="M365.944,210.55l2.239,1.66l13.674-18.446l10.795,19.839c-2.272-0.006-5.957-0.429-8.624-2.772       c-2.339-2.054-3.476-5.256-3.383-9.519l-2.786-0.06c-0.111,5.123,1.345,9.05,4.33,11.671c3.357,2.949,7.803,3.469,10.517,3.469       c1.385,0,2.319-0.136,2.427-0.152l1.963-0.298L382.219,188.6L365.944,210.55z"/>
					<polygon style="fill:#1D212B;" points="402.268,211.901 429.843,209.984 429.65,207.203 402.274,209.107 402.278,207.565        399.492,207.56 399.45,226.352 402.236,226.358 402.254,218.03 426.739,221.983 427.182,219.232 402.261,215.209      "/>
				</g>
			</g>
			<g>
				<path style="fill:#FF1D1D;" d="M356.227,423.62l0.137-0.154C356.245,423.549,356.177,423.611,356.227,423.62z"/>
				<path style="fill:#FF1D1D;" d="M445.735,435.674c0,0-0.125-40.933-31.305-11.316l1.798-43.597l-49.407,31.026l-10.458,11.681      c2.87-2.001,52.633-24.351,52.633-24.351l-6.69,30.555c0,0-14.346,1.706-12.21,12.491c0,0,25.312-16.323,41.112,7.699      c0,0,4.83-20.313-16.541-18.457C414.667,431.405,430.605,415.138,445.735,435.674z"/>
			</g>
			<path style="fill:#FF99C6;" d="M389.128,401.99c-2.201-57.055-99.149-18.358-111.436-60.147     c-12.313-41.788,57.807-33.181,61.29-90.765c0.029-0.585,0.056-1.143,0.084-1.699c0.194-4.931-0.056-9.444-0.752-13.512     c-0.112-0.669-0.223-1.31-0.363-1.951c-0.111-0.612-0.25-1.253-0.418-1.866c-0.139-0.612-0.306-1.226-0.473-1.811     c-0.167-0.614-0.362-1.199-0.529-1.755c-0.194-0.585-0.39-1.142-0.613-1.7c-0.194-0.641-0.473-1.281-0.752-1.894     c-0.668-1.533-1.393-2.953-2.201-4.319c-0.556-0.974-1.17-1.894-1.81-2.786c-0.306-0.445-0.641-0.891-0.975-1.309     c-0.333-0.446-0.668-0.864-1.03-1.282c-0.363-0.418-0.725-0.808-1.087-1.198c-0.78-0.891-1.643-1.728-2.563-2.507     c-0.306-0.306-0.613-0.585-0.947-0.835c-2.87-2.452-6.13-4.513-9.696-6.268c-0.501-0.252-1.003-0.502-1.532-0.725     c-0.529-0.251-1.031-0.473-1.56-0.697c-0.752-0.335-1.532-0.641-2.313-0.947c-0.864-0.307-1.726-0.641-2.618-0.948     c-0.92-0.306-1.866-0.612-2.842-0.891c-0.195-0.056-0.389-0.139-0.585-0.167c-0.585-0.167-1.17-0.335-1.755-0.501     c-1.17-0.335-2.368-0.614-3.594-0.892c-1.226-0.306-2.451-0.556-3.677-0.808c-0.029,0-0.056,0-0.084-0.027     c-2.005-0.39-4.067-0.725-6.128-1.031c-3.065-0.473-6.185-0.835-9.333-1.143c-1.337-0.139-2.703-0.25-4.04-0.362     c-1.058-0.083-2.117-0.167-3.203-0.251c-7.744-0.529-15.657-0.781-23.457-0.975c-1.282-0.028-2.536-0.056-3.817-0.111     c-2.201-0.056-4.402-0.112-6.574-0.167c-3.285-0.095-6.278-0.386-9.045-0.816l-17.167-6.175     c-17.53-11.694-12.317-33.878-12.317-33.878l-32.176-27.859l-32.595,42.554l26.466,46.657l116.488,23.013l8.877,31.794     l-81.891,56.874l8.9,50.999l95.975,27.394l2.668,36.032l-77.023,56.265c12.195,0,41.331-3.263,71.514-14.459     c2.223-0.824,4.458-1.672,6.63-2.536c1.087-0.445,2.201-0.891,3.288-1.365c1.087-0.446,2.172-0.919,3.259-1.393     c1.058-0.473,2.145-0.947,3.204-1.449c10.559-4.848,20.282-10.364,28.807-16.381c0.863-0.585,1.699-1.17,2.507-1.811     c5.934-4.319,11.255-8.915,15.851-13.679c0.558-0.585,1.087-1.143,1.616-1.728c3.259-3.538,6.101-7.132,8.496-10.809     c0.362-0.529,0.697-1.058,1.003-1.589c0.39-0.641,0.781-1.253,1.142-1.922c0.502-0.864,1.003-1.755,1.449-2.646     c0.306-0.585,0.585-1.199,0.864-1.811c0.335-0.669,0.641-1.366,0.92-2.089c0.223-0.446,0.39-0.92,0.556-1.393     c0.196-0.446,0.363-0.864,0.502-1.283c0.056-0.195,0.111-0.362,0.167-0.529c0.223-0.585,0.391-1.141,0.558-1.726     c0.222-0.669,0.418-1.366,0.585-2.034c0.333-1.31,0.612-2.62,0.808-3.901c0.055-0.362,0.11-0.723,0.139-1.058     c0.083-0.446,0.139-0.891,0.167-1.309C389.128,405.778,389.212,403.885,389.128,401.99z"/>
			<path style="fill:#009362;" d="M131.308,207.562c0,0-39.699,1.728-42.833-1.755c-3.134-3.482,6.617-7.188,6.617-7.188     s-19.89-5.637-18.651-10.02c1.239-4.383,8.9-5.427,8.9-5.427s-15.322-9.96-12.536-15.601c2.786-5.641,21.242-4.161,21.242-4.161     L131.308,207.562z"/>
			<path style="fill:#009362;" d="M160.908,466.637c0,0,16.367-16.139,21.242-16.775c4.875-0.637,7.313,8.388,7.313,8.388     s10.208-7.468,15.203-8.42c4.995-0.952,6.04,8.404,6.04,8.404s8.01-13.187,13.581-12.839     c5.572,0.348,11.832,10.618,11.832,10.618s7.626-14.449,11.826-14.449c4.201,0,24.312,22.984,24.312,22.984l-78.783,15.322     L160.908,466.637z"/>
			<path style="fill:#009362;" d="M185.11,386.194c0,0-27.647,7.661-29.755,0c-2.108-7.661,6.249-11.144,6.249-11.144     s-15.671-8.706-13.93-13.233c1.741-4.527,11.492-4.527,11.492-4.527s-8.706-18.456-6.617-20.894c2.089-2.438,11.144,0,11.144,0     s-4.875-19.849-0.348-21.939c4.527-2.089,21.765,16.019,21.765,16.019V386.194z"/>
			<path style="fill:#FF1D1D;" d="M365.883,481.739l29.916-31.764l-57.818-12.603c2.362-6.421,3.327-12.914,2.945-19.249     l24.745,4.958l0.547-2.731l-25.555-5.121c-0.067-0.526-0.142-1.052-0.228-1.575l47.333,1.709l0.101-2.783l-47.995-1.733     c-0.2-0.867-0.417-1.731-0.67-2.588c-10.966-37.196-83.606-18.953-108.111-39.547l45.728-10.06l-0.598-2.721l-47.527,10.456     c-1.339-1.496-2.461-3.169-3.348-5.033l52.799-18.193l-0.909-2.634l-52.926,18.237c-0.62-1.893-1.032-3.955-1.194-6.223     c-0.055-0.776-0.073-1.54-0.068-2.297l34.923-16.77l-1.205-2.511l-33.505,16.09c3.104-25.76,40.958-40.669,62.156-59.693     l24.826,10.86l1.116-2.552l-23.728-10.379c1.32-1.281,2.568-2.579,3.71-3.905l28.633,9.461l0.873-2.644l-27.644-9.134     c7.076-9.343,9.189-19.978,1.427-33.335c-3.55-6.108-8.004-10.955-13.117-14.826l39.577-22.126l-1.36-2.432l-40.738,22.774     c-1.684-1.129-3.427-2.168-5.228-3.119l25.299-26.419l-2.013-1.926l-25.892,27.039c-37.139-17.519-94.727-2.873-110.25-29.196     c-11.561-19.584-2.869-49.449,6.129-70.482l-26.327-22.76l-40.619,15.657c-48.307,68.337,13.233,101.601,109.096,115.53     c10.057,1.449,18.303,3.232,24.961,5.266l-37.359,24.544l21.758,21.591l-32.232-2.09c5.822,10.53,11.338,17.523,16.492,21.814     c-1.866,0.863-3.677,1.699-5.46,2.451c-39.699,17.189-58.03,93.327,16.715,91.934c74.773-1.393,132.58,36.913,34.824,58.754     C152.439,479.243,78.389,420.991,76.44,419.43c36.467,60.035,98.899,80.039,158.461,77.168     c53.54-6.933,85.73-27.565,99.009-50.576c16.373,4.658,44.4,13.085,44.4,13.085l-25.07,18.702c0,0-11.956-8.104-17.408,1.443     c0,0,29.819,4.246,26.022,32.747c0,0,16.955-12.185-0.408-24.78c0,0,22.695-1.853,20.677,23.575     C382.124,510.795,408.843,479.783,365.883,481.739z M210.719,265.37l29.893-24.46c24.488,9.639,20.142,23.68,5.572,36.884     L210.719,265.37z"/>
			<g>
				<path style="fill:#1D212B;" d="M213.565,264.883l29.168-22.876l-1.719-2.193l-33.167,26.016l36.532,12.818      c-2.231,5.785-12.051,28.95-26.641,30.227c-8.24,0.711-16.757-5.616-25.426-18.846l18.502,8.627l1.178-2.525l-22.376-10.434      c-0.688-1.159-1.377-2.358-2.067-3.604l-2.438,1.349c10.395,18.772,20.94,28.274,31.37,28.272c0.499,0,1-0.022,1.499-0.065      c18.38-1.608,29.07-32.096,29.516-33.394l0.45-1.309L213.565,264.883z"/>
				<path style="fill:#1D212B;" d="M213.72,298.455c1.144,3.711,4.143,5.039,4.27,5.094l1.102-2.56      c-0.019-0.008-1.952-0.899-2.71-3.356c-0.921-2.99,0.234-7.155,3.341-12.043l-2.351-1.493c-1.231,1.936-2.163,3.765-2.839,5.499      l-20.066-7.648l-0.993,2.603l20.215,7.705C213.154,294.536,213.152,296.611,213.72,298.455z"/>
			</g>
			<path style="fill:#FF99C6;" d="M182.342,340.412c-2.744,0-6.063-2.925-7.157-3.968l1.921-2.017     c2.279,2.165,4.828,3.509,5.417,3.173c0.008-0.005,0.86-0.703-0.079-5.159l-0.699-3.325l2.833,1.877     c1.189,0.788,4.063,2.152,5.35,1.341c0.932-0.582,1.243-2.584,0.854-5.492l-0.563-4.211l2.948,3.061     c1.789,1.858,4.183,3.365,4.796,3.058c0.01-0.004,0.883-0.642,0.252-4.988l2.756-0.4c0.41,2.813,0.669,6.691-1.783,7.891     c-1.7,0.832-3.802-0.176-5.473-1.386c-0.131,2.356-0.898,3.949-2.314,4.832c-1.785,1.114-4.058,0.635-5.787-0.049     c0.205,2.227-0.049,4.443-1.736,5.384C183.404,340.299,182.885,340.412,182.342,340.412z"/>
			<path style="fill:#FF99C6;" d="M195.786,348.144c-2.744,0-6.063-2.925-7.157-3.968l1.921-2.017     c2.278,2.164,4.836,3.499,5.417,3.173c0.008-0.005,0.86-0.703-0.079-5.159l-0.699-3.325l2.833,1.877     c1.189,0.789,4.069,2.148,5.35,1.341c0.932-0.582,1.243-2.585,0.854-5.492l-0.563-4.211l2.948,3.061     c1.789,1.858,4.173,3.367,4.796,3.058c0.01-0.004,0.883-0.642,0.252-4.988l2.756-0.4c0.409,2.813,0.669,6.691-1.783,7.891     c-1.699,0.831-3.802-0.177-5.473-1.386c-0.13,2.356-0.898,3.949-2.314,4.832c-1.783,1.113-4.055,0.634-5.787-0.049     c0.205,2.227-0.049,4.443-1.736,5.384C196.848,348.031,196.329,348.144,195.786,348.144z"/>
			<path style="fill:#FF99C6;" d="M216.283,482.446c-3.112,0-5.638-5.02-6.359-6.607l2.537-1.151     c1.301,2.858,3.142,5.01,3.835,4.971c0.011-0.001,1.06-0.33,1.859-4.813l0.596-3.344l1.925,2.802     c0.807,1.174,2.983,3.519,4.459,3.247c1.081-0.192,2.121-1.932,2.849-4.772l1.056-4.116l1.586,3.942     c0.962,2.391,2.583,4.655,3.303,4.632c0.01-0.001,1.058-0.264,2.101-4.531l2.707,0.661c-0.675,2.761-1.887,6.456-4.611,6.649     c-1.891,0.109-3.459-1.587-4.553-3.334c-1.004,2.136-2.311,3.324-3.956,3.613c-2.057,0.378-3.998-0.926-5.347-2.213     c-0.643,2.141-1.709,4.101-3.625,4.341C216.521,482.438,216.401,482.446,216.283,482.446z"/>
		</g>
	</g>
	<g>
		<g>
			<path style="fill:#009362;" d="M201.303,50.146l-17.76,7.487c0,0,9.751-20.198-12.362-21.591     c-22.113-1.393-54.023,8.54-39.699-28.033l6.916,16.715C138.398,24.725,203.567-3.657,201.303,50.146z"/>
			
				<rect x="171.882" y="26.465" transform="matrix(0.5915 -0.8063 0.8063 0.5915 51.2739 156.9293)" style="fill:#1D212B;" width="17.278" height="2.787"/>
			
				<rect x="150.97" y="25.209" transform="matrix(0.1182 -0.993 0.993 0.1182 113.5153 180.9915)" style="fill:#1D212B;" width="15.384" height="2.747"/>
			
				<rect x="157.091" y="24.918" transform="matrix(0.1982 -0.9802 0.9802 0.1982 106.7896 183.1243)" style="fill:#1D212B;" width="16.461" height="2.747"/>
		</g>
		<g>
			<path style="fill:#009362;" d="M202.348,14.452L196.776,0c-22.984,31.69,29.426,21.417,33.776,30.993     c4.35,9.576-5.569,19.327-5.569,19.327l10.795,2.263C289.755,0.522,202.348,14.452,202.348,14.452z"/>
			
				<rect x="237.868" y="32.169" transform="matrix(0.1541 -0.9881 0.9881 0.1541 163.6425 269.5781)" style="fill:#1D212B;" width="2.786" height="14.098"/>
			
				<rect x="232.275" y="32.821" transform="matrix(0.9977 -0.0684 0.0684 0.9977 -1.7753 16.5749)" style="fill:#1D212B;" width="17.802" height="2.787"/>
			<rect x="213.811" y="13.001" style="fill:#1D212B;" width="2.746" height="12.53"/>
			
				<rect x="216.892" y="17.893" transform="matrix(0.2032 -0.9791 0.9791 0.2032 159.6904 234.7582)" style="fill:#1D212B;" width="14.374" height="2.747"/>
		</g>
		<path style="fill:#FFBE08;" d="M395.178,106.188c0,0,9.311-28.908-21.176-34.981l-30.79,32.496l34.692-26.482L395.178,106.188z"/>
		<path style="fill:#FFBE08;" d="M319.007,126.874l19.501,4.41l0,0c0,0,28.18,27.164,19.591,33.665    c-8.589,6.501-47.45-4.875-47.45-4.875s-10.102,27.409-19.734,28.555c-16.298,1.94-42.02-19.735-42.02-19.735    s1.393,16.02-11.84,17.877c-13.233,1.857-34.591-27.395-34.591-27.395s-15.09,38.77-26.466,35.984    c-11.376-2.786-11.376-38.306-11.376-38.306s-23.911,33.665-33.198,22.056c-9.287-11.609,6.973-37.842,6.973-37.842    s-30.886,22.52-37.154,10.68c-6.268-11.84,23.216-32.038,23.216-32.038s-49.451,20.196-52.004,4.41    c-2.553-15.786,45.967-33.895,45.967-33.895S61.778,92.28,65.26,80.209c3.482-12.071,53.163-8.125,53.163-8.125    s-23.911-13.464-19.269-24.84c4.643-11.376,61.057-10.446,80.791,15.555c19.734,26.001,72.201,78.236,72.201,78.236    L319.007,126.874z"/>
		<path style="fill:#FF1D1D;" d="M356.394,103.426c0,0-6.268,3.203-16.409,7.55l-1.476,20.309    c-65.942,58.504-92.854,18.805-92.854,18.805c-33.681,24.376-42.735-6.965-42.735-6.965    c-41.315,20.198-33.877-20.671-33.877-20.671c-35.52,18.805-6.268-29.252-6.268-29.252c-55.495,21.368-4.179-36.663,34.824-46.19    c39.002-9.528,58.95,15.099,58.95,15.099c-32.261,67.084,55.718,39.002,55.718,39.002c-0.446-0.696-17.858-16.492-9.751-23.68    c8.135-7.215,32.038,16.938,32.038,16.938s-6.268-29.475,6.965-29.475S356.394,103.426,356.394,103.426z"/>
		<path style="fill:#1D212B;" d="M212.694,97.55c-2.038,0-3.749-0.647-5.105-1.936c-4.378-4.157-3.023-13.585-2.963-13.985    l2.756,0.412c-0.346,2.326-0.635,8.936,2.128,11.556c1.154,1.092,2.76,1.413,4.923,0.977c2.235-0.453,3.61-1.373,4.205-2.809    c1.335-3.231-1.46-8.585-2.648-10.376l2.318-1.544c0.208,0.313,5.078,7.715,2.907,12.978c-0.96,2.33-3.055,3.838-6.226,4.482    C214.183,97.468,213.418,97.55,212.694,97.55z"/>
		<path style="fill:#1D212B;" d="M237.16,93.774c-2.038,0-3.749-0.648-5.105-1.936c-4.377-4.157-3.022-13.585-2.962-13.985    l2.756,0.412c-0.345,2.326-0.635,8.936,2.128,11.556c1.154,1.092,2.756,1.413,4.923,0.977c2.235-0.453,3.61-1.373,4.205-2.809    c1.334-3.231-1.46-8.585-2.65-10.376l2.319-1.544c0.208,0.313,5.078,7.715,2.907,12.979c-0.961,2.33-3.055,3.837-6.226,4.482    C238.648,93.692,237.884,93.774,237.16,93.774z"/>
		<path style="fill:#1D212B;" d="M321.82,88.812c3.95,4.568,5.724,9.503,3.964,11.024c-1.76,1.522-6.387-0.947-10.338-5.513    c-3.949-4.566-5.724-9.503-3.963-11.026C313.242,81.776,317.871,84.244,321.82,88.812z"/>
		<path style="fill:#1D212B;" d="M347.424,82.732c0.167,6.037-1.582,10.98-3.908,11.044c-2.326,0.064-4.345-4.774-4.515-10.812    c-0.167-6.034,1.582-10.98,3.909-11.046C345.235,71.855,347.256,76.696,347.424,82.732z"/>
		<path style="fill:#FFC18A;" d="M195.906,115.092l-1.915,14.974l6.616-5.572v12.537l9.577-6.442l2.234,7.835l8.214-7.487    C220.63,130.937,207.746,128.325,195.906,115.092z"/>
		<path style="fill:#1D212B;" d="M246.212,135.876c-12.685,0-24.706-1.989-34.934-6.97c-14.65-7.138-24.088-19.818-28.078-37.71    l-6.15,4.477l-1.641-2.253l9.663-7.034l0.418,2.148c3.525,18.112,12.611,30.853,27.006,37.867    c48.433,23.604,142.31-23.734,143.255-24.215l1.265,2.481C353.921,106.247,295.16,135.876,246.212,135.876z"/>
		<path style="fill:#FFBE08;" d="M200.66,78.426l66.339-10.099l-9.402-2.089l16.367-9.054c0,0-27.163-14.087-42.311,14.286    c0,0-30.645-22.469-46.141-2.794l21.591,5.049L200.66,78.426z"/>
		<path style="fill:#FFBE08;" d="M311.924,113.2l-44.588,4.005c-14.139,27.685,14.313,38.306,14.313,38.306l-12.014-31.515    L311.924,113.2z"/>
	</g>
</g>
<g>
</g>
<g>
</g>
<g>
</g>
<g>
</g>
<g>
</g>
<g>
</g>
<g>
</g>
<g>
</g>
<g>
</g>
<g>
</g>
<g>
</g>
<g>
</g>
<g>
</g>
<g>
</g>
<g>
</g>
</svg>
